<svg xmlns="http://www.w3.org/2000/svg" xmlns:xlink="http://www.w3.org/1999/xlink" xmlns:lucid="lucid" width="2039.17" height="1575.72"><g transform="translate(0 0)" lucid:page-tab-id="m-5o7ONTd-nK"><path d="M342.57 789.03c0-4.42 3.58-8 8-8h14c4.42 0 8-3.58 8-8v-14c0-4.42 3.58-8 8-8h44c4.42 0 8 3.58 8 8v14c0 4.42 3.58 8 8 8h14c4.42 0 8 3.58 8 8v44c0 4.42-3.58 8-8 8h-14c-4.42 0-8 3.58-8 8v14c0 4.42-3.58 8-8 8h-44c-4.42 0-8-3.58-8-8v-14c0-4.42-3.58-8-8-8h-14c-4.42 0-8-3.58-8-8z" stroke="#000" stroke-width="4" fill="#ffc374"/><use xlink:href="#a" transform="matrix(1,0,0,1,342.56870215485947,751.0317565771991) translate(37.97197698185385 63.126342339150206)"/><use xlink:href="#b" transform="matrix(1,0,0,1,342.56870215485947,751.0317565771991) translate(72.01528528262517 63.126342339150206)"/><path d="M750.3 99.94c0-4.42 3.6-8 8-8h520.8c4.4 0 8 3.58 8 8v24c0 4.42-3.6 8-8 8H758.3c-4.4 0-8-3.58-8-8z" stroke="#000" stroke-opacity="0" stroke-width="2" fill="#fff" fill-opacity="0"/><use xlink:href="#c" transform="matrix(1,0,0,1,755.3110571329606,96.94248230718428) translate(35.79629629629625 23.270833333333336)"/><use xlink:href="#d" transform="matrix(1,0,0,1,755.3110571329606,96.94248230718428) translate(125.87037037037034 23.270833333333336)"/><use xlink:href="#e" transform="matrix(1,0,0,1,755.3110571329606,96.94248230718428) translate(250.09259259259255 23.270833333333336)"/><use xlink:href="#f" transform="matrix(1,0,0,1,755.3110571329606,96.94248230718428) translate(387.5740740740741 23.270833333333336)"/><path d="M757.83 130.64h521.75M757.85 130.64h-4.02M1279.55 130.64h4.03" stroke="#b2b2b2" stroke-width="2" fill="none"/><path d="M749.86 139.94c0-4.42 3.58-8 8-8h521.38c4.42 0 8 3.58 8 8v4c0 4.42-3.58 8-8 8H757.86c-4.42 0-8-3.58-8-8z" stroke="#000" stroke-opacity="0" stroke-width="2" fill="#fff" fill-opacity="0"/><use xlink:href="#g" transform="matrix(1,0,0,1,754.8590711958259,136.94248230718426) translate(169.17592592592592 12.444444444444446)"/><use xlink:href="#h" transform="matrix(1,0,0,1,754.8590711958259,136.94248230718426) translate(218.39197530864197 12.444444444444446)"/><use xlink:href="#i" transform="matrix(1,0,0,1,754.8590711958259,136.94248230718426) translate(231.05246913580248 12.444444444444446)"/><use xlink:href="#j" transform="matrix(1,0,0,1,754.8590711958259,136.94248230718426) translate(306.97222222222223 12.444444444444446)"/><use xlink:href="#k" transform="matrix(1,0,0,1,754.8590711958259,136.94248230718426) translate(324.2561728395062 12.444444444444446)"/><path d="M115.86 642.48v-40h634v40z" fill-opacity="0"/><path d="M115.86 642.48v377.1h634v-377.1z" fill="none"/><path d="M749.86 602.48h547.8v40h-547.8z" fill-opacity="0"/><path d="M1297.65 642.48v377.1h-547.8v-377.1z" fill="none"/><path d="M749.86 602.48v417.1M115.86 642.48h1181.8M115.86 642.48v-40h634m0 0h547.8v40m0 0v377.1h-547.8m-634-377.1v377.1h634" stroke="#666" stroke-width="2" fill="none"/><use xlink:href="#l" transform="matrix(1,0,0,1,115.86167951098196,602.4807334573479) translate(273.55 23.6)"/><use xlink:href="#m" transform="matrix(1,0,0,1,115.86167951098196,602.4807334573479) translate(315.55 23.6)"/><use xlink:href="#n" transform="matrix(1,0,0,1,749.8590711958259,602.4807334573479) translate(252.55 23.6)"/><path d="M142.76 727.86h152c4.42 0 8 3.58 8 8v104c0 4.42-3.58 8-8 8h-144c-4.42 0-8-3.58-8-8zm16 0v120m-16-104h160" stroke="#000" stroke-opacity="0" stroke-width="2" fill="#019280"/><use xlink:href="#o" transform="matrix(1,0,0,1,163.75745143360638,748.8594206749933) translate(31.004207840802085 38.688842339150206)"/><use xlink:href="#p" transform="matrix(1,0,0,1,163.75745143360638,748.8594206749933) translate(89.02802301814614 38.688842339150206)"/><use xlink:href="#q" transform="matrix(1,0,0,1,163.75745143360638,748.8594206749933) translate(42.994461279088455 60.31635584787552)"/><g fill="none"><path d="M161.8 968.97c-4.42 0-8-3.58-8-8v-80.84c0-4.42 3.58-8 8-8h131.55c4.4 0 8 3.58 8 8v80.84c0 4.42-3.6 8-8 8z"/><path d="M301.35 872.13c0 5.1-4.13 9.22-9.23 9.22H236.8c-5.1 0-9.23 4.13-9.23 9.22 0-5.1-4.13-9.22-9.22-9.22h-55.33c-5.1 0-9.22-4.13-9.22-9.22" stroke="#000" stroke-width="2"/></g><use xlink:href="#r" transform="matrix(1,0,0,1,158.80097015450988,904.7911240265696) translate(29.975354675806994 18.126342339150206)"/><use xlink:href="#s" transform="matrix(1,0,0,1,158.80097015450988,904.7911240265696) translate(99.01318136222413 18.126342339150206)"/><use xlink:href="#t" transform="matrix(1,0,0,1,158.80097015450988,904.7911240265696) translate(19.51204374218757 39.75385584787552)"/><use xlink:href="#s" transform="matrix(1,0,0,1,158.80097015450988,904.7911240265696) translate(109.47649229584356 39.75385584787552)"/><use xlink:href="#u" transform="matrix(1,0,0,1,158.80097015450988,904.7911240265696) translate(42.71656344425743 61.381369356600835)"/><use xlink:href="#v" transform="matrix(1,0,0,1,158.80097015450988,904.7911240265696) translate(63.74331268885148 61.381369356600835)"/><use xlink:href="#w" transform="matrix(1,0,0,1,158.80097015450988,904.7911240265696) translate(79.263056178909 61.381369356600835)"/><path d="M688.55 1282.48c0-4.42 3.58-8 8-8h144c4.42 0 8 3.58 8 8v44c0 4.42-3.58 8-8 8h-144c-4.42 0-8-3.58-8-8z" stroke="#000" stroke-width="2" fill="#b391b5"/><use xlink:href="#x" transform="matrix(1,0,0,1,693.5510231198978,1279.478474621313) translate(36.97599156258305 27.501342339150206)"/><path d="M943.75 701.14c0-4.42 3.58-8 8-8h144c4.42 0 8 3.58 8 8v44c0 4.42-3.58 8-8 8h-144c-4.42 0-8-3.58-8-8z" stroke="#000" stroke-width="2" fill="#fff"/><use xlink:href="#y" transform="matrix(1,0,0,1,948.751709467336,698.1373273114034) translate(54.0226775573075 27.501342339150206)"/><path d="M1668.4 761.14c0-4.42 3.6-8 8-8h144c4.43 0 8 3.58 8 8v105.84c0 4.42-3.57 8-8 8h-144c-4.4 0-8-3.58-8-8z" stroke="#000" stroke-opacity="0" stroke-width="2" fill="#de5f85"/><use xlink:href="#z" transform="matrix(1,0,0,1,1673.4081849588097,758.1373273114034) translate(56.97707207606224 21.626342339150206)"/><use xlink:href="#A" transform="matrix(1,0,0,1,1673.4081849588097,758.1373273114034) translate(30.493380765609256 43.25385584787552)"/><use xlink:href="#B" transform="matrix(1,0,0,1,1673.4081849588097,758.1373273114034) translate(36.951596605020285 64.88136935660083)"/><use xlink:href="#C" transform="matrix(1,0,0,1,1673.4081849588097,758.1373273114034) translate(93.02292792393776 64.88136935660083)"/><use xlink:href="#D" transform="matrix(1,0,0,1,1673.4081849588097,758.1373273114034) translate(39.029239685140894 86.50888286532614)"/><use xlink:href="#E" transform="matrix(1,0,0,1,1673.4081849588097,758.1373273114034) translate(40.00548161435418 108.13639637405146)"/><path d="M1392.55 663.65c0-4.42 3.58-8 8-8h144c4.4 0 8 3.58 8 8V694c0 4.42-3.6 8-8 8h-144c-4.42 0-8-3.58-8-8z" stroke="#000" stroke-opacity="0" stroke-width="2" fill="#019280"/><use xlink:href="#F" transform="matrix(1,0,0,1,1397.5465054477813,660.6530693595537) translate(27.038986246854517 22.751342339150206)"/><use xlink:href="#G" transform="matrix(1,0,0,1,1397.5465054477813,660.6530693595537) translate(88.06662274485488 22.751342339150206)"/><path d="M1388.13 749.5c0-4.4 3.6-8 8-8h144c4.42 0 8 3.6 8 8v30.36c0 4.42-3.58 8-8 8h-144c-4.4 0-8-3.58-8-8z" stroke="#000" stroke-opacity="0" stroke-width="2" fill="#019280"/><use xlink:href="#H" transform="matrix(1,0,0,1,1393.1338028169016,746.514748870582) translate(56.50146703362499 22.751342339150206)"/><path d="M1388.13 899.17c0-4.42 3.6-8 8-8h144c4.42 0 8 3.58 8 8v30.34c0 4.43-3.58 8-8 8h-144c-4.4 0-8-3.57-8-8z" stroke="#000" stroke-opacity="0" stroke-width="2" fill="#019280"/><use xlink:href="#I" transform="matrix(1,0,0,1,1393.1338028169016,896.1671194968557) translate(24.035164926198224 22.751342339150206)"/><use xlink:href="#J" transform="matrix(1,0,0,1,1393.1338028169016,896.1671194968557) translate(85.96394782039548 22.751342339150206)"/><path d="M1392.55 981.24c0-4.42 3.58-8 8-8h144c4.4 0 8 3.58 8 8v40.96c0 4.42-3.6 8-8 8h-144c-4.42 0-8-3.58-8-8z" stroke="#000" stroke-opacity="0" stroke-width="2" fill="#019280"/><use xlink:href="#K" transform="matrix(1,0,0,1,1397.5465054477813,978.2381078926389) translate(34.02287081738041 21.063842339150206)"/><use xlink:href="#L" transform="matrix(1,0,0,1,1397.5465054477813,978.2381078926389) translate(50.994461279088455 42.69135584787552)"/><path d="M484.4 1361.5c0-4.4 3.6-8 8-8h144c4.43 0 8 3.6 8 8v30.36c0 4.42-3.57 8-8 8h-144c-4.4 0-8-3.58-8-8z" stroke="#000" stroke-opacity="0" stroke-width="2" fill="#019280"/><use xlink:href="#M" transform="matrix(1,0,0,1,489.4127026309262,1358.512490034547) translate(51.84554398660774 22.751342339150206)"/><path d="M688.55 1399.34c0-4.42 3.58-8 8-8h144c4.42 0 8 3.58 8 8v30.34c0 4.42-3.58 8-8 8h-144c-4.42 0-8-3.58-8-8z" stroke="#000" stroke-opacity="0" stroke-width="2" fill="#019280"/><use xlink:href="#N" transform="matrix(1,0,0,1,693.5510231198978,1396.3401541860221) translate(40.50611850113023 22.751342339150206)"/><path d="M760.27 1456.2c0-4.42 3.6-8 8-8h144c4.42 0 8 3.58 8 8v30.35c0 4.4-3.58 8-8 8h-144c-4.4 0-8-3.6-8-8z" stroke="#000" stroke-opacity="0" stroke-width="2" fill="#019280"/><use xlink:href="#O" transform="matrix(1,0,0,1,765.2743821419547,1453.2018337507313) translate(59.50528835428129 22.751342339150206)"/><path d="M574.9 1456.2c0-4.42 3.58-8 8-8h144c4.4 0 8 3.58 8 8v30.35c0 4.4-3.6 8-8 8h-144c-4.42 0-8-3.6-8-8z" stroke="#000" stroke-opacity="0" stroke-width="2" fill="#019280"/><use xlink:href="#P" transform="matrix(1,0,0,1,579.8956949242627,1453.2018337507313) translate(42.00802916145838 22.751342339150206)"/><path d="M1388.13 819.03c0-4.42 3.6-8 8-8h144c4.42 0 8 3.58 8 8V860c0 4.4-3.58 8-8 8h-144c-4.4 0-8-3.6-8-8z" stroke="#000" stroke-opacity="0" stroke-width="2" fill="#019280"/><use xlink:href="#Q" transform="matrix(1,0,0,1,1393.1338028169016,816.0317565771991) translate(40.03051345869298 21.063842339150206)"/><use xlink:href="#R" transform="matrix(1,0,0,1,1393.1338028169016,816.0317565771991) translate(31.51968638350017 42.69135584787552)"/><path d="M848.55 1353c0-4.42 3.58-8 8-8h144c4.42 0 8 3.58 8 8v30.34c0 4.42-3.58 8-8 8h-144c-4.42 0-8-3.58-8-8z" stroke="#000" stroke-opacity="0" stroke-width="2" fill="#019280"/><use xlink:href="#S" transform="matrix(1,0,0,1,853.5510231199444,1349.9954823816106) translate(63.00974656171363 22.751342339150206)"/><path d="M943.45 1422.5c0-4.4 3.58-8 8-8h144c4.4 0 8 3.6 8 8v30.36c0 4.42-3.6 8-8 8h-144c-4.42 0-8-3.58-8-8z" stroke="#000" stroke-opacity="0" stroke-width="2" fill="#019280"/><use xlink:href="#T" transform="matrix(1,0,0,1,948.4467180441603,1419.5124900882277) translate(38.528602798364844 22.751342339150206)"/><use xlink:href="#U" transform="matrix(1,0,0,1,948.4467180441603,1419.5124900882277) translate(82.48452145730192 22.751342339150206)"/><path d="M484.4 1282.48c0-4.42 3.6-8 8-8h144c4.43 0 8 3.58 8 8v44c0 4.42-3.57 8-8 8h-144c-4.4 0-8-3.58-8-8z" stroke="#000" stroke-width="2" fill="#b391b5"/><use xlink:href="#V" transform="matrix(1,0,0,1,489.4127026308796,1279.478474621313) translate(55.49955637329684 27.501342339150206)"/><path d="M1017.38 1313.2c0-4.42 3.58-8 8-8h144c4.4 0 8 3.58 8 8v62.6c0 4.4-3.6 8-8 8h-144c-4.42 0-8-3.6-8-8z" stroke="#000" stroke-opacity="0" stroke-width="2" fill="#019280"/><use xlink:href="#W" transform="matrix(1,0,0,1,1022.3764283816572,1310.2031377983878) translate(13.997395346338447 18.126342339150206)"/><use xlink:href="#X" transform="matrix(1,0,0,1,1022.3764283816572,1310.2031377983878) translate(76.0263056178909 18.126342339150206)"/><use xlink:href="#Y" transform="matrix(1,0,0,1,1022.3764283816572,1310.2031377983878) translate(34.02287081738041 39.75385584787552)"/><use xlink:href="#Z" transform="matrix(1,0,0,1,1022.3764283816572,1310.2031377983878) translate(35.524781477708544 61.381369356600835)"/><path d="M505.38 708.83h107.8c4.4 0 8 3.58 8 8v30.34c0 4.42-3.6 8-8 8h-99.8c-4.42 0-8-3.58-8-8zm11.58 0v46.34m-11.58-34.77h115.8" stroke="#000" stroke-opacity="0" stroke-width="2" fill="#019280"/><use xlink:href="#aa" transform="matrix(1,0,0,1,521.9575730708511,725.4042911149184) translate(21.516945576323064 19.688842339150206)"/><use xlink:href="#ab" transform="matrix(1,0,0,1,521.9575730708511,725.4042911149184) translate(63.47031668815596 19.688842339150206)"/><path d="M502.38 796h107.8c4.4 0 8 3.6 8 8v30.36c0 4.42-3.6 8-8 8h-99.8c-4.42 0-8-3.58-8-8zm11.58 0v46.36m-11.58-34.77h115.8" stroke="#000" stroke-opacity="0" stroke-width="2" fill="#019280"/><use xlink:href="#aa" transform="matrix(1,0,0,1,518.9588387292715,812.5932650275768) translate(21.516945576323064 19.688842339150206)"/><use xlink:href="#ac" transform="matrix(1,0,0,1,518.9588387292715,812.5932650275768) translate(63.47031668815596 19.688842339150206)"/><path d="M506.52 883.2h107.8c4.4 0 8 3.6 8 8v30.35c0 4.42-3.6 8-8 8h-99.8c-4.42 0-8-3.58-8-8zm11.58 0v46.35m-11.58-34.77h115.8" stroke="#000" stroke-opacity="0" stroke-width="2" fill="#019280"/><use xlink:href="#aa" transform="matrix(1,0,0,1,523.0971592182897,899.7822389402351) translate(21.516945576323064 19.688842339150206)"/><use xlink:href="#ad" transform="matrix(1,0,0,1,523.0971592182897,899.7822389402351) translate(63.47031668815596 19.688842339150206)"/><path d="M440.27 656.83c0-4.42 3.6-8 8-8h224c4.42 0 8 3.58 8 8v44c0 4.4-3.58 8-8 8h-224c-4.4 0-8-3.6-8-8z" stroke="#000" stroke-opacity="0" stroke-width="2" fill="#fff" fill-opacity="0"/><use xlink:href="#ae" transform="matrix(1,0,0,1,445.27438214190806,653.8254052617592) translate(17.450902611686868 21.251342339150206)"/><use xlink:href="#af" transform="matrix(1,0,0,1,445.27438214190806,653.8254052617592) translate(59.45433741219736 21.251342339150206)"/><use xlink:href="#ag" transform="matrix(1,0,0,1,445.27438214190806,653.8254052617592) translate(127.4408266363848 21.251342339150206)"/><use xlink:href="#ah" transform="matrix(1,0,0,1,445.27438214190806,653.8254052617592) translate(197.52999078503166 21.251342339150206)"/><use xlink:href="#ai" transform="matrix(1,0,0,1,445.27438214190806,653.8254052617592) translate(88.4912768452082 42.87885584787552)"/><path d="M303.26 787.86h88.8c6.64 0 12-5.37 12-12V744c0-6.63 5.38-12 12-12H489" stroke="#666" fill="none"/><path d="M303.27 788.36h-.5v-1h.5zM503.76 732l-14.27 4.63v-9.27z" fill="#666"/><path d="M505.38 732l-16.4 5.32v-10.65zm-15.4 3.94l12.16-3.94-12.15-3.95z" fill="#666"/><path d="M303.26 787.87l17.2.35 14.24.88 12.07 1.27 10.73 1.58 10.12 1.93 10.48 2.46 13.98 3.93 34.96 10.44 10.47 2.47 10.14 1.93 10.73 1.58 12.06 1.26 14.26.9 1.3.02" stroke="#666" fill="none"/><path d="M303.28 787.37l-.02 1h-.5v-1zM500.76 819.15l-14.35 4.35.2-9.27z" fill="#666"/><path d="M502.38 819.2l-16.5 4.98.23-10.65zm-15.46 3.62l12.22-3.7-12.06-4.2z" fill="#666"/><path d="M303.2 788.12l9.84 6 10.68 7.16 11.63 8.52 14.1 11.28 58.7 50.4 8.28 6.06 7.07 4.74 6.4 3.9 6 3.32 5.72 2.88 5.6 2.5 5.53 2.22 5.54 1.95 5.6 1.7 5.7 1.5 5.9 1.27 6.12 1.05 6.42.84 2.12.2M303.2 788.13l-.44-.27" stroke="#666" fill="none"/><path d="M504.9 906.3l-14.47 3.94.45-9.26z" fill="#666"/><path d="M506.52 906.38l-16.62 4.53.5-10.63zm-15.56 3.2l12.33-3.36-11.96-4.52z" fill="#666"/><path d="M943.75 778.06c0-4.42 3.58-8 8-8h144c4.42 0 8 3.58 8 8v44c0 4.42-3.58 8-8 8h-144c-4.42 0-8-3.58-8-8z" stroke="#000" stroke-width="2" fill="#fff"/><use xlink:href="#y" transform="matrix(1,0,0,1,948.751709467336,775.0586279698392) translate(54.0226775573075 27.501342339150206)"/><path d="M941.55 854.98c0-4.42 3.58-8 8-8h144c4.4 0 8 3.58 8 8v44c0 4.42-3.6 8-8 8h-144c-4.42 0-8-3.58-8-8z" stroke="#000" stroke-width="2" fill="#fff"/><use xlink:href="#y" transform="matrix(1,0,0,1,946.5453581518962,851.979928628275) translate(54.0226775573075 27.501342339150206)"/><path d="M1105.25 723.14h131.4c6.63 0 12-5.38 12-12v-20.3c0-6.64 5.37-12 12-12h115.5" stroke="#666" fill="none"/><path d="M1105.26 723.64h-.5v-1h.5zM1390.93 678.83l-14.27 4.63v-9.27z" fill="#666"/><path d="M1392.55 678.83l-16.4 5.32V673.5zm-15.4 3.94l12.16-3.94-12.14-3.95z" fill="#666"/><path d="M1105.25 800.06h129.2c6.62 0 12 5.37 12 12v5.28c0 6.63 5.37 12 12 12h113.3" stroke="#666" fill="none"/><path d="M1105.26 800.56h-.5v-1h.5zM1386.52 829.34l-14.27 4.63v-9.27z" fill="#666"/><path d="M1388.13 829.34l-16.38 5.32V824zm-15.38 3.95l12.15-3.96-12.15-3.95z" fill="#666"/><path d="M1103.05 876.98h130.3c6.62 0 12 5.37 12 12v13.36c0 6.63 5.36 12 12 12h114.4" stroke="#666" fill="none"/><path d="M1103.06 877.48h-.5v-1h.5zM1386.52 914.34l-14.27 4.63v-9.27z" fill="#666"/><path d="M1388.13 914.34l-16.38 5.32v-10.64zm-15.38 3.95l12.15-3.96-12.15-3.95z" fill="#666"/><path d="M1103.05 876.98h132.5c6.62 0 12 5.37 12 12v100.74c0 6.63 5.37 12 12 12h116.6M1103.06 876.98h-.5" stroke="#666" fill="none"/><path d="M1390.93 1001.72l-14.27 4.63v-9.27z" fill="#666"/><path d="M1392.55 1001.72l-16.4 5.32V996.4zm-15.4 3.95l12.16-3.95-12.14-3.95z" fill="#666"/><path d="M1105.25 723.14h129.2c6.62 0 12 5.37 12 12v17.55c0 6.6 5.37 12 12 12h113.3M1105.26 723.14h-.5" stroke="#666" fill="none"/><path d="M1386.52 764.7l-14.27 4.62v-9.27z" fill="#666"/><path d="M1388.13 764.7l-16.38 5.3v-10.64zm-15.38 3.93l12.15-3.94-12.15-3.96z" fill="#666"/><path d="M506.52 950.07h107.8c4.4 0 8 3.58 8 8v30.34c0 4.43-3.6 8-8 8h-99.8c-4.42 0-8-3.57-8-8zm11.58 0v46.34m-11.58-34.76h115.8" stroke="#000" stroke-opacity="0" stroke-width="2" fill="#019280"/><use xlink:href="#aa" transform="matrix(1,0,0,1,523.0971592182431,966.6446578435922) translate(21.516945576323064 19.688842339150206)"/><use xlink:href="#aj" transform="matrix(1,0,0,1,523.0971592182431,966.6446578435922) translate(63.47031668815596 19.688842339150206)"/><path d="M303.26 787.87l2.94.06 3.3.2 3.2.34 3.08.46 3 .57 2.94.7 2.88.8 2.85.92 2.82 1.05 2.8 1.18 2.82 1.32 2.8 1.48 2.86 1.65 2.9 1.83 2.95 2.06 3.05 2.3 3.15 2.6 3.28 2.96 3.46 3.4 3.68 3.92 4 4.63 4.42 5.6 5.07 6.98 6.18 9.3 8.87 14.74 33.05 58 6.17 9.3 5.06 6.98 4.43 5.6 4 4.62 3.68 3.93 3.46 3.4 3.28 2.95 3.14 2.6 3.04 2.3 2.96 2.06 2.9 1.84 2.85 1.65 2.82 1.47 2.8 1.33 2.8 1.18 2.83 1.05 2.84.92 2.9.8 2.68.64" stroke="#666" fill="none"/><path d="M303.28 787.37l-.02 1h-.5v-1zM504.9 973.07l-14.66 3.13.96-9.22z" fill="#666"/><path d="M506.52 973.24l-16.85 3.6 1.1-10.6zm-15.7 2.33l12.48-2.67-11.67-5.2z" fill="#666"/><path d="M622.8 973.25l4.32.1 4.03.24 3.4.34 2.95.44 2.55.48 2.23.52 1.98.56 1.77.57 1.58.6 1.44.6 1.3.6 1.2.63 1.1.64 1 .64.93.65.87.66.8.68.77.7.72.68.67.72.62.73.6.76.56.77.53.8.52.83.47.87.44.9.42.94.4 1 .36 1.05.33 1.1.3 1.2.28 1.27.23 1.36.2 1.5.12 1.6.08 1.8v1.96l-.1 2.2-.2 2.5-.37 2.83-.57 3.3-.82 3.87-1.2 4.66-1.74 5.76-2.6 7.4-4.02 10.15-7.06 15.76-59.5 121.05-6.8 17.12-4.77 13.64-3.43 11.37-2.5 9.75-1.82 8.52-1.3 7.58-.62 4.96" stroke="#666" fill="none"/><path d="M622.83 972.75l-.02 1h-.5v-1z" fill="#666"/><path d="M564.5 1271.86l-3.72-14.52 9.25.57z" stroke="#666" fill="#666"/><path d="M621.67 732.03h.1l.27.05.3.06.28.08.3.1.3.13.3.15.33.2.34.2.34.27.38.32.42.4.44.47.5.6.56.78.63 1 .75 1.36.9 1.9 1.1 2.77 1.48 4.47 2.3 8.77 9.43 42.62 1.48 4.47 1.12 2.77.9 1.88.73 1.35.64 1 .54.78.5.6.45.5.4.38.38.32.36.27.34.22.32.18.3.16.3.13.3.1.3.1.28.05.3.04h.08" stroke="#666" fill="none"/><path d="M621.7 731.5l-.03 1h-.5v-1zM653.96 813.56v1h-.26v-1z" fill="#666"/><path d="M618.67 819.16l8.66-.55 26.13-4.46" stroke="#666" fill="none"/><path d="M618.7 819.65l-.53.04v-1l.48-.04zM653.96 814.56h-.28v-1h.28z" fill="#666"/><path d="M622.8 906.34l.16-.02.2-.04.23-.05.2-.07.23-.08.22-.1.24-.1.23-.15.25-.16.27-.2.28-.22.3-.28.33-.32.36-.4.4-.5.42-.6.5-.76.56-1 .66-1.34.8-1.85.97-2.67 1.28-4.2 1.87-7.6 10.6-54.43 1.27-4.2.98-2.68.8-1.84.65-1.33.56-1 .5-.77.42-.6.4-.5.35-.4.33-.32.3-.27.28-.24.28-.2.25-.15.25-.13.23-.12.24-.1.22-.08.22-.06.2-.05.23-.04h.16" stroke="#666" fill="none"/><path d="M622.83 906.86l-.52.02v-1l.5-.02zM653.96 814.56h-.25v-1h.26z" fill="#666"/><path d="M622.8 973.18l.1-.02.1-.03.1-.03.1-.04.1-.04.12-.05.12-.06.12-.06.12-.08.13-.1.14-.1.15-.1.14-.15.16-.15.17-.18.2-.22.2-.26.22-.32.24-.37.27-.44.32-.57.36-.73.4-.92.5-1.23.57-1.67.7-2.37.92-3.55 1.2-5.76 1.8-10.67 3.6-29.87 7.54-68.63 1.78-10.67 1.22-5.76.9-3.55.7-2.37.6-1.67.48-1.23.4-.92.36-.72.3-.56.3-.45.24-.4.22-.3.2-.25.2-.22.16-.2.17-.14.15-.15.14-.12.14-.1.12-.1.13-.07.13-.07.1-.07.12-.05.1-.04.1-.04.1-.04.12-.02.1-.03" stroke="#666" fill="none"/><path d="M622.83 973.73h-.52v-1h.5zM653.96 814.56h-.25v-1h.26z" fill="#666"/><path d="M776.46 814.05l4.13-.1 4.3-.26 4.08-.43 3.84-.57 3.67-.7 3.5-.82 3.4-.95 3.3-1.08 3.25-1.2 3.2-1.34 3.17-1.5 3.18-1.66 3.23-1.86 3.32-2.1 3.45-2.4 3.68-2.8 4.03-3.33 4.66-4.2 6.06-5.96 28.93-30.35 4.65-4.2 4.03-3.33 3.68-2.8 3.46-2.4 3.3-2.1 3.24-1.87 3.2-1.66 3.17-1.5 3.2-1.35 3.23-1.2 3.3-1.08 3.4-.95 3.52-.82 3.67-.7.54-.08" stroke="#666" fill="none"/><path d="M776.48 814.55h-.52v-1h.5z" fill="#666"/><path d="M941.14 723.26L927.28 729l-.73-9.24z" stroke="#666" fill="#666"/><path d="M776.46 814.05l24.73-.48 18.04-1.12 15.5-1.63 64.73-9.15 18.05-1.12 8.85-.17" stroke="#666" fill="none"/><path d="M776.48 814.55h-.52v-1h.5z" fill="#666"/><path d="M941.13 800.1l-14.17 4.9-.18-9.27z" stroke="#666" fill="#666"/><path d="M776.46 814.07l5.92.12 5.82.36 5.34.56 4.95.73 4.63.88 4.4 1.03 4.2 1.17 4.06 1.33 3.98 1.48 3.97 1.67 4.02 1.9 4.17 2.18 4.48 2.6 5.1 3.24 6.8 4.73 26.65 19.67 5.1 3.25 4.5 2.6 4.16 2.17 4.02 1.9 3.97 1.66 4 1.48 4.06 1.33 4.2 1.18 4.4 1.03 4.63.9 4.97.72 1.23.13" stroke="#666" fill="none"/><path d="M776.48 813.57l-.02 1h-.5v-1z" fill="#666"/><path d="M938.93 876.9l-14.5 3.8.52-9.25z" stroke="#666" fill="#666"/><path d="M941.55 930.76c0-4.42 3.58-8 8-8h144c4.4 0 8 3.58 8 8v44c0 4.4-3.6 8-8 8h-144c-4.42 0-8-3.6-8-8z" stroke="#000" stroke-width="2" fill="#fff"/><use xlink:href="#y" transform="matrix(1,0,0,1,946.5453581518962,927.7551155992558) translate(54.0226775573075 27.501342339150206)"/><path d="M776.46 814.07l2.5.05 2.86.18 2.75.3 2.67.38 2.58.5 2.52.6 2.47.68 2.44.8 2.4.88 2.4 1 2.37 1.13 2.4 1.25 2.42 1.4 2.46 1.55 2.5 1.74 2.58 1.97 2.67 2.2 2.8 2.53 2.95 2.9 3.17 3.38 3.48 4.04 3.94 4.97 4.7 6.46 6.35 9.6 29.22 47.3 4.7 6.47 3.93 4.97 3.48 4.04 3.18 3.38 2.95 2.9 2.8 2.5 2.67 2.22 2.57 1.96 2.5 1.74 2.46 1.56 2.4 1.4 2.4 1.25 2.4 1.12 2.38 1 2.4.9 2.44.8 2.46.68.16.03" stroke="#666" fill="none"/><path d="M776.48 813.57l-.02 1h-.5v-1z" fill="#666"/><path d="M938.94 952.56l-14.72 2.88 1.12-9.2z" stroke="#666" fill="#666"/><path d="M1103.05 952.77l4.8.1 3.97.24 3.07.33 2.43.36 1.98.36 1.63.38 1.37.38 1.15.38 1 .36.84.36.74.35.66.35.58.33.52.33.47.33.4.32.4.32.34.3.32.32.3.3.26.3.24.3.22.32.2.3.2.32.17.3.17.33.14.33.14.33.12.33.1.36.1.35.08.38.07.4.06.4.04.43v1.46l-.05.55-.08.6-.1.64-.16.72-.2.78-.25.86-.34.97-.42 1.1-.56 1.25-.73 1.46-.96 1.73-1.27 2.1-1.72 2.57-2.42 3.33-3.57 4.5-5.72 6.6-11.07 11.72-81.72 82.1-13.62 15.75-9.96 12.55-7.63 10.5-6 9.02-4.82 7.93-3.88 7.06-3.16 6.37-2.6 5.8-2.1 5.3-1.7 4.94-1.4 4.6-1.1 4.3-.8 3.78" stroke="#666" fill="none"/><path d="M1103.07 952.27l-.02 1h-.5v-1.02z" fill="#666"/><path d="M960.7 1202.35l-3.2-14.65 9.24.92z" stroke="#666" fill="#666"/><path d="M622.8 973.25l6 .12 6.1.38 5.72.6 5.4.8 5.14.98 4.9 1.15 4.67 1.3 4.5 1.46 4.32 1.6 4.18 1.77 4.06 1.92 3.95 2.07 3.86 2.22 3.8 2.4 3.7 2.58 3.66 2.78 3.6 2.98 3.6 3.23 3.54 3.47 3.53 3.76 3.53 4.08 3.52 4.46 3.53 4.86 3.54 5.32 3.56 5.88 3.57 6.5 3.6 7.24 3.6 8.12 3.63 9.17 3.63 10.44 3.62 12 3.58 13.97 3.5 16.48 3.33 19.8 3.06 24.44 2.6 31.4 1.8 44.32.17 17.78" stroke="#666" fill="none"/><path d="M622.83 972.75l-.02 1h-.5v-1z" fill="#666"/><path d="M768.54 1271.86l-4.78-14.22 9.27-.1z" stroke="#666" fill="#666"/><path d="M880.55 1212.96c0-4.42 3.58-8 8-8h144c4.42 0 8 3.58 8 8v44c0 4.42-3.58 8-8 8h-144c-4.42 0-8-3.58-8-8z" stroke="#000" stroke-width="2" fill="#b391b5"/><g><use xlink:href="#ak" transform="matrix(1,0,0,1,885.5487642838161,1209.9614669146958) translate(39.50420784080208 27.501342339150206)"/></g><path d="M1388.13 564.14c0-4.42 3.6-8 8-8h144c4.42 0 8 3.58 8 8v44c0 4.4-3.58 8-8 8h-144c-4.4 0-8-3.6-8-8z" stroke="#000" stroke-width="2" fill="#b391b5"/><g><use xlink:href="#ak" transform="matrix(1,0,0,1,1393.133802816855,561.1360616529364) translate(39.50420784080208 27.501342339150206)"/></g><path d="M370.76 1456.2c0-4.42 3.58-8 8-8h144c4.42 0 8 3.58 8 8v30.35c0 4.4-3.58 8-8 8h-144c-4.42 0-8-3.6-8-8z" stroke="#000" stroke-opacity="0" stroke-width="2" fill="#019280"/><g><use xlink:href="#al" transform="matrix(1,0,0,1,375.757374435291,1453.2018337507313) translate(16.024974737781445 22.751342339150206)"/><use xlink:href="#am" transform="matrix(1,0,0,1,375.757374435291,1453.2018337507313) translate(94.97541178236435 22.751342339150206)"/></g><path d="M518.16 122.92c2.08-3.9 7.35-7.06 11.77-7.06h80c4.42 0 9.68 3.16 11.76 7.06l24.46 45.88c2.08 3.9 2.08 10.22 0 14.12L621.7 228.8c-2.1 3.9-7.35 7.06-11.77 7.06h-80c-4.42 0-9.7-3.16-11.77-7.06l-24.47-45.88c-2.1-3.9-2.1-10.22 0-14.12z" stroke="#000" stroke-opacity="0" stroke-width="2" fill="#019280"/><g><use xlink:href="#an" transform="matrix(1,0,0,1,494.92858091947915,120.8616795110284) translate(56.00083014684894 49.063842339150206)"/><use xlink:href="#ao" transform="matrix(1,0,0,1,494.92858091947915,120.8616795110284) translate(28.51586506284386 70.69135584787551)"/></g><path d="M280.25 262.9c0-4.42 3.58-8 8-8h144c4.4 0 8 3.58 8 8v104c0 4.4-3.6 8-8 8h-144c-4.42 0-8-3.6-8-8z" stroke="#000" stroke-opacity="0" stroke-width="2" fill="#019280"/><path d="M296.25 254.9v120m128-120v120" stroke="#000" stroke-opacity="0" stroke-width="2" fill="none"/><g><use xlink:href="#ap" transform="matrix(1,0,0,1,305.24579246630105,259.89569492426256) translate(22.05809285013598 49.64482883042489)"/><use xlink:href="#aq" transform="matrix(1,0,0,1,305.24579246630105,259.89569492426256) translate(15.499749633369742 71.27234233915021)"/><use xlink:href="#ar" transform="matrix(1,0,0,1,305.24579246630105,259.89569492426256) translate(45.537962839932675 71.27234233915021)"/></g><path d="M69.52 147.03c0-4.4 3.58-8 8-8h144c4.42 0 8 3.6 8 8v112C202.8 239 186.16 239 176.08 239c-16 0-37.28 20.03-53.28 20.03-9.92 0-26.72 0-53.28-20.04z" stroke="#000" stroke-opacity="0" stroke-width="2" fill="#019280"/><g><use xlink:href="#as" transform="matrix(1,0,0,1,74.51700770661705,144.03401541323404) translate(30.994017652385306 49.063842339150206)"/></g><path d="M149.52 249.3v53.6c0 6.62 5.37 12 12 12h118.23" stroke="#666" fill="none"/><path d="M150.02 249.3h-1v-.25l1-.5zM280.25 315.4h-.52v-1h.52z" fill="#666"/><path d="M424.25 440.27c8.83 0 16 26.87 16 60 0 33.14-7.17 60-16 60h-128c-8.84 0-16-26.86-16-60 0-33.13 7.16-60 16-60z" stroke="#000" stroke-opacity="0" stroke-width="2"/><path d="M424.25 560.27c-8.84 0-16-26.86-16-60 0-33.13 7.16-60 16-60" stroke="#000" stroke-opacity="0" stroke-width="2" fill="none"/><g><use xlink:href="#at" transform="matrix(1,0,0,1,285.24579246630105,445.274382141908) translate(19.549813322047353 59.376342339150206)"/><use xlink:href="#au" transform="matrix(1,0,0,1,285.24579246630105,445.274382141908) translate(63.505731980984436 59.376342339150206)"/></g><path d="M360.24 560.78l-.06 2.63-.2 3-.3 2.87-.4 2.77-.5 2.7-.62 2.6-.72 2.57-.82 2.53-.93 2.5-1.05 2.47-1.16 2.47-1.3 2.48-1.45 2.5-1.6 2.54-1.82 2.6-2.02 2.65-2.28 2.77-2.62 2.9-3 3.08-3.54 3.3-4.24 3.66-5.27 4.18-7.02 5.08-11.27 7.46-40.38 25.43-7.02 5.1-5.28 4.17-4.23 3.65-3.54 3.32-3 3.07-2.6 2.9-2.3 2.78-2.03 2.67-1.8 2.6-1.6 2.53-1.46 2.5-1.3 2.48-1.15 2.47-1.04 2.48-.92 2.5-.82 2.52-.7 2.57-.2.82" stroke="#666" fill="none"/><path d="M360.74 560.8l-1-.02v-.5h1zM229.2 712.62l-6.26 13.63-2.95-14.7z" fill="#666"/><path d="M229.94 712.2l-7.18 15.66-3.4-16.9zm-6.8 12.45l5.32-11.6-7.84-.93z" fill="#666"/><path d="M569.92 236.36l-.06 2.78-.2 3.1-.3 2.96-.42 2.82-.52 2.72-.6 2.6-.72 2.53-.8 2.45-.87 2.37-.98 2.3-1.07 2.28-1.16 2.22-1.26 2.2-1.37 2.14-1.5 2.13-1.6 2.1-1.72 2.1-1.87 2.08-2.03 2.08-2.2 2.07-2.4 2.07-2.62 2.07-2.86 2.08-3.14 2.08-3.44 2.08-3.8 2.08-4.2 2.08-4.64 2.07-5.18 2.06-5.78 2-6.46 1.96-7.24 1.86-8.12 1.72-9.07 1.53-10.1 1.27-11.1.93-1.9.08" stroke="#666" fill="none"/><path d="M570.42 236.4l-1-.03v-.5h1zM456.26 319.06l-14.4-4.2 14.13-5.07z" fill="#666"/><path d="M456.78 319.73l-16.53-4.83 16.2-5.8zm-13.3-4.93l12.26 3.58-.23-7.9z" fill="#666"/><path d="M360.25 375.4v48.5" stroke="#666" fill="none"/><path d="M360.75 375.4h-1v-.5h1zM360.25 438.66l-4.64-14.27h9.28z" fill="#666"/><path d="M360.25 440.27l-5.33-16.38h10.65zm-3.95-15.38l3.95 12.14 3.94-12.15z" fill="#666"/><path d="M654.96 792.06c0-4.42 3.58-8 8-8h14c4.42 0 8-3.58 8-8v-14c0-4.42 3.58-8 8-8h44c4.42 0 8 3.58 8 8v14c0 4.42 3.58 8 8 8h14c4.42 0 8 3.58 8 8v44c0 4.42-3.58 8-8 8h-14c-4.42 0-8 3.58-8 8v14c0 4.42-3.58 8-8 8h-44c-4.42 0-8-3.58-8-8v-14c0-4.42-3.58-8-8-8h-14c-4.42 0-8-3.58-8-8z" stroke="#1d536f" stroke-width="2" fill="#3aa6dd"/><g><use xlink:href="#av" transform="matrix(1,0,0,1,654.9569134869373,754.0601110832167) translate(21.97662844935908 63.126342339150206)"/></g><defs><path d="M205 0l-28-72H64L36 0H1l101-248h38L239 0h-34zm-38-99l-47-123c-12 45-31 82-46 123h93" id="aw"/><path d="M30-248c87 1 191-15 191 75 0 78-77 80-158 76V0H30v-248zm33 125c57 0 124 11 124-50 0-59-68-47-124-48v98" id="ax"/><path d="M33 0v-248h34V0H33" id="ay"/><g id="a"><use transform="matrix(0.050063688677604884,0,0,0.050063688677604884,0,0)" xlink:href="#aw"/><use transform="matrix(0.050063688677604884,0,0,0.050063688677604884,12.015285282625172,0)" xlink:href="#ax"/><use transform="matrix(0.050063688677604884,0,0,0.050063688677604884,24.030570565250343,0)" xlink:href="#ay"/></g><path d="M103-251c84 0 111 97 45 133-19 10-37 24-39 52H78c0-63 77-55 77-114 0-30-21-42-52-43-32 0-53 17-56 46l-32-2c7-45 34-72 88-72zM77 0v-35h34V0H77" id="az"/><use transform="matrix(0.050063688677604884,0,0,0.050063688677604884,0,0)" xlink:href="#az" id="b"/><path fill="#b2b2b2" d="M230 0l2-204L168 0h-37L68-204 70 0H24v-248h70l56 185 57-185h69V0h-46" id="aA"/><path fill="#b2b2b2" d="M67-125c0 53 21 87 73 88 37 1 54-22 65-47l45 17C233-25 199 4 140 4 58 4 20-42 15-125 8-235 124-281 211-232c18 10 29 29 36 50l-46 12c-8-25-30-41-62-41-52 0-71 34-72 86" id="aB"/><g id="c"><use transform="matrix(0.07407407407407408,0,0,0.07407407407407408,0,0)" xlink:href="#aA"/><use transform="matrix(0.07407407407407408,0,0,0.07407407407407408,22.148148148148152,0)" xlink:href="#aB"/><use transform="matrix(0.07407407407407408,0,0,0.07407407407407408,41.333333333333336,0)" xlink:href="#aA"/><use transform="matrix(0.07407407407407408,0,0,0.07407407407407408,63.481481481481495,0)" xlink:href="#aB"/></g><path fill="#b2b2b2" d="M24-248c93 1 206-16 204 79-1 75-69 88-152 82V0H24v-248zm52 121c47 0 100 7 100-41 0-47-54-39-100-39v80" id="aC"/><path fill="#b2b2b2" d="M110-194c64 0 96 36 96 99 0 64-35 99-97 99-61 0-95-36-95-99 0-62 34-99 96-99zm-1 164c35 0 45-28 45-65 0-40-10-65-43-65-34 0-45 26-45 65 0 36 10 65 43 65" id="aD"/><path fill="#b2b2b2" d="M137-138c1-29-70-34-71-4 15 46 118 7 119 86 1 83-164 76-172 9l43-7c4 19 20 25 44 25 33 8 57-30 24-41C81-84 22-81 20-136c-2-80 154-74 161-7" id="aE"/><path fill="#b2b2b2" d="M115-3C79 11 28 4 28-45v-112H4v-33h27l15-45h31v45h36v33H77v99c-1 23 16 31 38 25v30" id="aF"/><path fill="#b2b2b2" d="M185-48c-13 30-37 53-82 52C43 2 14-33 14-96s30-98 90-98c62 0 83 45 84 108H66c0 31 8 55 39 56 18 0 30-7 34-22zm-45-69c5-46-57-63-70-21-2 6-4 13-4 21h74" id="aG"/><path fill="#b2b2b2" d="M135-150c-39-12-60 13-60 57V0H25l-1-190h47c2 13-1 29 3 40 6-28 27-53 61-41v41" id="aH"/><path fill="#b2b2b2" d="M25-224v-37h50v37H25zM25 0v-190h50V0H25" id="aI"/><g id="d"><use transform="matrix(0.07407407407407408,0,0,0.07407407407407408,0,0)" xlink:href="#aC"/><use transform="matrix(0.07407407407407408,0,0,0.07407407407407408,17.77777777777778,0)" xlink:href="#aD"/><use transform="matrix(0.07407407407407408,0,0,0.07407407407407408,34,0)" xlink:href="#aE"/><use transform="matrix(0.07407407407407408,0,0,0.07407407407407408,48.81481481481481,0)" xlink:href="#aF"/><use transform="matrix(0.07407407407407408,0,0,0.07407407407407408,57.62962962962964,0)" xlink:href="#aG"/><use transform="matrix(0.07407407407407408,0,0,0.07407407407407408,72.44444444444446,0)" xlink:href="#aH"/><use transform="matrix(0.07407407407407408,0,0,0.07407407407407408,82.81481481481482,0)" xlink:href="#aI"/><use transform="matrix(0.07407407407407408,0,0,0.07407407407407408,90.22222222222223,0)" xlink:href="#aD"/><use transform="matrix(0.07407407407407408,0,0,0.07407407407407408,106.44444444444446,0)" xlink:href="#aH"/></g><path fill="#b2b2b2" d="M88-194c31-1 46 15 58 34l-1-101h50l1 261h-48c-2-10 0-23-3-31C134-8 116 4 84 4 32 4 16-41 15-95c0-56 19-97 73-99zm17 164c33 0 40-30 41-66 1-37-9-64-41-64s-38 30-39 65c0 43 13 65 39 65" id="aJ"/><path fill="#b2b2b2" d="M190-63c-7 42-38 67-86 67-59 0-84-38-90-98-12-110 154-137 174-36l-49 2c-2-19-15-32-35-32-30 0-35 28-38 64-6 74 65 87 74 30" id="aK"/><path fill="#b2b2b2" d="M135-194c87-1 58 113 63 194h-50c-7-57 23-157-34-157-59 0-34 97-39 157H25l-1-190h47c2 12-1 28 3 38 12-26 28-41 61-42" id="aL"/><g id="e"><use transform="matrix(0.07407407407407408,0,0,0.07407407407407408,0,0)" xlink:href="#aC"/><use transform="matrix(0.07407407407407408,0,0,0.07407407407407408,17.77777777777778,0)" xlink:href="#aH"/><use transform="matrix(0.07407407407407408,0,0,0.07407407407407408,28.148148148148152,0)" xlink:href="#aG"/><use transform="matrix(0.07407407407407408,0,0,0.07407407407407408,42.96296296296297,0)" xlink:href="#aJ"/><use transform="matrix(0.07407407407407408,0,0,0.07407407407407408,59.18518518518519,0)" xlink:href="#aI"/><use transform="matrix(0.07407407407407408,0,0,0.07407407407407408,66.5925925925926,0)" xlink:href="#aK"/><use transform="matrix(0.07407407407407408,0,0,0.07407407407407408,81.40740740740742,0)" xlink:href="#aF"/><use transform="matrix(0.07407407407407408,0,0,0.07407407407407408,90.22222222222223,0)" xlink:href="#aI"/><use transform="matrix(0.07407407407407408,0,0,0.07407407407407408,97.62962962962962,0)" xlink:href="#aD"/><use transform="matrix(0.07407407407407408,0,0,0.07407407407407408,113.85185185185186,0)" xlink:href="#aL"/></g><g id="f"><use transform="matrix(0.07407407407407408,0,0,0.07407407407407408,0,0)" xlink:href="#aC"/><use transform="matrix(0.07407407407407408,0,0,0.07407407407407408,17.77777777777778,0)" xlink:href="#aH"/><use transform="matrix(0.07407407407407408,0,0,0.07407407407407408,28.148148148148152,0)" xlink:href="#aD"/><use transform="matrix(0.07407407407407408,0,0,0.07407407407407408,44.37037037037039,0)" xlink:href="#aK"/><use transform="matrix(0.07407407407407408,0,0,0.07407407407407408,59.185185185185205,0)" xlink:href="#aG"/><use transform="matrix(0.07407407407407408,0,0,0.07407407407407408,74.00000000000001,0)" xlink:href="#aE"/><use transform="matrix(0.07407407407407408,0,0,0.07407407407407408,88.81481481481484,0)" xlink:href="#aE"/></g><path fill="#b2b2b2" d="M179-190L93 31C79 59 56 82 12 73V49c39 6 53-20 64-50L1-190h34L92-34l54-156h33" id="aM"/><path fill="#b2b2b2" d="M100-194c62-1 85 37 85 99 1 63-27 99-86 99S16-35 15-95c0-66 28-99 85-99zM99-20c44 1 53-31 53-75 0-43-8-75-51-75s-53 32-53 75 10 74 51 75" id="aN"/><path fill="#b2b2b2" d="M117-194c89-4 53 116 60 194h-32v-121c0-31-8-49-39-48C34-167 62-67 57 0H25l-1-190h30c1 10-1 24 2 32 11-22 29-35 61-36" id="aO"/><path fill="#b2b2b2" d="M24-231v-30h32v30H24zM24 0v-190h32V0H24" id="aP"/><path fill="#b2b2b2" d="M135-143c-3-34-86-38-87 0 15 53 115 12 119 90S17 21 10-45l28-5c4 36 97 45 98 0-10-56-113-15-118-90-4-57 82-63 122-42 12 7 21 19 24 35" id="aQ"/><g id="g"><use transform="matrix(0.04320987654320988,0,0,0.04320987654320988,0,0)" xlink:href="#aM"/><use transform="matrix(0.04320987654320988,0,0,0.04320987654320988,7.777777777777779,0)" xlink:href="#aN"/><use transform="matrix(0.04320987654320988,0,0,0.04320987654320988,16.419753086419753,0)" xlink:href="#aO"/><use transform="matrix(0.04320987654320988,0,0,0.04320987654320988,25.061728395061728,0)" xlink:href="#aP"/><use transform="matrix(0.04320987654320988,0,0,0.04320987654320988,28.47530864197531,0)" xlink:href="#aQ"/></g><path fill="#b2b2b2" d="M32 76v-337h29V76H32" id="aR"/><use transform="matrix(0.04320987654320988,0,0,0.04320987654320988,0,0)" xlink:href="#aR" id="h"/><path fill="#b2b2b2" d="M190 0L58-211 59 0H30v-248h39L202-35l-2-213h31V0h-41" id="aS"/><path fill="#b2b2b2" d="M108 0H70L1-190h34L89-25l56-165h34" id="aT"/><path fill="#b2b2b2" d="M100-194c63 0 86 42 84 106H49c0 40 14 67 53 68 26 1 43-12 49-29l28 8c-11 28-37 45-77 45C44 4 14-33 15-96c1-61 26-98 85-98zm52 81c6-60-76-77-97-28-3 7-6 17-6 28h103" id="aU"/><path fill="#b2b2b2" d="M210-169c-67 3-38 105-44 169h-31v-121c0-29-5-50-35-48C34-165 62-65 56 0H25l-1-190h30c1 10-1 24 2 32 10-44 99-50 107 0 11-21 27-35 58-36 85-2 47 119 55 194h-31v-121c0-29-5-49-35-48" id="aV"/><path fill="#b2b2b2" d="M115-194c53 0 69 39 70 98 0 66-23 100-70 100C84 3 66-7 56-30L54 0H23l1-261h32v101c10-23 28-34 59-34zm-8 174c40 0 45-34 45-75 0-40-5-75-45-74-42 0-51 32-51 76 0 43 10 73 51 73" id="aW"/><path fill="#b2b2b2" d="M114-163C36-179 61-72 57 0H25l-1-190h30c1 12-1 29 2 39 6-27 23-49 58-41v29" id="aX"/><g id="i"><use transform="matrix(0.04320987654320988,0,0,0.04320987654320988,0,0)" xlink:href="#aS"/><use transform="matrix(0.04320987654320988,0,0,0.04320987654320988,11.19135802469136,0)" xlink:href="#aN"/><use transform="matrix(0.04320987654320988,0,0,0.04320987654320988,19.833333333333336,0)" xlink:href="#aT"/><use transform="matrix(0.04320987654320988,0,0,0.04320987654320988,27.611111111111114,0)" xlink:href="#aU"/><use transform="matrix(0.04320987654320988,0,0,0.04320987654320988,36.25308641975309,0)" xlink:href="#aV"/><use transform="matrix(0.04320987654320988,0,0,0.04320987654320988,49.17283950617284,0)" xlink:href="#aW"/><use transform="matrix(0.04320987654320988,0,0,0.04320987654320988,57.814814814814824,0)" xlink:href="#aU"/><use transform="matrix(0.04320987654320988,0,0,0.04320987654320988,66.4567901234568,0)" xlink:href="#aX"/></g><path fill="#b2b2b2" d="M64 0c3-98 48-159 88-221H18v-27h164v26C143-157 98-101 97 0H64" id="aY"/><path fill="#b2b2b2" d="M68-38c1 34 0 65-14 84H32c9-13 17-26 17-46H33v-38h35" id="aZ"/><g id="j"><use transform="matrix(0.04320987654320988,0,0,0.04320987654320988,0,0)" xlink:href="#aY"/><use transform="matrix(0.04320987654320988,0,0,0.04320987654320988,8.641975308641976,0)" xlink:href="#aZ"/></g><path fill="#b2b2b2" d="M101-251c82-7 93 87 43 132L82-64C71-53 59-42 53-27h129V0H18c2-99 128-94 128-182 0-28-16-43-45-43s-46 15-49 41l-32-3c6-41 34-60 81-64" id="ba"/><path fill="#b2b2b2" d="M101-251c68 0 85 55 85 127S166 4 100 4C33 4 14-52 14-124c0-73 17-127 87-127zm-1 229c47 0 54-49 54-102s-4-102-53-102c-51 0-55 48-55 102 0 53 5 102 54 102" id="bb"/><path fill="#b2b2b2" d="M27 0v-27h64v-190l-56 39v-29l58-41h29v221h61V0H27" id="bc"/><path fill="#b2b2b2" d="M99-251c64 0 84 50 84 122C183-37 130 33 47-8c-14-7-20-23-25-40l30-5c6 39 69 39 84 7 9-19 16-44 16-74-10 22-31 35-62 35-49 0-73-33-73-83 0-54 28-83 82-83zm-1 141c31-1 51-18 51-49 0-36-14-67-51-67-34 0-49 23-49 58 0 34 15 58 49 58" id="bd"/><g id="k"><use transform="matrix(0.04320987654320988,0,0,0.04320987654320988,0,0)" xlink:href="#ba"/><use transform="matrix(0.04320987654320988,0,0,0.04320987654320988,8.641975308641976,0)" xlink:href="#bb"/><use transform="matrix(0.04320987654320988,0,0,0.04320987654320988,17.283950617283953,0)" xlink:href="#bc"/><use transform="matrix(0.04320987654320988,0,0,0.04320987654320988,25.925925925925927,0)" xlink:href="#bd"/></g><path d="M185-189c-5-48-123-54-124 2 14 75 158 14 163 119 3 78-121 87-175 55-17-10-28-26-33-46l33-7c5 56 141 63 141-1 0-78-155-14-162-118-5-82 145-84 179-34 5 7 8 16 11 25" id="be"/><path d="M59-47c-2 24 18 29 38 22v24C64 9 27 4 27-40v-127H5v-23h24l9-43h21v43h35v23H59v120" id="bf"/><path d="M141-36C126-15 110 5 73 4 37 3 15-17 15-53c-1-64 63-63 125-63 3-35-9-54-41-54-24 1-41 7-42 31l-33-3c5-37 33-52 76-52 45 0 72 20 72 64v82c-1 20 7 32 28 27v20c-31 9-61-2-59-35zM48-53c0 20 12 33 32 33 41-3 63-29 60-74-43 2-92-5-92 41" id="bg"/><path d="M117-194c89-4 53 116 60 194h-32v-121c0-31-8-49-39-48C34-167 62-67 57 0H25l-1-190h30c1 10-1 24 2 32 11-22 29-35 61-36" id="bh"/><g id="l"><use transform="matrix(0.05,0,0,0.05,0,0)" xlink:href="#be"/><use transform="matrix(0.05,0,0,0.05,12,0)" xlink:href="#bf"/><use transform="matrix(0.05,0,0,0.05,17,0)" xlink:href="#bg"/><use transform="matrix(0.05,0,0,0.05,27,0)" xlink:href="#bh"/></g><path d="M212-179c-10-28-35-45-73-45-59 0-87 40-87 99 0 60 29 101 89 101 43 0 62-24 78-52l27 14C228-24 195 4 139 4 59 4 22-46 18-125c-6-104 99-153 187-111 19 9 31 26 39 46" id="bi"/><path d="M24 0v-261h32V0H24" id="bj"/><path d="M135-143c-3-34-86-38-87 0 15 53 115 12 119 90S17 21 10-45l28-5c4 36 97 45 98 0-10-56-113-15-118-90-4-57 82-63 122-42 12 7 21 19 24 35" id="bk"/><g id="m"><use transform="matrix(0.05,0,0,0.05,0,0)" xlink:href="#bi"/><use transform="matrix(0.05,0,0,0.05,12.950000000000001,0)" xlink:href="#bj"/><use transform="matrix(0.05,0,0,0.05,16.900000000000002,0)" xlink:href="#bg"/><use transform="matrix(0.05,0,0,0.05,26.900000000000002,0)" xlink:href="#bk"/><use transform="matrix(0.05,0,0,0.05,35.900000000000006,0)" xlink:href="#bk"/></g><path d="M24-231v-30h32v30H24zM24 0v-190h32V0H24" id="bl"/><path d="M115-194c53 0 69 39 70 98 0 66-23 100-70 100C84 3 66-7 56-30L54 0H23l1-261h32v101c10-23 28-34 59-34zm-8 174c40 0 45-34 45-75 0-40-5-75-45-74-42 0-51 32-51 76 0 43 10 73 51 73" id="bm"/><path d="M100-194c63 0 86 42 84 106H49c0 40 14 67 53 68 26 1 43-12 49-29l28 8c-11 28-37 45-77 45C44 4 14-33 15-96c1-61 26-98 85-98zm52 81c6-60-76-77-97-28-3 7-6 17-6 28h103" id="bn"/><g id="n"><use transform="matrix(0.05,0,0,0.05,0,0)" xlink:href="#bf"/><use transform="matrix(0.05,0,0,0.05,5,0)" xlink:href="#bl"/><use transform="matrix(0.05,0,0,0.05,8.95,0)" xlink:href="#bm"/><use transform="matrix(0.05,0,0,0.05,18.95,0)" xlink:href="#bm"/><use transform="matrix(0.05,0,0,0.05,28.950000000000003,0)" xlink:href="#bj"/><use transform="matrix(0.05,0,0,0.05,32.9,0)" xlink:href="#bn"/></g><path fill="#fff" d="M30-248c87 1 191-15 191 75 0 78-77 80-158 76V0H30v-248zm33 125c57 0 124 11 124-50 0-59-68-47-124-48v98" id="bo"/><path fill="#fff" d="M141-36C126-15 110 5 73 4 37 3 15-17 15-53c-1-64 63-63 125-63 3-35-9-54-41-54-24 1-41 7-42 31l-33-3c5-37 33-52 76-52 45 0 72 20 72 64v82c-1 20 7 32 28 27v20c-31 9-61-2-59-35zM48-53c0 20 12 33 32 33 41-3 63-29 60-74-43 2-92-5-92 41" id="bp"/><path fill="#fff" d="M114-163C36-179 61-72 57 0H25l-1-190h30c1 12-1 29 2 39 6-27 23-49 58-41v29" id="bq"/><path fill="#fff" d="M100-194c63 0 86 42 84 106H49c0 40 14 67 53 68 26 1 43-12 49-29l28 8c-11 28-37 45-77 45C44 4 14-33 15-96c1-61 26-98 85-98zm52 81c6-60-76-77-97-28-3 7-6 17-6 28h103" id="br"/><path fill="#fff" d="M117-194c89-4 53 116 60 194h-32v-121c0-31-8-49-39-48C34-167 62-67 57 0H25l-1-190h30c1 10-1 24 2 32 11-22 29-35 61-36" id="bs"/><path fill="#fff" d="M59-47c-2 24 18 29 38 22v24C64 9 27 4 27-40v-127H5v-23h24l9-43h21v43h35v23H59v120" id="bt"/><g id="o"><use transform="matrix(0.050063688677604884,0,0,0.050063688677604884,0,0)" xlink:href="#bo"/><use transform="matrix(0.050063688677604884,0,0,0.050063688677604884,12.015285282625172,0)" xlink:href="#bp"/><use transform="matrix(0.050063688677604884,0,0,0.050063688677604884,22.02802301814615,0)" xlink:href="#bq"/><use transform="matrix(0.050063688677604884,0,0,0.050063688677604884,27.98560197078113,0)" xlink:href="#br"/><use transform="matrix(0.050063688677604884,0,0,0.050063688677604884,37.99833970630211,0)" xlink:href="#bs"/><use transform="matrix(0.050063688677604884,0,0,0.050063688677604884,48.01107744182309,0)" xlink:href="#bt"/></g><path fill="#fff" d="M101-234c-31-9-42 10-38 44h38v23H63V0H32v-167H5v-23h27c-7-52 17-82 69-68v24" id="bu"/><path fill="#fff" d="M24-231v-30h32v30H24zM24 0v-190h32V0H24" id="bv"/><g id="p"><use transform="matrix(0.050063688677604884,0,0,0.050063688677604884,0,0)" xlink:href="#bu"/><use transform="matrix(0.050063688677604884,0,0,0.050063688677604884,5.0063688677604885,0)" xlink:href="#bv"/><use transform="matrix(0.050063688677604884,0,0,0.050063688677604884,8.961400273291275,0)" xlink:href="#bt"/></g><path fill="#fff" d="M100-194c62-1 85 37 85 99 1 63-27 99-86 99S16-35 15-95c0-66 28-99 85-99zM99-20c44 1 53-31 53-75 0-43-8-75-51-75s-53 32-53 75 10 74 51 75" id="bw"/><path fill="#fff" d="M115-194c53 0 69 39 70 98 0 66-23 100-70 100C84 3 66-7 56-30L54 0H23l1-261h32v101c10-23 28-34 59-34zm-8 174c40 0 45-34 45-75 0-40-5-75-45-74-42 0-51 32-51 76 0 43 10 73 51 73" id="bx"/><path fill="#fff" d="M24-231v-30h32v30H24zM-9 49c24 4 33-6 33-30v-209h32V24c2 40-23 58-65 49V49" id="by"/><path fill="#fff" d="M96-169c-40 0-48 33-48 73s9 75 48 75c24 0 41-14 43-38l32 2c-6 37-31 61-74 61-59 0-76-41-82-99-10-93 101-131 147-64 4 7 5 14 7 22l-32 3c-4-21-16-35-41-35" id="bz"/><g id="q"><use transform="matrix(0.050063688677604884,0,0,0.050063688677604884,0,0)" xlink:href="#bw"/><use transform="matrix(0.050063688677604884,0,0,0.050063688677604884,10.012737735520977,0)" xlink:href="#bx"/><use transform="matrix(0.050063688677604884,0,0,0.050063688677604884,20.025475471041954,0)" xlink:href="#by"/><use transform="matrix(0.050063688677604884,0,0,0.050063688677604884,23.98050687657274,0)" xlink:href="#br"/><use transform="matrix(0.050063688677604884,0,0,0.050063688677604884,33.99324461209372,0)" xlink:href="#bz"/><use transform="matrix(0.050063688677604884,0,0,0.050063688677604884,43.0047085740626,0)" xlink:href="#bt"/></g><path d="M39-94c74 12-11 154 75 146v23c-44 4-70-10-70-52C44-23 55-84 6-82v-22c81 4-7-162 84-157h24v23c-82-15-2 131-75 144" id="bA"/><path d="M96-169c-40 0-48 33-48 73s9 75 48 75c24 0 41-14 43-38l32 2c-6 37-31 61-74 61-59 0-76-41-82-99-10-93 101-131 147-64 4 7 5 14 7 22l-32 3c-4-21-16-35-41-35" id="bB"/><path d="M106-169C34-169 62-67 57 0H25v-261h32l-1 103c12-21 28-36 61-36 89 0 53 116 60 194h-32v-121c2-32-8-49-39-48" id="bC"/><path d="M76-40C78 24 84 88 6 75V52C86 64 9-79 80-94c-40-6-34-59-34-106 1-29-11-41-40-38v-23c44-4 70 10 70 52 0 47-12 108 38 105v22c-26 1-39 14-38 42" id="bD"/><g id="r"><use transform="matrix(0.050063688677604884,0,0,0.050063688677604884,0,0)" xlink:href="#bA"/><use transform="matrix(0.050063688677604884,0,0,0.050063688677604884,6.007642641312586,0)" xlink:href="#bB"/><use transform="matrix(0.050063688677604884,0,0,0.050063688677604884,15.019106603281465,0)" xlink:href="#bC"/><use transform="matrix(0.050063688677604884,0,0,0.050063688677604884,25.031844338802443,0)" xlink:href="#bg"/><use transform="matrix(0.050063688677604884,0,0,0.050063688677604884,35.04458207432342,0)" xlink:href="#bl"/><use transform="matrix(0.050063688677604884,0,0,0.050063688677604884,38.999613479854204,0)" xlink:href="#bh"/><use transform="matrix(0.050063688677604884,0,0,0.050063688677604884,49.01235121537518,0)" xlink:href="#bk"/><use transform="matrix(0.050063688677604884,0,0,0.050063688677604884,58.02381517734406,0)" xlink:href="#bD"/></g><path d="M141 0L90-78 38 0H4l68-98-65-92h35l48 74 47-74h35l-64 92 68 98h-35" id="bE"/><use transform="matrix(0.050063688677604884,0,0,0.050063688677604884,0,0)" xlink:href="#bE" id="s"/><path d="M114-163C36-179 61-72 57 0H25l-1-190h30c1 12-1 29 2 39 6-27 23-49 58-41v29" id="bF"/><path d="M100-194c62-1 85 37 85 99 1 63-27 99-86 99S16-35 15-95c0-66 28-99 85-99zM99-20c44 1 53-31 53-75 0-43-8-75-51-75s-53 32-53 75 10 74 51 75" id="bG"/><g id="t"><use transform="matrix(0.050063688677604884,0,0,0.050063688677604884,0,0)" xlink:href="#bA"/><use transform="matrix(0.050063688677604884,0,0,0.050063688677604884,6.007642641312586,0)" xlink:href="#bl"/><use transform="matrix(0.050063688677604884,0,0,0.050063688677604884,9.962674046843372,0)" xlink:href="#bf"/><use transform="matrix(0.050063688677604884,0,0,0.050063688677604884,14.969042914603861,0)" xlink:href="#bn"/><use transform="matrix(0.050063688677604884,0,0,0.050063688677604884,24.98178065012484,0)" xlink:href="#bF"/><use transform="matrix(0.050063688677604884,0,0,0.050063688677604884,30.939359602759826,0)" xlink:href="#bg"/><use transform="matrix(0.050063688677604884,0,0,0.050063688677604884,40.9520973382808,0)" xlink:href="#bf"/><use transform="matrix(0.050063688677604884,0,0,0.050063688677604884,45.95846620604129,0)" xlink:href="#bl"/><use transform="matrix(0.050063688677604884,0,0,0.050063688677604884,49.91349761157207,0)" xlink:href="#bG"/><use transform="matrix(0.050063688677604884,0,0,0.050063688677604884,59.92623534709305,0)" xlink:href="#bh"/><use transform="matrix(0.050063688677604884,0,0,0.050063688677604884,69.93897308261403,0)" xlink:href="#bk"/><use transform="matrix(0.050063688677604884,0,0,0.050063688677604884,78.95043704458291,0)" xlink:href="#bD"/></g><path d="M115-194c55 1 70 41 70 98S169 2 115 4C84 4 66-9 55-30l1 105H24l-1-265h31l2 30c10-21 28-34 59-34zm-8 174c40 0 45-34 45-75s-6-73-45-74c-42 0-51 32-51 76 0 43 10 73 51 73" id="bH"/><g id="u"><use transform="matrix(0.050063688677604884,0,0,0.050063688677604884,0,0)" xlink:href="#bA"/><use transform="matrix(0.050063688677604884,0,0,0.050063688677604884,6.007642641312586,0)" xlink:href="#bH"/></g><path d="M118-107v75H92v-75H18v-26h74v-75h26v75h74v26h-74" id="bI"/><use transform="matrix(0.050063688677604884,0,0,0.050063688677604884,0,0)" xlink:href="#bI" id="v"/><g id="w"><use transform="matrix(0.050063688677604884,0,0,0.050063688677604884,0,0)" xlink:href="#bh"/><use transform="matrix(0.050063688677604884,0,0,0.050063688677604884,10.012737735520977,0)" xlink:href="#bD"/></g><path fill="#fff" d="M179-190L93 31C79 59 56 82 12 73V49c39 6 53-20 64-50L1-190h34L92-34l54-156h33" id="bJ"/><path fill="#fff" d="M135-143c-3-34-86-38-87 0 15 53 115 12 119 90S17 21 10-45l28-5c4 36 97 45 98 0-10-56-113-15-118-90-4-57 82-63 122-42 12 7 21 19 24 35" id="bK"/><path fill="#fff" d="M115-194c55 1 70 41 70 98S169 2 115 4C84 4 66-9 55-30l1 105H24l-1-265h31l2 30c10-21 28-34 59-34zm-8 174c40 0 45-34 45-75s-6-73-45-74c-42 0-51 32-51 76 0 43 10 73 51 73" id="bL"/><path fill="#fff" d="M24 0v-261h32V0H24" id="bM"/><g id="x"><use transform="matrix(0.050063688677604884,0,0,0.050063688677604884,0,0)" xlink:href="#bx"/><use transform="matrix(0.050063688677604884,0,0,0.050063688677604884,10.012737735520977,0)" xlink:href="#bp"/><use transform="matrix(0.050063688677604884,0,0,0.050063688677604884,20.025475471041954,0)" xlink:href="#bJ"/><use transform="matrix(0.050063688677604884,0,0,0.050063688677604884,29.036939433010833,0)" xlink:href="#br"/><use transform="matrix(0.050063688677604884,0,0,0.050063688677604884,39.04967716853181,0)" xlink:href="#bK"/><use transform="matrix(0.050063688677604884,0,0,0.050063688677604884,48.06114113050069,0)" xlink:href="#bL"/><use transform="matrix(0.050063688677604884,0,0,0.050063688677604884,58.073878866021666,0)" xlink:href="#bM"/><use transform="matrix(0.050063688677604884,0,0,0.050063688677604884,62.02891027155245,0)" xlink:href="#bw"/><use transform="matrix(0.050063688677604884,0,0,0.050063688677604884,72.04164800707342,0)" xlink:href="#bt"/></g><g id="y"><use transform="matrix(0.050063688677604884,0,0,0.050063688677604884,0,0)" xlink:href="#bf"/><use transform="matrix(0.050063688677604884,0,0,0.050063688677604884,5.0063688677604885,0)" xlink:href="#bl"/><use transform="matrix(0.050063688677604884,0,0,0.050063688677604884,8.961400273291275,0)" xlink:href="#bm"/><use transform="matrix(0.050063688677604884,0,0,0.050063688677604884,18.974138008812254,0)" xlink:href="#bm"/><use transform="matrix(0.050063688677604884,0,0,0.050063688677604884,28.986875744333233,0)" xlink:href="#bj"/><use transform="matrix(0.050063688677604884,0,0,0.050063688677604884,32.94190714986402,0)" xlink:href="#bn"/></g><g id="z"><use transform="matrix(0.050063688677604884,0,0,0.050063688677604884,0,0)" xlink:href="#bo"/><use transform="matrix(0.050063688677604884,0,0,0.050063688677604884,12.015285282625172,0)" xlink:href="#bw"/><use transform="matrix(0.050063688677604884,0,0,0.050063688677604884,22.02802301814615,0)" xlink:href="#bK"/><use transform="matrix(0.050063688677604884,0,0,0.050063688677604884,31.03948698011503,0)" xlink:href="#bt"/></g><path fill="#fff" d="M177-190C167-65 218 103 67 71c-23-6-38-20-44-43l32-5c15 47 100 32 89-28v-30C133-14 115 1 83 1 29 1 15-40 15-95c0-56 16-97 71-98 29-1 48 16 59 35 1-10 0-23 2-32h30zM94-22c36 0 50-32 50-73 0-42-14-75-50-75-39 0-46 34-46 75s6 73 46 73" id="bN"/><g id="A"><use transform="matrix(0.050063688677604884,0,0,0.050063688677604884,0,0)" xlink:href="#bo"/><use transform="matrix(0.050063688677604884,0,0,0.050063688677604884,12.015285282625172,0)" xlink:href="#bq"/><use transform="matrix(0.050063688677604884,0,0,0.050063688677604884,17.972864235260154,0)" xlink:href="#bw"/><use transform="matrix(0.050063688677604884,0,0,0.050063688677604884,27.98560197078113,0)" xlink:href="#bz"/><use transform="matrix(0.050063688677604884,0,0,0.050063688677604884,36.99706593275001,0)" xlink:href="#br"/><use transform="matrix(0.050063688677604884,0,0,0.050063688677604884,47.00980366827099,0)" xlink:href="#bK"/><use transform="matrix(0.050063688677604884,0,0,0.050063688677604884,56.02126763023986,0)" xlink:href="#bK"/><use transform="matrix(0.050063688677604884,0,0,0.050063688677604884,65.03273159220875,0)" xlink:href="#bv"/><use transform="matrix(0.050063688677604884,0,0,0.050063688677604884,68.98776299773954,0)" xlink:href="#bs"/><use transform="matrix(0.050063688677604884,0,0,0.050063688677604884,79.00050073326051,0)" xlink:href="#bN"/></g><path fill="#fff" d="M160-131c35 5 61 23 61 61C221 17 115-2 30 0v-248c76 3 177-17 177 60 0 33-19 50-47 57zm-97-11c50-1 110 9 110-42 0-47-63-36-110-37v79zm0 115c55-2 124 14 124-45 0-56-70-42-124-44v89" id="bO"/><path fill="#fff" d="M85-194c31 0 48 13 60 33l-1-100h32l1 261h-30c-2-10 0-23-3-31C134-8 116 4 85 4 32 4 16-35 15-94c0-66 23-100 70-100zm9 24c-40 0-46 34-46 75 0 40 6 74 45 74 42 0 51-32 51-76 0-42-9-74-50-73" id="bP"/><g id="B"><use transform="matrix(0.050063688677604884,0,0,0.050063688677604884,0,0)" xlink:href="#bO"/><use transform="matrix(0.050063688677604884,0,0,0.050063688677604884,12.015285282625172,0)" xlink:href="#bp"/><use transform="matrix(0.050063688677604884,0,0,0.050063688677604884,22.02802301814615,0)" xlink:href="#bK"/><use transform="matrix(0.050063688677604884,0,0,0.050063688677604884,31.03948698011503,0)" xlink:href="#br"/><use transform="matrix(0.050063688677604884,0,0,0.050063688677604884,41.05222471563601,0)" xlink:href="#bP"/></g><g id="C"><use transform="matrix(0.050063688677604884,0,0,0.050063688677604884,0,0)" xlink:href="#bw"/><use transform="matrix(0.050063688677604884,0,0,0.050063688677604884,10.012737735520977,0)" xlink:href="#bs"/></g><g id="D"><use transform="matrix(0.050063688677604884,0,0,0.050063688677604884,0,0)" xlink:href="#bo"/><use transform="matrix(0.050063688677604884,0,0,0.050063688677604884,12.015285282625172,0)" xlink:href="#bw"/><use transform="matrix(0.050063688677604884,0,0,0.050063688677604884,22.02802301814615,0)" xlink:href="#bK"/><use transform="matrix(0.050063688677604884,0,0,0.050063688677604884,31.03948698011503,0)" xlink:href="#bt"/><use transform="matrix(0.050063688677604884,0,0,0.050063688677604884,36.045855847875515,0)" xlink:href="#br"/><use transform="matrix(0.050063688677604884,0,0,0.050063688677604884,46.058593583396494,0)" xlink:href="#bq"/><use transform="matrix(0.050063688677604884,0,0,0.050063688677604884,52.016172536031476,0)" xlink:href="#bv"/><use transform="matrix(0.050063688677604884,0,0,0.050063688677604884,55.97120394156226,0)" xlink:href="#bw"/><use transform="matrix(0.050063688677604884,0,0,0.050063688677604884,65.98394167708324,0)" xlink:href="#bq"/></g><path fill="#fff" d="M185-189c-5-48-123-54-124 2 14 75 158 14 163 119 3 78-121 87-175 55-17-10-28-26-33-46l33-7c5 56 141 63 141-1 0-78-155-14-162-118-5-82 145-84 179-34 5 7 8 16 11 25" id="bQ"/><path fill="#fff" d="M210-169c-67 3-38 105-44 169h-31v-121c0-29-5-50-35-48C34-165 62-65 56 0H25l-1-190h30c1 10-1 24 2 32 10-44 99-50 107 0 11-21 27-35 58-36 85-2 47 119 55 194h-31v-121c0-29-5-49-35-48" id="bR"/><g id="E"><use transform="matrix(0.050063688677604884,0,0,0.050063688677604884,0,0)" xlink:href="#bQ"/><use transform="matrix(0.050063688677604884,0,0,0.050063688677604884,12.015285282625172,0)" xlink:href="#bp"/><use transform="matrix(0.050063688677604884,0,0,0.050063688677604884,22.02802301814615,0)" xlink:href="#bR"/><use transform="matrix(0.050063688677604884,0,0,0.050063688677604884,36.99706593275001,0)" xlink:href="#bL"/><use transform="matrix(0.050063688677604884,0,0,0.050063688677604884,47.00980366827099,0)" xlink:href="#bM"/><use transform="matrix(0.050063688677604884,0,0,0.050063688677604884,50.96483507380178,0)" xlink:href="#br"/><use transform="matrix(0.050063688677604884,0,0,0.050063688677604884,60.97757280932276,0)" xlink:href="#bK"/></g><path fill="#fff" d="M194 0L95-120 63-95V0H30v-248h33v124l119-124h40L117-140 236 0h-42" id="bS"/><g id="F"><use transform="matrix(0.050063688677604884,0,0,0.050063688677604884,0,0)" xlink:href="#bS"/><use transform="matrix(0.050063688677604884,0,0,0.050063688677604884,12.015285282625172,0)" xlink:href="#bp"/><use transform="matrix(0.050063688677604884,0,0,0.050063688677604884,22.02802301814615,0)" xlink:href="#bL"/><use transform="matrix(0.050063688677604884,0,0,0.050063688677604884,32.04076075366713,0)" xlink:href="#bM"/><use transform="matrix(0.050063688677604884,0,0,0.050063688677604884,35.99579215919792,0)" xlink:href="#bp"/><use transform="matrix(0.050063688677604884,0,0,0.050063688677604884,46.0085298947189,0)" xlink:href="#bs"/></g><path fill="#fff" d="M240 0l2-218c-23 76-54 145-80 218h-23L58-218 59 0H30v-248h44l77 211c21-75 51-140 76-211h43V0h-30" id="bT"/><g id="G"><use transform="matrix(0.050063688677604884,0,0,0.050063688677604884,0,0)" xlink:href="#bT"/><use transform="matrix(0.050063688677604884,0,0,0.050063688677604884,14.969042914603861,0)" xlink:href="#br"/><use transform="matrix(0.050063688677604884,0,0,0.050063688677604884,24.98178065012484,0)" xlink:href="#bv"/><use transform="matrix(0.050063688677604884,0,0,0.050063688677604884,28.936812055655622,0)" xlink:href="#bq"/></g><path fill="#fff" d="M137 0h-34L2-248h35l83 218 83-218h36" id="bU"/><path fill="#fff" d="M212-179c-10-28-35-45-73-45-59 0-87 40-87 99 0 60 29 101 89 101 43 0 62-24 78-52l27 14C228-24 195 4 139 4 59 4 22-46 18-125c-6-104 99-153 187-111 19 9 31 26 39 46" id="bV"/><g id="H"><use transform="matrix(0.050063688677604884,0,0,0.050063688677604884,0,0)" xlink:href="#bU"/><use transform="matrix(0.050063688677604884,0,0,0.050063688677604884,12.015285282625172,0)" xlink:href="#bo"/><use transform="matrix(0.050063688677604884,0,0,0.050063688677604884,24.030570565250343,0)" xlink:href="#bV"/></g><path fill="#fff" d="M63-220v92h138v28H63V0H30v-248h175v28H63" id="bW"/><g id="I"><use transform="matrix(0.050063688677604884,0,0,0.050063688677604884,0,0)" xlink:href="#bW"/><use transform="matrix(0.050063688677604884,0,0,0.050063688677604884,10.96394782039547,0)" xlink:href="#bw"/><use transform="matrix(0.050063688677604884,0,0,0.050063688677604884,20.976685555916447,0)" xlink:href="#bq"/><use transform="matrix(0.050063688677604884,0,0,0.050063688677604884,26.93426450855143,0)" xlink:href="#bq"/><use transform="matrix(0.050063688677604884,0,0,0.050063688677604884,32.89184346118641,0)" xlink:href="#br"/><use transform="matrix(0.050063688677604884,0,0,0.050063688677604884,42.90458119670739,0)" xlink:href="#bK"/><use transform="matrix(0.050063688677604884,0,0,0.050063688677604884,51.91604515867626,0)" xlink:href="#bt"/></g><g id="J"><use transform="matrix(0.050063688677604884,0,0,0.050063688677604884,0,0)" xlink:href="#bo"/><use transform="matrix(0.050063688677604884,0,0,0.050063688677604884,12.015285282625172,0)" xlink:href="#bM"/><use transform="matrix(0.050063688677604884,0,0,0.050063688677604884,15.970316688155958,0)" xlink:href="#bw"/><use transform="matrix(0.050063688677604884,0,0,0.050063688677604884,25.983054423676936,0)" xlink:href="#bt"/><use transform="matrix(0.050063688677604884,0,0,0.050063688677604884,30.989423291437422,0)" xlink:href="#bK"/></g><g id="K"><use transform="matrix(0.050063688677604884,0,0,0.050063688677604884,0,0)" xlink:href="#bL"/><use transform="matrix(0.050063688677604884,0,0,0.050063688677604884,10.012737735520977,0)" xlink:href="#bp"/><use transform="matrix(0.050063688677604884,0,0,0.050063688677604884,20.025475471041954,0)" xlink:href="#bq"/><use transform="matrix(0.050063688677604884,0,0,0.050063688677604884,25.983054423676936,0)" xlink:href="#bp"/><use transform="matrix(0.050063688677604884,0,0,0.050063688677604884,35.99579215919791,0)" xlink:href="#bR"/><use transform="matrix(0.050063688677604884,0,0,0.050063688677604884,50.96483507380177,0)" xlink:href="#br"/><use transform="matrix(0.050063688677604884,0,0,0.050063688677604884,60.97757280932275,0)" xlink:href="#bt"/><use transform="matrix(0.050063688677604884,0,0,0.050063688677604884,65.98394167708324,0)" xlink:href="#br"/><use transform="matrix(0.050063688677604884,0,0,0.050063688677604884,75.99667941260421,0)" xlink:href="#bq"/></g><g id="L"><use transform="matrix(0.050063688677604884,0,0,0.050063688677604884,0,0)" xlink:href="#bt"/><use transform="matrix(0.050063688677604884,0,0,0.050063688677604884,5.0063688677604885,0)" xlink:href="#bp"/><use transform="matrix(0.050063688677604884,0,0,0.050063688677604884,15.019106603281465,0)" xlink:href="#bx"/><use transform="matrix(0.050063688677604884,0,0,0.050063688677604884,25.031844338802443,0)" xlink:href="#bM"/><use transform="matrix(0.050063688677604884,0,0,0.050063688677604884,28.98687574433323,0)" xlink:href="#br"/><use transform="matrix(0.050063688677604884,0,0,0.050063688677604884,38.999613479854204,0)" xlink:href="#bK"/></g><path fill="#fff" d="M266 0h-40l-56-210L115 0H75L2-248h35L96-30l15-64 43-154h32l59 218 59-218h35" id="bX"/><path fill="#fff" d="M205 0l-28-72H64L36 0H1l101-248h38L239 0h-34zm-38-99l-47-123c-12 45-31 82-46 123h93" id="bY"/><path fill="#fff" d="M33 0v-248h34V0H33" id="bZ"/><g id="M"><use transform="matrix(0.050063688677604884,0,0,0.050063688677604884,0,0)" xlink:href="#bX"/><use transform="matrix(0.050063688677604884,0,0,0.050063688677604884,16.32076250889919,0)" xlink:href="#bY"/><use transform="matrix(0.050063688677604884,0,0,0.050063688677604884,28.336047791524358,0)" xlink:href="#bZ"/><use transform="matrix(0.050063688677604884,0,0,0.050063688677604884,33.34241665928485,0)" xlink:href="#bV"/></g><g id="N"><use transform="matrix(0.050063688677604884,0,0,0.050063688677604884,0,0)" xlink:href="#bt"/><use transform="matrix(0.050063688677604884,0,0,0.050063688677604884,5.0063688677604885,0)" xlink:href="#bq"/><use transform="matrix(0.050063688677604884,0,0,0.050063688677604884,10.96394782039547,0)" xlink:href="#bp"/><use transform="matrix(0.050063688677604884,0,0,0.050063688677604884,20.976685555916447,0)" xlink:href="#bz"/><use transform="matrix(0.050063688677604884,0,0,0.050063688677604884,29.988149517885326,0)" xlink:href="#br"/><use transform="matrix(0.050063688677604884,0,0,0.050063688677604884,40.000887253406304,0)" xlink:href="#bL"/><use transform="matrix(0.050063688677604884,0,0,0.050063688677604884,50.01362498892728,0)" xlink:href="#bM"/><use transform="matrix(0.050063688677604884,0,0,0.050063688677604884,53.968656394458066,0)" xlink:href="#bw"/><use transform="matrix(0.050063688677604884,0,0,0.050063688677604884,63.981394129979044,0)" xlink:href="#bt"/></g><path fill="#fff" d="M106-169C34-169 62-67 57 0H25v-261h32l-1 103c12-21 28-36 61-36 89 0 53 116 60 194h-32v-121c2-32-8-49-39-48" id="ca"/><g id="O"><use transform="matrix(0.050063688677604884,0,0,0.050063688677604884,0,0)" xlink:href="#bq"/><use transform="matrix(0.050063688677604884,0,0,0.050063688677604884,5.957578952634981,0)" xlink:href="#ca"/><use transform="matrix(0.050063688677604884,0,0,0.050063688677604884,15.970316688155958,0)" xlink:href="#bp"/><use transform="matrix(0.050063688677604884,0,0,0.050063688677604884,25.983054423676936,0)" xlink:href="#bt"/></g><path fill="#fff" d="M16-82v-28h88v28H16" id="cb"/><path fill="#fff" d="M143 0L79-87 56-68V0H24v-261h32v163l83-92h37l-77 82L181 0h-38" id="cc"/><g id="P"><use transform="matrix(0.050063688677604884,0,0,0.050063688677604884,0,0)" xlink:href="#bL"/><use transform="matrix(0.050063688677604884,0,0,0.050063688677604884,10.012737735520977,0)" xlink:href="#bp"/><use transform="matrix(0.050063688677604884,0,0,0.050063688677604884,20.025475471041954,0)" xlink:href="#bq"/><use transform="matrix(0.050063688677604884,0,0,0.050063688677604884,25.983054423676936,0)" xlink:href="#br"/><use transform="matrix(0.050063688677604884,0,0,0.050063688677604884,35.99579215919791,0)" xlink:href="#bt"/><use transform="matrix(0.050063688677604884,0,0,0.050063688677604884,41.0021610269584,0)" xlink:href="#bw"/><use transform="matrix(0.050063688677604884,0,0,0.050063688677604884,51.014898762479376,0)" xlink:href="#cb"/><use transform="matrix(0.050063688677604884,0,0,0.050063688677604884,56.97247771511436,0)" xlink:href="#cc"/></g><g id="Q"><use transform="matrix(0.050063688677604884,0,0,0.050063688677604884,0,0)" xlink:href="#bL"/><use transform="matrix(0.050063688677604884,0,0,0.050063688677604884,10.012737735520977,0)" xlink:href="#bw"/><use transform="matrix(0.050063688677604884,0,0,0.050063688677604884,20.025475471041954,0)" xlink:href="#bK"/><use transform="matrix(0.050063688677604884,0,0,0.050063688677604884,29.036939433010833,0)" xlink:href="#bt"/><use transform="matrix(0.050063688677604884,0,0,0.050063688677604884,34.04330830077132,0)" xlink:href="#br"/><use transform="matrix(0.050063688677604884,0,0,0.050063688677604884,44.0560460362923,0)" xlink:href="#bq"/><use transform="matrix(0.050063688677604884,0,0,0.050063688677604884,50.01362498892728,0)" xlink:href="#bv"/><use transform="matrix(0.050063688677604884,0,0,0.050063688677604884,53.968656394458066,0)" xlink:href="#bw"/><use transform="matrix(0.050063688677604884,0,0,0.050063688677604884,63.981394129979044,0)" xlink:href="#bq"/></g><g id="R"><use transform="matrix(0.050063688677604884,0,0,0.050063688677604884,0,0)" xlink:href="#bL"/><use transform="matrix(0.050063688677604884,0,0,0.050063688677604884,10.012737735520977,0)" xlink:href="#bq"/><use transform="matrix(0.050063688677604884,0,0,0.050063688677604884,15.970316688155958,0)" xlink:href="#br"/><use transform="matrix(0.050063688677604884,0,0,0.050063688677604884,25.983054423676936,0)" xlink:href="#bP"/><use transform="matrix(0.050063688677604884,0,0,0.050063688677604884,35.99579215919791,0)" xlink:href="#bv"/><use transform="matrix(0.050063688677604884,0,0,0.050063688677604884,39.950823564728694,0)" xlink:href="#bz"/><use transform="matrix(0.050063688677604884,0,0,0.050063688677604884,48.96228752669757,0)" xlink:href="#bt"/><use transform="matrix(0.050063688677604884,0,0,0.050063688677604884,53.96865639445805,0)" xlink:href="#bv"/><use transform="matrix(0.050063688677604884,0,0,0.050063688677604884,57.92368779998884,0)" xlink:href="#bw"/><use transform="matrix(0.050063688677604884,0,0,0.050063688677604884,67.93642553550981,0)" xlink:href="#bs"/><use transform="matrix(0.050063688677604884,0,0,0.050063688677604884,77.94916327103078,0)" xlink:href="#bK"/></g><g id="S"><use transform="matrix(0.050063688677604884,0,0,0.050063688677604884,0,0)" xlink:href="#bM"/><use transform="matrix(0.050063688677604884,0,0,0.050063688677604884,3.955031405530786,0)" xlink:href="#bw"/><use transform="matrix(0.050063688677604884,0,0,0.050063688677604884,13.967769141051763,0)" xlink:href="#bw"/></g><g id="T"><use transform="matrix(0.050063688677604884,0,0,0.050063688677604884,0,0)" xlink:href="#bL"/><use transform="matrix(0.050063688677604884,0,0,0.050063688677604884,10.012737735520977,0)" xlink:href="#bp"/><use transform="matrix(0.050063688677604884,0,0,0.050063688677604884,20.025475471041954,0)" xlink:href="#bv"/><use transform="matrix(0.050063688677604884,0,0,0.050063688677604884,23.98050687657274,0)" xlink:href="#bq"/><use transform="matrix(0.050063688677604884,0,0,0.050063688677604884,29.938085829207722,0)" xlink:href="#bK"/></g><g id="U"><use transform="matrix(0.050063688677604884,0,0,0.050063688677604884,0,0)" xlink:href="#bL"/><use transform="matrix(0.050063688677604884,0,0,0.050063688677604884,10.012737735520977,0)" xlink:href="#bM"/><use transform="matrix(0.050063688677604884,0,0,0.050063688677604884,13.967769141051763,0)" xlink:href="#bw"/><use transform="matrix(0.050063688677604884,0,0,0.050063688677604884,23.98050687657274,0)" xlink:href="#bt"/></g><g id="V"><use transform="matrix(0.050063688677604884,0,0,0.050063688677604884,0,0)" xlink:href="#bq"/><use transform="matrix(0.050063688677604884,0,0,0.050063688677604884,5.957578952634981,0)" xlink:href="#bK"/><use transform="matrix(0.050063688677604884,0,0,0.050063688677604884,14.969042914603861,0)" xlink:href="#bt"/><use transform="matrix(0.050063688677604884,0,0,0.050063688677604884,19.97541178236435,0)" xlink:href="#bp"/><use transform="matrix(0.050063688677604884,0,0,0.050063688677604884,29.988149517885326,0)" xlink:href="#bs"/></g><path fill="#fff" d="M84 4C-5 8 30-112 23-190h32v120c0 31 7 50 39 49 72-2 45-101 50-169h31l1 190h-30c-1-10 1-25-2-33-11 22-28 36-60 37" id="cd"/><g id="W"><use transform="matrix(0.050063688677604884,0,0,0.050063688677604884,0,0)" xlink:href="#bK"/><use transform="matrix(0.050063688677604884,0,0,0.050063688677604884,9.011463961968879,0)" xlink:href="#cd"/><use transform="matrix(0.050063688677604884,0,0,0.050063688677604884,19.024201697489858,0)" xlink:href="#bx"/><use transform="matrix(0.050063688677604884,0,0,0.050063688677604884,29.03693943301084,0)" xlink:href="#by"/><use transform="matrix(0.050063688677604884,0,0,0.050063688677604884,32.99197083854162,0)" xlink:href="#br"/><use transform="matrix(0.050063688677604884,0,0,0.050063688677604884,43.0047085740626,0)" xlink:href="#bz"/><use transform="matrix(0.050063688677604884,0,0,0.050063688677604884,52.016172536031476,0)" xlink:href="#bt"/></g><g id="X"><use transform="matrix(0.050063688677604884,0,0,0.050063688677604884,0,0)" xlink:href="#bK"/><use transform="matrix(0.050063688677604884,0,0,0.050063688677604884,9.011463961968879,0)" xlink:href="#bL"/><use transform="matrix(0.050063688677604884,0,0,0.050063688677604884,19.024201697489858,0)" xlink:href="#br"/><use transform="matrix(0.050063688677604884,0,0,0.050063688677604884,29.03693943301084,0)" xlink:href="#bz"/><use transform="matrix(0.050063688677604884,0,0,0.050063688677604884,38.048403394979715,0)" xlink:href="#bv"/><use transform="matrix(0.050063688677604884,0,0,0.050063688677604884,42.003434800510504,0)" xlink:href="#bu"/><use transform="matrix(0.050063688677604884,0,0,0.050063688677604884,47.00980366827099,0)" xlink:href="#bv"/><use transform="matrix(0.050063688677604884,0,0,0.050063688677604884,50.96483507380178,0)" xlink:href="#bz"/></g><g id="Y"><use transform="matrix(0.050063688677604884,0,0,0.050063688677604884,0,0)" xlink:href="#bL"/><use transform="matrix(0.050063688677604884,0,0,0.050063688677604884,10.012737735520977,0)" xlink:href="#bp"/><use transform="matrix(0.050063688677604884,0,0,0.050063688677604884,20.025475471041954,0)" xlink:href="#bq"/><use transform="matrix(0.050063688677604884,0,0,0.050063688677604884,25.983054423676936,0)" xlink:href="#bp"/><use transform="matrix(0.050063688677604884,0,0,0.050063688677604884,35.99579215919791,0)" xlink:href="#bR"/><use transform="matrix(0.050063688677604884,0,0,0.050063688677604884,50.96483507380177,0)" xlink:href="#br"/><use transform="matrix(0.050063688677604884,0,0,0.050063688677604884,60.97757280932275,0)" xlink:href="#bt"/><use transform="matrix(0.050063688677604884,0,0,0.050063688677604884,65.98394167708324,0)" xlink:href="#br"/><use transform="matrix(0.050063688677604884,0,0,0.050063688677604884,75.99667941260421,0)" xlink:href="#bq"/></g><g id="Z"><use transform="matrix(0.050063688677604884,0,0,0.050063688677604884,0,0)" xlink:href="#bL"/><use transform="matrix(0.050063688677604884,0,0,0.050063688677604884,10.012737735520977,0)" xlink:href="#bw"/><use transform="matrix(0.050063688677604884,0,0,0.050063688677604884,20.025475471041954,0)" xlink:href="#bK"/><use transform="matrix(0.050063688677604884,0,0,0.050063688677604884,29.036939433010833,0)" xlink:href="#bt"/><use transform="matrix(0.050063688677604884,0,0,0.050063688677604884,34.04330830077132,0)" xlink:href="#br"/><use transform="matrix(0.050063688677604884,0,0,0.050063688677604884,44.0560460362923,0)" xlink:href="#bq"/><use transform="matrix(0.050063688677604884,0,0,0.050063688677604884,50.01362498892728,0)" xlink:href="#bv"/><use transform="matrix(0.050063688677604884,0,0,0.050063688677604884,53.968656394458066,0)" xlink:href="#bw"/><use transform="matrix(0.050063688677604884,0,0,0.050063688677604884,63.981394129979044,0)" xlink:href="#bq"/><use transform="matrix(0.050063688677604884,0,0,0.050063688677604884,69.93897308261403,0)" xlink:href="#bK"/></g><g id="aa"><use transform="matrix(0.050063688677604884,0,0,0.050063688677604884,0,0)" xlink:href="#bz"/><use transform="matrix(0.050063688677604884,0,0,0.050063688677604884,9.011463961968879,0)" xlink:href="#ca"/><use transform="matrix(0.050063688677604884,0,0,0.050063688677604884,19.024201697489858,0)" xlink:href="#bv"/><use transform="matrix(0.050063688677604884,0,0,0.050063688677604884,22.979233103020643,0)" xlink:href="#bM"/><use transform="matrix(0.050063688677604884,0,0,0.050063688677604884,26.93426450855143,0)" xlink:href="#bP"/></g><path fill="#fff" d="M27 0v-27h64v-190l-56 39v-29l58-41h29v221h61V0H27" id="ce"/><use transform="matrix(0.050063688677604884,0,0,0.050063688677604884,0,0)" xlink:href="#ce" id="ab"/><path fill="#fff" d="M101-251c82-7 93 87 43 132L82-64C71-53 59-42 53-27h129V0H18c2-99 128-94 128-182 0-28-16-43-45-43s-46 15-49 41l-32-3c6-41 34-60 81-64" id="cf"/><use transform="matrix(0.050063688677604884,0,0,0.050063688677604884,0,0)" xlink:href="#cf" id="ac"/><path fill="#fff" d="M126-127c33 6 58 20 58 59 0 88-139 92-164 29-3-8-5-16-6-25l32-3c6 27 21 44 54 44 32 0 52-15 52-46 0-38-36-46-79-43v-28c39 1 72-4 72-42 0-27-17-43-46-43-28 0-47 15-49 41l-32-3c6-42 35-63 81-64 48-1 79 21 79 65 0 36-21 52-52 59" id="cg"/><use transform="matrix(0.050063688677604884,0,0,0.050063688677604884,0,0)" xlink:href="#cg" id="ad"/><path d="M127-220V0H93v-220H8v-28h204v28h-85" id="ch"/><path d="M143 0L79-87 56-68V0H24v-261h32v163l83-92h37l-77 82L181 0h-38" id="ci"/><g id="ae"><use transform="matrix(0.050063688677604884,0,0,0.050063688677604884,0,0)" xlink:href="#ch"/><use transform="matrix(0.050063688677604884,0,0,0.050063688677604884,8.961400273291275,0)" xlink:href="#bg"/><use transform="matrix(0.050063688677604884,0,0,0.050063688677604884,18.974138008812254,0)" xlink:href="#bk"/><use transform="matrix(0.050063688677604884,0,0,0.050063688677604884,27.98560197078113,0)" xlink:href="#ci"/></g><path d="M101-234c-31-9-42 10-38 44h38v23H63V0H32v-167H5v-23h27c-7-52 17-82 69-68v24" id="cj"/><g id="af"><use transform="matrix(0.050063688677604884,0,0,0.050063688677604884,0,0)" xlink:href="#be"/><use transform="matrix(0.050063688677604884,0,0,0.050063688677604884,12.015285282625172,0)" xlink:href="#bH"/><use transform="matrix(0.050063688677604884,0,0,0.050063688677604884,22.02802301814615,0)" xlink:href="#bn"/><use transform="matrix(0.050063688677604884,0,0,0.050063688677604884,32.04076075366713,0)" xlink:href="#bB"/><use transform="matrix(0.050063688677604884,0,0,0.050063688677604884,41.05222471563601,0)" xlink:href="#bl"/><use transform="matrix(0.050063688677604884,0,0,0.050063688677604884,45.00725612116679,0)" xlink:href="#cj"/><use transform="matrix(0.050063688677604884,0,0,0.050063688677604884,50.013624988927276,0)" xlink:href="#bl"/><use transform="matrix(0.050063688677604884,0,0,0.050063688677604884,53.968656394458066,0)" xlink:href="#bB"/></g><path d="M84 4C-5 8 30-112 23-190h32v120c0 31 7 50 39 49 72-2 45-101 50-169h31l1 190h-30c-1-10 1-25-2-33-11 22-28 36-60 37" id="ck"/><g id="ag"><use transform="matrix(0.050063688677604884,0,0,0.050063688677604884,0,0)" xlink:href="#be"/><use transform="matrix(0.050063688677604884,0,0,0.050063688677604884,12.015285282625172,0)" xlink:href="#ck"/><use transform="matrix(0.050063688677604884,0,0,0.050063688677604884,22.02802301814615,0)" xlink:href="#bm"/><use transform="matrix(0.050063688677604884,0,0,0.050063688677604884,32.04076075366713,0)" xlink:href="#bk"/><use transform="matrix(0.050063688677604884,0,0,0.050063688677604884,41.05222471563601,0)" xlink:href="#bn"/><use transform="matrix(0.050063688677604884,0,0,0.050063688677604884,51.06496245115699,0)" xlink:href="#bf"/><use transform="matrix(0.050063688677604884,0,0,0.050063688677604884,56.07133131891747,0)" xlink:href="#bk"/></g><g id="ah"><use transform="matrix(0.050063688677604884,0,0,0.050063688677604884,0,0)" xlink:href="#bG"/><use transform="matrix(0.050063688677604884,0,0,0.050063688677604884,10.012737735520977,0)" xlink:href="#cj"/></g><g id="ai"><use transform="matrix(0.050063688677604884,0,0,0.050063688677604884,0,0)" xlink:href="#ax"/><use transform="matrix(0.050063688677604884,0,0,0.050063688677604884,12.015285282625172,0)" xlink:href="#bg"/><use transform="matrix(0.050063688677604884,0,0,0.050063688677604884,22.02802301814615,0)" xlink:href="#bF"/><use transform="matrix(0.050063688677604884,0,0,0.050063688677604884,27.98560197078113,0)" xlink:href="#bn"/><use transform="matrix(0.050063688677604884,0,0,0.050063688677604884,37.99833970630211,0)" xlink:href="#bh"/><use transform="matrix(0.050063688677604884,0,0,0.050063688677604884,48.01107744182309,0)" xlink:href="#bf"/></g><path fill="#fff" d="M155-56V0h-30v-56H8v-25l114-167h33v167h35v25h-35zm-30-156c-27 46-58 90-88 131h88v-131" id="cl"/><use transform="matrix(0.050063688677604884,0,0,0.050063688677604884,0,0)" xlink:href="#cl" id="aj"/><path fill="#fff" d="M108 0H70L1-190h34L89-25l56-165h34" id="cm"/><g id="ak"><use transform="matrix(0.050063688677604884,0,0,0.050063688677604884,0,0)" xlink:href="#bt"/><use transform="matrix(0.050063688677604884,0,0,0.050063688677604884,5.0063688677604885,0)" xlink:href="#bv"/><use transform="matrix(0.050063688677604884,0,0,0.050063688677604884,8.961400273291275,0)" xlink:href="#bP"/><use transform="matrix(0.050063688677604884,0,0,0.050063688677604884,18.974138008812254,0)" xlink:href="#bJ"/><use transform="matrix(0.050063688677604884,0,0,0.050063688677604884,27.98560197078113,0)" xlink:href="#cm"/><use transform="matrix(0.050063688677604884,0,0,0.050063688677604884,36.99706593275001,0)" xlink:href="#br"/><use transform="matrix(0.050063688677604884,0,0,0.050063688677604884,47.00980366827099,0)" xlink:href="#bq"/><use transform="matrix(0.050063688677604884,0,0,0.050063688677604884,52.967382620905965,0)" xlink:href="#bK"/><use transform="matrix(0.050063688677604884,0,0,0.050063688677604884,61.978846582874844,0)" xlink:href="#br"/></g><g id="al"><use transform="matrix(0.050063688677604884,0,0,0.050063688677604884,0,0)" xlink:href="#bK"/><use transform="matrix(0.050063688677604884,0,0,0.050063688677604884,9.011463961968879,0)" xlink:href="#cd"/><use transform="matrix(0.050063688677604884,0,0,0.050063688677604884,19.024201697489858,0)" xlink:href="#bR"/><use transform="matrix(0.050063688677604884,0,0,0.050063688677604884,33.99324461209372,0)" xlink:href="#bR"/><use transform="matrix(0.050063688677604884,0,0,0.050063688677604884,48.96228752669758,0)" xlink:href="#bp"/><use transform="matrix(0.050063688677604884,0,0,0.050063688677604884,58.97502526221855,0)" xlink:href="#bq"/><use transform="matrix(0.050063688677604884,0,0,0.050063688677604884,64.93260421485354,0)" xlink:href="#bJ"/></g><g id="am"><use transform="matrix(0.050063688677604884,0,0,0.050063688677604884,0,0)" xlink:href="#bt"/><use transform="matrix(0.050063688677604884,0,0,0.050063688677604884,5.0063688677604885,0)" xlink:href="#bp"/><use transform="matrix(0.050063688677604884,0,0,0.050063688677604884,15.019106603281465,0)" xlink:href="#bx"/><use transform="matrix(0.050063688677604884,0,0,0.050063688677604884,25.031844338802443,0)" xlink:href="#bM"/><use transform="matrix(0.050063688677604884,0,0,0.050063688677604884,28.98687574433323,0)" xlink:href="#br"/></g><path fill="#fff" d="M30-248c118-7 216 8 213 122C240-48 200 0 122 0H30v-248zM63-27c89 8 146-16 146-99s-60-101-146-95v194" id="cn"/><g id="an"><use transform="matrix(0.050063688677604884,0,0,0.050063688677604884,0,0)" xlink:href="#cn"/><use transform="matrix(0.050063688677604884,0,0,0.050063688677604884,12.966495367499665,0)" xlink:href="#bp"/><use transform="matrix(0.050063688677604884,0,0,0.050063688677604884,22.97923310302064,0)" xlink:href="#bt"/><use transform="matrix(0.050063688677604884,0,0,0.050063688677604884,27.98560197078113,0)" xlink:href="#bp"/></g><g id="ao"><use transform="matrix(0.050063688677604884,0,0,0.050063688677604884,0,0)" xlink:href="#bo"/><use transform="matrix(0.050063688677604884,0,0,0.050063688677604884,12.015285282625172,0)" xlink:href="#bq"/><use transform="matrix(0.050063688677604884,0,0,0.050063688677604884,17.972864235260154,0)" xlink:href="#br"/><use transform="matrix(0.050063688677604884,0,0,0.050063688677604884,27.98560197078113,0)" xlink:href="#bL"/><use transform="matrix(0.050063688677604884,0,0,0.050063688677604884,37.99833970630211,0)" xlink:href="#bp"/><use transform="matrix(0.050063688677604884,0,0,0.050063688677604884,48.01107744182309,0)" xlink:href="#bq"/><use transform="matrix(0.050063688677604884,0,0,0.050063688677604884,53.96865639445808,0)" xlink:href="#bp"/><use transform="matrix(0.050063688677604884,0,0,0.050063688677604884,63.98139412997905,0)" xlink:href="#bt"/><use transform="matrix(0.050063688677604884,0,0,0.050063688677604884,68.98776299773954,0)" xlink:href="#bv"/><use transform="matrix(0.050063688677604884,0,0,0.050063688677604884,72.94279440327033,0)" xlink:href="#bw"/><use transform="matrix(0.050063688677604884,0,0,0.050063688677604884,82.9555321387913,0)" xlink:href="#bs"/></g><g id="ap"><use transform="matrix(0.050063688677604884,0,0,0.050063688677604884,0,0)" xlink:href="#bV"/><use transform="matrix(0.050063688677604884,0,0,0.050063688677604884,12.966495367499665,0)" xlink:href="#bw"/><use transform="matrix(0.050063688677604884,0,0,0.050063688677604884,22.97923310302064,0)" xlink:href="#bR"/><use transform="matrix(0.050063688677604884,0,0,0.050063688677604884,37.9482760176245,0)" xlink:href="#bL"/><use transform="matrix(0.050063688677604884,0,0,0.050063688677604884,47.96101375314548,0)" xlink:href="#bv"/><use transform="matrix(0.050063688677604884,0,0,0.050063688677604884,51.91604515867626,0)" xlink:href="#bM"/><use transform="matrix(0.050063688677604884,0,0,0.050063688677604884,55.87107656420706,0)" xlink:href="#br"/></g><g id="aq"><use transform="matrix(0.050063688677604884,0,0,0.050063688677604884,0,0)" xlink:href="#bt"/><use transform="matrix(0.050063688677604884,0,0,0.050063688677604884,5.0063688677604885,0)" xlink:href="#ca"/><use transform="matrix(0.050063688677604884,0,0,0.050063688677604884,15.019106603281465,0)" xlink:href="#br"/></g><g id="ar"><use transform="matrix(0.050063688677604884,0,0,0.050063688677604884,0,0)" xlink:href="#bT"/><use transform="matrix(0.050063688677604884,0,0,0.050063688677604884,14.969042914603861,0)" xlink:href="#bw"/><use transform="matrix(0.050063688677604884,0,0,0.050063688677604884,24.98178065012484,0)" xlink:href="#bP"/><use transform="matrix(0.050063688677604884,0,0,0.050063688677604884,34.99451838564582,0)" xlink:href="#br"/><use transform="matrix(0.050063688677604884,0,0,0.050063688677604884,45.0072561211668,0)" xlink:href="#bM"/></g><path fill="#fff" d="M33 0v-38h34V0H33" id="co"/><g id="as"><use transform="matrix(0.050063688677604884,0,0,0.050063688677604884,0,0)" xlink:href="#bR"/><use transform="matrix(0.050063688677604884,0,0,0.050063688677604884,14.969042914603861,0)" xlink:href="#bw"/><use transform="matrix(0.050063688677604884,0,0,0.050063688677604884,24.98178065012484,0)" xlink:href="#bP"/><use transform="matrix(0.050063688677604884,0,0,0.050063688677604884,34.99451838564582,0)" xlink:href="#br"/><use transform="matrix(0.050063688677604884,0,0,0.050063688677604884,45.0072561211668,0)" xlink:href="#bM"/><use transform="matrix(0.050063688677604884,0,0,0.050063688677604884,48.96228752669758,0)" xlink:href="#co"/><use transform="matrix(0.050063688677604884,0,0,0.050063688677604884,53.968656394458066,0)" xlink:href="#bK"/><use transform="matrix(0.050063688677604884,0,0,0.050063688677604884,62.980120356426944,0)" xlink:href="#bt"/><use transform="matrix(0.050063688677604884,0,0,0.050063688677604884,67.98648922418744,0)" xlink:href="#bp"/><use transform="matrix(0.050063688677604884,0,0,0.050063688677604884,77.99922695970841,0)" xlink:href="#bs"/></g><path fill="#fff" d="M197 0v-115H63V0H30v-248h33v105h134v-105h34V0h-34" id="cp"/><g id="at"><use transform="matrix(0.050063688677604884,0,0,0.050063688677604884,0,0)" xlink:href="#cp"/><use transform="matrix(0.050063688677604884,0,0,0.050063688677604884,12.966495367499665,0)" xlink:href="#bp"/><use transform="matrix(0.050063688677604884,0,0,0.050063688677604884,22.97923310302064,0)" xlink:href="#bq"/><use transform="matrix(0.050063688677604884,0,0,0.050063688677604884,28.936812055655622,0)" xlink:href="#bP"/></g><g id="au"><use transform="matrix(0.050063688677604884,0,0,0.050063688677604884,0,0)" xlink:href="#cn"/><use transform="matrix(0.050063688677604884,0,0,0.050063688677604884,12.966495367499665,0)" xlink:href="#bv"/><use transform="matrix(0.050063688677604884,0,0,0.050063688677604884,16.92152677303045,0)" xlink:href="#bK"/><use transform="matrix(0.050063688677604884,0,0,0.050063688677604884,25.93299073499933,0)" xlink:href="#cc"/></g><g id="av"><use transform="matrix(0.050063688677604884,0,0,0.050063688677604884,0,0)" xlink:href="#bt"/><use transform="matrix(0.050063688677604884,0,0,0.050063688677604884,5.0063688677604885,0)" xlink:href="#bv"/><use transform="matrix(0.050063688677604884,0,0,0.050063688677604884,8.961400273291275,0)" xlink:href="#bP"/><use transform="matrix(0.050063688677604884,0,0,0.050063688677604884,18.974138008812254,0)" xlink:href="#bJ"/><use transform="matrix(0.050063688677604884,0,0,0.050063688677604884,27.98560197078113,0)" xlink:href="#bx"/><use transform="matrix(0.050063688677604884,0,0,0.050063688677604884,37.99833970630211,0)" xlink:href="#bp"/><use transform="matrix(0.050063688677604884,0,0,0.050063688677604884,48.01107744182309,0)" xlink:href="#bJ"/><use transform="matrix(0.050063688677604884,0,0,0.050063688677604884,57.022541403791976,0)" xlink:href="#br"/><use transform="matrix(0.050063688677604884,0,0,0.050063688677604884,67.03527913931295,0)" xlink:href="#bK"/></g></defs></g></svg>