<svg xmlns="http://www.w3.org/2000/svg" xmlns:xlink="http://www.w3.org/1999/xlink" xmlns:lucid="lucid" width="2039.17" height="1575.72"><g transform="translate(0 0)" lucid:page-tab-id="m-5o7ONTd-nK"><path d="M750.3 99.94c0-4.42 3.6-8 8-8h520.8c4.4 0 8 3.58 8 8v24c0 4.42-3.6 8-8 8H758.3c-4.4 0-8-3.58-8-8z" stroke="#000" stroke-opacity="0" stroke-width="2" fill="#fff" fill-opacity="0"/><use xlink:href="#a" transform="matrix(1,0,0,1,755.3110571329606,96.94248230718428) translate(35.79629629629625 23.270833333333336)"/><use xlink:href="#b" transform="matrix(1,0,0,1,755.3110571329606,96.94248230718428) translate(125.87037037037034 23.270833333333336)"/><use xlink:href="#c" transform="matrix(1,0,0,1,755.3110571329606,96.94248230718428) translate(250.09259259259255 23.270833333333336)"/><use xlink:href="#d" transform="matrix(1,0,0,1,755.3110571329606,96.94248230718428) translate(387.5740740740741 23.270833333333336)"/><path d="M757.83 130.64h521.75M757.85 130.64h-4.02M1279.55 130.64h4.03" stroke="#b2b2b2" stroke-width="2" fill="none"/><path d="M749.86 139.94c0-4.42 3.58-8 8-8h521.38c4.42 0 8 3.58 8 8v4c0 4.42-3.58 8-8 8H757.86c-4.42 0-8-3.58-8-8z" stroke="#000" stroke-opacity="0" stroke-width="2" fill="#fff" fill-opacity="0"/><use xlink:href="#e" transform="matrix(1,0,0,1,754.8590711958259,136.94248230718426) translate(169.17592592592592 12.444444444444446)"/><use xlink:href="#f" transform="matrix(1,0,0,1,754.8590711958259,136.94248230718426) translate(218.39197530864197 12.444444444444446)"/><use xlink:href="#g" transform="matrix(1,0,0,1,754.8590711958259,136.94248230718426) translate(231.05246913580248 12.444444444444446)"/><use xlink:href="#h" transform="matrix(1,0,0,1,754.8590711958259,136.94248230718426) translate(306.97222222222223 12.444444444444446)"/><use xlink:href="#i" transform="matrix(1,0,0,1,754.8590711958259,136.94248230718426) translate(324.2561728395062 12.444444444444446)"/><path d="M115.86 642.48v-40h634v40z" fill-opacity="0"/><path d="M115.86 642.48v469.8h634v-469.8z" fill="none"/><path d="M749.86 602.48h1212.68v40H749.86z" fill-opacity="0"/><path d="M1962.54 642.48v469.8H749.86v-469.8z" fill="none"/><path d="M749.86 602.48v509.8M115.86 642.48h1846.68M115.86 642.48v-40h634m0 0h1212.68v40m0 0v469.8H749.86m-634-469.8v469.8h634" stroke="#666" stroke-width="2" fill="none"/><use xlink:href="#j" transform="matrix(1,0,0,1,115.86167951098196,602.4807334573479) translate(273.55 23.6)"/><use xlink:href="#k" transform="matrix(1,0,0,1,115.86167951098196,602.4807334573479) translate(315.55 23.6)"/><use xlink:href="#l" transform="matrix(1,0,0,1,749.8590711958259,602.4807334573479) translate(539.6 23.6)"/><path d="M471.82 122.92c2.08-3.9 7.35-7.06 11.76-7.06h80c4.42 0 9.7 3.16 11.77 7.06l24.47 45.88c2.08 3.9 2.08 10.22 0 14.12l-24.47 45.88c-2.08 3.9-7.35 7.06-11.77 7.06h-80c-4.4 0-9.68-3.16-11.76-7.06l-24.47-45.88c-2.08-3.9-2.08-10.22 0-14.12z" stroke="#000" stroke-opacity="0" stroke-width="2" fill="#019280"/><use xlink:href="#m" transform="matrix(1,0,0,1,448.58390911506785,120.86167951102844) translate(56.00083014684894 49.063842339150206)"/><use xlink:href="#n" transform="matrix(1,0,0,1,448.58390911506785,120.86167951102844) translate(28.51586506284386 70.69135584787551)"/><path d="M233.9 262.9c0-4.42 3.58-8 8-8h144c4.42 0 8 3.58 8 8v104c0 4.4-3.58 8-8 8h-144c-4.42 0-8-3.6-8-8z" stroke="#000" stroke-opacity="0" stroke-width="2" fill="#019280"/><path d="M249.9 254.9v120m128-120v120" stroke="#000" stroke-opacity="0" stroke-width="2" fill="none"/><use xlink:href="#o" transform="matrix(1,0,0,1,258.9011206618898,259.89569492426256) translate(22.05809285013598 49.64482883042489)"/><use xlink:href="#p" transform="matrix(1,0,0,1,258.9011206618898,259.89569492426256) translate(15.499749633369742 71.27234233915021)"/><use xlink:href="#q" transform="matrix(1,0,0,1,258.9011206618898,259.89569492426256) translate(45.537962839932675 71.27234233915021)"/><path d="M23.17 147.03c0-4.4 3.58-8 8-8h144c4.42 0 8 3.6 8 8v112C156.45 239 139.8 239 129.73 239c-16 0-37.28 20.03-53.28 20.03-9.92 0-26.72 0-53.28-20.04z" stroke="#000" stroke-opacity="0" stroke-width="2" fill="#019280"/><use xlink:href="#r" transform="matrix(1,0,0,1,28.17233590220569,144.03401541323413) translate(30.994017652385306 49.063842339150206)"/><path d="M103.17 249.3v53.6c0 6.62 5.37 12 12 12H233.4" stroke="#666" fill="none"/><path d="M103.67 249.3h-1v-.25l1-.5zM233.9 315.4h-.5v-1h.5z" fill="#666"/><path d="M939.65 804.7v-32c0-4.43 3.58-8 8-8h141.45v40z" fill="#fff"/><path d="M939.65 804.7v114.2c0 4.4 3.58 8 8 8h141.45V804.7z" fill-opacity="0"/><path d="M1089.1 804.7v-40h322.2v40z" fill="#fff"/><path d="M1089.1 804.7v122.2h322.2V804.7z" fill-opacity="0"/><path d="M1089.1 764.7v162.2" stroke="#000" stroke-width="2" fill="none"/><path d="M1411.3 764.7h504c4.42 0 8 3.57 8 8v32h-512z" fill="#fff"/><path d="M1923.3 804.7v114.2c0 4.4-3.58 8-8 8h-504V804.7z" fill-opacity="0"/><path d="M1411.3 764.7v162.2M939.65 804.7h983.65M939.65 804.7v-32c0-4.43 3.58-8 8-8h141.45m0 0h322.2m0 0h504c4.42 0 8 3.57 8 8v32m0 0v114.2c0 4.4-3.58 8-8 8h-504m-322.2 0h322.2M939.66 804.7v114.2c0 4.4 3.58 8 8 8h141.45" stroke="#000" stroke-width="2" fill="none"/><use xlink:href="#s" transform="matrix(1,0,0,1,939.6504610443974,764.6870847727889) translate(23.159050374340136 25.458585584787553)"/><use xlink:href="#t" transform="matrix(1,0,0,1,939.6504610443974,764.6870847727889) translate(72.12133790103772 25.458585584787553)"/><use xlink:href="#u" transform="matrix(1,0,0,1,1089.0997874036673,764.6870847727889) translate(97.64376509171498 25.458585584787553)"/><use xlink:href="#t" transform="matrix(1,0,0,1,1089.0997874036673,764.6870847727889) translate(170.6366231836629 25.458585584787553)"/><use xlink:href="#v" transform="matrix(1,0,0,1,1411.3061387191071,764.6870847727889) translate(211.5184126099481 25.458585584787553)"/><path d="M834.2 819.03c0-4.42 3.6-8 8-8h76.7c4.4 0 8 3.58 8 8v99.86c0 4.4-3.6 8-8 8h-76.7c-4.4 0-8-3.6-8-8z" fill="none"/><path d="M926.9 926.9c-4 0-7.25-3.25-7.25-7.25V876.2c0-4-3.24-7.24-7.24-7.24 4 0 7.25-3.24 7.25-7.24v-43.45c0-4 3.24-7.24 7.24-7.24" stroke="#000" stroke-width="2" fill="none"/><use xlink:href="#w" transform="matrix(1,0,0,1,839.2040924794047,816.0317565772012) translate(2.5143980292188637 36.831072076062235)"/><use xlink:href="#x" transform="matrix(1,0,0,1,839.2040924794047,816.0317565772012) translate(25.994268019015557 58.45858558478755)"/><use xlink:href="#y" transform="matrix(1,0,0,1,839.2040924794047,816.0317565772012) translate(-6.497065932750008 80.08609909351287)"/><g fill="none"><path d="M1421.1 1006.9c-4.43 0-8-3.6-8-8v-64c0-4.42 3.57-8 8-8h494.2c4.42 0 8 3.58 8 8v64c0 4.4-3.58 8-8 8z"/><path d="M1923.3 926.9c0 17.6-14.27 31.88-31.88 31.88h-191.34c-17.6 0-31.88 14.28-31.88 31.9 0-17.62-14.28-31.9-31.9-31.9H1445c-17.6 0-31.9-14.28-31.9-31.9" stroke="#000" stroke-width="2"/></g><use xlink:href="#z" transform="matrix(1,0,0,1,1418.0891643225143,1009.7260656720307) translate(245.49363113223953 18.126342339150206)"/><path d="M202.32 718.34h152c4.42 0 8 3.58 8 8v104c0 4.42-3.58 8-8 8h-144c-4.4 0-8-3.58-8-8zm16 0v120m-16-104h160" stroke="#000" stroke-opacity="0" stroke-width="2" fill="#019280"/><use xlink:href="#A" transform="matrix(1,0,0,1,223.32340359870733,739.3424129683764) translate(33.50739227468233 50.438842339150206)"/><use xlink:href="#B" transform="matrix(1,0,0,1,223.32340359870733,739.3424129683764) translate(52.48153028349458 50.438842339150206)"/><g fill="none"><path d="M216.55 954.22c-4.42 0-8-3.58-8-8v-80.84c0-4.42 3.58-8 8-8H348.1c4.4 0 8 3.58 8 8v80.84c0 4.42-3.6 8-8 8z"/><path d="M356.1 857.38c0 5.1-4.13 9.22-9.23 9.22h-55.33c-5.1 0-9.22 4.13-9.22 9.22 0-5.1-4.13-9.22-9.22-9.22h-55.33c-5.1 0-9.22-4.13-9.22-9.22" stroke="#000" stroke-width="2"/></g><use xlink:href="#C" transform="matrix(1,0,0,1,213.55102311985138,890.0410710611815) translate(29.975354675806994 18.126342339150206)"/><use xlink:href="#x" transform="matrix(1,0,0,1,213.55102311985138,890.0410710611815) translate(99.01318136222413 18.126342339150206)"/><use xlink:href="#D" transform="matrix(1,0,0,1,213.55102311985138,890.0410710611815) translate(19.51204374218757 39.75385584787552)"/><use xlink:href="#x" transform="matrix(1,0,0,1,213.55102311985138,890.0410710611815) translate(109.47649229584356 39.75385584787552)"/><use xlink:href="#E" transform="matrix(1,0,0,1,213.55102311985138,890.0410710611815) translate(27.44713839758793 61.381369356600835)"/><use xlink:href="#F" transform="matrix(1,0,0,1,213.55102311985138,890.0410710611815) translate(48.473887642181985 61.381369356600835)"/><use xlink:href="#G" transform="matrix(1,0,0,1,213.55102311985138,890.0410710611815) translate(63.9936311322395 61.381369356600835)"/><use xlink:href="#F" transform="matrix(1,0,0,1,213.55102311985138,890.0410710611815) translate(79.01273773552097 61.381369356600835)"/><use xlink:href="#H" transform="matrix(1,0,0,1,213.55102311985138,890.0410710611815) translate(94.5324812255785 61.381369356600835)"/><g fill="none"><path d="M958.07 1020.26c-4.42 0-8-3.58-8-8V934.9c0-4.42 3.58-8 8-8h119.55c4.42 0 8 3.58 8 8v77.36c0 4.42-3.58 8-8 8z"/><path d="M1085.62 926.9c0 4.67-3.8 8.47-8.47 8.47h-50.83c-4.68 0-8.47 3.8-8.47 8.47 0-4.68-3.8-8.47-8.48-8.47h-50.83c-4.68 0-8.47-3.8-8.47-8.48" stroke="#000" stroke-width="2"/></g><use xlink:href="#I" transform="matrix(1,0,0,1,955.0657719904331,957.3107875513147) translate(57.993631132239514 34.45858558478755)"/><path d="M362.32 1147.7c0-4.42 3.6-8 8-8h144c4.42 0 8 3.58 8 8v44c0 4.42-3.58 8-8 8h-144c-4.4 0-8-3.58-8-8z" stroke="#000" stroke-width="2" fill="#b391b5"/><use xlink:href="#J" transform="matrix(1,0,0,1,367.32340359870733,1144.7029630345469) translate(36.97599156258305 27.501342339150206)"/><path d="M1529.37 1166.62c0-4.42 3.6-8 8-8h144c4.42 0 8 3.58 8 8v105.84c0 4.42-3.58 8-8 8h-144c-4.4 0-8-3.58-8-8z" stroke="#000" stroke-opacity="0" stroke-width="2" fill="#de5f85"/><use xlink:href="#K" transform="matrix(1,0,0,1,1534.3741695455753,1163.6167951102843) translate(56.97707207606224 21.626342339150206)"/><use xlink:href="#L" transform="matrix(1,0,0,1,1534.3741695455753,1163.6167951102843) translate(30.493380765609256 43.25385584787552)"/><use xlink:href="#M" transform="matrix(1,0,0,1,1534.3741695455753,1163.6167951102843) translate(36.951596605020285 64.88136935660083)"/><use xlink:href="#N" transform="matrix(1,0,0,1,1534.3741695455753,1163.6167951102843) translate(93.02292792393776 64.88136935660083)"/><use xlink:href="#O" transform="matrix(1,0,0,1,1534.3741695455753,1163.6167951102843) translate(39.029239685140894 86.50888286532614)"/><use xlink:href="#P" transform="matrix(1,0,0,1,1534.3741695455753,1163.6167951102843) translate(40.00548161435418 108.13639637405146)"/><path d="M1127.1 1147.7c0-4.42 3.57-8 8-8h144c4.4 0 8 3.58 8 8v44c0 4.42-3.6 8-8 8h-144c-4.43 0-8-3.58-8-8z" stroke="#000" stroke-width="2" fill="#b391b5"/><use xlink:href="#Q" transform="matrix(1,0,0,1,1132.0932276781002,1144.7029630345469) translate(39.50420784080208 27.501342339150206)"/><path d="M1019.58 1256.68c0-4.42 3.58-8 8-8h144c4.42 0 8 3.58 8 8v30.34c0 4.42-3.58 8-8 8h-144c-4.42 0-8-3.58-8-8z" stroke="#000" stroke-opacity="0" stroke-width="2" fill="#019280"/><use xlink:href="#R" transform="matrix(1,0,0,1,1024.5827796970502,1253.6768867790333) translate(27.038986246854517 22.751342339150206)"/><use xlink:href="#S" transform="matrix(1,0,0,1,1024.5827796970502,1253.6768867790333) translate(88.06662274485488 22.751342339150206)"/><path d="M1135.44 1432.82c0-4.4 3.6-8 8-8h144c4.42 0 8 3.6 8 8v30.35c0 4.42-3.58 8-8 8h-144c-4.4 0-8-3.58-8-8z" stroke="#000" stroke-opacity="0" stroke-width="2" fill="#019280"/><use xlink:href="#T" transform="matrix(1,0,0,1,1140.444459208079,1429.823321109044) translate(56.50146703362499 22.751342339150206)"/><path d="M1228.13 1256.68c0-4.42 3.6-8 8-8h144c4.42 0 8 3.58 8 8v30.34c0 4.42-3.58 8-8 8h-144c-4.4 0-8-3.58-8-8z" stroke="#000" stroke-opacity="0" stroke-width="2" fill="#019280"/><use xlink:href="#U" transform="matrix(1,0,0,1,1233.1338028169014,1253.6768867790333) translate(24.035164926198224 22.751342339150206)"/><use xlink:href="#V" transform="matrix(1,0,0,1,1233.1338028169014,1253.6768867790333) translate(85.96394782039548 22.751342339150206)"/><path d="M1344 1427.5c0-4.4 3.58-8 8-8h144c4.4 0 8 3.6 8 8v40.98c0 4.42-3.6 8-8 8h-144c-4.42 0-8-3.58-8-8z" stroke="#000" stroke-opacity="0" stroke-width="2" fill="#019280"/><use xlink:href="#W" transform="matrix(1,0,0,1,1348.99548232793,1424.5141435025241) translate(34.02287081738041 21.063842339150206)"/><use xlink:href="#X" transform="matrix(1,0,0,1,1348.99548232793,1424.5141435025241) translate(50.994461279088455 42.69135584787552)"/><path d="M115.86 1255.43c0-4.42 3.58-8 8-8h144c4.42 0 8 3.58 8 8v30.35c0 4.42-3.58 8-8 8h-144c-4.42 0-8-3.58-8-8z" stroke="#000" stroke-opacity="0" stroke-width="2" fill="#019280"/><use xlink:href="#Y" transform="matrix(1,0,0,1,120.86167951098196,1252.4328117177402) translate(51.84554398660774 22.751342339150206)"/><path d="M202.32 1332.77c0-4.42 3.6-8 8-8h144c4.42 0 8 3.58 8 8v30.34c0 4.43-3.58 8-8 8h-144c-4.4 0-8-3.57-8-8z" stroke="#000" stroke-opacity="0" stroke-width="2" fill="#019280"/><use xlink:href="#Z" transform="matrix(1,0,0,1,207.32340359870733,1329.7670243358366) translate(40.50611850113023 22.751342339150206)"/><path d="M362.32 1389.5c0-4.42 3.6-8 8-8h144c4.42 0 8 3.58 8 8v30.34c0 4.42-3.58 8-8 8h-144c-4.4 0-8-3.58-8-8z" stroke="#000" stroke-opacity="0" stroke-width="2" fill="#019280"/><use xlink:href="#aa" transform="matrix(1,0,0,1,367.3234035987539,1386.4998549298434) translate(59.50528835428129 22.751342339150206)"/><path d="M141.24 1408.86c0-4.42 3.58-8 8-8h144c4.42 0 8 3.58 8 8v30.34c0 4.42-3.58 8-8 8h-144c-4.42 0-8-3.58-8-8z" stroke="#000" stroke-opacity="0" stroke-width="2" fill="#019280"/><use xlink:href="#ab" transform="matrix(1,0,0,1,146.24036672867396,1405.8571618926399) translate(42.00802916145838 22.751342339150206)"/><path d="M1019.58 1352c0-4.42 3.58-8 8-8h144c4.42 0 8 3.58 8 8v40.96c0 4.42-3.58 8-8 8h-144c-4.42 0-8-3.58-8-8z" stroke="#000" stroke-opacity="0" stroke-width="2" fill="#019280"/><use xlink:href="#ac" transform="matrix(1,0,0,1,1024.5827796970502,1348.9954823279309) translate(29.36694777036315 21.063842339150206)"/><use xlink:href="#ad" transform="matrix(1,0,0,1,1024.5827796970502,1348.9954823279309) translate(85.63853384399104 21.063842339150206)"/><use xlink:href="#ae" transform="matrix(1,0,0,1,1024.5827796970502,1348.9954823279309) translate(41.00675538790628 42.69135584787552)"/><path d="M301.24 1256.68c0-4.42 3.58-8 8-8h144c4.42 0 8 3.58 8 8v30.34c0 4.42-3.58 8-8 8h-144c-4.42 0-8-3.58-8-8z" stroke="#000" stroke-opacity="0" stroke-width="2" fill="#019280"/><use xlink:href="#af" transform="matrix(1,0,0,1,306.24036672867396,1253.6768867790333) translate(63.00974656171363 22.751342339150206)"/><path d="M440.27 739.03c0-4.42 3.6-8 8-8H598.9c4.4 0 8 3.58 8 8v144c0 4.42-3.6 8-8 8H448.26c-4.4 0-8-3.58-8-8z" stroke="#000" stroke-width="2" fill="#fff" fill-opacity="0"/><use xlink:href="#ag" transform="matrix(1,0,0,1,445.2743821419081,736.0317565771985) translate(45.06103194112262 26.933368721764552)"/><use xlink:href="#ah" transform="matrix(1,0,0,1,445.2743821419081,736.0317565771985) translate(32.18751199545281 54.740171804411375)"/><use xlink:href="#ai" transform="matrix(1,0,0,1,445.2743821419081,736.0317565771985) translate(105.50220808604246 54.740171804411375)"/><use xlink:href="#aj" transform="matrix(1,0,0,1,445.2743821419081,736.0317565771985) translate(39.943807762718876 82.5469748870582)"/><use xlink:href="#ak" transform="matrix(1,0,0,1,445.2743821419081,736.0317565771985) translate(38.72082336788023 110.35377796970502)"/><use xlink:href="#al" transform="matrix(1,0,0,1,445.2743821419081,736.0317565771985) translate(48.92308792482358 138.16058105235183)"/><path d="M254.9 1484.48c0-4.42 3.58-8 8-8h144c4.4 0 8 3.58 8 8v30.34c0 4.42-3.6 8-8 8h-144c-4.42 0-8-3.58-8-8z" stroke="#000" stroke-opacity="0" stroke-width="2" fill="#019280"/><g><use xlink:href="#am" transform="matrix(1,0,0,1,259.89569492426256,1481.4771705199748) translate(38.528602798364844 22.751342339150206)"/><use xlink:href="#an" transform="matrix(1,0,0,1,259.89569492426256,1481.4771705199748) translate(82.48452145730192 22.751342339150206)"/></g><path d="M164.4 1147.7c0-4.42 3.6-8 8-8h144c4.43 0 8 3.58 8 8v44c0 4.42-3.57 8-8 8h-144c-4.4 0-8-3.58-8-8z" stroke="#000" stroke-width="2" fill="#b391b5"/><g><use xlink:href="#ao" transform="matrix(1,0,0,1,169.412702630833,1144.7029630345469) translate(55.49955637329684 27.501342339150206)"/></g><path d="M486.62 1259.3c0-4.4 3.58-8 8-8h144c4.42 0 8 3.6 8 8v62.6c0 4.4-3.58 8-8 8h-144c-4.42 0-8-3.6-8-8z" stroke="#000" stroke-opacity="0" stroke-width="2" fill="#019280"/><g><use xlink:href="#ap" transform="matrix(1,0,0,1,491.61905394636597,1256.3061387191071) translate(13.997395346338447 18.126342339150206)"/><use xlink:href="#aq" transform="matrix(1,0,0,1,491.61905394636597,1256.3061387191071) translate(76.0263056178909 18.126342339150206)"/><use xlink:href="#ar" transform="matrix(1,0,0,1,491.61905394636597,1256.3061387191071) translate(34.02287081738041 39.75385584787552)"/><use xlink:href="#as" transform="matrix(1,0,0,1,491.61905394636597,1256.3061387191071) translate(35.524781477708544 61.381369356600835)"/></g><path d="M695.17 378.76c0-4.42 3.58-8 8-8H853.8c4.4 0 8 3.58 8 8V571.1c0 4.43-3.6 8-8 8H703.16c-4.42 0-8-3.57-8-8z" stroke="#000" stroke-width="2" fill="#fff"/><g><use xlink:href="#at" transform="matrix(1,0,0,1,700.1700770661706,375.757374435291) translate(23.24041563321227 28.464618721764552)"/><use xlink:href="#au" transform="matrix(1,0,0,1,700.1700770661706,375.757374435291) translate(66.94601584876133 28.464618721764552)"/><use xlink:href="#av" transform="matrix(1,0,0,1,700.1700770661706,375.757374435291) translate(106.78956008060945 28.464618721764552)"/><use xlink:href="#aw" transform="matrix(1,0,0,1,700.1700770661706,375.757374435291) translate(24.55995142764343 56.271421804411375)"/><use xlink:href="#ax" transform="matrix(1,0,0,1,700.1700770661706,375.757374435291) translate(48.955271724687755 56.271421804411375)"/><use xlink:href="#ay" transform="matrix(1,0,0,1,700.1700770661706,375.757374435291) translate(21.27720384149762 84.0782248870582)"/><use xlink:href="#az" transform="matrix(1,0,0,1,700.1700770661706,375.757374435291) translate(30.964527600614165 111.88502796970502)"/><use xlink:href="#aA" transform="matrix(1,0,0,1,700.1700770661706,375.757374435291) translate(64.37131185962735 111.88502796970502)"/><use xlink:href="#aB" transform="matrix(1,0,0,1,700.1700770661706,375.757374435291) translate(93.85167253521126 111.88502796970502)"/><use xlink:href="#aC" transform="matrix(1,0,0,1,700.1700770661706,375.757374435291) translate(20.02203564679483 139.69183105235183)"/><use xlink:href="#aD" transform="matrix(1,0,0,1,700.1700770661706,375.757374435291) translate(59.18972008149527 167.49863413499867)"/><use xlink:href="#aE" transform="matrix(1,0,0,1,700.1700770661706,375.757374435291) translate(35.43807578173444 195.30543721764548)"/></g><g fill="none"><path d="M1097.1 1020.26c-4.42 0-8-3.58-8-8V934.9c0-4.42 3.58-8 8-8h308.4c4.43 0 8 3.58 8 8v77.36c0 4.42-3.57 8-8 8z"/><path d="M1413.5 926.9c0 11.2-9.06 20.27-20.26 20.27h-121.66c-11.2 0-20.27 9.08-20.27 20.28 0-11.2-9.07-20.28-20.27-20.28h-121.65c-11.2 0-20.28-9.08-20.28-20.28" stroke="#000" stroke-width="2"/></g><g><use xlink:href="#aF" transform="matrix(1,0,0,1,1094.0997874036675,992.721013351873) translate(152.49363113223953 18.126342339150206)"/></g><g><path d="M688.7 981.93c-3.88 2.14-7 .3-7-4.13v-144c0-4.42 3.12-6.27 7-4.13l130.74 72.26c3.87 2.14 3.87 5.6 0 7.74z" stroke="#000" stroke-opacity="0" stroke-width="2" fill="#ef8d22"/></g><g><use xlink:href="#aG" transform="matrix(1,0,0,1,686.6857806152098,830.7987113184281) translate(3.9685061433122364 80.45858558478756)"/></g><path d="M377.9 440.27c8.84 0 16 26.87 16 60 0 33.14-7.16 60-16 60h-128c-8.84 0-16-26.86-16-60 0-33.13 7.16-60 16-60z" stroke="#000" stroke-opacity="0" stroke-width="2"/><path d="M377.9 560.27c-8.84 0-16-26.86-16-60 0-33.13 7.16-60 16-60" stroke="#000" stroke-opacity="0" stroke-width="2" fill="none"/><g><use xlink:href="#aH" transform="matrix(1,0,0,1,238.90112066188982,445.27438214190806) translate(19.549813322047353 59.376342339150206)"/><use xlink:href="#aI" transform="matrix(1,0,0,1,238.90112066188982,445.27438214190806) translate(63.505731980984436 59.376342339150206)"/></g><path d="M313.9 560.78l-.23 10.77-.6 9.45-.84 8.2-1.08 7.28-1.28 6.73-1.5 6.46-1.83 6.5-2.37 7.27-4.47 11.88-7.65 19.9-2.36 7.25-1.83 6.5-1.5 6.46-1.3 6.73-1.07 7.3-.86 8.18-.27 4.37" stroke="#666" fill="none"/><path d="M314.4 560.8l-1-.02v-.5h1zM287.5 702.62l-5.12 14.1-4.16-14.4z" fill="#666"/><path d="M288.2 702.15l-5.88 16.2-4.77-16.56zm-5.77 12.96l4.35-12-7.9-.26z" fill="#666"/><path d="M790.9 682.34c-13.26 0-24-10.74-24-24 0-10.6 6.5-19.55 16.58-22.82-.6-31.18 39.4-37.18 55.4-25.18 8-18 48-12 48 6 24-6 48 18 32 48 16 24 0 54-32 42-8 15.6-40 15.6-48 0-16 12-48 6-48-24z" stroke="#000" stroke-opacity="0" stroke-width="2" fill="#3aa6dd"/><g><use xlink:href="#aJ" transform="matrix(1,0,0,1,771.8934360882275,603.3424129683758) translate(15.991411049103855 37.96216666666667)"/><use xlink:href="#aK" transform="matrix(1,0,0,1,771.8934360882275,603.3424129683758) translate(15.549369695344208 60.913842339150214)"/><use xlink:href="#aL" transform="matrix(1,0,0,1,771.8934360882275,603.3424129683758) translate(52.496371939416605 60.913842339150214)"/><use xlink:href="#aM" transform="matrix(1,0,0,1,771.8934360882275,603.3424129683758) translate(45.023892274682325 82.54135584787554)"/></g><path d="M790.9 1034.07c-13.26 0-24-10.75-24-24 0-10.6 6.5-19.55 16.58-22.83-.6-31.17 39.4-37.17 55.4-25.17 8-18 48-12 48 6 24-6 48 18 32 48 16 24 0 54-32 42-8 15.6-40 15.6-48 0-16 12-48 6-48-24z" stroke="#000" stroke-opacity="0" stroke-width="2" fill="#ef8d22"/><g><use xlink:href="#aN" transform="matrix(1,0,0,1,771.8934360882275,955.0657719904332) translate(57.51924080717709 35.313842339150206)"/><use xlink:href="#aO" transform="matrix(1,0,0,1,771.8934360882275,955.0657719904332) translate(30.543444454286867 56.94135584787552)"/><use xlink:href="#aP" transform="matrix(1,0,0,1,771.8934360882275,955.0657719904332) translate(78.50445820743234 56.94135584787552)"/><use xlink:href="#aQ" transform="matrix(1,0,0,1,771.8934360882275,955.0657719904332) translate(49.55529298678162 78.56886935660083)"/></g><path d="M523.57 236.36l-.05 2.78-.2 3.1-.3 2.96-.43 2.82-.52 2.72-.62 2.6-.7 2.53-.8 2.45-.88 2.37-.97 2.3-1.06 2.28-1.16 2.22-1.26 2.2-1.37 2.14-1.48 2.13-1.6 2.1-1.73 2.1-1.88 2.08-2.03 2.08-2.2 2.07-2.4 2.07-2.62 2.07-2.85 2.08-3.13 2.08-3.44 2.08-3.8 2.08-4.2 2.08-4.64 2.07-5.18 2.06-5.78 2-6.46 1.96-7.25 1.86-8.1 1.72-9.1 1.53-10.08 1.27-11.1.93-1.92.08" stroke="#666" fill="none"/><path d="M524.07 236.4l-1-.03v-.5h1zM409.92 319.06l-14.4-4.2 14.12-5.07z" fill="#666"/><path d="M410.44 319.73l-16.54-4.83 16.22-5.8zm-13.3-4.93l12.26 3.58-.24-7.9z" fill="#666"/><path d="M313.9 375.4v48.5" stroke="#666" fill="none"/><path d="M314.4 375.4h-1v-.5h1zM313.9 438.66l-4.63-14.27h9.27z" fill="#666"/><path d="M313.9 440.27l-5.32-16.38h10.64zm-3.95-15.38l3.95 12.14 3.95-12.15z" fill="#666"/><path d="M674.06 733.17c0-4.42 3.58-8 8-8h14c4.42 0 8-3.58 8-8v-14c0-4.42 3.58-8 8-8h44c4.42 0 8 3.58 8 8v14c0 4.42 3.58 8 8 8h14c4.42 0 8 3.58 8 8v44c0 4.42-3.58 8-8 8h-14c-4.42 0-8 3.58-8 8v14c0 4.42-3.58 8-8 8h-44c-4.42 0-8-3.58-8-8v-14c0-4.42-3.58-8-8-8h-14c-4.42 0-8-3.58-8-8z" stroke="#000" stroke-width="4" fill="#3aa6dd"/><g><use xlink:href="#aR" transform="matrix(1,0,0,1,674.0629198198839,695.1700770661706) translate(21.97662844935908 63.126342339150206)"/></g><defs><path fill="#b2b2b2" d="M230 0l2-204L168 0h-37L68-204 70 0H24v-248h70l56 185 57-185h69V0h-46" id="aS"/><path fill="#b2b2b2" d="M67-125c0 53 21 87 73 88 37 1 54-22 65-47l45 17C233-25 199 4 140 4 58 4 20-42 15-125 8-235 124-281 211-232c18 10 29 29 36 50l-46 12c-8-25-30-41-62-41-52 0-71 34-72 86" id="aT"/><g id="a"><use transform="matrix(0.07407407407407408,0,0,0.07407407407407408,0,0)" xlink:href="#aS"/><use transform="matrix(0.07407407407407408,0,0,0.07407407407407408,22.148148148148152,0)" xlink:href="#aT"/><use transform="matrix(0.07407407407407408,0,0,0.07407407407407408,41.333333333333336,0)" xlink:href="#aS"/><use transform="matrix(0.07407407407407408,0,0,0.07407407407407408,63.481481481481495,0)" xlink:href="#aT"/></g><path fill="#b2b2b2" d="M24-248c93 1 206-16 204 79-1 75-69 88-152 82V0H24v-248zm52 121c47 0 100 7 100-41 0-47-54-39-100-39v80" id="aU"/><path fill="#b2b2b2" d="M110-194c64 0 96 36 96 99 0 64-35 99-97 99-61 0-95-36-95-99 0-62 34-99 96-99zm-1 164c35 0 45-28 45-65 0-40-10-65-43-65-34 0-45 26-45 65 0 36 10 65 43 65" id="aV"/><path fill="#b2b2b2" d="M137-138c1-29-70-34-71-4 15 46 118 7 119 86 1 83-164 76-172 9l43-7c4 19 20 25 44 25 33 8 57-30 24-41C81-84 22-81 20-136c-2-80 154-74 161-7" id="aW"/><path fill="#b2b2b2" d="M115-3C79 11 28 4 28-45v-112H4v-33h27l15-45h31v45h36v33H77v99c-1 23 16 31 38 25v30" id="aX"/><path fill="#b2b2b2" d="M185-48c-13 30-37 53-82 52C43 2 14-33 14-96s30-98 90-98c62 0 83 45 84 108H66c0 31 8 55 39 56 18 0 30-7 34-22zm-45-69c5-46-57-63-70-21-2 6-4 13-4 21h74" id="aY"/><path fill="#b2b2b2" d="M135-150c-39-12-60 13-60 57V0H25l-1-190h47c2 13-1 29 3 40 6-28 27-53 61-41v41" id="aZ"/><path fill="#b2b2b2" d="M25-224v-37h50v37H25zM25 0v-190h50V0H25" id="ba"/><g id="b"><use transform="matrix(0.07407407407407408,0,0,0.07407407407407408,0,0)" xlink:href="#aU"/><use transform="matrix(0.07407407407407408,0,0,0.07407407407407408,17.77777777777778,0)" xlink:href="#aV"/><use transform="matrix(0.07407407407407408,0,0,0.07407407407407408,34,0)" xlink:href="#aW"/><use transform="matrix(0.07407407407407408,0,0,0.07407407407407408,48.81481481481481,0)" xlink:href="#aX"/><use transform="matrix(0.07407407407407408,0,0,0.07407407407407408,57.62962962962964,0)" xlink:href="#aY"/><use transform="matrix(0.07407407407407408,0,0,0.07407407407407408,72.44444444444446,0)" xlink:href="#aZ"/><use transform="matrix(0.07407407407407408,0,0,0.07407407407407408,82.81481481481482,0)" xlink:href="#ba"/><use transform="matrix(0.07407407407407408,0,0,0.07407407407407408,90.22222222222223,0)" xlink:href="#aV"/><use transform="matrix(0.07407407407407408,0,0,0.07407407407407408,106.44444444444446,0)" xlink:href="#aZ"/></g><path fill="#b2b2b2" d="M88-194c31-1 46 15 58 34l-1-101h50l1 261h-48c-2-10 0-23-3-31C134-8 116 4 84 4 32 4 16-41 15-95c0-56 19-97 73-99zm17 164c33 0 40-30 41-66 1-37-9-64-41-64s-38 30-39 65c0 43 13 65 39 65" id="bb"/><path fill="#b2b2b2" d="M190-63c-7 42-38 67-86 67-59 0-84-38-90-98-12-110 154-137 174-36l-49 2c-2-19-15-32-35-32-30 0-35 28-38 64-6 74 65 87 74 30" id="bc"/><path fill="#b2b2b2" d="M135-194c87-1 58 113 63 194h-50c-7-57 23-157-34-157-59 0-34 97-39 157H25l-1-190h47c2 12-1 28 3 38 12-26 28-41 61-42" id="bd"/><g id="c"><use transform="matrix(0.07407407407407408,0,0,0.07407407407407408,0,0)" xlink:href="#aU"/><use transform="matrix(0.07407407407407408,0,0,0.07407407407407408,17.77777777777778,0)" xlink:href="#aZ"/><use transform="matrix(0.07407407407407408,0,0,0.07407407407407408,28.148148148148152,0)" xlink:href="#aY"/><use transform="matrix(0.07407407407407408,0,0,0.07407407407407408,42.96296296296297,0)" xlink:href="#bb"/><use transform="matrix(0.07407407407407408,0,0,0.07407407407407408,59.18518518518519,0)" xlink:href="#ba"/><use transform="matrix(0.07407407407407408,0,0,0.07407407407407408,66.5925925925926,0)" xlink:href="#bc"/><use transform="matrix(0.07407407407407408,0,0,0.07407407407407408,81.40740740740742,0)" xlink:href="#aX"/><use transform="matrix(0.07407407407407408,0,0,0.07407407407407408,90.22222222222223,0)" xlink:href="#ba"/><use transform="matrix(0.07407407407407408,0,0,0.07407407407407408,97.62962962962962,0)" xlink:href="#aV"/><use transform="matrix(0.07407407407407408,0,0,0.07407407407407408,113.85185185185186,0)" xlink:href="#bd"/></g><g id="d"><use transform="matrix(0.07407407407407408,0,0,0.07407407407407408,0,0)" xlink:href="#aU"/><use transform="matrix(0.07407407407407408,0,0,0.07407407407407408,17.77777777777778,0)" xlink:href="#aZ"/><use transform="matrix(0.07407407407407408,0,0,0.07407407407407408,28.148148148148152,0)" xlink:href="#aV"/><use transform="matrix(0.07407407407407408,0,0,0.07407407407407408,44.37037037037039,0)" xlink:href="#bc"/><use transform="matrix(0.07407407407407408,0,0,0.07407407407407408,59.185185185185205,0)" xlink:href="#aY"/><use transform="matrix(0.07407407407407408,0,0,0.07407407407407408,74.00000000000001,0)" xlink:href="#aW"/><use transform="matrix(0.07407407407407408,0,0,0.07407407407407408,88.81481481481484,0)" xlink:href="#aW"/></g><path fill="#b2b2b2" d="M179-190L93 31C79 59 56 82 12 73V49c39 6 53-20 64-50L1-190h34L92-34l54-156h33" id="be"/><path fill="#b2b2b2" d="M100-194c62-1 85 37 85 99 1 63-27 99-86 99S16-35 15-95c0-66 28-99 85-99zM99-20c44 1 53-31 53-75 0-43-8-75-51-75s-53 32-53 75 10 74 51 75" id="bf"/><path fill="#b2b2b2" d="M117-194c89-4 53 116 60 194h-32v-121c0-31-8-49-39-48C34-167 62-67 57 0H25l-1-190h30c1 10-1 24 2 32 11-22 29-35 61-36" id="bg"/><path fill="#b2b2b2" d="M24-231v-30h32v30H24zM24 0v-190h32V0H24" id="bh"/><path fill="#b2b2b2" d="M135-143c-3-34-86-38-87 0 15 53 115 12 119 90S17 21 10-45l28-5c4 36 97 45 98 0-10-56-113-15-118-90-4-57 82-63 122-42 12 7 21 19 24 35" id="bi"/><g id="e"><use transform="matrix(0.04320987654320988,0,0,0.04320987654320988,0,0)" xlink:href="#be"/><use transform="matrix(0.04320987654320988,0,0,0.04320987654320988,7.777777777777779,0)" xlink:href="#bf"/><use transform="matrix(0.04320987654320988,0,0,0.04320987654320988,16.419753086419753,0)" xlink:href="#bg"/><use transform="matrix(0.04320987654320988,0,0,0.04320987654320988,25.061728395061728,0)" xlink:href="#bh"/><use transform="matrix(0.04320987654320988,0,0,0.04320987654320988,28.47530864197531,0)" xlink:href="#bi"/></g><path fill="#b2b2b2" d="M32 76v-337h29V76H32" id="bj"/><use transform="matrix(0.04320987654320988,0,0,0.04320987654320988,0,0)" xlink:href="#bj" id="f"/><path fill="#b2b2b2" d="M190 0L58-211 59 0H30v-248h39L202-35l-2-213h31V0h-41" id="bk"/><path fill="#b2b2b2" d="M108 0H70L1-190h34L89-25l56-165h34" id="bl"/><path fill="#b2b2b2" d="M100-194c63 0 86 42 84 106H49c0 40 14 67 53 68 26 1 43-12 49-29l28 8c-11 28-37 45-77 45C44 4 14-33 15-96c1-61 26-98 85-98zm52 81c6-60-76-77-97-28-3 7-6 17-6 28h103" id="bm"/><path fill="#b2b2b2" d="M210-169c-67 3-38 105-44 169h-31v-121c0-29-5-50-35-48C34-165 62-65 56 0H25l-1-190h30c1 10-1 24 2 32 10-44 99-50 107 0 11-21 27-35 58-36 85-2 47 119 55 194h-31v-121c0-29-5-49-35-48" id="bn"/><path fill="#b2b2b2" d="M115-194c53 0 69 39 70 98 0 66-23 100-70 100C84 3 66-7 56-30L54 0H23l1-261h32v101c10-23 28-34 59-34zm-8 174c40 0 45-34 45-75 0-40-5-75-45-74-42 0-51 32-51 76 0 43 10 73 51 73" id="bo"/><path fill="#b2b2b2" d="M114-163C36-179 61-72 57 0H25l-1-190h30c1 12-1 29 2 39 6-27 23-49 58-41v29" id="bp"/><g id="g"><use transform="matrix(0.04320987654320988,0,0,0.04320987654320988,0,0)" xlink:href="#bk"/><use transform="matrix(0.04320987654320988,0,0,0.04320987654320988,11.19135802469136,0)" xlink:href="#bf"/><use transform="matrix(0.04320987654320988,0,0,0.04320987654320988,19.833333333333336,0)" xlink:href="#bl"/><use transform="matrix(0.04320987654320988,0,0,0.04320987654320988,27.611111111111114,0)" xlink:href="#bm"/><use transform="matrix(0.04320987654320988,0,0,0.04320987654320988,36.25308641975309,0)" xlink:href="#bn"/><use transform="matrix(0.04320987654320988,0,0,0.04320987654320988,49.17283950617284,0)" xlink:href="#bo"/><use transform="matrix(0.04320987654320988,0,0,0.04320987654320988,57.814814814814824,0)" xlink:href="#bm"/><use transform="matrix(0.04320987654320988,0,0,0.04320987654320988,66.4567901234568,0)" xlink:href="#bp"/></g><path fill="#b2b2b2" d="M64 0c3-98 48-159 88-221H18v-27h164v26C143-157 98-101 97 0H64" id="bq"/><path fill="#b2b2b2" d="M68-38c1 34 0 65-14 84H32c9-13 17-26 17-46H33v-38h35" id="br"/><g id="h"><use transform="matrix(0.04320987654320988,0,0,0.04320987654320988,0,0)" xlink:href="#bq"/><use transform="matrix(0.04320987654320988,0,0,0.04320987654320988,8.641975308641976,0)" xlink:href="#br"/></g><path fill="#b2b2b2" d="M101-251c82-7 93 87 43 132L82-64C71-53 59-42 53-27h129V0H18c2-99 128-94 128-182 0-28-16-43-45-43s-46 15-49 41l-32-3c6-41 34-60 81-64" id="bs"/><path fill="#b2b2b2" d="M101-251c68 0 85 55 85 127S166 4 100 4C33 4 14-52 14-124c0-73 17-127 87-127zm-1 229c47 0 54-49 54-102s-4-102-53-102c-51 0-55 48-55 102 0 53 5 102 54 102" id="bt"/><path fill="#b2b2b2" d="M27 0v-27h64v-190l-56 39v-29l58-41h29v221h61V0H27" id="bu"/><path fill="#b2b2b2" d="M99-251c64 0 84 50 84 122C183-37 130 33 47-8c-14-7-20-23-25-40l30-5c6 39 69 39 84 7 9-19 16-44 16-74-10 22-31 35-62 35-49 0-73-33-73-83 0-54 28-83 82-83zm-1 141c31-1 51-18 51-49 0-36-14-67-51-67-34 0-49 23-49 58 0 34 15 58 49 58" id="bv"/><g id="i"><use transform="matrix(0.04320987654320988,0,0,0.04320987654320988,0,0)" xlink:href="#bs"/><use transform="matrix(0.04320987654320988,0,0,0.04320987654320988,8.641975308641976,0)" xlink:href="#bt"/><use transform="matrix(0.04320987654320988,0,0,0.04320987654320988,17.283950617283953,0)" xlink:href="#bu"/><use transform="matrix(0.04320987654320988,0,0,0.04320987654320988,25.925925925925927,0)" xlink:href="#bv"/></g><path d="M185-189c-5-48-123-54-124 2 14 75 158 14 163 119 3 78-121 87-175 55-17-10-28-26-33-46l33-7c5 56 141 63 141-1 0-78-155-14-162-118-5-82 145-84 179-34 5 7 8 16 11 25" id="bw"/><path d="M59-47c-2 24 18 29 38 22v24C64 9 27 4 27-40v-127H5v-23h24l9-43h21v43h35v23H59v120" id="bx"/><path d="M141-36C126-15 110 5 73 4 37 3 15-17 15-53c-1-64 63-63 125-63 3-35-9-54-41-54-24 1-41 7-42 31l-33-3c5-37 33-52 76-52 45 0 72 20 72 64v82c-1 20 7 32 28 27v20c-31 9-61-2-59-35zM48-53c0 20 12 33 32 33 41-3 63-29 60-74-43 2-92-5-92 41" id="by"/><path d="M117-194c89-4 53 116 60 194h-32v-121c0-31-8-49-39-48C34-167 62-67 57 0H25l-1-190h30c1 10-1 24 2 32 11-22 29-35 61-36" id="bz"/><g id="j"><use transform="matrix(0.05,0,0,0.05,0,0)" xlink:href="#bw"/><use transform="matrix(0.05,0,0,0.05,12,0)" xlink:href="#bx"/><use transform="matrix(0.05,0,0,0.05,17,0)" xlink:href="#by"/><use transform="matrix(0.05,0,0,0.05,27,0)" xlink:href="#bz"/></g><path d="M212-179c-10-28-35-45-73-45-59 0-87 40-87 99 0 60 29 101 89 101 43 0 62-24 78-52l27 14C228-24 195 4 139 4 59 4 22-46 18-125c-6-104 99-153 187-111 19 9 31 26 39 46" id="bA"/><path d="M24 0v-261h32V0H24" id="bB"/><path d="M135-143c-3-34-86-38-87 0 15 53 115 12 119 90S17 21 10-45l28-5c4 36 97 45 98 0-10-56-113-15-118-90-4-57 82-63 122-42 12 7 21 19 24 35" id="bC"/><g id="k"><use transform="matrix(0.05,0,0,0.05,0,0)" xlink:href="#bA"/><use transform="matrix(0.05,0,0,0.05,12.950000000000001,0)" xlink:href="#bB"/><use transform="matrix(0.05,0,0,0.05,16.900000000000002,0)" xlink:href="#by"/><use transform="matrix(0.05,0,0,0.05,26.900000000000002,0)" xlink:href="#bC"/><use transform="matrix(0.05,0,0,0.05,35.900000000000006,0)" xlink:href="#bC"/></g><path d="M24-231v-30h32v30H24zM24 0v-190h32V0H24" id="bD"/><path d="M115-194c53 0 69 39 70 98 0 66-23 100-70 100C84 3 66-7 56-30L54 0H23l1-261h32v101c10-23 28-34 59-34zm-8 174c40 0 45-34 45-75 0-40-5-75-45-74-42 0-51 32-51 76 0 43 10 73 51 73" id="bE"/><path d="M100-194c63 0 86 42 84 106H49c0 40 14 67 53 68 26 1 43-12 49-29l28 8c-11 28-37 45-77 45C44 4 14-33 15-96c1-61 26-98 85-98zm52 81c6-60-76-77-97-28-3 7-6 17-6 28h103" id="bF"/><path d="M0 4l72-265h28L28 4H0" id="bG"/><path d="M85-194c31 0 48 13 60 33l-1-100h32l1 261h-30c-2-10 0-23-3-31C134-8 116 4 85 4 32 4 16-35 15-94c0-66 23-100 70-100zm9 24c-40 0-46 34-46 75 0 40 6 74 45 74 42 0 51-32 51-76 0-42-9-74-50-73" id="bH"/><path d="M33 0v-38h34V0H33" id="bI"/><path d="M101-234c-31-9-42 10-38 44h38v23H63V0H32v-167H5v-23h27c-7-52 17-82 69-68v24" id="bJ"/><path d="M114-163C36-179 61-72 57 0H25l-1-190h30c1 12-1 29 2 39 6-27 23-49 58-41v29" id="bK"/><path d="M210-169c-67 3-38 105-44 169h-31v-121c0-29-5-50-35-48C34-165 62-65 56 0H25l-1-190h30c1 10-1 24 2 32 10-44 99-50 107 0 11-21 27-35 58-36 85-2 47 119 55 194h-31v-121c0-29-5-49-35-48" id="bL"/><g id="l"><use transform="matrix(0.05,0,0,0.05,0,0)" xlink:href="#bx"/><use transform="matrix(0.05,0,0,0.05,5,0)" xlink:href="#bD"/><use transform="matrix(0.05,0,0,0.05,8.95,0)" xlink:href="#bE"/><use transform="matrix(0.05,0,0,0.05,18.95,0)" xlink:href="#bE"/><use transform="matrix(0.05,0,0,0.05,28.950000000000003,0)" xlink:href="#bB"/><use transform="matrix(0.05,0,0,0.05,32.9,0)" xlink:href="#bF"/><use transform="matrix(0.05,0,0,0.05,42.9,0)" xlink:href="#bG"/><use transform="matrix(0.05,0,0,0.05,47.9,0)" xlink:href="#bH"/><use transform="matrix(0.05,0,0,0.05,57.900000000000006,0)" xlink:href="#by"/><use transform="matrix(0.05,0,0,0.05,67.9,0)" xlink:href="#bx"/><use transform="matrix(0.05,0,0,0.05,72.9,0)" xlink:href="#by"/><use transform="matrix(0.05,0,0,0.05,82.9,0)" xlink:href="#bI"/><use transform="matrix(0.05,0,0,0.05,87.9,0)" xlink:href="#bJ"/><use transform="matrix(0.05,0,0,0.05,92.9,0)" xlink:href="#bK"/><use transform="matrix(0.05,0,0,0.05,98.85000000000001,0)" xlink:href="#by"/><use transform="matrix(0.05,0,0,0.05,108.85000000000001,0)" xlink:href="#bL"/><use transform="matrix(0.05,0,0,0.05,123.80000000000001,0)" xlink:href="#bF"/></g><path fill="#fff" d="M30-248c118-7 216 8 213 122C240-48 200 0 122 0H30v-248zM63-27c89 8 146-16 146-99s-60-101-146-95v194" id="bM"/><path fill="#fff" d="M141-36C126-15 110 5 73 4 37 3 15-17 15-53c-1-64 63-63 125-63 3-35-9-54-41-54-24 1-41 7-42 31l-33-3c5-37 33-52 76-52 45 0 72 20 72 64v82c-1 20 7 32 28 27v20c-31 9-61-2-59-35zM48-53c0 20 12 33 32 33 41-3 63-29 60-74-43 2-92-5-92 41" id="bN"/><path fill="#fff" d="M59-47c-2 24 18 29 38 22v24C64 9 27 4 27-40v-127H5v-23h24l9-43h21v43h35v23H59v120" id="bO"/><g id="m"><use transform="matrix(0.050063688677604884,0,0,0.050063688677604884,0,0)" xlink:href="#bM"/><use transform="matrix(0.050063688677604884,0,0,0.050063688677604884,12.966495367499665,0)" xlink:href="#bN"/><use transform="matrix(0.050063688677604884,0,0,0.050063688677604884,22.97923310302064,0)" xlink:href="#bO"/><use transform="matrix(0.050063688677604884,0,0,0.050063688677604884,27.98560197078113,0)" xlink:href="#bN"/></g><path fill="#fff" d="M30-248c87 1 191-15 191 75 0 78-77 80-158 76V0H30v-248zm33 125c57 0 124 11 124-50 0-59-68-47-124-48v98" id="bP"/><path fill="#fff" d="M114-163C36-179 61-72 57 0H25l-1-190h30c1 12-1 29 2 39 6-27 23-49 58-41v29" id="bQ"/><path fill="#fff" d="M100-194c63 0 86 42 84 106H49c0 40 14 67 53 68 26 1 43-12 49-29l28 8c-11 28-37 45-77 45C44 4 14-33 15-96c1-61 26-98 85-98zm52 81c6-60-76-77-97-28-3 7-6 17-6 28h103" id="bR"/><path fill="#fff" d="M115-194c55 1 70 41 70 98S169 2 115 4C84 4 66-9 55-30l1 105H24l-1-265h31l2 30c10-21 28-34 59-34zm-8 174c40 0 45-34 45-75s-6-73-45-74c-42 0-51 32-51 76 0 43 10 73 51 73" id="bS"/><path fill="#fff" d="M24-231v-30h32v30H24zM24 0v-190h32V0H24" id="bT"/><path fill="#fff" d="M100-194c62-1 85 37 85 99 1 63-27 99-86 99S16-35 15-95c0-66 28-99 85-99zM99-20c44 1 53-31 53-75 0-43-8-75-51-75s-53 32-53 75 10 74 51 75" id="bU"/><path fill="#fff" d="M117-194c89-4 53 116 60 194h-32v-121c0-31-8-49-39-48C34-167 62-67 57 0H25l-1-190h30c1 10-1 24 2 32 11-22 29-35 61-36" id="bV"/><g id="n"><use transform="matrix(0.050063688677604884,0,0,0.050063688677604884,0,0)" xlink:href="#bP"/><use transform="matrix(0.050063688677604884,0,0,0.050063688677604884,12.015285282625172,0)" xlink:href="#bQ"/><use transform="matrix(0.050063688677604884,0,0,0.050063688677604884,17.972864235260154,0)" xlink:href="#bR"/><use transform="matrix(0.050063688677604884,0,0,0.050063688677604884,27.98560197078113,0)" xlink:href="#bS"/><use transform="matrix(0.050063688677604884,0,0,0.050063688677604884,37.99833970630211,0)" xlink:href="#bN"/><use transform="matrix(0.050063688677604884,0,0,0.050063688677604884,48.01107744182309,0)" xlink:href="#bQ"/><use transform="matrix(0.050063688677604884,0,0,0.050063688677604884,53.96865639445808,0)" xlink:href="#bN"/><use transform="matrix(0.050063688677604884,0,0,0.050063688677604884,63.98139412997905,0)" xlink:href="#bO"/><use transform="matrix(0.050063688677604884,0,0,0.050063688677604884,68.98776299773954,0)" xlink:href="#bT"/><use transform="matrix(0.050063688677604884,0,0,0.050063688677604884,72.94279440327033,0)" xlink:href="#bU"/><use transform="matrix(0.050063688677604884,0,0,0.050063688677604884,82.9555321387913,0)" xlink:href="#bV"/></g><path fill="#fff" d="M212-179c-10-28-35-45-73-45-59 0-87 40-87 99 0 60 29 101 89 101 43 0 62-24 78-52l27 14C228-24 195 4 139 4 59 4 22-46 18-125c-6-104 99-153 187-111 19 9 31 26 39 46" id="bW"/><path fill="#fff" d="M210-169c-67 3-38 105-44 169h-31v-121c0-29-5-50-35-48C34-165 62-65 56 0H25l-1-190h30c1 10-1 24 2 32 10-44 99-50 107 0 11-21 27-35 58-36 85-2 47 119 55 194h-31v-121c0-29-5-49-35-48" id="bX"/><path fill="#fff" d="M24 0v-261h32V0H24" id="bY"/><g id="o"><use transform="matrix(0.050063688677604884,0,0,0.050063688677604884,0,0)" xlink:href="#bW"/><use transform="matrix(0.050063688677604884,0,0,0.050063688677604884,12.966495367499665,0)" xlink:href="#bU"/><use transform="matrix(0.050063688677604884,0,0,0.050063688677604884,22.97923310302064,0)" xlink:href="#bX"/><use transform="matrix(0.050063688677604884,0,0,0.050063688677604884,37.9482760176245,0)" xlink:href="#bS"/><use transform="matrix(0.050063688677604884,0,0,0.050063688677604884,47.96101375314548,0)" xlink:href="#bT"/><use transform="matrix(0.050063688677604884,0,0,0.050063688677604884,51.91604515867626,0)" xlink:href="#bY"/><use transform="matrix(0.050063688677604884,0,0,0.050063688677604884,55.87107656420706,0)" xlink:href="#bR"/></g><path fill="#fff" d="M106-169C34-169 62-67 57 0H25v-261h32l-1 103c12-21 28-36 61-36 89 0 53 116 60 194h-32v-121c2-32-8-49-39-48" id="bZ"/><g id="p"><use transform="matrix(0.050063688677604884,0,0,0.050063688677604884,0,0)" xlink:href="#bO"/><use transform="matrix(0.050063688677604884,0,0,0.050063688677604884,5.0063688677604885,0)" xlink:href="#bZ"/><use transform="matrix(0.050063688677604884,0,0,0.050063688677604884,15.019106603281465,0)" xlink:href="#bR"/></g><path fill="#fff" d="M240 0l2-218c-23 76-54 145-80 218h-23L58-218 59 0H30v-248h44l77 211c21-75 51-140 76-211h43V0h-30" id="ca"/><path fill="#fff" d="M85-194c31 0 48 13 60 33l-1-100h32l1 261h-30c-2-10 0-23-3-31C134-8 116 4 85 4 32 4 16-35 15-94c0-66 23-100 70-100zm9 24c-40 0-46 34-46 75 0 40 6 74 45 74 42 0 51-32 51-76 0-42-9-74-50-73" id="cb"/><g id="q"><use transform="matrix(0.050063688677604884,0,0,0.050063688677604884,0,0)" xlink:href="#ca"/><use transform="matrix(0.050063688677604884,0,0,0.050063688677604884,14.969042914603861,0)" xlink:href="#bU"/><use transform="matrix(0.050063688677604884,0,0,0.050063688677604884,24.98178065012484,0)" xlink:href="#cb"/><use transform="matrix(0.050063688677604884,0,0,0.050063688677604884,34.99451838564582,0)" xlink:href="#bR"/><use transform="matrix(0.050063688677604884,0,0,0.050063688677604884,45.0072561211668,0)" xlink:href="#bY"/></g><path fill="#fff" d="M33 0v-38h34V0H33" id="cc"/><path fill="#fff" d="M135-143c-3-34-86-38-87 0 15 53 115 12 119 90S17 21 10-45l28-5c4 36 97 45 98 0-10-56-113-15-118-90-4-57 82-63 122-42 12 7 21 19 24 35" id="cd"/><g id="r"><use transform="matrix(0.050063688677604884,0,0,0.050063688677604884,0,0)" xlink:href="#bX"/><use transform="matrix(0.050063688677604884,0,0,0.050063688677604884,14.969042914603861,0)" xlink:href="#bU"/><use transform="matrix(0.050063688677604884,0,0,0.050063688677604884,24.98178065012484,0)" xlink:href="#cb"/><use transform="matrix(0.050063688677604884,0,0,0.050063688677604884,34.99451838564582,0)" xlink:href="#bR"/><use transform="matrix(0.050063688677604884,0,0,0.050063688677604884,45.0072561211668,0)" xlink:href="#bY"/><use transform="matrix(0.050063688677604884,0,0,0.050063688677604884,48.96228752669758,0)" xlink:href="#cc"/><use transform="matrix(0.050063688677604884,0,0,0.050063688677604884,53.968656394458066,0)" xlink:href="#cd"/><use transform="matrix(0.050063688677604884,0,0,0.050063688677604884,62.980120356426944,0)" xlink:href="#bO"/><use transform="matrix(0.050063688677604884,0,0,0.050063688677604884,67.98648922418744,0)" xlink:href="#bN"/><use transform="matrix(0.050063688677604884,0,0,0.050063688677604884,77.99922695970841,0)" xlink:href="#bV"/></g><path d="M63-220v92h138v28H63V0H30v-248h175v28H63" id="ce"/><path d="M141 0L90-78 38 0H4l68-98-65-92h35l48 74 47-74h35l-64 92 68 98h-35" id="cf"/><g id="s"><use transform="matrix(0.050063688677604884,0,0,0.050063688677604884,0,0)" xlink:href="#ce"/><use transform="matrix(0.050063688677604884,0,0,0.050063688677604884,10.96394782039547,0)" xlink:href="#bD"/><use transform="matrix(0.050063688677604884,0,0,0.050063688677604884,14.918979225926256,0)" xlink:href="#cf"/><use transform="matrix(0.050063688677604884,0,0,0.050063688677604884,23.930443187895136,0)" xlink:href="#bF"/><use transform="matrix(0.050063688677604884,0,0,0.050063688677604884,33.943180923416115,0)" xlink:href="#bH"/></g><path d="M30 0v-248h187v28H63v79h144v27H63v87h162V0H30" id="cg"/><path d="M96-169c-40 0-48 33-48 73s9 75 48 75c24 0 41-14 43-38l32 2c-6 37-31 61-74 61-59 0-76-41-82-99-10-93 101-131 147-64 4 7 5 14 7 22l-32 3c-4-21-16-35-41-35" id="ch"/><g id="t"><use transform="matrix(0.050063688677604884,0,0,0.050063688677604884,0,0)" xlink:href="#cg"/><use transform="matrix(0.050063688677604884,0,0,0.050063688677604884,12.015285282625172,0)" xlink:href="#bJ"/><use transform="matrix(0.050063688677604884,0,0,0.050063688677604884,16.671208329642425,0)" xlink:href="#bJ"/><use transform="matrix(0.050063688677604884,0,0,0.050063688677604884,21.677577197402915,0)" xlink:href="#bF"/><use transform="matrix(0.050063688677604884,0,0,0.050063688677604884,31.69031493292389,0)" xlink:href="#ch"/><use transform="matrix(0.050063688677604884,0,0,0.050063688677604884,40.70177889489277,0)" xlink:href="#bx"/><use transform="matrix(0.050063688677604884,0,0,0.050063688677604884,45.708147762653255,0)" xlink:href="#bC"/></g><path d="M233-177c-1 41-23 64-60 70L243 0h-38l-65-103H63V0H30v-248c88 3 205-21 203 71zM63-129c60-2 137 13 137-47 0-61-80-42-137-45v92" id="ci"/><path d="M100-194c62-1 85 37 85 99 1 63-27 99-86 99S16-35 15-95c0-66 28-99 85-99zM99-20c44 1 53-31 53-75 0-43-8-75-51-75s-53 32-53 75 10 74 51 75" id="cj"/><g id="u"><use transform="matrix(0.050063688677604884,0,0,0.050063688677604884,0,0)" xlink:href="#ci"/><use transform="matrix(0.050063688677604884,0,0,0.050063688677604884,12.966495367499665,0)" xlink:href="#by"/><use transform="matrix(0.050063688677604884,0,0,0.050063688677604884,22.97923310302064,0)" xlink:href="#bz"/><use transform="matrix(0.050063688677604884,0,0,0.050063688677604884,32.99197083854162,0)" xlink:href="#bH"/><use transform="matrix(0.050063688677604884,0,0,0.050063688677604884,43.0047085740626,0)" xlink:href="#cj"/><use transform="matrix(0.050063688677604884,0,0,0.050063688677604884,53.01744630958357,0)" xlink:href="#bL"/></g><path d="M30-248c87 1 191-15 191 75 0 78-77 80-158 76V0H30v-248zm33 125c57 0 124 11 124-50 0-59-68-47-124-48v98" id="ck"/><g id="v"><use transform="matrix(0.050063688677604884,0,0,0.050063688677604884,0,0)" xlink:href="#ck"/><use transform="matrix(0.050063688677604884,0,0,0.050063688677604884,12.015285282625172,0)" xlink:href="#bK"/><use transform="matrix(0.050063688677604884,0,0,0.050063688677604884,17.972864235260154,0)" xlink:href="#bF"/><use transform="matrix(0.050063688677604884,0,0,0.050063688677604884,27.98560197078113,0)" xlink:href="#bH"/><use transform="matrix(0.050063688677604884,0,0,0.050063688677604884,37.99833970630211,0)" xlink:href="#bD"/><use transform="matrix(0.050063688677604884,0,0,0.050063688677604884,41.953371111832894,0)" xlink:href="#ch"/><use transform="matrix(0.050063688677604884,0,0,0.050063688677604884,50.96483507380177,0)" xlink:href="#bx"/><use transform="matrix(0.050063688677604884,0,0,0.050063688677604884,55.97120394156226,0)" xlink:href="#bD"/><use transform="matrix(0.050063688677604884,0,0,0.050063688677604884,59.92623534709305,0)" xlink:href="#cj"/><use transform="matrix(0.050063688677604884,0,0,0.050063688677604884,69.93897308261401,0)" xlink:href="#bz"/><use transform="matrix(0.050063688677604884,0,0,0.050063688677604884,79.95171081813498,0)" xlink:href="#bC"/></g><path d="M106-169C34-169 62-67 57 0H25v-261h32l-1 103c12-21 28-36 61-36 89 0 53 116 60 194h-32v-121c2-32-8-49-39-48" id="cl"/><g id="w"><use transform="matrix(0.050063688677604884,0,0,0.050063688677604884,0,0)" xlink:href="#bA"/><use transform="matrix(0.050063688677604884,0,0,0.050063688677604884,12.966495367499665,0)" xlink:href="#cl"/><use transform="matrix(0.050063688677604884,0,0,0.050063688677604884,22.97923310302064,0)" xlink:href="#by"/><use transform="matrix(0.050063688677604884,0,0,0.050063688677604884,32.99197083854162,0)" xlink:href="#bD"/><use transform="matrix(0.050063688677604884,0,0,0.050063688677604884,36.94700224407241,0)" xlink:href="#bz"/><use transform="matrix(0.050063688677604884,0,0,0.050063688677604884,46.95973997959339,0)" xlink:href="#bC"/></g><use transform="matrix(0.050063688677604884,0,0,0.050063688677604884,0,0)" xlink:href="#cf" id="x"/><path d="M33 0v-248h34V0H33" id="cm"/><g id="y"><use transform="matrix(0.050063688677604884,0,0,0.050063688677604884,0,0)" xlink:href="#cm"/><use transform="matrix(0.050063688677604884,0,0,0.050063688677604884,5.0063688677604885,0)" xlink:href="#bx"/><use transform="matrix(0.050063688677604884,0,0,0.050063688677604884,10.012737735520977,0)" xlink:href="#bF"/><use transform="matrix(0.050063688677604884,0,0,0.050063688677604884,20.025475471041954,0)" xlink:href="#bK"/><use transform="matrix(0.050063688677604884,0,0,0.050063688677604884,25.983054423676936,0)" xlink:href="#by"/><use transform="matrix(0.050063688677604884,0,0,0.050063688677604884,35.99579215919791,0)" xlink:href="#bx"/><use transform="matrix(0.050063688677604884,0,0,0.050063688677604884,41.0021610269584,0)" xlink:href="#bD"/><use transform="matrix(0.050063688677604884,0,0,0.050063688677604884,44.95719243248918,0)" xlink:href="#cj"/><use transform="matrix(0.050063688677604884,0,0,0.050063688677604884,54.969930168010166,0)" xlink:href="#bz"/><use transform="matrix(0.050063688677604884,0,0,0.050063688677604884,64.98266790353114,0)" xlink:href="#bC"/></g><use transform="matrix(0.050063688677604884,0,0,0.050063688677604884,0,0)" xlink:href="#bz" id="z"/><path fill="#fff" d="M101-234c-31-9-42 10-38 44h38v23H63V0H32v-167H5v-23h27c-7-52 17-82 69-68v24" id="cn"/><g id="A"><use transform="matrix(0.050063688677604884,0,0,0.050063688677604884,0,0)" xlink:href="#cn"/><use transform="matrix(0.050063688677604884,0,0,0.050063688677604884,5.0063688677604885,0)" xlink:href="#bT"/><use transform="matrix(0.050063688677604884,0,0,0.050063688677604884,8.961400273291275,0)" xlink:href="#bO"/></g><path fill="#fff" d="M115-194c53 0 69 39 70 98 0 66-23 100-70 100C84 3 66-7 56-30L54 0H23l1-261h32v101c10-23 28-34 59-34zm-8 174c40 0 45-34 45-75 0-40-5-75-45-74-42 0-51 32-51 76 0 43 10 73 51 73" id="co"/><path fill="#fff" d="M24-231v-30h32v30H24zM-9 49c24 4 33-6 33-30v-209h32V24c2 40-23 58-65 49V49" id="cp"/><path fill="#fff" d="M96-169c-40 0-48 33-48 73s9 75 48 75c24 0 41-14 43-38l32 2c-6 37-31 61-74 61-59 0-76-41-82-99-10-93 101-131 147-64 4 7 5 14 7 22l-32 3c-4-21-16-35-41-35" id="cq"/><g id="B"><use transform="matrix(0.050063688677604884,0,0,0.050063688677604884,0,0)" xlink:href="#bU"/><use transform="matrix(0.050063688677604884,0,0,0.050063688677604884,10.012737735520977,0)" xlink:href="#co"/><use transform="matrix(0.050063688677604884,0,0,0.050063688677604884,20.025475471041954,0)" xlink:href="#cp"/><use transform="matrix(0.050063688677604884,0,0,0.050063688677604884,23.98050687657274,0)" xlink:href="#bR"/><use transform="matrix(0.050063688677604884,0,0,0.050063688677604884,33.99324461209372,0)" xlink:href="#cq"/><use transform="matrix(0.050063688677604884,0,0,0.050063688677604884,43.0047085740626,0)" xlink:href="#bO"/></g><path d="M39-94c74 12-11 154 75 146v23c-44 4-70-10-70-52C44-23 55-84 6-82v-22c81 4-7-162 84-157h24v23c-82-15-2 131-75 144" id="cr"/><path d="M76-40C78 24 84 88 6 75V52C86 64 9-79 80-94c-40-6-34-59-34-106 1-29-11-41-40-38v-23c44-4 70 10 70 52 0 47-12 108 38 105v22c-26 1-39 14-38 42" id="cs"/><g id="C"><use transform="matrix(0.050063688677604884,0,0,0.050063688677604884,0,0)" xlink:href="#cr"/><use transform="matrix(0.050063688677604884,0,0,0.050063688677604884,6.007642641312586,0)" xlink:href="#ch"/><use transform="matrix(0.050063688677604884,0,0,0.050063688677604884,15.019106603281465,0)" xlink:href="#cl"/><use transform="matrix(0.050063688677604884,0,0,0.050063688677604884,25.031844338802443,0)" xlink:href="#by"/><use transform="matrix(0.050063688677604884,0,0,0.050063688677604884,35.04458207432342,0)" xlink:href="#bD"/><use transform="matrix(0.050063688677604884,0,0,0.050063688677604884,38.999613479854204,0)" xlink:href="#bz"/><use transform="matrix(0.050063688677604884,0,0,0.050063688677604884,49.01235121537518,0)" xlink:href="#bC"/><use transform="matrix(0.050063688677604884,0,0,0.050063688677604884,58.02381517734406,0)" xlink:href="#cs"/></g><g id="D"><use transform="matrix(0.050063688677604884,0,0,0.050063688677604884,0,0)" xlink:href="#cr"/><use transform="matrix(0.050063688677604884,0,0,0.050063688677604884,6.007642641312586,0)" xlink:href="#bD"/><use transform="matrix(0.050063688677604884,0,0,0.050063688677604884,9.962674046843372,0)" xlink:href="#bx"/><use transform="matrix(0.050063688677604884,0,0,0.050063688677604884,14.969042914603861,0)" xlink:href="#bF"/><use transform="matrix(0.050063688677604884,0,0,0.050063688677604884,24.98178065012484,0)" xlink:href="#bK"/><use transform="matrix(0.050063688677604884,0,0,0.050063688677604884,30.939359602759826,0)" xlink:href="#by"/><use transform="matrix(0.050063688677604884,0,0,0.050063688677604884,40.9520973382808,0)" xlink:href="#bx"/><use transform="matrix(0.050063688677604884,0,0,0.050063688677604884,45.95846620604129,0)" xlink:href="#bD"/><use transform="matrix(0.050063688677604884,0,0,0.050063688677604884,49.91349761157207,0)" xlink:href="#cj"/><use transform="matrix(0.050063688677604884,0,0,0.050063688677604884,59.92623534709305,0)" xlink:href="#bz"/><use transform="matrix(0.050063688677604884,0,0,0.050063688677604884,69.93897308261403,0)" xlink:href="#bC"/><use transform="matrix(0.050063688677604884,0,0,0.050063688677604884,78.95043704458291,0)" xlink:href="#cs"/></g><path d="M115-194c55 1 70 41 70 98S169 2 115 4C84 4 66-9 55-30l1 105H24l-1-265h31l2 30c10-21 28-34 59-34zm-8 174c40 0 45-34 45-75s-6-73-45-74c-42 0-51 32-51 76 0 43 10 73 51 73" id="ct"/><g id="E"><use transform="matrix(0.050063688677604884,0,0,0.050063688677604884,0,0)" xlink:href="#cr"/><use transform="matrix(0.050063688677604884,0,0,0.050063688677604884,6.007642641312586,0)" xlink:href="#ct"/></g><path d="M118-107v75H92v-75H18v-26h74v-75h26v75h74v26h-74" id="cu"/><use transform="matrix(0.050063688677604884,0,0,0.050063688677604884,0,0)" xlink:href="#cu" id="F"/><path d="M145-31C134-9 116 4 85 4 32 4 16-35 15-94c0-59 17-99 70-100 32-1 48 14 60 33 0-11-1-24 2-32h30l-1 268h-32zM93-21c41 0 51-33 51-76s-8-73-50-73c-40 0-46 35-46 75s5 74 45 74" id="cv"/><use transform="matrix(0.050063688677604884,0,0,0.050063688677604884,0,0)" xlink:href="#cv" id="G"/><g id="H"><use transform="matrix(0.050063688677604884,0,0,0.050063688677604884,0,0)" xlink:href="#bz"/><use transform="matrix(0.050063688677604884,0,0,0.050063688677604884,10.012737735520977,0)" xlink:href="#cs"/></g><use transform="matrix(0.050063688677604884,0,0,0.050063688677604884,0,0)" xlink:href="#ct" id="I"/><path fill="#fff" d="M179-190L93 31C79 59 56 82 12 73V49c39 6 53-20 64-50L1-190h34L92-34l54-156h33" id="cw"/><g id="J"><use transform="matrix(0.050063688677604884,0,0,0.050063688677604884,0,0)" xlink:href="#co"/><use transform="matrix(0.050063688677604884,0,0,0.050063688677604884,10.012737735520977,0)" xlink:href="#bN"/><use transform="matrix(0.050063688677604884,0,0,0.050063688677604884,20.025475471041954,0)" xlink:href="#cw"/><use transform="matrix(0.050063688677604884,0,0,0.050063688677604884,29.036939433010833,0)" xlink:href="#bR"/><use transform="matrix(0.050063688677604884,0,0,0.050063688677604884,39.04967716853181,0)" xlink:href="#cd"/><use transform="matrix(0.050063688677604884,0,0,0.050063688677604884,48.06114113050069,0)" xlink:href="#bS"/><use transform="matrix(0.050063688677604884,0,0,0.050063688677604884,58.073878866021666,0)" xlink:href="#bY"/><use transform="matrix(0.050063688677604884,0,0,0.050063688677604884,62.02891027155245,0)" xlink:href="#bU"/><use transform="matrix(0.050063688677604884,0,0,0.050063688677604884,72.04164800707342,0)" xlink:href="#bO"/></g><g id="K"><use transform="matrix(0.050063688677604884,0,0,0.050063688677604884,0,0)" xlink:href="#bP"/><use transform="matrix(0.050063688677604884,0,0,0.050063688677604884,12.015285282625172,0)" xlink:href="#bU"/><use transform="matrix(0.050063688677604884,0,0,0.050063688677604884,22.02802301814615,0)" xlink:href="#cd"/><use transform="matrix(0.050063688677604884,0,0,0.050063688677604884,31.03948698011503,0)" xlink:href="#bO"/></g><path fill="#fff" d="M177-190C167-65 218 103 67 71c-23-6-38-20-44-43l32-5c15 47 100 32 89-28v-30C133-14 115 1 83 1 29 1 15-40 15-95c0-56 16-97 71-98 29-1 48 16 59 35 1-10 0-23 2-32h30zM94-22c36 0 50-32 50-73 0-42-14-75-50-75-39 0-46 34-46 75s6 73 46 73" id="cx"/><g id="L"><use transform="matrix(0.050063688677604884,0,0,0.050063688677604884,0,0)" xlink:href="#bP"/><use transform="matrix(0.050063688677604884,0,0,0.050063688677604884,12.015285282625172,0)" xlink:href="#bQ"/><use transform="matrix(0.050063688677604884,0,0,0.050063688677604884,17.972864235260154,0)" xlink:href="#bU"/><use transform="matrix(0.050063688677604884,0,0,0.050063688677604884,27.98560197078113,0)" xlink:href="#cq"/><use transform="matrix(0.050063688677604884,0,0,0.050063688677604884,36.99706593275001,0)" xlink:href="#bR"/><use transform="matrix(0.050063688677604884,0,0,0.050063688677604884,47.00980366827099,0)" xlink:href="#cd"/><use transform="matrix(0.050063688677604884,0,0,0.050063688677604884,56.02126763023986,0)" xlink:href="#cd"/><use transform="matrix(0.050063688677604884,0,0,0.050063688677604884,65.03273159220875,0)" xlink:href="#bT"/><use transform="matrix(0.050063688677604884,0,0,0.050063688677604884,68.98776299773954,0)" xlink:href="#bV"/><use transform="matrix(0.050063688677604884,0,0,0.050063688677604884,79.00050073326051,0)" xlink:href="#cx"/></g><path fill="#fff" d="M160-131c35 5 61 23 61 61C221 17 115-2 30 0v-248c76 3 177-17 177 60 0 33-19 50-47 57zm-97-11c50-1 110 9 110-42 0-47-63-36-110-37v79zm0 115c55-2 124 14 124-45 0-56-70-42-124-44v89" id="cy"/><g id="M"><use transform="matrix(0.050063688677604884,0,0,0.050063688677604884,0,0)" xlink:href="#cy"/><use transform="matrix(0.050063688677604884,0,0,0.050063688677604884,12.015285282625172,0)" xlink:href="#bN"/><use transform="matrix(0.050063688677604884,0,0,0.050063688677604884,22.02802301814615,0)" xlink:href="#cd"/><use transform="matrix(0.050063688677604884,0,0,0.050063688677604884,31.03948698011503,0)" xlink:href="#bR"/><use transform="matrix(0.050063688677604884,0,0,0.050063688677604884,41.05222471563601,0)" xlink:href="#cb"/></g><g id="N"><use transform="matrix(0.050063688677604884,0,0,0.050063688677604884,0,0)" xlink:href="#bU"/><use transform="matrix(0.050063688677604884,0,0,0.050063688677604884,10.012737735520977,0)" xlink:href="#bV"/></g><g id="O"><use transform="matrix(0.050063688677604884,0,0,0.050063688677604884,0,0)" xlink:href="#bP"/><use transform="matrix(0.050063688677604884,0,0,0.050063688677604884,12.015285282625172,0)" xlink:href="#bU"/><use transform="matrix(0.050063688677604884,0,0,0.050063688677604884,22.02802301814615,0)" xlink:href="#cd"/><use transform="matrix(0.050063688677604884,0,0,0.050063688677604884,31.03948698011503,0)" xlink:href="#bO"/><use transform="matrix(0.050063688677604884,0,0,0.050063688677604884,36.045855847875515,0)" xlink:href="#bR"/><use transform="matrix(0.050063688677604884,0,0,0.050063688677604884,46.058593583396494,0)" xlink:href="#bQ"/><use transform="matrix(0.050063688677604884,0,0,0.050063688677604884,52.016172536031476,0)" xlink:href="#bT"/><use transform="matrix(0.050063688677604884,0,0,0.050063688677604884,55.97120394156226,0)" xlink:href="#bU"/><use transform="matrix(0.050063688677604884,0,0,0.050063688677604884,65.98394167708324,0)" xlink:href="#bQ"/></g><path fill="#fff" d="M185-189c-5-48-123-54-124 2 14 75 158 14 163 119 3 78-121 87-175 55-17-10-28-26-33-46l33-7c5 56 141 63 141-1 0-78-155-14-162-118-5-82 145-84 179-34 5 7 8 16 11 25" id="cz"/><g id="P"><use transform="matrix(0.050063688677604884,0,0,0.050063688677604884,0,0)" xlink:href="#cz"/><use transform="matrix(0.050063688677604884,0,0,0.050063688677604884,12.015285282625172,0)" xlink:href="#bN"/><use transform="matrix(0.050063688677604884,0,0,0.050063688677604884,22.02802301814615,0)" xlink:href="#bX"/><use transform="matrix(0.050063688677604884,0,0,0.050063688677604884,36.99706593275001,0)" xlink:href="#bS"/><use transform="matrix(0.050063688677604884,0,0,0.050063688677604884,47.00980366827099,0)" xlink:href="#bY"/><use transform="matrix(0.050063688677604884,0,0,0.050063688677604884,50.96483507380178,0)" xlink:href="#bR"/><use transform="matrix(0.050063688677604884,0,0,0.050063688677604884,60.97757280932276,0)" xlink:href="#cd"/></g><path fill="#fff" d="M108 0H70L1-190h34L89-25l56-165h34" id="cA"/><g id="Q"><use transform="matrix(0.050063688677604884,0,0,0.050063688677604884,0,0)" xlink:href="#bO"/><use transform="matrix(0.050063688677604884,0,0,0.050063688677604884,5.0063688677604885,0)" xlink:href="#bT"/><use transform="matrix(0.050063688677604884,0,0,0.050063688677604884,8.961400273291275,0)" xlink:href="#cb"/><use transform="matrix(0.050063688677604884,0,0,0.050063688677604884,18.974138008812254,0)" xlink:href="#cw"/><use transform="matrix(0.050063688677604884,0,0,0.050063688677604884,27.98560197078113,0)" xlink:href="#cA"/><use transform="matrix(0.050063688677604884,0,0,0.050063688677604884,36.99706593275001,0)" xlink:href="#bR"/><use transform="matrix(0.050063688677604884,0,0,0.050063688677604884,47.00980366827099,0)" xlink:href="#bQ"/><use transform="matrix(0.050063688677604884,0,0,0.050063688677604884,52.967382620905965,0)" xlink:href="#cd"/><use transform="matrix(0.050063688677604884,0,0,0.050063688677604884,61.978846582874844,0)" xlink:href="#bR"/></g><path fill="#fff" d="M194 0L95-120 63-95V0H30v-248h33v124l119-124h40L117-140 236 0h-42" id="cB"/><g id="R"><use transform="matrix(0.050063688677604884,0,0,0.050063688677604884,0,0)" xlink:href="#cB"/><use transform="matrix(0.050063688677604884,0,0,0.050063688677604884,12.015285282625172,0)" xlink:href="#bN"/><use transform="matrix(0.050063688677604884,0,0,0.050063688677604884,22.02802301814615,0)" xlink:href="#bS"/><use transform="matrix(0.050063688677604884,0,0,0.050063688677604884,32.04076075366713,0)" xlink:href="#bY"/><use transform="matrix(0.050063688677604884,0,0,0.050063688677604884,35.99579215919792,0)" xlink:href="#bN"/><use transform="matrix(0.050063688677604884,0,0,0.050063688677604884,46.0085298947189,0)" xlink:href="#bV"/></g><g id="S"><use transform="matrix(0.050063688677604884,0,0,0.050063688677604884,0,0)" xlink:href="#ca"/><use transform="matrix(0.050063688677604884,0,0,0.050063688677604884,14.969042914603861,0)" xlink:href="#bR"/><use transform="matrix(0.050063688677604884,0,0,0.050063688677604884,24.98178065012484,0)" xlink:href="#bT"/><use transform="matrix(0.050063688677604884,0,0,0.050063688677604884,28.936812055655622,0)" xlink:href="#bQ"/></g><path fill="#fff" d="M137 0h-34L2-248h35l83 218 83-218h36" id="cC"/><g id="T"><use transform="matrix(0.050063688677604884,0,0,0.050063688677604884,0,0)" xlink:href="#cC"/><use transform="matrix(0.050063688677604884,0,0,0.050063688677604884,12.015285282625172,0)" xlink:href="#bP"/><use transform="matrix(0.050063688677604884,0,0,0.050063688677604884,24.030570565250343,0)" xlink:href="#bW"/></g><path fill="#fff" d="M63-220v92h138v28H63V0H30v-248h175v28H63" id="cD"/><g id="U"><use transform="matrix(0.050063688677604884,0,0,0.050063688677604884,0,0)" xlink:href="#cD"/><use transform="matrix(0.050063688677604884,0,0,0.050063688677604884,10.96394782039547,0)" xlink:href="#bU"/><use transform="matrix(0.050063688677604884,0,0,0.050063688677604884,20.976685555916447,0)" xlink:href="#bQ"/><use transform="matrix(0.050063688677604884,0,0,0.050063688677604884,26.93426450855143,0)" xlink:href="#bQ"/><use transform="matrix(0.050063688677604884,0,0,0.050063688677604884,32.89184346118641,0)" xlink:href="#bR"/><use transform="matrix(0.050063688677604884,0,0,0.050063688677604884,42.90458119670739,0)" xlink:href="#cd"/><use transform="matrix(0.050063688677604884,0,0,0.050063688677604884,51.91604515867626,0)" xlink:href="#bO"/></g><g id="V"><use transform="matrix(0.050063688677604884,0,0,0.050063688677604884,0,0)" xlink:href="#bP"/><use transform="matrix(0.050063688677604884,0,0,0.050063688677604884,12.015285282625172,0)" xlink:href="#bY"/><use transform="matrix(0.050063688677604884,0,0,0.050063688677604884,15.970316688155958,0)" xlink:href="#bU"/><use transform="matrix(0.050063688677604884,0,0,0.050063688677604884,25.983054423676936,0)" xlink:href="#bO"/><use transform="matrix(0.050063688677604884,0,0,0.050063688677604884,30.989423291437422,0)" xlink:href="#cd"/></g><g id="W"><use transform="matrix(0.050063688677604884,0,0,0.050063688677604884,0,0)" xlink:href="#bS"/><use transform="matrix(0.050063688677604884,0,0,0.050063688677604884,10.012737735520977,0)" xlink:href="#bN"/><use transform="matrix(0.050063688677604884,0,0,0.050063688677604884,20.025475471041954,0)" xlink:href="#bQ"/><use transform="matrix(0.050063688677604884,0,0,0.050063688677604884,25.983054423676936,0)" xlink:href="#bN"/><use transform="matrix(0.050063688677604884,0,0,0.050063688677604884,35.99579215919791,0)" xlink:href="#bX"/><use transform="matrix(0.050063688677604884,0,0,0.050063688677604884,50.96483507380177,0)" xlink:href="#bR"/><use transform="matrix(0.050063688677604884,0,0,0.050063688677604884,60.97757280932275,0)" xlink:href="#bO"/><use transform="matrix(0.050063688677604884,0,0,0.050063688677604884,65.98394167708324,0)" xlink:href="#bR"/><use transform="matrix(0.050063688677604884,0,0,0.050063688677604884,75.99667941260421,0)" xlink:href="#bQ"/></g><g id="X"><use transform="matrix(0.050063688677604884,0,0,0.050063688677604884,0,0)" xlink:href="#bO"/><use transform="matrix(0.050063688677604884,0,0,0.050063688677604884,5.0063688677604885,0)" xlink:href="#bN"/><use transform="matrix(0.050063688677604884,0,0,0.050063688677604884,15.019106603281465,0)" xlink:href="#co"/><use transform="matrix(0.050063688677604884,0,0,0.050063688677604884,25.031844338802443,0)" xlink:href="#bY"/><use transform="matrix(0.050063688677604884,0,0,0.050063688677604884,28.98687574433323,0)" xlink:href="#bR"/><use transform="matrix(0.050063688677604884,0,0,0.050063688677604884,38.999613479854204,0)" xlink:href="#cd"/></g><path fill="#fff" d="M266 0h-40l-56-210L115 0H75L2-248h35L96-30l15-64 43-154h32l59 218 59-218h35" id="cE"/><path fill="#fff" d="M205 0l-28-72H64L36 0H1l101-248h38L239 0h-34zm-38-99l-47-123c-12 45-31 82-46 123h93" id="cF"/><path fill="#fff" d="M33 0v-248h34V0H33" id="cG"/><g id="Y"><use transform="matrix(0.050063688677604884,0,0,0.050063688677604884,0,0)" xlink:href="#cE"/><use transform="matrix(0.050063688677604884,0,0,0.050063688677604884,16.32076250889919,0)" xlink:href="#cF"/><use transform="matrix(0.050063688677604884,0,0,0.050063688677604884,28.336047791524358,0)" xlink:href="#cG"/><use transform="matrix(0.050063688677604884,0,0,0.050063688677604884,33.34241665928485,0)" xlink:href="#bW"/></g><g id="Z"><use transform="matrix(0.050063688677604884,0,0,0.050063688677604884,0,0)" xlink:href="#bO"/><use transform="matrix(0.050063688677604884,0,0,0.050063688677604884,5.0063688677604885,0)" xlink:href="#bQ"/><use transform="matrix(0.050063688677604884,0,0,0.050063688677604884,10.96394782039547,0)" xlink:href="#bN"/><use transform="matrix(0.050063688677604884,0,0,0.050063688677604884,20.976685555916447,0)" xlink:href="#cq"/><use transform="matrix(0.050063688677604884,0,0,0.050063688677604884,29.988149517885326,0)" xlink:href="#bR"/><use transform="matrix(0.050063688677604884,0,0,0.050063688677604884,40.000887253406304,0)" xlink:href="#bS"/><use transform="matrix(0.050063688677604884,0,0,0.050063688677604884,50.01362498892728,0)" xlink:href="#bY"/><use transform="matrix(0.050063688677604884,0,0,0.050063688677604884,53.968656394458066,0)" xlink:href="#bU"/><use transform="matrix(0.050063688677604884,0,0,0.050063688677604884,63.981394129979044,0)" xlink:href="#bO"/></g><g id="aa"><use transform="matrix(0.050063688677604884,0,0,0.050063688677604884,0,0)" xlink:href="#bQ"/><use transform="matrix(0.050063688677604884,0,0,0.050063688677604884,5.957578952634981,0)" xlink:href="#bZ"/><use transform="matrix(0.050063688677604884,0,0,0.050063688677604884,15.970316688155958,0)" xlink:href="#bN"/><use transform="matrix(0.050063688677604884,0,0,0.050063688677604884,25.983054423676936,0)" xlink:href="#bO"/></g><path fill="#fff" d="M16-82v-28h88v28H16" id="cH"/><path fill="#fff" d="M143 0L79-87 56-68V0H24v-261h32v163l83-92h37l-77 82L181 0h-38" id="cI"/><g id="ab"><use transform="matrix(0.050063688677604884,0,0,0.050063688677604884,0,0)" xlink:href="#bS"/><use transform="matrix(0.050063688677604884,0,0,0.050063688677604884,10.012737735520977,0)" xlink:href="#bN"/><use transform="matrix(0.050063688677604884,0,0,0.050063688677604884,20.025475471041954,0)" xlink:href="#bQ"/><use transform="matrix(0.050063688677604884,0,0,0.050063688677604884,25.983054423676936,0)" xlink:href="#bR"/><use transform="matrix(0.050063688677604884,0,0,0.050063688677604884,35.99579215919791,0)" xlink:href="#bO"/><use transform="matrix(0.050063688677604884,0,0,0.050063688677604884,41.0021610269584,0)" xlink:href="#bU"/><use transform="matrix(0.050063688677604884,0,0,0.050063688677604884,51.014898762479376,0)" xlink:href="#cH"/><use transform="matrix(0.050063688677604884,0,0,0.050063688677604884,56.97247771511436,0)" xlink:href="#cI"/></g><path fill="#fff" d="M127-220V0H93v-220H8v-28h204v28h-85" id="cJ"/><path fill="#fff" d="M84 4C-5 8 30-112 23-190h32v120c0 31 7 50 39 49 72-2 45-101 50-169h31l1 190h-30c-1-10 1-25-2-33-11 22-28 36-60 37" id="cK"/><g id="ac"><use transform="matrix(0.050063688677604884,0,0,0.050063688677604884,0,0)" xlink:href="#cJ"/><use transform="matrix(0.050063688677604884,0,0,0.050063688677604884,10.313119867586606,0)" xlink:href="#cK"/><use transform="matrix(0.050063688677604884,0,0,0.050063688677604884,20.325857603107583,0)" xlink:href="#bX"/><use transform="matrix(0.050063688677604884,0,0,0.050063688677604884,35.29490051771144,0)" xlink:href="#bU"/><use transform="matrix(0.050063688677604884,0,0,0.050063688677604884,45.30763825323242,0)" xlink:href="#bQ"/></g><path fill="#fff" d="M9 0v-24l116-142H16v-24h144v24L44-24h123V0H9" id="cL"/><g id="ad"><use transform="matrix(0.050063688677604884,0,0,0.050063688677604884,0,0)" xlink:href="#cz"/><use transform="matrix(0.050063688677604884,0,0,0.050063688677604884,12.015285282625172,0)" xlink:href="#bT"/><use transform="matrix(0.050063688677604884,0,0,0.050063688677604884,15.970316688155958,0)" xlink:href="#cL"/><use transform="matrix(0.050063688677604884,0,0,0.050063688677604884,24.981780650124836,0)" xlink:href="#bR"/></g><g id="ae"><use transform="matrix(0.050063688677604884,0,0,0.050063688677604884,0,0)" xlink:href="#bP"/><use transform="matrix(0.050063688677604884,0,0,0.050063688677604884,12.015285282625172,0)" xlink:href="#bU"/><use transform="matrix(0.050063688677604884,0,0,0.050063688677604884,22.02802301814615,0)" xlink:href="#cd"/><use transform="matrix(0.050063688677604884,0,0,0.050063688677604884,31.03948698011503,0)" xlink:href="#bO"/><use transform="matrix(0.050063688677604884,0,0,0.050063688677604884,36.045855847875515,0)" xlink:href="#bR"/><use transform="matrix(0.050063688677604884,0,0,0.050063688677604884,46.058593583396494,0)" xlink:href="#bQ"/><use transform="matrix(0.050063688677604884,0,0,0.050063688677604884,52.016172536031476,0)" xlink:href="#bU"/><use transform="matrix(0.050063688677604884,0,0,0.050063688677604884,62.02891027155245,0)" xlink:href="#bQ"/></g><g id="af"><use transform="matrix(0.050063688677604884,0,0,0.050063688677604884,0,0)" xlink:href="#bY"/><use transform="matrix(0.050063688677604884,0,0,0.050063688677604884,3.955031405530786,0)" xlink:href="#bU"/><use transform="matrix(0.050063688677604884,0,0,0.050063688677604884,13.967769141051763,0)" xlink:href="#bU"/></g><path d="M140-251c81 0 123 46 123 126C263-46 219 4 140 4 59 4 17-45 17-125s42-126 123-126zm0 227c63 0 89-41 89-101s-29-99-89-99c-61 0-89 39-89 99S79-25 140-24" id="cM"/><path d="M24-231v-30h32v30H24zM-9 49c24 4 33-6 33-30v-209h32V24c2 40-23 58-65 49V49" id="cN"/><g id="ag"><use transform="matrix(0.06436759972834913,0,0,0.06436759972834913,0,0)" xlink:href="#cM"/><use transform="matrix(0.06436759972834913,0,0,0.06436759972834913,18.022927923937758,0)" xlink:href="#bE"/><use transform="matrix(0.06436759972834913,0,0,0.06436759972834913,30.896447869607584,0)" xlink:href="#cN"/><use transform="matrix(0.06436759972834913,0,0,0.06436759972834913,35.981488248147166,0)" xlink:href="#bF"/><use transform="matrix(0.06436759972834913,0,0,0.06436759972834913,48.85500819381699,0)" xlink:href="#ch"/><use transform="matrix(0.06436759972834913,0,0,0.06436759972834913,60.44117614491984,0)" xlink:href="#bx"/></g><path d="M190 0L58-211 59 0H30v-248h39L202-35l-2-213h31V0h-41" id="cO"/><g id="ah"><use transform="matrix(0.06436759972834913,0,0,0.06436759972834913,0,0)" xlink:href="#cO"/><use transform="matrix(0.06436759972834913,0,0,0.06436759972834913,16.671208329642425,0)" xlink:href="#bF"/><use transform="matrix(0.06436759972834913,0,0,0.06436759972834913,29.544728275312252,0)" xlink:href="#bF"/><use transform="matrix(0.06436759972834913,0,0,0.06436759972834913,42.41824822098208,0)" xlink:href="#bH"/><use transform="matrix(0.06436759972834913,0,0,0.06436759972834913,55.291768166651906,0)" xlink:href="#bC"/></g><g id="ai"><use transform="matrix(0.06436759972834913,0,0,0.06436759972834913,0,0)" xlink:href="#bx"/><use transform="matrix(0.06436759972834913,0,0,0.06436759972834913,6.4367599728349125,0)" xlink:href="#cj"/></g><path d="M108 0H70L1-190h34L89-25l56-165h34" id="cP"/><g id="aj"><use transform="matrix(0.06436759972834913,0,0,0.06436759972834913,0,0)" xlink:href="#bw"/><use transform="matrix(0.06436759972834913,0,0,0.06436759972834913,15.44822393480379,0)" xlink:href="#bF"/><use transform="matrix(0.06436759972834913,0,0,0.06436759972834913,28.321743880473615,0)" xlink:href="#bK"/><use transform="matrix(0.06436759972834913,0,0,0.06436759972834913,35.98148824814716,0)" xlink:href="#cP"/><use transform="matrix(0.06436759972834913,0,0,0.06436759972834913,47.56765619925,0)" xlink:href="#bD"/><use transform="matrix(0.06436759972834913,0,0,0.06436759972834913,52.652696577789584,0)" xlink:href="#ch"/><use transform="matrix(0.06436759972834913,0,0,0.06436759972834913,64.23886452889242,0)" xlink:href="#bF"/></g><path d="M240 0l2-218c-23 76-54 145-80 218h-23L58-218 59 0H30v-248h44l77 211c21-75 51-140 76-211h43V0h-30" id="cQ"/><path d="M84 4C-5 8 30-112 23-190h32v120c0 31 7 50 39 49 72-2 45-101 50-169h31l1 190h-30c-1-10 1-25-2-33-11 22-28 36-60 37" id="cR"/><g id="ak"><use transform="matrix(0.06436759972834913,0,0,0.06436759972834913,0,0)" xlink:href="#cQ"/><use transform="matrix(0.06436759972834913,0,0,0.06436759972834913,19.24591231877639,0)" xlink:href="#cR"/><use transform="matrix(0.06436759972834913,0,0,0.06436759972834913,32.11943226444622,0)" xlink:href="#bB"/><use transform="matrix(0.06436759972834913,0,0,0.06436759972834913,37.2044726429858,0)" xlink:href="#bx"/><use transform="matrix(0.06436759972834913,0,0,0.06436759972834913,43.64123261582071,0)" xlink:href="#bD"/><use transform="matrix(0.06436759972834913,0,0,0.06436759972834913,48.72627299436029,0)" xlink:href="#ct"/><use transform="matrix(0.06436759972834913,0,0,0.06436759972834913,61.59979294003012,0)" xlink:href="#bB"/><use transform="matrix(0.06436759972834913,0,0,0.06436759972834913,66.6848333185697,0)" xlink:href="#bF"/></g><path d="M127-220V0H93v-220H8v-28h204v28h-85" id="cS"/><path d="M143 0L79-87 56-68V0H24v-261h32v163l83-92h37l-77 82L181 0h-38" id="cT"/><g id="al"><use transform="matrix(0.06436759972834913,0,0,0.06436759972834913,0,0)" xlink:href="#cS"/><use transform="matrix(0.06436759972834913,0,0,0.06436759972834913,11.521800351374495,0)" xlink:href="#by"/><use transform="matrix(0.06436759972834913,0,0,0.06436759972834913,24.39532029704432,0)" xlink:href="#bC"/><use transform="matrix(0.06436759972834913,0,0,0.06436759972834913,35.981488248147166,0)" xlink:href="#cT"/><use transform="matrix(0.06436759972834913,0,0,0.06436759972834913,47.56765619925002,0)" xlink:href="#bC"/></g><g id="am"><use transform="matrix(0.050063688677604884,0,0,0.050063688677604884,0,0)" xlink:href="#bS"/><use transform="matrix(0.050063688677604884,0,0,0.050063688677604884,10.012737735520977,0)" xlink:href="#bN"/><use transform="matrix(0.050063688677604884,0,0,0.050063688677604884,20.025475471041954,0)" xlink:href="#bT"/><use transform="matrix(0.050063688677604884,0,0,0.050063688677604884,23.98050687657274,0)" xlink:href="#bQ"/><use transform="matrix(0.050063688677604884,0,0,0.050063688677604884,29.938085829207722,0)" xlink:href="#cd"/></g><g id="an"><use transform="matrix(0.050063688677604884,0,0,0.050063688677604884,0,0)" xlink:href="#bS"/><use transform="matrix(0.050063688677604884,0,0,0.050063688677604884,10.012737735520977,0)" xlink:href="#bY"/><use transform="matrix(0.050063688677604884,0,0,0.050063688677604884,13.967769141051763,0)" xlink:href="#bU"/><use transform="matrix(0.050063688677604884,0,0,0.050063688677604884,23.98050687657274,0)" xlink:href="#bO"/></g><g id="ao"><use transform="matrix(0.050063688677604884,0,0,0.050063688677604884,0,0)" xlink:href="#bQ"/><use transform="matrix(0.050063688677604884,0,0,0.050063688677604884,5.957578952634981,0)" xlink:href="#cd"/><use transform="matrix(0.050063688677604884,0,0,0.050063688677604884,14.969042914603861,0)" xlink:href="#bO"/><use transform="matrix(0.050063688677604884,0,0,0.050063688677604884,19.97541178236435,0)" xlink:href="#bN"/><use transform="matrix(0.050063688677604884,0,0,0.050063688677604884,29.988149517885326,0)" xlink:href="#bV"/></g><g id="ap"><use transform="matrix(0.050063688677604884,0,0,0.050063688677604884,0,0)" xlink:href="#cd"/><use transform="matrix(0.050063688677604884,0,0,0.050063688677604884,9.011463961968879,0)" xlink:href="#cK"/><use transform="matrix(0.050063688677604884,0,0,0.050063688677604884,19.024201697489858,0)" xlink:href="#co"/><use transform="matrix(0.050063688677604884,0,0,0.050063688677604884,29.03693943301084,0)" xlink:href="#cp"/><use transform="matrix(0.050063688677604884,0,0,0.050063688677604884,32.99197083854162,0)" xlink:href="#bR"/><use transform="matrix(0.050063688677604884,0,0,0.050063688677604884,43.0047085740626,0)" xlink:href="#cq"/><use transform="matrix(0.050063688677604884,0,0,0.050063688677604884,52.016172536031476,0)" xlink:href="#bO"/></g><g id="aq"><use transform="matrix(0.050063688677604884,0,0,0.050063688677604884,0,0)" xlink:href="#cd"/><use transform="matrix(0.050063688677604884,0,0,0.050063688677604884,9.011463961968879,0)" xlink:href="#bS"/><use transform="matrix(0.050063688677604884,0,0,0.050063688677604884,19.024201697489858,0)" xlink:href="#bR"/><use transform="matrix(0.050063688677604884,0,0,0.050063688677604884,29.03693943301084,0)" xlink:href="#cq"/><use transform="matrix(0.050063688677604884,0,0,0.050063688677604884,38.048403394979715,0)" xlink:href="#bT"/><use transform="matrix(0.050063688677604884,0,0,0.050063688677604884,42.003434800510504,0)" xlink:href="#cn"/><use transform="matrix(0.050063688677604884,0,0,0.050063688677604884,47.00980366827099,0)" xlink:href="#bT"/><use transform="matrix(0.050063688677604884,0,0,0.050063688677604884,50.96483507380178,0)" xlink:href="#cq"/></g><g id="ar"><use transform="matrix(0.050063688677604884,0,0,0.050063688677604884,0,0)" xlink:href="#bS"/><use transform="matrix(0.050063688677604884,0,0,0.050063688677604884,10.012737735520977,0)" xlink:href="#bN"/><use transform="matrix(0.050063688677604884,0,0,0.050063688677604884,20.025475471041954,0)" xlink:href="#bQ"/><use transform="matrix(0.050063688677604884,0,0,0.050063688677604884,25.983054423676936,0)" xlink:href="#bN"/><use transform="matrix(0.050063688677604884,0,0,0.050063688677604884,35.99579215919791,0)" xlink:href="#bX"/><use transform="matrix(0.050063688677604884,0,0,0.050063688677604884,50.96483507380177,0)" xlink:href="#bR"/><use transform="matrix(0.050063688677604884,0,0,0.050063688677604884,60.97757280932275,0)" xlink:href="#bO"/><use transform="matrix(0.050063688677604884,0,0,0.050063688677604884,65.98394167708324,0)" xlink:href="#bR"/><use transform="matrix(0.050063688677604884,0,0,0.050063688677604884,75.99667941260421,0)" xlink:href="#bQ"/></g><g id="as"><use transform="matrix(0.050063688677604884,0,0,0.050063688677604884,0,0)" xlink:href="#bS"/><use transform="matrix(0.050063688677604884,0,0,0.050063688677604884,10.012737735520977,0)" xlink:href="#bU"/><use transform="matrix(0.050063688677604884,0,0,0.050063688677604884,20.025475471041954,0)" xlink:href="#cd"/><use transform="matrix(0.050063688677604884,0,0,0.050063688677604884,29.036939433010833,0)" xlink:href="#bO"/><use transform="matrix(0.050063688677604884,0,0,0.050063688677604884,34.04330830077132,0)" xlink:href="#bR"/><use transform="matrix(0.050063688677604884,0,0,0.050063688677604884,44.0560460362923,0)" xlink:href="#bQ"/><use transform="matrix(0.050063688677604884,0,0,0.050063688677604884,50.01362498892728,0)" xlink:href="#bT"/><use transform="matrix(0.050063688677604884,0,0,0.050063688677604884,53.968656394458066,0)" xlink:href="#bU"/><use transform="matrix(0.050063688677604884,0,0,0.050063688677604884,63.981394129979044,0)" xlink:href="#bQ"/><use transform="matrix(0.050063688677604884,0,0,0.050063688677604884,69.93897308261403,0)" xlink:href="#cd"/></g><g id="at"><use transform="matrix(0.06436759972834913,0,0,0.06436759972834913,0,0)" xlink:href="#cS"/><use transform="matrix(0.06436759972834913,0,0,0.06436759972834913,11.521800351374495,0)" xlink:href="#cj"/><use transform="matrix(0.06436759972834913,0,0,0.06436759972834913,24.39532029704432,0)" xlink:href="#cj"/></g><path d="M160-131c35 5 61 23 61 61C221 17 115-2 30 0v-248c76 3 177-17 177 60 0 33-19 50-47 57zm-97-11c50-1 110 9 110-42 0-47-63-36-110-37v79zm0 115c55-2 124 14 124-45 0-56-70-42-124-44v89" id="cU"/><path d="M177-190C167-65 218 103 67 71c-23-6-38-20-44-43l32-5c15 47 100 32 89-28v-30C133-14 115 1 83 1 29 1 15-40 15-95c0-56 16-97 71-98 29-1 48 16 59 35 1-10 0-23 2-32h30zM94-22c36 0 50-32 50-73 0-42-14-75-50-75-39 0-46 34-46 75s6 73 46 73" id="cV"/><g id="au"><use transform="matrix(0.06436759972834913,0,0,0.06436759972834913,0,0)" xlink:href="#cU"/><use transform="matrix(0.06436759972834913,0,0,0.06436759972834913,15.44822393480379,0)" xlink:href="#bD"/><use transform="matrix(0.06436759972834913,0,0,0.06436759972834913,20.533264313343373,0)" xlink:href="#cV"/></g><g id="av"><use transform="matrix(0.06436759972834913,0,0,0.06436759972834913,0,0)" xlink:href="#bJ"/><use transform="matrix(0.06436759972834913,0,0,0.06436759972834913,6.4367599728349125,0)" xlink:href="#cj"/><use transform="matrix(0.06436759972834913,0,0,0.06436759972834913,19.310279918504737,0)" xlink:href="#bK"/></g><g id="aw"><use transform="matrix(0.06436759972834913,0,0,0.06436759972834913,0,0)" xlink:href="#bD"/><use transform="matrix(0.06436759972834913,0,0,0.06436759972834913,5.085040378539581,0)" xlink:href="#bz"/></g><path d="M179-190L93 31C79 59 56 82 12 73V49c39 6 53-20 64-50L1-190h34L92-34l54-156h33" id="cW"/><g id="ax"><use transform="matrix(0.06436759972834913,0,0,0.06436759972834913,0,0)" xlink:href="#cQ"/><use transform="matrix(0.06436759972834913,0,0,0.06436759972834913,19.24591231877639,0)" xlink:href="#bF"/><use transform="matrix(0.06436759972834913,0,0,0.06436759972834913,32.11943226444622,0)" xlink:href="#bL"/><use transform="matrix(0.06436759972834913,0,0,0.06436759972834913,51.365344583222615,0)" xlink:href="#cj"/><use transform="matrix(0.06436759972834913,0,0,0.06436759972834913,64.23886452889244,0)" xlink:href="#bK"/><use transform="matrix(0.06436759972834913,0,0,0.06436759972834913,71.89860889656597,0)" xlink:href="#cW"/></g><g id="ay"><use transform="matrix(0.06436759972834913,0,0,0.06436759972834913,0,0)" xlink:href="#ck"/><use transform="matrix(0.06436759972834913,0,0,0.06436759972834913,15.44822393480379,0)" xlink:href="#bK"/><use transform="matrix(0.06436759972834913,0,0,0.06436759972834913,23.10796830247734,0)" xlink:href="#cj"/><use transform="matrix(0.06436759972834913,0,0,0.06436759972834913,35.981488248147166,0)" xlink:href="#ch"/><use transform="matrix(0.06436759972834913,0,0,0.06436759972834913,47.56765619925002,0)" xlink:href="#bF"/><use transform="matrix(0.06436759972834913,0,0,0.06436759972834913,60.44117614491984,0)" xlink:href="#bC"/><use transform="matrix(0.06436759972834913,0,0,0.06436759972834913,72.02734409602267,0)" xlink:href="#bC"/><use transform="matrix(0.06436759972834913,0,0,0.06436759972834913,83.6135120471255,0)" xlink:href="#bD"/><use transform="matrix(0.06436759972834913,0,0,0.06436759972834913,88.6985524256651,0)" xlink:href="#bz"/><use transform="matrix(0.06436759972834913,0,0,0.06436759972834913,101.57207237133493,0)" xlink:href="#cV"/></g><g id="az"><use transform="matrix(0.06436759972834913,0,0,0.06436759972834913,0,0)" xlink:href="#bJ"/><use transform="matrix(0.06436759972834913,0,0,0.06436759972834913,6.4367599728349125,0)" xlink:href="#cj"/><use transform="matrix(0.06436759972834913,0,0,0.06436759972834913,19.310279918504737,0)" xlink:href="#bK"/></g><g id="aA"><use transform="matrix(0.06436759972834913,0,0,0.06436759972834913,0,0)" xlink:href="#by"/><use transform="matrix(0.06436759972834913,0,0,0.06436759972834913,12.873519945669825,0)" xlink:href="#bB"/><use transform="matrix(0.06436759972834913,0,0,0.06436759972834913,17.958560324209408,0)" xlink:href="#bB"/></g><g id="aB"><use transform="matrix(0.06436759972834913,0,0,0.06436759972834913,0,0)" xlink:href="#bx"/><use transform="matrix(0.06436759972834913,0,0,0.06436759972834913,6.4367599728349125,0)" xlink:href="#cl"/><use transform="matrix(0.06436759972834913,0,0,0.06436759972834913,19.310279918504737,0)" xlink:href="#bF"/></g><g id="aC"><use transform="matrix(0.06436759972834913,0,0,0.06436759972834913,0,0)" xlink:href="#ct"/><use transform="matrix(0.06436759972834913,0,0,0.06436759972834913,12.873519945669825,0)" xlink:href="#by"/><use transform="matrix(0.06436759972834913,0,0,0.06436759972834913,25.74703989133965,0)" xlink:href="#bK"/><use transform="matrix(0.06436759972834913,0,0,0.06436759972834913,33.40678425901319,0)" xlink:href="#by"/><use transform="matrix(0.06436759972834913,0,0,0.06436759972834913,46.28030420468302,0)" xlink:href="#bL"/><use transform="matrix(0.06436759972834913,0,0,0.06436759972834913,65.52621652345941,0)" xlink:href="#bF"/><use transform="matrix(0.06436759972834913,0,0,0.06436759972834913,78.39973646912924,0)" xlink:href="#bx"/><use transform="matrix(0.06436759972834913,0,0,0.06436759972834913,84.83649644196414,0)" xlink:href="#bF"/><use transform="matrix(0.06436759972834913,0,0,0.06436759972834913,97.71001638763397,0)" xlink:href="#bK"/><use transform="matrix(0.06436759972834913,0,0,0.06436759972834913,105.36976075530751,0)" xlink:href="#bC"/></g><g id="aD"><use transform="matrix(0.06436759972834913,0,0,0.06436759972834913,0,0)" xlink:href="#by"/><use transform="matrix(0.06436759972834913,0,0,0.06436759972834913,12.873519945669825,0)" xlink:href="#bz"/><use transform="matrix(0.06436759972834913,0,0,0.06436759972834913,25.74703989133965,0)" xlink:href="#bH"/></g><g id="aE"><use transform="matrix(0.06436759972834913,0,0,0.06436759972834913,0,0)" xlink:href="#bC"/><use transform="matrix(0.06436759972834913,0,0,0.06436759972834913,11.586167951102842,0)" xlink:href="#by"/><use transform="matrix(0.06436759972834913,0,0,0.06436759972834913,24.459687896772667,0)" xlink:href="#bL"/><use transform="matrix(0.06436759972834913,0,0,0.06436759972834913,43.70560021554905,0)" xlink:href="#ct"/><use transform="matrix(0.06436759972834913,0,0,0.06436759972834913,56.57912016121888,0)" xlink:href="#bB"/><use transform="matrix(0.06436759972834913,0,0,0.06436759972834913,61.66416053975846,0)" xlink:href="#bF"/><use transform="matrix(0.06436759972834913,0,0,0.06436759972834913,74.53768048542828,0)" xlink:href="#bC"/></g><use transform="matrix(0.050063688677604884,0,0,0.050063688677604884,0,0)" xlink:href="#cv" id="aF"/><g id="aG"><use transform="matrix(0.050063688677604884,0,0,0.050063688677604884,0,0)" xlink:href="#bN"/><use transform="matrix(0.050063688677604884,0,0,0.050063688677604884,10.012737735520977,0)" xlink:href="#cd"/><use transform="matrix(0.050063688677604884,0,0,0.050063688677604884,19.024201697489858,0)" xlink:href="#cc"/><use transform="matrix(0.050063688677604884,0,0,0.050063688677604884,24.030570565250347,0)" xlink:href="#cb"/><use transform="matrix(0.050063688677604884,0,0,0.050063688677604884,34.04330830077132,0)" xlink:href="#bN"/><use transform="matrix(0.050063688677604884,0,0,0.050063688677604884,44.0560460362923,0)" xlink:href="#bO"/><use transform="matrix(0.050063688677604884,0,0,0.050063688677604884,49.06241490405279,0)" xlink:href="#bN"/><use transform="matrix(0.050063688677604884,0,0,0.050063688677604884,59.075152639573766,0)" xlink:href="#cc"/><use transform="matrix(0.050063688677604884,0,0,0.050063688677604884,64.08152150733426,0)" xlink:href="#cn"/><use transform="matrix(0.050063688677604884,0,0,0.050063688677604884,69.08789037509474,0)" xlink:href="#bQ"/><use transform="matrix(0.050063688677604884,0,0,0.050063688677604884,75.04546932772972,0)" xlink:href="#bN"/><use transform="matrix(0.050063688677604884,0,0,0.050063688677604884,85.05820706325069,0)" xlink:href="#bX"/><use transform="matrix(0.050063688677604884,0,0,0.050063688677604884,100.02724997785455,0)" xlink:href="#bR"/></g><path fill="#fff" d="M197 0v-115H63V0H30v-248h33v105h134v-105h34V0h-34" id="cX"/><g id="aH"><use transform="matrix(0.050063688677604884,0,0,0.050063688677604884,0,0)" xlink:href="#cX"/><use transform="matrix(0.050063688677604884,0,0,0.050063688677604884,12.966495367499665,0)" xlink:href="#bN"/><use transform="matrix(0.050063688677604884,0,0,0.050063688677604884,22.97923310302064,0)" xlink:href="#bQ"/><use transform="matrix(0.050063688677604884,0,0,0.050063688677604884,28.936812055655622,0)" xlink:href="#cb"/></g><g id="aI"><use transform="matrix(0.050063688677604884,0,0,0.050063688677604884,0,0)" xlink:href="#bM"/><use transform="matrix(0.050063688677604884,0,0,0.050063688677604884,12.966495367499665,0)" xlink:href="#bT"/><use transform="matrix(0.050063688677604884,0,0,0.050063688677604884,16.92152677303045,0)" xlink:href="#cd"/><use transform="matrix(0.050063688677604884,0,0,0.050063688677604884,25.93299073499933,0)" xlink:href="#cI"/></g><path fill="#fff" d="M0 4l72-265h28L28 4H0" id="cY"/><path fill="#fff" d="M143 4C61 4 22-44 18-125c-5-107 100-154 193-111 17 8 29 25 37 43l-32 9c-13-25-37-40-76-40-61 0-88 39-88 99 0 61 29 100 91 101 35 0 62-11 79-27v-45h-74v-28h105v86C228-13 192 4 143 4" id="cZ"/><g id="aJ"><use transform="matrix(0.050063688677604884,0,0,0.050063688677604884,0,0)" xlink:href="#cz"/><use transform="matrix(0.050063688677604884,0,0,0.050063688677604884,12.015285282625172,0)" xlink:href="#bS"/><use transform="matrix(0.050063688677604884,0,0,0.050063688677604884,22.02802301814615,0)" xlink:href="#bQ"/><use transform="matrix(0.050063688677604884,0,0,0.050063688677604884,27.98560197078113,0)" xlink:href="#bR"/><use transform="matrix(0.050063688677604884,0,0,0.050063688677604884,37.99833970630211,0)" xlink:href="#bN"/><use transform="matrix(0.050063688677604884,0,0,0.050063688677604884,48.01107744182309,0)" xlink:href="#cb"/><use transform="matrix(0.050063688677604884,0,0,0.050063688677604884,58.02381517734407,0)" xlink:href="#cY"/><use transform="matrix(0.050063688677604884,0,0,0.050063688677604884,63.03018404510456,0)" xlink:href="#cZ"/><use transform="matrix(0.050063688677604884,0,0,0.050063688677604884,77.04801687483392,0)" xlink:href="#bN"/><use transform="matrix(0.050063688677604884,0,0,0.050063688677604884,87.06075461035489,0)" xlink:href="#bO"/><use transform="matrix(0.050063688677604884,0,0,0.050063688677604884,92.06712347811538,0)" xlink:href="#bZ"/><use transform="matrix(0.050063688677604884,0,0,0.050063688677604884,102.07986121363635,0)" xlink:href="#bR"/><use transform="matrix(0.050063688677604884,0,0,0.050063688677604884,112.0925989491573,0)" xlink:href="#bQ"/></g><path fill="#fff" d="M206 0h-36l-40-164L89 0H53L-1-190h32L70-26l43-164h34l41 164 42-164h31" id="da"/><g id="aK"><use transform="matrix(0.050063688677604884,0,0,0.050063688677604884,0,0)" xlink:href="#da"/><use transform="matrix(0.050063688677604884,0,0,0.050063688677604884,12.966495367499665,0)" xlink:href="#bT"/><use transform="matrix(0.050063688677604884,0,0,0.050063688677604884,16.92152677303045,0)" xlink:href="#bO"/><use transform="matrix(0.050063688677604884,0,0,0.050063688677604884,21.92789564079094,0)" xlink:href="#bZ"/></g><g id="aL"><use transform="matrix(0.050063688677604884,0,0,0.050063688677604884,0,0)" xlink:href="#cb"/><use transform="matrix(0.050063688677604884,0,0,0.050063688677604884,10.012737735520977,0)" xlink:href="#bT"/><use transform="matrix(0.050063688677604884,0,0,0.050063688677604884,13.967769141051763,0)" xlink:href="#bX"/><use transform="matrix(0.050063688677604884,0,0,0.050063688677604884,28.936812055655622,0)" xlink:href="#bR"/><use transform="matrix(0.050063688677604884,0,0,0.050063688677604884,38.9495497911766,0)" xlink:href="#bV"/><use transform="matrix(0.050063688677604884,0,0,0.050063688677604884,48.96228752669758,0)" xlink:href="#cd"/><use transform="matrix(0.050063688677604884,0,0,0.050063688677604884,57.97375148866646,0)" xlink:href="#bT"/><use transform="matrix(0.050063688677604884,0,0,0.050063688677604884,61.92878289419724,0)" xlink:href="#bU"/><use transform="matrix(0.050063688677604884,0,0,0.050063688677604884,71.94152062971821,0)" xlink:href="#bV"/></g><g id="aM"><use transform="matrix(0.050063688677604884,0,0,0.050063688677604884,0,0)" xlink:href="#cq"/><use transform="matrix(0.050063688677604884,0,0,0.050063688677604884,9.011463961968879,0)" xlink:href="#bU"/><use transform="matrix(0.050063688677604884,0,0,0.050063688677604884,19.024201697489858,0)" xlink:href="#bY"/><use transform="matrix(0.050063688677604884,0,0,0.050063688677604884,22.979233103020643,0)" xlink:href="#cK"/><use transform="matrix(0.050063688677604884,0,0,0.050063688677604884,32.99197083854162,0)" xlink:href="#bX"/><use transform="matrix(0.050063688677604884,0,0,0.050063688677604884,47.96101375314548,0)" xlink:href="#bV"/><use transform="matrix(0.050063688677604884,0,0,0.050063688677604884,57.97375148866646,0)" xlink:href="#cd"/></g><g id="aN"><use transform="matrix(0.050063688677604884,0,0,0.050063688677604884,0,0)" xlink:href="#bS"/><use transform="matrix(0.050063688677604884,0,0,0.050063688677604884,10.012737735520977,0)" xlink:href="#bN"/><use transform="matrix(0.050063688677604884,0,0,0.050063688677604884,20.025475471041954,0)" xlink:href="#bQ"/><use transform="matrix(0.050063688677604884,0,0,0.050063688677604884,25.983054423676936,0)" xlink:href="#cd"/></g><path fill="#fff" d="M87 75C49 33 22-17 22-94c0-76 28-126 65-167h31c-38 41-64 92-64 168S80 34 118 75H87" id="db"/><path fill="#fff" d="M140-251c81 0 123 46 123 126C263-46 219 4 140 4 59 4 17-45 17-125s42-126 123-126zm0 227c63 0 89-41 89-101s-29-99-89-99c-61 0-89 39-89 99S79-25 140-24" id="dc"/><g id="aO"><use transform="matrix(0.050063688677604884,0,0,0.050063688677604884,0,0)" xlink:href="#db"/><use transform="matrix(0.050063688677604884,0,0,0.050063688677604884,5.957578952634981,0)" xlink:href="#dc"/><use transform="matrix(0.050063688677604884,0,0,0.050063688677604884,19.97541178236435,0)" xlink:href="#bV"/><use transform="matrix(0.050063688677604884,0,0,0.050063688677604884,29.988149517885326,0)" xlink:href="#bY"/><use transform="matrix(0.050063688677604884,0,0,0.050063688677604884,33.94318092341611,0)" xlink:href="#cw"/></g><g id="aP"><use transform="matrix(0.050063688677604884,0,0,0.050063688677604884,0,0)" xlink:href="#cE"/><use transform="matrix(0.050063688677604884,0,0,0.050063688677604884,16.971590461708054,0)" xlink:href="#bT"/><use transform="matrix(0.050063688677604884,0,0,0.050063688677604884,20.92662186723884,0)" xlink:href="#cb"/><use transform="matrix(0.050063688677604884,0,0,0.050063688677604884,30.93935960275981,0)" xlink:href="#bR"/></g><path fill="#fff" d="M33-261c38 41 65 92 65 168S71 34 33 75H2C39 34 66-17 66-93S39-220 2-261h31" id="dd"/><g id="aQ"><use transform="matrix(0.050063688677604884,0,0,0.050063688677604884,0,0)" xlink:href="#cn"/><use transform="matrix(0.050063688677604884,0,0,0.050063688677604884,5.0063688677604885,0)" xlink:href="#bU"/><use transform="matrix(0.050063688677604884,0,0,0.050063688677604884,15.019106603281465,0)" xlink:href="#bQ"/><use transform="matrix(0.050063688677604884,0,0,0.050063688677604884,20.976685555916447,0)" xlink:href="#bX"/><use transform="matrix(0.050063688677604884,0,0,0.050063688677604884,35.94572847052031,0)" xlink:href="#bN"/><use transform="matrix(0.050063688677604884,0,0,0.050063688677604884,45.95846620604129,0)" xlink:href="#bO"/><use transform="matrix(0.050063688677604884,0,0,0.050063688677604884,50.96483507380177,0)" xlink:href="#dd"/></g><g id="aR"><use transform="matrix(0.050063688677604884,0,0,0.050063688677604884,0,0)" xlink:href="#bO"/><use transform="matrix(0.050063688677604884,0,0,0.050063688677604884,5.0063688677604885,0)" xlink:href="#bT"/><use transform="matrix(0.050063688677604884,0,0,0.050063688677604884,8.961400273291275,0)" xlink:href="#cb"/><use transform="matrix(0.050063688677604884,0,0,0.050063688677604884,18.974138008812254,0)" xlink:href="#cw"/><use transform="matrix(0.050063688677604884,0,0,0.050063688677604884,27.98560197078113,0)" xlink:href="#co"/><use transform="matrix(0.050063688677604884,0,0,0.050063688677604884,37.99833970630211,0)" xlink:href="#bN"/><use transform="matrix(0.050063688677604884,0,0,0.050063688677604884,48.01107744182309,0)" xlink:href="#cw"/><use transform="matrix(0.050063688677604884,0,0,0.050063688677604884,57.022541403791976,0)" xlink:href="#bR"/><use transform="matrix(0.050063688677604884,0,0,0.050063688677604884,67.03527913931295,0)" xlink:href="#cd"/></g></defs></g></svg>