<svg xmlns="http://www.w3.org/2000/svg" xmlns:xlink="http://www.w3.org/1999/xlink" xmlns:lucid="lucid" width="1882.87" height="961.97"><g transform="translate(0 0)" lucid:page-tab-id="m-5o7ONTd-nK"><path d="M0 0h1882.87v961.97H0z" fill="#fff"/><path d="M23.17 79.36V27.3h634v52.06zM657.17 27.3h1212.68v52.06H657.17z" stroke="#666" stroke-width="2" fill-opacity="0"/><path d="M657.17 537.1h-634V79.36h634zM1869.85 79.36V537.1H657.17V79.36z" stroke="#666" stroke-width="2" fill="none"/><use xlink:href="#a" transform="matrix(1,0,0,1,23.172335902205646,27.310656391177815) translate(242.4747532422581 32.67470398913397)"/><use xlink:href="#b" transform="matrix(1,0,0,1,23.172335902205646,27.310656391177815) translate(314.51296644882103 32.67470398913397)"/><use xlink:href="#c" transform="matrix(1,0,0,1,657.1697275870496,27.310656391177815) translate(491.7534175352605 32.67470398913397)"/><path d="M857.38 233.4v-35.88c0-4.42 3.58-8 8-8h179.44v43.88zM1044.82 189.52h322.2v43.88h-322.2zM1367.03 189.52h489.17c4.42 0 8 3.58 8 8v35.88h-497.17z" stroke="#000" stroke-width="2" fill="#fff"/><path d="M1044.82 365.03H865.38c-4.42 0-8-3.58-8-8V233.4h187.44zM1044.82 233.4h322.2v131.63h-322.2zM1864.2 233.4v123.63c0 4.42-3.58 8-8 8h-489.17V233.4z" stroke="#000" stroke-width="2" fill-opacity="0"/><use xlink:href="#d" transform="matrix(1,0,0,1,857.3764283816105,189.51700770661876) translate(19.94150053477163 29.00340797826793)"/><use xlink:href="#e" transform="matrix(1,0,0,1,857.3764283816105,189.51700770661876) translate(89.88762557291103 29.00340797826793)"/><use xlink:href="#f" transform="matrix(1,0,0,1,1044.8191950153132,189.51700770661876) translate(70.27680727387853 29.00340797826793)"/><use xlink:href="#e" transform="matrix(1,0,0,1,1044.8191950153132,189.51700770661876) translate(174.55231883380415 29.00340797826793)"/><use xlink:href="#g" transform="matrix(1,0,0,1,1367.025546330753,189.51700770661876) translate(185.4548751570687 29.00340797826793)"/><path d="M741.5 244.22c0-4.42 3.6-8 8-8H846c4.42 0 8 3.58 8 8v95.37c0 4.4-3.58 8-8 8H749.5c-4.4 0-8-3.6-8-8z" fill="none"/><path d="M853.98 347.6c-3.84 0-6.96-3.13-6.96-6.98v-41.76c0-3.84-3.1-6.96-6.96-6.96 3.85 0 6.96-3.1 6.96-6.96v-41.76c0-3.84 3.12-6.96 6.96-6.96" stroke="#000" stroke-width="2" fill="none"/><use xlink:href="#h" transform="matrix(1,0,0,1,746.514748870582,241.22198386450708) translate(1.0205686131698108 27.106960108660346)"/><use xlink:href="#i" transform="matrix(1,0,0,1,746.514748870582,241.22198386450708) translate(34.56324002716508 58.00340797826793)"/><use xlink:href="#j" transform="matrix(1,0,0,1,746.514748870582,241.22198386450708) translate(-11.852951332500009 88.89985584787551)"/><g fill="none"><path d="M1351.57 450.76c-4.42 0-8-3.58-8-8v-64c0-4.42 3.58-8 8-8h494.22c4.4 0 8 3.58 8 8v64c0 4.42-3.6 8-8 8z"/><path d="M1853.8 370.76c0 17.6-14.3 31.9-31.9 31.9h-191.33c-17.6 0-31.9 14.26-31.9 31.87 0-17.6-14.27-31.88-31.88-31.88h-191.34c-17.6 0-31.9-14.28-31.9-31.9" stroke="#000" stroke-width="2"/></g><use xlink:href="#k" transform="matrix(1,0,0,1,1348.5721566158986,453.5900040190933) translate(242.6328489220907 26.365395104378898)"/><path d="M109.63 143.17h164.6c4.43 0 8 3.58 8 8v104c0 4.42-3.57 8-8 8h-156.6c-4.4 0-8-3.58-8-8zm17.26 0v120m-17.27-102.74h172.6" stroke="#000" stroke-opacity="0" stroke-width="2" fill="#019280"/><use xlink:href="#l" transform="matrix(1,0,0,1,131.89478382041057,165.43305973268568) translate(12.977 28.425158295686067)"/><use xlink:href="#m" transform="matrix(1,0,0,1,131.89478382041057,165.43305973268568) translate(45.50409372939244 28.425158295686067)"/><g fill="none"><path d="M888.55 464.13c-4.42 0-8-3.6-8-8v-77.37c0-4.42 3.58-8 8-8h119.56c4.43 0 8 3.58 8 8v77.37c0 4.4-3.57 8-8 8z"/><path d="M1016.1 370.76c0 4.68-3.8 8.47-8.46 8.47H956.8c-4.68 0-8.47 3.8-8.47 8.47 0-4.68-3.8-8.47-8.47-8.47h-50.84c-4.68 0-8.47-3.8-8.47-8.47" stroke="#000" stroke-width="2"/></g><use xlink:href="#n" transform="matrix(1,0,0,1,885.548764283816,401.17472589837735) translate(55.13284892209066 36.518348776094726)"/><path d="M269.63 572.53c0-4.42 3.6-8 8-8h144c4.42 0 8 3.58 8 8v44c0 4.42-3.58 8-8 8h-144c-4.4 0-8-3.58-8-8z" stroke="#000" stroke-width="2" fill="#b391b5"/><use xlink:href="#o" transform="matrix(1,0,0,1,274.6340599899311,569.5328859683767) translate(25.969132009035345 28.495868721764552)"/><path d="M23.17 680.26c0-4.42 3.58-8 8-8h144c4.42 0 8 3.58 8 8v30.35c0 4.43-3.58 8-8 8h-144c-4.42 0-8-3.57-8-8z" stroke="#000" stroke-opacity="0" stroke-width="2" fill="#019280"/><use xlink:href="#p" transform="matrix(1,0,0,1,28.17233590220573,677.26273465157) translate(45.22998512563852 24.558368721764552)"/><path d="M109.63 757.6c0-4.42 3.6-8 8-8h144c4.42 0 8 3.58 8 8v30.34c0 4.42-3.58 8-8 8h-144c-4.4 0-8-3.58-8-8z" stroke="#000" stroke-opacity="0" stroke-width="2" fill="#019280"/><use xlink:href="#q" transform="matrix(1,0,0,1,114.63405998993113,754.5969472696663) translate(30.650723787167447 24.558368721764552)"/><path d="M269.63 814.33c0-4.42 3.6-8 8-8h144c4.42 0 8 3.58 8 8v30.34c0 4.42-3.58 8-8 8h-144c-4.4 0-8-3.58-8-8z" stroke="#000" stroke-opacity="0" stroke-width="2" fill="#019280"/><use xlink:href="#r" transform="matrix(1,0,0,1,274.6340599899777,811.3297778636731) translate(55.07822788407594 24.558368721764552)"/><path d="M48.55 833.7c0-4.43 3.58-8 8-8h144c4.42 0 8 3.57 8 8v30.33c0 4.42-3.58 8-8 8h-144c-4.42 0-8-3.58-8-8z" stroke="#000" stroke-opacity="0" stroke-width="2" fill="#019280"/><use xlink:href="#s" transform="matrix(1,0,0,1,53.55102311989776,830.6870848264696) translate(32.58175177901792 24.558368721764552)"/><path d="M208.55 681.5c0-4.4 3.58-8 8-8h144c4.42 0 8 3.6 8 8v30.35c0 4.42-3.58 8-8 8h-144c-4.42 0-8-3.58-8-8z" stroke="#000" stroke-opacity="0" stroke-width="2" fill="#019280"/><use xlink:href="#t" transform="matrix(1,0,0,1,213.55102311989776,678.5068097128632) translate(59.58395986506038 24.558368721764552)"/><path d="M301.24 332.4c0-4.4 3.58-8 8-8h150.62c4.42 0 8 3.6 8 8v183.1c0 4.42-3.58 8-8 8H309.24c-4.42 0-8-3.58-8-8z" stroke="#000" stroke-width="2" fill="#fff" fill-opacity="0"/><use xlink:href="#u" transform="matrix(1,0,0,1,306.24036672867396,329.4127026308796) translate(33.91470925483017 34.36265829568607)"/><use xlink:href="#v" transform="matrix(1,0,0,1,306.24036672867396,329.4127026308796) translate(16.75001599393705 71.43839573921517)"/><use xlink:href="#w" transform="matrix(1,0,0,1,306.24036672867396,329.4127026308796) translate(114.50294411472328 71.43839573921517)"/><use xlink:href="#x" transform="matrix(1,0,0,1,306.24036672867396,329.4127026308796) translate(27.091743683625158 108.51413318274427)"/><use xlink:href="#y" transform="matrix(1,0,0,1,306.24036672867396,329.4127026308796) translate(25.46109782384031 145.58987062627338)"/><use xlink:href="#z" transform="matrix(1,0,0,1,306.24036672867396,329.4127026308796) translate(39.06411723309809 182.6656080698025)"/><path d="M162.2 909.3c0-4.4 3.6-8 8-8h144c4.42 0 8 3.6 8 8v30.35c0 4.42-3.58 8-8 8h-144c-4.4 0-8-3.58-8-8z" stroke="#000" stroke-opacity="0" stroke-width="2" fill="#019280"/><use xlink:href="#A" transform="matrix(1,0,0,1,167.20635131548636,906.3070934538048) translate(28.108203597897653 24.558368721764552)"/><use xlink:href="#B" transform="matrix(1,0,0,1,167.20635131548636,906.3070934538048) translate(84.6229561593882 24.558368721764552)"/><path d="M71.72 572.53c0-4.42 3.6-8 8-8h144c4.42 0 8 3.58 8 8v44c0 4.42-3.58 8-8 8h-144c-4.4 0-8-3.58-8-8z" stroke="#000" stroke-width="2" fill="#b391b5"/><use xlink:href="#C" transform="matrix(1,0,0,1,76.7233590220568,569.5328859683767) translate(49.78514390852452 28.495868721764552)"/><path d="M393.93 660.96c0-4.4 3.58-8 8-8h144c4.42 0 8 3.6 8 8V769.9c0 4.42-3.58 8-8 8h-144c-4.42 0-8-3.58-8-8z" stroke="#000" stroke-opacity="0" stroke-width="2" fill="#019280"/><use xlink:href="#D" transform="matrix(1,0,0,1,398.92971033758977,657.9637257507313) translate(38.342651954705175 25.839618721764552)"/><use xlink:href="#E" transform="matrix(1,0,0,1,398.92971033758977,657.9637257507313) translate(36.443807762718876 53.646421804411375)"/><use xlink:href="#F" transform="matrix(1,0,0,1,398.92971033758977,657.9637257507313) translate(22.31511962234624 81.4532248870582)"/><use xlink:href="#G" transform="matrix(1,0,0,1,398.92971033758977,657.9637257507313) translate(24.246147614196705 109.26002796970502)"/><path d="M602.48 587.3c0-4.4 3.58-8 8-8H761.1c4.42 0 8 3.6 8 8v192.36c0 4.42-3.58 8-8 8H610.48c-4.42 0-8-3.58-8-8z" stroke="#000" stroke-width="2" fill="#fff"/><use xlink:href="#H" transform="matrix(1,0,0,1,607.4807334573479,584.3083975551407) translate(23.24041563321227 28.464618721764552)"/><use xlink:href="#I" transform="matrix(1,0,0,1,607.4807334573479,584.3083975551407) translate(66.94601584876133 28.464618721764552)"/><use xlink:href="#J" transform="matrix(1,0,0,1,607.4807334573479,584.3083975551407) translate(106.78956008060945 28.464618721764552)"/><use xlink:href="#K" transform="matrix(1,0,0,1,607.4807334573479,584.3083975551407) translate(24.55995142764343 56.271421804411375)"/><use xlink:href="#L" transform="matrix(1,0,0,1,607.4807334573479,584.3083975551407) translate(48.955271724687755 56.271421804411375)"/><use xlink:href="#M" transform="matrix(1,0,0,1,607.4807334573479,584.3083975551407) translate(21.27720384149762 84.0782248870582)"/><use xlink:href="#N" transform="matrix(1,0,0,1,607.4807334573479,584.3083975551407) translate(30.964527600614165 111.88502796970502)"/><use xlink:href="#O" transform="matrix(1,0,0,1,607.4807334573479,584.3083975551407) translate(64.37131185962735 111.88502796970502)"/><use xlink:href="#P" transform="matrix(1,0,0,1,607.4807334573479,584.3083975551407) translate(93.85167253521126 111.88502796970502)"/><use xlink:href="#Q" transform="matrix(1,0,0,1,607.4807334573479,584.3083975551407) translate(20.02203564679483 139.69183105235183)"/><use xlink:href="#R" transform="matrix(1,0,0,1,607.4807334573479,584.3083975551407) translate(59.18972008149527 167.49863413499867)"/><use xlink:href="#S" transform="matrix(1,0,0,1,607.4807334573479,584.3083975551407) translate(35.43807578173444 195.30543721764548)"/><g fill="none"><path d="M1027.58 464.13c-4.42 0-8-3.6-8-8v-77.37c0-4.42 3.58-8 8-8H1336c4.4 0 8 3.58 8 8v77.37c0 4.4-3.6 8-8 8z"/><path d="M1344 370.76c0 11.2-9.08 20.27-20.28 20.27h-121.65c-11.2 0-20.28 9.08-20.28 20.28 0-11.2-9.1-20.27-20.3-20.27h-121.64c-11.2 0-20.28-9.07-20.28-20.27" stroke="#000" stroke-width="2"/></g><g><use xlink:href="#T" transform="matrix(1,0,0,1,1024.5827796970516,436.58495169893547) translate(149.6328489220907 26.365395104378898)"/></g><g><path d="M562.56 451.46c-3.9 2.1-7.04.22-7.04-4.2V258.63c0-4.42 3.15-6.3 7.04-4.2l175.3 94.7c3.9 2.1 3.9 5.52 0 7.62z" stroke="#000" stroke-opacity="0" stroke-width="2" fill="#ef8d22"/></g><g><use xlink:href="#U" transform="matrix(1,0,0,1,560.5192095891578,255.62863425225817) translate(2.888508776160318 104.50340797826793)"/></g><path d="M705.16 136.42c-17.1 0-30.96-15.84-30.96-35.4 0-15.63 8.4-28.82 21.4-33.66-.76-45.97 50.82-54.82 71.46-37.12 10.32-26.55 61.9-17.7 61.9 8.85 30.95-8.86 61.9 26.53 41.27 70.78 20.64 35.4 0 79.64-41.27 61.94-10.3 23-51.58 23-61.9 0-20.64 17.7-61.9 8.85-61.9-35.4z" stroke="#000" stroke-opacity="0" stroke-width="2" fill="#3aa6dd"/><g><use xlink:href="#V" transform="matrix(1,0,0,1,679.2040924794511,17.53919691735318) translate(14.694944355862626 73.25595624058818)"/><use xlink:href="#W" transform="matrix(1,0,0,1,679.2040924794511,17.53919691735318) translate(13.570528136206004 105.47656627395399)"/><use xlink:href="#X" transform="matrix(1,0,0,1,679.2040924794511,17.53919691735318) translate(66.35195991345229 105.47656627395399)"/><use xlink:href="#Y" transform="matrix(1,0,0,1,679.2040924794511,17.53919691735318) translate(61.169917535260474 136.3730141435616)"/></g><path d="M722.98 494.15c-15.36 0-27.8-12.82-27.8-28.63 0-12.66 7.52-23.33 19.2-27.24-.67-37.2 45.67-44.35 64.2-30.03 9.28-21.48 55.62-14.32 55.62 7.16 27.8-7.15 55.62 21.48 37.08 57.27 18.54 28.64 0 64.43-37.08 50.1-9.26 18.63-46.34 18.63-55.6 0-18.55 14.33-55.62 7.17-55.62-28.62z" stroke="#000" stroke-opacity="0" stroke-width="2" fill="#ef8d22"/><g><use xlink:href="#Z" transform="matrix(1,0,0,1,700.1700770661706,398.9297103374967) translate(59.50930698270686 38.92789510437889)"/><use xlink:href="#aa" transform="matrix(1,0,0,1,700.1700770661706,398.9297103374967) translate(18.139698428165058 72.91398776094724)"/><use xlink:href="#ab" transform="matrix(1,0,0,1,700.1700770661706,398.9297103374967) translate(93.50700575453654 72.91398776094724)"/><use xlink:href="#ac" transform="matrix(1,0,0,1,700.1700770661706,398.9297103374967) translate(52.2917461220854 106.90008041751558)"/></g><path d="M556.14 163.8c0-4.43 3.58-8 8-8h20.84c4.42 0 8-3.6 8-8V128c0-4.42 3.58-8 8-8h57.7c4.4 0 8 3.58 8 8v19.8c0 4.4 3.58 8 8 8h20.84c4.42 0 8 3.57 8 8v55.58c0 4.42-3.58 8-8 8h-20.85c-4.4 0-8 3.58-8 8v19.8c0 4.4-3.58 8-8 8h-57.7c-4.4 0-8-3.6-8-8v-19.8c0-4.42-3.57-8-8-8h-20.83c-4.42 0-8-3.58-8-8z" stroke="#000" stroke-width="4" fill="#3aa6dd"/><g><use xlink:href="#ad" transform="matrix(1,0,0,1,556.1360616529365,120.00000000000051) translate(19.6808977847987 61.60763191307172)"/><use xlink:href="#ae" transform="matrix(1,0,0,1,556.1360616529365,120.00000000000051) translate(16.891635129903566 92.5040797826793)"/><use xlink:href="#af" transform="matrix(1,0,0,1,556.1360616529365,120.00000000000051) translate(31.195546180647817 92.5040797826793)"/></g><g fill="none"><path d="M117.63 393.55c-4.4 0-8-3.58-8-8V271.17c0-4.42 3.6-8 8-8h156.6c4.43 0 8 3.58 8 8v114.38c0 4.42-3.57 8-8 8z"/><path d="M282.24 263.17c0 5.96-4.83 10.8-10.8 10.8h-64.7c-5.97 0-10.8 4.82-10.8 10.78 0-5.96-4.83-10.8-10.8-10.8h-64.72c-5.96 0-10.8-4.82-10.8-10.78" stroke="#000" stroke-width="2"/></g><g><use xlink:href="#ag" transform="matrix(1,0,0,1,114.63405998993117,300.5361930843553) translate(31.325456011751857 22.245868721764552)"/><use xlink:href="#ah" transform="matrix(1,0,0,1,114.63405998993117,300.5361930843553) translate(120.08837603714531 22.245868721764552)"/><use xlink:href="#ai" transform="matrix(1,0,0,1,114.63405998993117,300.5361930843553) translate(17.872627668526885 50.052671804411375)"/><use xlink:href="#ah" transform="matrix(1,0,0,1,114.63405998993117,300.5361930843553) translate(133.54120438037026 50.052671804411375)"/><use xlink:href="#aj" transform="matrix(1,0,0,1,114.63405998993117,300.5361930843553) translate(25.21053403755869 77.8594748870582)"/><use xlink:href="#ak" transform="matrix(1,0,0,1,114.63405998993117,300.5361930843553) translate(124.27227001948799 77.8594748870582)"/><use xlink:href="#al" transform="matrix(1,0,0,1,114.63405998993117,300.5361930843553) translate(12.047359893111288 105.66627796970502)"/></g><path d="M685.55 561.92l-.44-30.26-1.1-18.26-1.4-13.38-1.66-11.22-1.93-10.1-2.23-9.58-2.63-9.4-3.1-9.55-3.72-10-4.56-10.84-5.74-12.17-6.57-12.6" stroke="#666" fill="none"/><path d="M685.77 576.7l-4.85-14.2 9.27-.14z" stroke="#666" fill="#666"/><path d="M650.9 404.33l-.9.46-.23-.46.88-.47z" fill="#666"/><defs><path d="M185-189c-5-48-123-54-124 2 14 75 158 14 163 119 3 78-121 87-175 55-17-10-28-26-33-46l33-7c5 56 141 63 141-1 0-78-155-14-162-118-5-82 145-84 179-34 5 7 8 16 11 25" id="am"/><path d="M59-47c-2 24 18 29 38 22v24C64 9 27 4 27-40v-127H5v-23h24l9-43h21v43h35v23H59v120" id="an"/><path d="M141-36C126-15 110 5 73 4 37 3 15-17 15-53c-1-64 63-63 125-63 3-35-9-54-41-54-24 1-41 7-42 31l-33-3c5-37 33-52 76-52 45 0 72 20 72 64v82c-1 20 7 32 28 27v20c-31 9-61-2-59-35zM48-53c0 20 12 33 32 33 41-3 63-29 60-74-43 2-92-5-92 41" id="ao"/><path d="M117-194c89-4 53 116 60 194h-32v-121c0-31-8-49-39-48C34-167 62-67 57 0H25l-1-190h30c1 10-1 24 2 32 11-22 29-35 61-36" id="ap"/><g id="a"><use transform="matrix(0.08575977762686063,0,0,0.08575977762686063,0,0)" xlink:href="#am"/><use transform="matrix(0.08575977762686063,0,0,0.08575977762686063,20.58234663044655,0)" xlink:href="#an"/><use transform="matrix(0.08575977762686063,0,0,0.08575977762686063,29.15832439313262,0)" xlink:href="#ao"/><use transform="matrix(0.08575977762686063,0,0,0.08575977762686063,46.31027991850475,0)" xlink:href="#ap"/></g><path d="M212-179c-10-28-35-45-73-45-59 0-87 40-87 99 0 60 29 101 89 101 43 0 62-24 78-52l27 14C228-24 195 4 139 4 59 4 22-46 18-125c-6-104 99-153 187-111 19 9 31 26 39 46" id="aq"/><path d="M24 0v-261h32V0H24" id="ar"/><path d="M135-143c-3-34-86-38-87 0 15 53 115 12 119 90S17 21 10-45l28-5c4 36 97 45 98 0-10-56-113-15-118-90-4-57 82-63 122-42 12 7 21 19 24 35" id="as"/><g id="b"><use transform="matrix(0.08575977762686063,0,0,0.08575977762686063,0,0)" xlink:href="#aq"/><use transform="matrix(0.08575977762686063,0,0,0.08575977762686063,22.211782405356903,0)" xlink:href="#ar"/><use transform="matrix(0.08575977762686063,0,0,0.08575977762686063,28.986804837878893,0)" xlink:href="#ao"/><use transform="matrix(0.08575977762686063,0,0,0.08575977762686063,46.13876036325103,0)" xlink:href="#as"/><use transform="matrix(0.08575977762686063,0,0,0.08575977762686063,61.575520336085944,0)" xlink:href="#as"/></g><path d="M24-231v-30h32v30H24zM24 0v-190h32V0H24" id="at"/><path d="M115-194c53 0 69 39 70 98 0 66-23 100-70 100C84 3 66-7 56-30L54 0H23l1-261h32v101c10-23 28-34 59-34zm-8 174c40 0 45-34 45-75 0-40-5-75-45-74-42 0-51 32-51 76 0 43 10 73 51 73" id="au"/><path d="M100-194c63 0 86 42 84 106H49c0 40 14 67 53 68 26 1 43-12 49-29l28 8c-11 28-37 45-77 45C44 4 14-33 15-96c1-61 26-98 85-98zm52 81c6-60-76-77-97-28-3 7-6 17-6 28h103" id="av"/><path d="M0 4l72-265h28L28 4H0" id="aw"/><path d="M85-194c31 0 48 13 60 33l-1-100h32l1 261h-30c-2-10 0-23-3-31C134-8 116 4 85 4 32 4 16-35 15-94c0-66 23-100 70-100zm9 24c-40 0-46 34-46 75 0 40 6 74 45 74 42 0 51-32 51-76 0-42-9-74-50-73" id="ax"/><path d="M33 0v-38h34V0H33" id="ay"/><path d="M101-234c-31-9-42 10-38 44h38v23H63V0H32v-167H5v-23h27c-7-52 17-82 69-68v24" id="az"/><path d="M114-163C36-179 61-72 57 0H25l-1-190h30c1 12-1 29 2 39 6-27 23-49 58-41v29" id="aA"/><path d="M210-169c-67 3-38 105-44 169h-31v-121c0-29-5-50-35-48C34-165 62-65 56 0H25l-1-190h30c1 10-1 24 2 32 10-44 99-50 107 0 11-21 27-35 58-36 85-2 47 119 55 194h-31v-121c0-29-5-49-35-48" id="aB"/><g id="c"><use transform="matrix(0.08575977762686063,0,0,0.08575977762686063,0,0)" xlink:href="#an"/><use transform="matrix(0.08575977762686063,0,0,0.08575977762686063,8.575977762686064,0)" xlink:href="#at"/><use transform="matrix(0.08575977762686063,0,0,0.08575977762686063,15.351000195208053,0)" xlink:href="#au"/><use transform="matrix(0.08575977762686063,0,0,0.08575977762686063,32.50295572058018,0)" xlink:href="#au"/><use transform="matrix(0.08575977762686063,0,0,0.08575977762686063,49.654911245952306,0)" xlink:href="#ar"/><use transform="matrix(0.08575977762686063,0,0,0.08575977762686063,56.429933678474306,0)" xlink:href="#av"/><use transform="matrix(0.08575977762686063,0,0,0.08575977762686063,73.58188920384643,0)" xlink:href="#aw"/><use transform="matrix(0.08575977762686063,0,0,0.08575977762686063,82.1578669665325,0)" xlink:href="#ax"/><use transform="matrix(0.08575977762686063,0,0,0.08575977762686063,99.30982249190463,0)" xlink:href="#ao"/><use transform="matrix(0.08575977762686063,0,0,0.08575977762686063,116.46177801727676,0)" xlink:href="#an"/><use transform="matrix(0.08575977762686063,0,0,0.08575977762686063,125.03775577996282,0)" xlink:href="#ao"/><use transform="matrix(0.08575977762686063,0,0,0.08575977762686063,142.18971130533495,0)" xlink:href="#ay"/><use transform="matrix(0.08575977762686063,0,0,0.08575977762686063,150.765689068021,0)" xlink:href="#az"/><use transform="matrix(0.08575977762686063,0,0,0.08575977762686063,159.34166683070706,0)" xlink:href="#aA"/><use transform="matrix(0.08575977762686063,0,0,0.08575977762686063,169.54708036830348,0)" xlink:href="#ao"/><use transform="matrix(0.08575977762686063,0,0,0.08575977762686063,186.6990358936756,0)" xlink:href="#aB"/><use transform="matrix(0.08575977762686063,0,0,0.08575977762686063,212.3412094041069,0)" xlink:href="#av"/></g><path d="M63-220v92h138v28H63V0H30v-248h175v28H63" id="aC"/><path d="M141 0L90-78 38 0H4l68-98-65-92h35l48 74 47-74h35l-64 92 68 98h-35" id="aD"/><g id="d"><use transform="matrix(0.07151955525372126,0,0,0.07151955525372126,0,0)" xlink:href="#aC"/><use transform="matrix(0.07151955525372126,0,0,0.07151955525372126,15.662782600564958,0)" xlink:href="#at"/><use transform="matrix(0.07151955525372126,0,0,0.07151955525372126,21.312827465608937,0)" xlink:href="#aD"/><use transform="matrix(0.07151955525372126,0,0,0.07151955525372126,34.18634741127876,0)" xlink:href="#av"/><use transform="matrix(0.07151955525372126,0,0,0.07151955525372126,48.490258462023014,0)" xlink:href="#ax"/></g><path d="M30 0v-248h187v28H63v79h144v27H63v87h162V0H30" id="aE"/><path d="M96-169c-40 0-48 33-48 73s9 75 48 75c24 0 41-14 43-38l32 2c-6 37-31 61-74 61-59 0-76-41-82-99-10-93 101-131 147-64 4 7 5 14 7 22l-32 3c-4-21-16-35-41-35" id="aF"/><g id="e"><use transform="matrix(0.07151955525372126,0,0,0.07151955525372126,0,0)" xlink:href="#aE"/><use transform="matrix(0.07151955525372126,0,0,0.07151955525372126,17.164693260893102,0)" xlink:href="#az"/><use transform="matrix(0.07151955525372126,0,0,0.07151955525372126,23.81601189948918,0)" xlink:href="#az"/><use transform="matrix(0.07151955525372126,0,0,0.07151955525372126,30.967967424861307,0)" xlink:href="#av"/><use transform="matrix(0.07151955525372126,0,0,0.07151955525372126,45.27187847560556,0)" xlink:href="#aF"/><use transform="matrix(0.07151955525372126,0,0,0.07151955525372126,58.14539842127539,0)" xlink:href="#an"/><use transform="matrix(0.07151955525372126,0,0,0.07151955525372126,65.29735394664752,0)" xlink:href="#as"/></g><path d="M233-177c-1 41-23 64-60 70L243 0h-38l-65-103H63V0H30v-248c88 3 205-21 203 71zM63-129c60-2 137 13 137-47 0-61-80-42-137-45v92" id="aG"/><path d="M100-194c62-1 85 37 85 99 1 63-27 99-86 99S16-35 15-95c0-66 28-99 85-99zM99-20c44 1 53-31 53-75 0-43-8-75-51-75s-53 32-53 75 10 74 51 75" id="aH"/><g id="f"><use transform="matrix(0.07151955525372126,0,0,0.07151955525372126,0,0)" xlink:href="#aG"/><use transform="matrix(0.07151955525372126,0,0,0.07151955525372126,18.523564810713808,0)" xlink:href="#ao"/><use transform="matrix(0.07151955525372126,0,0,0.07151955525372126,32.82747586145806,0)" xlink:href="#ap"/><use transform="matrix(0.07151955525372126,0,0,0.07151955525372126,47.131386912202316,0)" xlink:href="#ax"/><use transform="matrix(0.07151955525372126,0,0,0.07151955525372126,61.43529796294658,0)" xlink:href="#aH"/><use transform="matrix(0.07151955525372126,0,0,0.07151955525372126,75.73920901369083,0)" xlink:href="#aB"/></g><path d="M30-248c87 1 191-15 191 75 0 78-77 80-158 76V0H30v-248zm33 125c57 0 124 11 124-50 0-59-68-47-124-48v98" id="aI"/><g id="g"><use transform="matrix(0.07151955525372126,0,0,0.07151955525372126,0,0)" xlink:href="#aI"/><use transform="matrix(0.07151955525372126,0,0,0.07151955525372126,17.164693260893102,0)" xlink:href="#aA"/><use transform="matrix(0.07151955525372126,0,0,0.07151955525372126,25.67552033608593,0)" xlink:href="#av"/><use transform="matrix(0.07151955525372126,0,0,0.07151955525372126,39.979431386830186,0)" xlink:href="#ax"/><use transform="matrix(0.07151955525372126,0,0,0.07151955525372126,54.28334243757444,0)" xlink:href="#at"/><use transform="matrix(0.07151955525372126,0,0,0.07151955525372126,59.93338730261842,0)" xlink:href="#aF"/><use transform="matrix(0.07151955525372126,0,0,0.07151955525372126,72.80690724828824,0)" xlink:href="#an"/><use transform="matrix(0.07151955525372126,0,0,0.07151955525372126,79.95886277366037,0)" xlink:href="#at"/><use transform="matrix(0.07151955525372126,0,0,0.07151955525372126,85.60890763870435,0)" xlink:href="#aH"/><use transform="matrix(0.07151955525372126,0,0,0.07151955525372126,99.91281868944861,0)" xlink:href="#ap"/><use transform="matrix(0.07151955525372126,0,0,0.07151955525372126,114.21672974019285,0)" xlink:href="#as"/></g><path d="M106-169C34-169 62-67 57 0H25v-261h32l-1 103c12-21 28-36 61-36 89 0 53 116 60 194h-32v-121c2-32-8-49-39-48" id="aJ"/><g id="h"><use transform="matrix(0.07151955525372126,0,0,0.07151955525372126,0,0)" xlink:href="#aq"/><use transform="matrix(0.07151955525372126,0,0,0.07151955525372126,18.523564810713808,0)" xlink:href="#aJ"/><use transform="matrix(0.07151955525372126,0,0,0.07151955525372126,32.82747586145806,0)" xlink:href="#ao"/><use transform="matrix(0.07151955525372126,0,0,0.07151955525372126,47.131386912202316,0)" xlink:href="#at"/><use transform="matrix(0.07151955525372126,0,0,0.07151955525372126,52.78143177724629,0)" xlink:href="#ap"/><use transform="matrix(0.07151955525372126,0,0,0.07151955525372126,67.08534282799054,0)" xlink:href="#as"/></g><use transform="matrix(0.07151955525372126,0,0,0.07151955525372126,0,0)" xlink:href="#aD" id="i"/><path d="M33 0v-248h34V0H33" id="aK"/><g id="j"><use transform="matrix(0.07151955525372126,0,0,0.07151955525372126,0,0)" xlink:href="#aK"/><use transform="matrix(0.07151955525372126,0,0,0.07151955525372126,7.151955525372126,0)" xlink:href="#an"/><use transform="matrix(0.07151955525372126,0,0,0.07151955525372126,14.303911050744253,0)" xlink:href="#av"/><use transform="matrix(0.07151955525372126,0,0,0.07151955525372126,28.607822101488505,0)" xlink:href="#aA"/><use transform="matrix(0.07151955525372126,0,0,0.07151955525372126,37.11864917668134,0)" xlink:href="#ao"/><use transform="matrix(0.07151955525372126,0,0,0.07151955525372126,51.42256022742559,0)" xlink:href="#an"/><use transform="matrix(0.07151955525372126,0,0,0.07151955525372126,58.574515752797716,0)" xlink:href="#at"/><use transform="matrix(0.07151955525372126,0,0,0.07151955525372126,64.22456061784169,0)" xlink:href="#aH"/><use transform="matrix(0.07151955525372126,0,0,0.07151955525372126,78.52847166858594,0)" xlink:href="#ap"/><use transform="matrix(0.07151955525372126,0,0,0.07151955525372126,92.83238271933018,0)" xlink:href="#as"/></g><use transform="matrix(0.07867151077909339,0,0,0.07867151077909339,0,0)" xlink:href="#ap" id="k"/><path fill="#fff" d="M101-234c-31-9-42 10-38 44h38v23H63V0H32v-167H5v-23h27c-7-52 17-82 69-68v24" id="aL"/><path fill="#fff" d="M24-231v-30h32v30H24zM24 0v-190h32V0H24" id="aM"/><path fill="#fff" d="M59-47c-2 24 18 29 38 22v24C64 9 27 4 27-40v-127H5v-23h24l9-43h21v43h35v23H59v120" id="aN"/><g id="l"><use transform="matrix(0.08582346630446551,0,0,0.08582346630446551,0,0)" xlink:href="#aL"/><use transform="matrix(0.08582346630446551,0,0,0.08582346630446551,8.582346630446551,0)" xlink:href="#aM"/><use transform="matrix(0.08582346630446551,0,0,0.08582346630446551,15.362400468499326,0)" xlink:href="#aN"/></g><path fill="#fff" d="M100-194c62-1 85 37 85 99 1 63-27 99-86 99S16-35 15-95c0-66 28-99 85-99zM99-20c44 1 53-31 53-75 0-43-8-75-51-75s-53 32-53 75 10 74 51 75" id="aO"/><path fill="#fff" d="M115-194c53 0 69 39 70 98 0 66-23 100-70 100C84 3 66-7 56-30L54 0H23l1-261h32v101c10-23 28-34 59-34zm-8 174c40 0 45-34 45-75 0-40-5-75-45-74-42 0-51 32-51 76 0 43 10 73 51 73" id="aP"/><path fill="#fff" d="M24-231v-30h32v30H24zM-9 49c24 4 33-6 33-30v-209h32V24c2 40-23 58-65 49V49" id="aQ"/><path fill="#fff" d="M100-194c63 0 86 42 84 106H49c0 40 14 67 53 68 26 1 43-12 49-29l28 8c-11 28-37 45-77 45C44 4 14-33 15-96c1-61 26-98 85-98zm52 81c6-60-76-77-97-28-3 7-6 17-6 28h103" id="aR"/><path fill="#fff" d="M96-169c-40 0-48 33-48 73s9 75 48 75c24 0 41-14 43-38l32 2c-6 37-31 61-74 61-59 0-76-41-82-99-10-93 101-131 147-64 4 7 5 14 7 22l-32 3c-4-21-16-35-41-35" id="aS"/><g id="m"><use transform="matrix(0.08582346630446551,0,0,0.08582346630446551,0,0)" xlink:href="#aO"/><use transform="matrix(0.08582346630446551,0,0,0.08582346630446551,17.164693260893102,0)" xlink:href="#aP"/><use transform="matrix(0.08582346630446551,0,0,0.08582346630446551,34.329386521786205,0)" xlink:href="#aQ"/><use transform="matrix(0.08582346630446551,0,0,0.08582346630446551,41.10944035983898,0)" xlink:href="#aR"/><use transform="matrix(0.08582346630446551,0,0,0.08582346630446551,58.27413362073208,0)" xlink:href="#aS"/><use transform="matrix(0.08582346630446551,0,0,0.08582346630446551,73.72235755553587,0)" xlink:href="#aN"/></g><path d="M115-194c55 1 70 41 70 98S169 2 115 4C84 4 66-9 55-30l1 105H24l-1-265h31l2 30c10-21 28-34 59-34zm-8 174c40 0 45-34 45-75s-6-73-45-74c-42 0-51 32-51 76 0 43 10 73 51 73" id="aT"/><use transform="matrix(0.07867151077909339,0,0,0.07867151077909339,0,0)" xlink:href="#aT" id="n"/><path fill="#fff" d="M141-36C126-15 110 5 73 4 37 3 15-17 15-53c-1-64 63-63 125-63 3-35-9-54-41-54-24 1-41 7-42 31l-33-3c5-37 33-52 76-52 45 0 72 20 72 64v82c-1 20 7 32 28 27v20c-31 9-61-2-59-35zM48-53c0 20 12 33 32 33 41-3 63-29 60-74-43 2-92-5-92 41" id="aU"/><path fill="#fff" d="M179-190L93 31C79 59 56 82 12 73V49c39 6 53-20 64-50L1-190h34L92-34l54-156h33" id="aV"/><path fill="#fff" d="M135-143c-3-34-86-38-87 0 15 53 115 12 119 90S17 21 10-45l28-5c4 36 97 45 98 0-10-56-113-15-118-90-4-57 82-63 122-42 12 7 21 19 24 35" id="aW"/><path fill="#fff" d="M115-194c55 1 70 41 70 98S169 2 115 4C84 4 66-9 55-30l1 105H24l-1-265h31l2 30c10-21 28-34 59-34zm-8 174c40 0 45-34 45-75s-6-73-45-74c-42 0-51 32-51 76 0 43 10 73 51 73" id="aX"/><path fill="#fff" d="M24 0v-261h32V0H24" id="aY"/><g id="o"><use transform="matrix(0.06436759972834913,0,0,0.06436759972834913,0,0)" xlink:href="#aP"/><use transform="matrix(0.06436759972834913,0,0,0.06436759972834913,12.873519945669825,0)" xlink:href="#aU"/><use transform="matrix(0.06436759972834913,0,0,0.06436759972834913,25.74703989133965,0)" xlink:href="#aV"/><use transform="matrix(0.06436759972834913,0,0,0.06436759972834913,37.33320784244249,0)" xlink:href="#aR"/><use transform="matrix(0.06436759972834913,0,0,0.06436759972834913,50.20672778811232,0)" xlink:href="#aW"/><use transform="matrix(0.06436759972834913,0,0,0.06436759972834913,61.79289573921516,0)" xlink:href="#aX"/><use transform="matrix(0.06436759972834913,0,0,0.06436759972834913,74.66641568488498,0)" xlink:href="#aY"/><use transform="matrix(0.06436759972834913,0,0,0.06436759972834913,79.75145606342457,0)" xlink:href="#aO"/><use transform="matrix(0.06436759972834913,0,0,0.06436759972834913,92.6249760090944,0)" xlink:href="#aN"/></g><path fill="#fff" d="M266 0h-40l-56-210L115 0H75L2-248h35L96-30l15-64 43-154h32l59 218 59-218h35" id="aZ"/><path fill="#fff" d="M205 0l-28-72H64L36 0H1l101-248h38L239 0h-34zm-38-99l-47-123c-12 45-31 82-46 123h93" id="ba"/><path fill="#fff" d="M33 0v-248h34V0H33" id="bb"/><path fill="#fff" d="M212-179c-10-28-35-45-73-45-59 0-87 40-87 99 0 60 29 101 89 101 43 0 62-24 78-52l27 14C228-24 195 4 139 4 59 4 22-46 18-125c-6-104 99-153 187-111 19 9 31 26 39 46" id="bc"/><g id="p"><use transform="matrix(0.06436759972834913,0,0,0.06436759972834913,0,0)" xlink:href="#aZ"/><use transform="matrix(0.06436759972834913,0,0,0.06436759972834913,20.983837511441816,0)" xlink:href="#ba"/><use transform="matrix(0.06436759972834913,0,0,0.06436759972834913,36.432061446245605,0)" xlink:href="#bb"/><use transform="matrix(0.06436759972834913,0,0,0.06436759972834913,42.86882141908052,0)" xlink:href="#bc"/></g><path fill="#fff" d="M114-163C36-179 61-72 57 0H25l-1-190h30c1 12-1 29 2 39 6-27 23-49 58-41v29" id="bd"/><g id="q"><use transform="matrix(0.06436759972834913,0,0,0.06436759972834913,0,0)" xlink:href="#aN"/><use transform="matrix(0.06436759972834913,0,0,0.06436759972834913,6.4367599728349125,0)" xlink:href="#bd"/><use transform="matrix(0.06436759972834913,0,0,0.06436759972834913,14.09650434050846,0)" xlink:href="#aU"/><use transform="matrix(0.06436759972834913,0,0,0.06436759972834913,26.970024286178287,0)" xlink:href="#aS"/><use transform="matrix(0.06436759972834913,0,0,0.06436759972834913,38.55619223728113,0)" xlink:href="#aR"/><use transform="matrix(0.06436759972834913,0,0,0.06436759972834913,51.42971218295096,0)" xlink:href="#aX"/><use transform="matrix(0.06436759972834913,0,0,0.06436759972834913,64.30323212862078,0)" xlink:href="#aY"/><use transform="matrix(0.06436759972834913,0,0,0.06436759972834913,69.38827250716037,0)" xlink:href="#aO"/><use transform="matrix(0.06436759972834913,0,0,0.06436759972834913,82.26179245283019,0)" xlink:href="#aN"/></g><path fill="#fff" d="M106-169C34-169 62-67 57 0H25v-261h32l-1 103c12-21 28-36 61-36 89 0 53 116 60 194h-32v-121c2-32-8-49-39-48" id="be"/><g id="r"><use transform="matrix(0.06436759972834913,0,0,0.06436759972834913,0,0)" xlink:href="#bd"/><use transform="matrix(0.06436759972834913,0,0,0.06436759972834913,7.659744367673547,0)" xlink:href="#be"/><use transform="matrix(0.06436759972834913,0,0,0.06436759972834913,20.533264313343373,0)" xlink:href="#aU"/><use transform="matrix(0.06436759972834913,0,0,0.06436759972834913,33.4067842590132,0)" xlink:href="#aN"/></g><path fill="#fff" d="M16-82v-28h88v28H16" id="bf"/><path fill="#fff" d="M143 0L79-87 56-68V0H24v-261h32v163l83-92h37l-77 82L181 0h-38" id="bg"/><g id="s"><use transform="matrix(0.06436759972834913,0,0,0.06436759972834913,0,0)" xlink:href="#aX"/><use transform="matrix(0.06436759972834913,0,0,0.06436759972834913,12.873519945669825,0)" xlink:href="#aU"/><use transform="matrix(0.06436759972834913,0,0,0.06436759972834913,25.74703989133965,0)" xlink:href="#bd"/><use transform="matrix(0.06436759972834913,0,0,0.06436759972834913,33.40678425901319,0)" xlink:href="#aR"/><use transform="matrix(0.06436759972834913,0,0,0.06436759972834913,46.28030420468302,0)" xlink:href="#aN"/><use transform="matrix(0.06436759972834913,0,0,0.06436759972834913,52.71706417751793,0)" xlink:href="#aO"/><use transform="matrix(0.06436759972834913,0,0,0.06436759972834913,65.59058412318775,0)" xlink:href="#bf"/><use transform="matrix(0.06436759972834913,0,0,0.06436759972834913,73.2503284908613,0)" xlink:href="#bg"/></g><g id="t"><use transform="matrix(0.06436759972834913,0,0,0.06436759972834913,0,0)" xlink:href="#aY"/><use transform="matrix(0.06436759972834913,0,0,0.06436759972834913,5.085040378539581,0)" xlink:href="#aO"/><use transform="matrix(0.06436759972834913,0,0,0.06436759972834913,17.958560324209408,0)" xlink:href="#aO"/></g><path d="M140-251c81 0 123 46 123 126C263-46 219 4 140 4 59 4 17-45 17-125s42-126 123-126zm0 227c63 0 89-41 89-101s-29-99-89-99c-61 0-89 39-89 99S79-25 140-24" id="bh"/><path d="M24-231v-30h32v30H24zM-9 49c24 4 33-6 33-30v-209h32V24c2 40-23 58-65 49V49" id="bi"/><g id="u"><use transform="matrix(0.08582346630446551,0,0,0.08582346630446551,0,0)" xlink:href="#bh"/><use transform="matrix(0.08582346630446551,0,0,0.08582346630446551,24.030570565250343,0)" xlink:href="#au"/><use transform="matrix(0.08582346630446551,0,0,0.08582346630446551,41.195263826143446,0)" xlink:href="#bi"/><use transform="matrix(0.08582346630446551,0,0,0.08582346630446551,47.97531766419622,0)" xlink:href="#av"/><use transform="matrix(0.08582346630446551,0,0,0.08582346630446551,65.14001092508931,0)" xlink:href="#aF"/><use transform="matrix(0.08582346630446551,0,0,0.08582346630446551,80.5882348598931,0)" xlink:href="#an"/></g><path d="M190 0L58-211 59 0H30v-248h39L202-35l-2-213h31V0h-41" id="bj"/><g id="v"><use transform="matrix(0.08582346630446551,0,0,0.08582346630446551,0,0)" xlink:href="#bj"/><use transform="matrix(0.08582346630446551,0,0,0.08582346630446551,22.22827777285657,0)" xlink:href="#av"/><use transform="matrix(0.08582346630446551,0,0,0.08582346630446551,39.392971033749674,0)" xlink:href="#av"/><use transform="matrix(0.08582346630446551,0,0,0.08582346630446551,56.557664294642784,0)" xlink:href="#ax"/><use transform="matrix(0.08582346630446551,0,0,0.08582346630446551,73.72235755553588,0)" xlink:href="#as"/></g><g id="w"><use transform="matrix(0.08582346630446551,0,0,0.08582346630446551,0,0)" xlink:href="#an"/><use transform="matrix(0.08582346630446551,0,0,0.08582346630446551,8.582346630446551,0)" xlink:href="#aH"/></g><path d="M108 0H70L1-190h34L89-25l56-165h34" id="bk"/><g id="x"><use transform="matrix(0.08582346630446551,0,0,0.08582346630446551,0,0)" xlink:href="#am"/><use transform="matrix(0.08582346630446551,0,0,0.08582346630446551,20.597631913071723,0)" xlink:href="#av"/><use transform="matrix(0.08582346630446551,0,0,0.08582346630446551,37.762325173964825,0)" xlink:href="#aA"/><use transform="matrix(0.08582346630446551,0,0,0.08582346630446551,47.97531766419622,0)" xlink:href="#bk"/><use transform="matrix(0.08582346630446551,0,0,0.08582346630446551,63.42354159900001,0)" xlink:href="#at"/><use transform="matrix(0.08582346630446551,0,0,0.08582346630446551,70.20359543705278,0)" xlink:href="#aF"/><use transform="matrix(0.08582346630446551,0,0,0.08582346630446551,85.65181937185658,0)" xlink:href="#av"/></g><path d="M240 0l2-218c-23 76-54 145-80 218h-23L58-218 59 0H30v-248h44l77 211c21-75 51-140 76-211h43V0h-30" id="bl"/><path d="M84 4C-5 8 30-112 23-190h32v120c0 31 7 50 39 49 72-2 45-101 50-169h31l1 190h-30c-1-10 1-25-2-33-11 22-28 36-60 37" id="bm"/><g id="y"><use transform="matrix(0.08582346630446551,0,0,0.08582346630446551,0,0)" xlink:href="#bl"/><use transform="matrix(0.08582346630446551,0,0,0.08582346630446551,25.66121642503519,0)" xlink:href="#bm"/><use transform="matrix(0.08582346630446551,0,0,0.08582346630446551,42.825909685928295,0)" xlink:href="#ar"/><use transform="matrix(0.08582346630446551,0,0,0.08582346630446551,49.60596352398107,0)" xlink:href="#an"/><use transform="matrix(0.08582346630446551,0,0,0.08582346630446551,58.18831015442762,0)" xlink:href="#at"/><use transform="matrix(0.08582346630446551,0,0,0.08582346630446551,64.96836399248039,0)" xlink:href="#aT"/><use transform="matrix(0.08582346630446551,0,0,0.08582346630446551,82.1330572533735,0)" xlink:href="#ar"/><use transform="matrix(0.08582346630446551,0,0,0.08582346630446551,88.91311109142627,0)" xlink:href="#av"/></g><path d="M127-220V0H93v-220H8v-28h204v28h-85" id="bn"/><path d="M143 0L79-87 56-68V0H24v-261h32v163l83-92h37l-77 82L181 0h-38" id="bo"/><g id="z"><use transform="matrix(0.08582346630446551,0,0,0.08582346630446551,0,0)" xlink:href="#bn"/><use transform="matrix(0.08582346630446551,0,0,0.08582346630446551,15.362400468499326,0)" xlink:href="#ao"/><use transform="matrix(0.08582346630446551,0,0,0.08582346630446551,32.52709372939243,0)" xlink:href="#as"/><use transform="matrix(0.08582346630446551,0,0,0.08582346630446551,47.97531766419623,0)" xlink:href="#bo"/><use transform="matrix(0.08582346630446551,0,0,0.08582346630446551,63.42354159900002,0)" xlink:href="#as"/></g><g id="A"><use transform="matrix(0.06436759972834913,0,0,0.06436759972834913,0,0)" xlink:href="#aX"/><use transform="matrix(0.06436759972834913,0,0,0.06436759972834913,12.873519945669825,0)" xlink:href="#aU"/><use transform="matrix(0.06436759972834913,0,0,0.06436759972834913,25.74703989133965,0)" xlink:href="#aM"/><use transform="matrix(0.06436759972834913,0,0,0.06436759972834913,30.83208026987923,0)" xlink:href="#bd"/><use transform="matrix(0.06436759972834913,0,0,0.06436759972834913,38.49182463755278,0)" xlink:href="#aW"/></g><g id="B"><use transform="matrix(0.06436759972834913,0,0,0.06436759972834913,0,0)" xlink:href="#aX"/><use transform="matrix(0.06436759972834913,0,0,0.06436759972834913,12.873519945669825,0)" xlink:href="#aY"/><use transform="matrix(0.06436759972834913,0,0,0.06436759972834913,17.958560324209408,0)" xlink:href="#aO"/><use transform="matrix(0.06436759972834913,0,0,0.06436759972834913,30.832080269879235,0)" xlink:href="#aN"/></g><path fill="#fff" d="M117-194c89-4 53 116 60 194h-32v-121c0-31-8-49-39-48C34-167 62-67 57 0H25l-1-190h30c1 10-1 24 2 32 11-22 29-35 61-36" id="bp"/><g id="C"><use transform="matrix(0.06436759972834913,0,0,0.06436759972834913,0,0)" xlink:href="#bd"/><use transform="matrix(0.06436759972834913,0,0,0.06436759972834913,7.659744367673547,0)" xlink:href="#aW"/><use transform="matrix(0.06436759972834913,0,0,0.06436759972834913,19.24591231877639,0)" xlink:href="#aN"/><use transform="matrix(0.06436759972834913,0,0,0.06436759972834913,25.682672291611308,0)" xlink:href="#aU"/><use transform="matrix(0.06436759972834913,0,0,0.06436759972834913,38.55619223728113,0)" xlink:href="#bp"/></g><path fill="#fff" d="M84 4C-5 8 30-112 23-190h32v120c0 31 7 50 39 49 72-2 45-101 50-169h31l1 190h-30c-1-10 1-25-2-33-11 22-28 36-60 37" id="bq"/><g id="D"><use transform="matrix(0.06436759972834913,0,0,0.06436759972834913,0,0)" xlink:href="#aW"/><use transform="matrix(0.06436759972834913,0,0,0.06436759972834913,11.586167951102842,0)" xlink:href="#bq"/><use transform="matrix(0.06436759972834913,0,0,0.06436759972834913,24.459687896772667,0)" xlink:href="#aP"/><use transform="matrix(0.06436759972834913,0,0,0.06436759972834913,37.33320784244249,0)" xlink:href="#aQ"/><use transform="matrix(0.06436759972834913,0,0,0.06436759972834913,42.41824822098207,0)" xlink:href="#aR"/><use transform="matrix(0.06436759972834913,0,0,0.06436759972834913,55.2917681666519,0)" xlink:href="#aS"/><use transform="matrix(0.06436759972834913,0,0,0.06436759972834913,66.87793611775474,0)" xlink:href="#aN"/></g><g id="E"><use transform="matrix(0.06436759972834913,0,0,0.06436759972834913,0,0)" xlink:href="#aW"/><use transform="matrix(0.06436759972834913,0,0,0.06436759972834913,11.586167951102842,0)" xlink:href="#aX"/><use transform="matrix(0.06436759972834913,0,0,0.06436759972834913,24.459687896772667,0)" xlink:href="#aR"/><use transform="matrix(0.06436759972834913,0,0,0.06436759972834913,37.33320784244249,0)" xlink:href="#aS"/><use transform="matrix(0.06436759972834913,0,0,0.06436759972834913,48.919375793545335,0)" xlink:href="#aM"/><use transform="matrix(0.06436759972834913,0,0,0.06436759972834913,54.004416172084916,0)" xlink:href="#aL"/><use transform="matrix(0.06436759972834913,0,0,0.06436759972834913,60.44117614491983,0)" xlink:href="#aM"/><use transform="matrix(0.06436759972834913,0,0,0.06436759972834913,65.52621652345941,0)" xlink:href="#aS"/></g><path fill="#fff" d="M210-169c-67 3-38 105-44 169h-31v-121c0-29-5-50-35-48C34-165 62-65 56 0H25l-1-190h30c1 10-1 24 2 32 10-44 99-50 107 0 11-21 27-35 58-36 85-2 47 119 55 194h-31v-121c0-29-5-49-35-48" id="br"/><g id="F"><use transform="matrix(0.06436759972834913,0,0,0.06436759972834913,0,0)" xlink:href="#aX"/><use transform="matrix(0.06436759972834913,0,0,0.06436759972834913,12.873519945669825,0)" xlink:href="#aU"/><use transform="matrix(0.06436759972834913,0,0,0.06436759972834913,25.74703989133965,0)" xlink:href="#bd"/><use transform="matrix(0.06436759972834913,0,0,0.06436759972834913,33.40678425901319,0)" xlink:href="#aU"/><use transform="matrix(0.06436759972834913,0,0,0.06436759972834913,46.28030420468302,0)" xlink:href="#br"/><use transform="matrix(0.06436759972834913,0,0,0.06436759972834913,65.52621652345941,0)" xlink:href="#aR"/><use transform="matrix(0.06436759972834913,0,0,0.06436759972834913,78.39973646912924,0)" xlink:href="#aN"/><use transform="matrix(0.06436759972834913,0,0,0.06436759972834913,84.83649644196414,0)" xlink:href="#aR"/><use transform="matrix(0.06436759972834913,0,0,0.06436759972834913,97.71001638763397,0)" xlink:href="#bd"/></g><g id="G"><use transform="matrix(0.06436759972834913,0,0,0.06436759972834913,0,0)" xlink:href="#aX"/><use transform="matrix(0.06436759972834913,0,0,0.06436759972834913,12.873519945669825,0)" xlink:href="#aO"/><use transform="matrix(0.06436759972834913,0,0,0.06436759972834913,25.74703989133965,0)" xlink:href="#aW"/><use transform="matrix(0.06436759972834913,0,0,0.06436759972834913,37.33320784244249,0)" xlink:href="#aN"/><use transform="matrix(0.06436759972834913,0,0,0.06436759972834913,43.769967815277404,0)" xlink:href="#aR"/><use transform="matrix(0.06436759972834913,0,0,0.06436759972834913,56.64348776094723,0)" xlink:href="#bd"/><use transform="matrix(0.06436759972834913,0,0,0.06436759972834913,64.30323212862078,0)" xlink:href="#aM"/><use transform="matrix(0.06436759972834913,0,0,0.06436759972834913,69.38827250716037,0)" xlink:href="#aO"/><use transform="matrix(0.06436759972834913,0,0,0.06436759972834913,82.26179245283019,0)" xlink:href="#bd"/><use transform="matrix(0.06436759972834913,0,0,0.06436759972834913,89.92153682050375,0)" xlink:href="#aW"/></g><g id="H"><use transform="matrix(0.06436759972834913,0,0,0.06436759972834913,0,0)" xlink:href="#bn"/><use transform="matrix(0.06436759972834913,0,0,0.06436759972834913,11.521800351374495,0)" xlink:href="#aH"/><use transform="matrix(0.06436759972834913,0,0,0.06436759972834913,24.39532029704432,0)" xlink:href="#aH"/></g><path d="M160-131c35 5 61 23 61 61C221 17 115-2 30 0v-248c76 3 177-17 177 60 0 33-19 50-47 57zm-97-11c50-1 110 9 110-42 0-47-63-36-110-37v79zm0 115c55-2 124 14 124-45 0-56-70-42-124-44v89" id="bs"/><path d="M177-190C167-65 218 103 67 71c-23-6-38-20-44-43l32-5c15 47 100 32 89-28v-30C133-14 115 1 83 1 29 1 15-40 15-95c0-56 16-97 71-98 29-1 48 16 59 35 1-10 0-23 2-32h30zM94-22c36 0 50-32 50-73 0-42-14-75-50-75-39 0-46 34-46 75s6 73 46 73" id="bt"/><g id="I"><use transform="matrix(0.06436759972834913,0,0,0.06436759972834913,0,0)" xlink:href="#bs"/><use transform="matrix(0.06436759972834913,0,0,0.06436759972834913,15.44822393480379,0)" xlink:href="#at"/><use transform="matrix(0.06436759972834913,0,0,0.06436759972834913,20.533264313343373,0)" xlink:href="#bt"/></g><g id="J"><use transform="matrix(0.06436759972834913,0,0,0.06436759972834913,0,0)" xlink:href="#az"/><use transform="matrix(0.06436759972834913,0,0,0.06436759972834913,6.4367599728349125,0)" xlink:href="#aH"/><use transform="matrix(0.06436759972834913,0,0,0.06436759972834913,19.310279918504737,0)" xlink:href="#aA"/></g><g id="K"><use transform="matrix(0.06436759972834913,0,0,0.06436759972834913,0,0)" xlink:href="#at"/><use transform="matrix(0.06436759972834913,0,0,0.06436759972834913,5.085040378539581,0)" xlink:href="#ap"/></g><path d="M179-190L93 31C79 59 56 82 12 73V49c39 6 53-20 64-50L1-190h34L92-34l54-156h33" id="bu"/><g id="L"><use transform="matrix(0.06436759972834913,0,0,0.06436759972834913,0,0)" xlink:href="#bl"/><use transform="matrix(0.06436759972834913,0,0,0.06436759972834913,19.24591231877639,0)" xlink:href="#av"/><use transform="matrix(0.06436759972834913,0,0,0.06436759972834913,32.11943226444622,0)" xlink:href="#aB"/><use transform="matrix(0.06436759972834913,0,0,0.06436759972834913,51.365344583222615,0)" xlink:href="#aH"/><use transform="matrix(0.06436759972834913,0,0,0.06436759972834913,64.23886452889244,0)" xlink:href="#aA"/><use transform="matrix(0.06436759972834913,0,0,0.06436759972834913,71.89860889656597,0)" xlink:href="#bu"/></g><g id="M"><use transform="matrix(0.06436759972834913,0,0,0.06436759972834913,0,0)" xlink:href="#aI"/><use transform="matrix(0.06436759972834913,0,0,0.06436759972834913,15.44822393480379,0)" xlink:href="#aA"/><use transform="matrix(0.06436759972834913,0,0,0.06436759972834913,23.10796830247734,0)" xlink:href="#aH"/><use transform="matrix(0.06436759972834913,0,0,0.06436759972834913,35.981488248147166,0)" xlink:href="#aF"/><use transform="matrix(0.06436759972834913,0,0,0.06436759972834913,47.56765619925002,0)" xlink:href="#av"/><use transform="matrix(0.06436759972834913,0,0,0.06436759972834913,60.44117614491984,0)" xlink:href="#as"/><use transform="matrix(0.06436759972834913,0,0,0.06436759972834913,72.02734409602267,0)" xlink:href="#as"/><use transform="matrix(0.06436759972834913,0,0,0.06436759972834913,83.6135120471255,0)" xlink:href="#at"/><use transform="matrix(0.06436759972834913,0,0,0.06436759972834913,88.6985524256651,0)" xlink:href="#ap"/><use transform="matrix(0.06436759972834913,0,0,0.06436759972834913,101.57207237133493,0)" xlink:href="#bt"/></g><g id="N"><use transform="matrix(0.06436759972834913,0,0,0.06436759972834913,0,0)" xlink:href="#az"/><use transform="matrix(0.06436759972834913,0,0,0.06436759972834913,6.4367599728349125,0)" xlink:href="#aH"/><use transform="matrix(0.06436759972834913,0,0,0.06436759972834913,19.310279918504737,0)" xlink:href="#aA"/></g><g id="O"><use transform="matrix(0.06436759972834913,0,0,0.06436759972834913,0,0)" xlink:href="#ao"/><use transform="matrix(0.06436759972834913,0,0,0.06436759972834913,12.873519945669825,0)" xlink:href="#ar"/><use transform="matrix(0.06436759972834913,0,0,0.06436759972834913,17.958560324209408,0)" xlink:href="#ar"/></g><g id="P"><use transform="matrix(0.06436759972834913,0,0,0.06436759972834913,0,0)" xlink:href="#an"/><use transform="matrix(0.06436759972834913,0,0,0.06436759972834913,6.4367599728349125,0)" xlink:href="#aJ"/><use transform="matrix(0.06436759972834913,0,0,0.06436759972834913,19.310279918504737,0)" xlink:href="#av"/></g><g id="Q"><use transform="matrix(0.06436759972834913,0,0,0.06436759972834913,0,0)" xlink:href="#aT"/><use transform="matrix(0.06436759972834913,0,0,0.06436759972834913,12.873519945669825,0)" xlink:href="#ao"/><use transform="matrix(0.06436759972834913,0,0,0.06436759972834913,25.74703989133965,0)" xlink:href="#aA"/><use transform="matrix(0.06436759972834913,0,0,0.06436759972834913,33.40678425901319,0)" xlink:href="#ao"/><use transform="matrix(0.06436759972834913,0,0,0.06436759972834913,46.28030420468302,0)" xlink:href="#aB"/><use transform="matrix(0.06436759972834913,0,0,0.06436759972834913,65.52621652345941,0)" xlink:href="#av"/><use transform="matrix(0.06436759972834913,0,0,0.06436759972834913,78.39973646912924,0)" xlink:href="#an"/><use transform="matrix(0.06436759972834913,0,0,0.06436759972834913,84.83649644196414,0)" xlink:href="#av"/><use transform="matrix(0.06436759972834913,0,0,0.06436759972834913,97.71001638763397,0)" xlink:href="#aA"/><use transform="matrix(0.06436759972834913,0,0,0.06436759972834913,105.36976075530751,0)" xlink:href="#as"/></g><g id="R"><use transform="matrix(0.06436759972834913,0,0,0.06436759972834913,0,0)" xlink:href="#ao"/><use transform="matrix(0.06436759972834913,0,0,0.06436759972834913,12.873519945669825,0)" xlink:href="#ap"/><use transform="matrix(0.06436759972834913,0,0,0.06436759972834913,25.74703989133965,0)" xlink:href="#ax"/></g><g id="S"><use transform="matrix(0.06436759972834913,0,0,0.06436759972834913,0,0)" xlink:href="#as"/><use transform="matrix(0.06436759972834913,0,0,0.06436759972834913,11.586167951102842,0)" xlink:href="#ao"/><use transform="matrix(0.06436759972834913,0,0,0.06436759972834913,24.459687896772667,0)" xlink:href="#aB"/><use transform="matrix(0.06436759972834913,0,0,0.06436759972834913,43.70560021554905,0)" xlink:href="#aT"/><use transform="matrix(0.06436759972834913,0,0,0.06436759972834913,56.57912016121888,0)" xlink:href="#ar"/><use transform="matrix(0.06436759972834913,0,0,0.06436759972834913,61.66416053975846,0)" xlink:href="#av"/><use transform="matrix(0.06436759972834913,0,0,0.06436759972834913,74.53768048542828,0)" xlink:href="#as"/></g><path d="M145-31C134-9 116 4 85 4 32 4 16-35 15-94c0-59 17-99 70-100 32-1 48 14 60 33 0-11-1-24 2-32h30l-1 268h-32zM93-21c41 0 51-33 51-76s-8-73-50-73c-40 0-46 35-46 75s5 74 45 74" id="bv"/><use transform="matrix(0.07867151077909339,0,0,0.07867151077909339,0,0)" xlink:href="#bv" id="T"/><path fill="#fff" d="M33 0v-38h34V0H33" id="bw"/><path fill="#fff" d="M85-194c31 0 48 13 60 33l-1-100h32l1 261h-30c-2-10 0-23-3-31C134-8 116 4 85 4 32 4 16-35 15-94c0-66 23-100 70-100zm9 24c-40 0-46 34-46 75 0 40 6 74 45 74 42 0 51-32 51-76 0-42-9-74-50-73" id="bx"/><g id="U"><use transform="matrix(0.07151955525372126,0,0,0.07151955525372126,0,0)" xlink:href="#aU"/><use transform="matrix(0.07151955525372126,0,0,0.07151955525372126,14.303911050744253,0)" xlink:href="#aW"/><use transform="matrix(0.07151955525372126,0,0,0.07151955525372126,27.17743099641408,0)" xlink:href="#bw"/><use transform="matrix(0.07151955525372126,0,0,0.07151955525372126,34.329386521786205,0)" xlink:href="#bx"/><use transform="matrix(0.07151955525372126,0,0,0.07151955525372126,48.63329757253046,0)" xlink:href="#aU"/><use transform="matrix(0.07151955525372126,0,0,0.07151955525372126,62.937208623274714,0)" xlink:href="#aN"/><use transform="matrix(0.07151955525372126,0,0,0.07151955525372126,70.08916414864684,0)" xlink:href="#aU"/><use transform="matrix(0.07151955525372126,0,0,0.07151955525372126,84.39307519939109,0)" xlink:href="#bw"/><use transform="matrix(0.07151955525372126,0,0,0.07151955525372126,91.54503072476322,0)" xlink:href="#aL"/><use transform="matrix(0.07151955525372126,0,0,0.07151955525372126,98.69698625013534,0)" xlink:href="#bd"/><use transform="matrix(0.07151955525372126,0,0,0.07151955525372126,107.20781332532819,0)" xlink:href="#aU"/><use transform="matrix(0.07151955525372126,0,0,0.07151955525372126,121.51172437607242,0)" xlink:href="#br"/><use transform="matrix(0.07151955525372126,0,0,0.07151955525372126,142.8960713969351,0)" xlink:href="#aR"/></g><path fill="#fff" d="M185-189c-5-48-123-54-124 2 14 75 158 14 163 119 3 78-121 87-175 55-17-10-28-26-33-46l33-7c5 56 141 63 141-1 0-78-155-14-162-118-5-82 145-84 179-34 5 7 8 16 11 25" id="by"/><path fill="#fff" d="M0 4l72-265h28L28 4H0" id="bz"/><path fill="#fff" d="M143 4C61 4 22-44 18-125c-5-107 100-154 193-111 17 8 29 25 37 43l-32 9c-13-25-37-40-76-40-61 0-88 39-88 99 0 61 29 100 91 101 35 0 62-11 79-27v-45h-74v-28h105v86C228-13 192 4 143 4" id="bA"/><g id="V"><use transform="matrix(0.07151955525372126,0,0,0.07151955525372126,0,0)" xlink:href="#by"/><use transform="matrix(0.07151955525372126,0,0,0.07151955525372126,17.164693260893102,0)" xlink:href="#aX"/><use transform="matrix(0.07151955525372126,0,0,0.07151955525372126,31.468604311637357,0)" xlink:href="#bd"/><use transform="matrix(0.07151955525372126,0,0,0.07151955525372126,39.979431386830186,0)" xlink:href="#aR"/><use transform="matrix(0.07151955525372126,0,0,0.07151955525372126,54.28334243757444,0)" xlink:href="#aU"/><use transform="matrix(0.07151955525372126,0,0,0.07151955525372126,68.5872534883187,0)" xlink:href="#bx"/><use transform="matrix(0.07151955525372126,0,0,0.07151955525372126,82.89116453906294,0)" xlink:href="#bz"/><use transform="matrix(0.07151955525372126,0,0,0.07151955525372126,90.04312006443507,0)" xlink:href="#bA"/><use transform="matrix(0.07151955525372126,0,0,0.07151955525372126,110.06859553547703,0)" xlink:href="#aU"/><use transform="matrix(0.07151955525372126,0,0,0.07151955525372126,124.37250658622128,0)" xlink:href="#aN"/><use transform="matrix(0.07151955525372126,0,0,0.07151955525372126,131.5244621115934,0)" xlink:href="#be"/><use transform="matrix(0.07151955525372126,0,0,0.07151955525372126,145.82837316233767,0)" xlink:href="#aR"/><use transform="matrix(0.07151955525372126,0,0,0.07151955525372126,160.13228421308193,0)" xlink:href="#bd"/></g><path fill="#fff" d="M206 0h-36l-40-164L89 0H53L-1-190h32L70-26l43-164h34l41 164 42-164h31" id="bB"/><g id="W"><use transform="matrix(0.07151955525372126,0,0,0.07151955525372126,0,0)" xlink:href="#bB"/><use transform="matrix(0.07151955525372126,0,0,0.07151955525372126,18.523564810713808,0)" xlink:href="#aM"/><use transform="matrix(0.07151955525372126,0,0,0.07151955525372126,24.17360967575779,0)" xlink:href="#aN"/><use transform="matrix(0.07151955525372126,0,0,0.07151955525372126,31.325565201129915,0)" xlink:href="#be"/></g><g id="X"><use transform="matrix(0.07151955525372126,0,0,0.07151955525372126,0,0)" xlink:href="#bx"/><use transform="matrix(0.07151955525372126,0,0,0.07151955525372126,14.303911050744253,0)" xlink:href="#aM"/><use transform="matrix(0.07151955525372126,0,0,0.07151955525372126,19.95395591578823,0)" xlink:href="#br"/><use transform="matrix(0.07151955525372126,0,0,0.07151955525372126,41.33830293665089,0)" xlink:href="#aR"/><use transform="matrix(0.07151955525372126,0,0,0.07151955525372126,55.642213987395145,0)" xlink:href="#bp"/><use transform="matrix(0.07151955525372126,0,0,0.07151955525372126,69.9461250381394,0)" xlink:href="#aW"/><use transform="matrix(0.07151955525372126,0,0,0.07151955525372126,82.81964498380923,0)" xlink:href="#aM"/><use transform="matrix(0.07151955525372126,0,0,0.07151955525372126,88.4696898488532,0)" xlink:href="#aO"/><use transform="matrix(0.07151955525372126,0,0,0.07151955525372126,102.77360089959745,0)" xlink:href="#bp"/></g><g id="Y"><use transform="matrix(0.07151955525372126,0,0,0.07151955525372126,0,0)" xlink:href="#aS"/><use transform="matrix(0.07151955525372126,0,0,0.07151955525372126,12.873519945669827,0)" xlink:href="#aO"/><use transform="matrix(0.07151955525372126,0,0,0.07151955525372126,27.17743099641408,0)" xlink:href="#aY"/><use transform="matrix(0.07151955525372126,0,0,0.07151955525372126,32.82747586145806,0)" xlink:href="#bq"/><use transform="matrix(0.07151955525372126,0,0,0.07151955525372126,47.131386912202316,0)" xlink:href="#br"/><use transform="matrix(0.07151955525372126,0,0,0.07151955525372126,68.51573393306498,0)" xlink:href="#bp"/><use transform="matrix(0.07151955525372126,0,0,0.07151955525372126,82.81964498380923,0)" xlink:href="#aW"/></g><g id="Z"><use transform="matrix(0.07867151077909339,0,0,0.07867151077909339,0,0)" xlink:href="#aX"/><use transform="matrix(0.07867151077909339,0,0,0.07867151077909339,15.734302155818677,0)" xlink:href="#aU"/><use transform="matrix(0.07867151077909339,0,0,0.07867151077909339,31.468604311637353,0)" xlink:href="#bd"/><use transform="matrix(0.07867151077909339,0,0,0.07867151077909339,40.83051409434947,0)" xlink:href="#aW"/></g><path fill="#fff" d="M87 75C49 33 22-17 22-94c0-76 28-126 65-167h31c-38 41-64 92-64 168S80 34 118 75H87" id="bC"/><path fill="#fff" d="M140-251c81 0 123 46 123 126C263-46 219 4 140 4 59 4 17-45 17-125s42-126 123-126zm0 227c63 0 89-41 89-101s-29-99-89-99c-61 0-89 39-89 99S79-25 140-24" id="bD"/><g id="aa"><use transform="matrix(0.07867151077909339,0,0,0.07867151077909339,0,0)" xlink:href="#bC"/><use transform="matrix(0.07867151077909339,0,0,0.07867151077909339,9.361909782712113,0)" xlink:href="#bD"/><use transform="matrix(0.07867151077909339,0,0,0.07867151077909339,31.38993280085826,0)" xlink:href="#bp"/><use transform="matrix(0.07867151077909339,0,0,0.07867151077909339,47.124234956676936,0)" xlink:href="#aY"/><use transform="matrix(0.07867151077909339,0,0,0.07867151077909339,53.33928430822532,0)" xlink:href="#aV"/></g><g id="ab"><use transform="matrix(0.07867151077909339,0,0,0.07867151077909339,0,0)" xlink:href="#aZ"/><use transform="matrix(0.07867151077909339,0,0,0.07867151077909339,26.66964215411266,0)" xlink:href="#aM"/><use transform="matrix(0.07867151077909339,0,0,0.07867151077909339,32.88469150566104,0)" xlink:href="#bx"/><use transform="matrix(0.07867151077909339,0,0,0.07867151077909339,48.61899366147971,0)" xlink:href="#aR"/></g><path fill="#fff" d="M33-261c38 41 65 92 65 168S71 34 33 75H2C39 34 66-17 66-93S39-220 2-261h31" id="bE"/><g id="ac"><use transform="matrix(0.07867151077909339,0,0,0.07867151077909339,0,0)" xlink:href="#aL"/><use transform="matrix(0.07867151077909339,0,0,0.07867151077909339,7.867151077909338,0)" xlink:href="#aO"/><use transform="matrix(0.07867151077909339,0,0,0.07867151077909339,23.601453233728016,0)" xlink:href="#bd"/><use transform="matrix(0.07867151077909339,0,0,0.07867151077909339,32.96336301644013,0)" xlink:href="#br"/><use transform="matrix(0.07867151077909339,0,0,0.07867151077909339,56.48614473938904,0)" xlink:href="#aU"/><use transform="matrix(0.07867151077909339,0,0,0.07867151077909339,72.22044689520773,0)" xlink:href="#aN"/><use transform="matrix(0.07867151077909339,0,0,0.07867151077909339,80.08759797311707,0)" xlink:href="#bE"/></g><g id="ad"><use transform="matrix(0.07151955525372126,0,0,0.07151955525372126,0,0)" xlink:href="#aN"/><use transform="matrix(0.07151955525372126,0,0,0.07151955525372126,7.151955525372126,0)" xlink:href="#aM"/><use transform="matrix(0.07151955525372126,0,0,0.07151955525372126,12.802000390416106,0)" xlink:href="#bx"/><use transform="matrix(0.07151955525372126,0,0,0.07151955525372126,27.10591144116036,0)" xlink:href="#aV"/><use transform="matrix(0.07151955525372126,0,0,0.07151955525372126,39.979431386830186,0)" xlink:href="#aP"/><use transform="matrix(0.07151955525372126,0,0,0.07151955525372126,54.28334243757444,0)" xlink:href="#aU"/><use transform="matrix(0.07151955525372126,0,0,0.07151955525372126,68.5872534883187,0)" xlink:href="#aV"/><use transform="matrix(0.07151955525372126,0,0,0.07151955525372126,81.46077343398852,0)" xlink:href="#aR"/><use transform="matrix(0.07151955525372126,0,0,0.07151955525372126,95.76468448473277,0)" xlink:href="#aW"/></g><use transform="matrix(0.07151955525372126,0,0,0.07151955525372126,0,0)" xlink:href="#bz" id="ae"/><g id="af"><use transform="matrix(0.07151955525372126,0,0,0.07151955525372126,0,0)" xlink:href="#aX"/><use transform="matrix(0.07151955525372126,0,0,0.07151955525372126,14.303911050744253,0)" xlink:href="#aO"/><use transform="matrix(0.07151955525372126,0,0,0.07151955525372126,28.607822101488505,0)" xlink:href="#aW"/><use transform="matrix(0.07151955525372126,0,0,0.07151955525372126,41.481342047158336,0)" xlink:href="#aN"/><use transform="matrix(0.07151955525372126,0,0,0.07151955525372126,48.63329757253046,0)" xlink:href="#aR"/><use transform="matrix(0.07151955525372126,0,0,0.07151955525372126,62.937208623274714,0)" xlink:href="#bd"/><use transform="matrix(0.07151955525372126,0,0,0.07151955525372126,71.44803569846755,0)" xlink:href="#aM"/><use transform="matrix(0.07151955525372126,0,0,0.07151955525372126,77.09808056351153,0)" xlink:href="#aO"/><use transform="matrix(0.07151955525372126,0,0,0.07151955525372126,91.40199161425578,0)" xlink:href="#bd"/></g><path d="M39-94c74 12-11 154 75 146v23c-44 4-70-10-70-52C44-23 55-84 6-82v-22c81 4-7-162 84-157h24v23c-82-15-2 131-75 144" id="bF"/><path d="M76-40C78 24 84 88 6 75V52C86 64 9-79 80-94c-40-6-34-59-34-106 1-29-11-41-40-38v-23c44-4 70 10 70 52 0 47-12 108 38 105v22c-26 1-39 14-38 42" id="bG"/><g id="ag"><use transform="matrix(0.06436759972834913,0,0,0.06436759972834913,0,0)" xlink:href="#bF"/><use transform="matrix(0.06436759972834913,0,0,0.06436759972834913,7.724111967401895,0)" xlink:href="#aF"/><use transform="matrix(0.06436759972834913,0,0,0.06436759972834913,19.310279918504737,0)" xlink:href="#aJ"/><use transform="matrix(0.06436759972834913,0,0,0.06436759972834913,32.18379986417456,0)" xlink:href="#ao"/><use transform="matrix(0.06436759972834913,0,0,0.06436759972834913,45.05731980984439,0)" xlink:href="#at"/><use transform="matrix(0.06436759972834913,0,0,0.06436759972834913,50.14236018838397,0)" xlink:href="#ap"/><use transform="matrix(0.06436759972834913,0,0,0.06436759972834913,63.015880134053795,0)" xlink:href="#as"/><use transform="matrix(0.06436759972834913,0,0,0.06436759972834913,74.60204808515664,0)" xlink:href="#bG"/></g><use transform="matrix(0.06436759972834913,0,0,0.06436759972834913,0,0)" xlink:href="#aD" id="ah"/><g id="ai"><use transform="matrix(0.06436759972834913,0,0,0.06436759972834913,0,0)" xlink:href="#bF"/><use transform="matrix(0.06436759972834913,0,0,0.06436759972834913,7.724111967401895,0)" xlink:href="#at"/><use transform="matrix(0.06436759972834913,0,0,0.06436759972834913,12.809152345941477,0)" xlink:href="#an"/><use transform="matrix(0.06436759972834913,0,0,0.06436759972834913,19.24591231877639,0)" xlink:href="#av"/><use transform="matrix(0.06436759972834913,0,0,0.06436759972834913,32.11943226444622,0)" xlink:href="#aA"/><use transform="matrix(0.06436759972834913,0,0,0.06436759972834913,39.779176632119764,0)" xlink:href="#ao"/><use transform="matrix(0.06436759972834913,0,0,0.06436759972834913,52.65269657778959,0)" xlink:href="#an"/><use transform="matrix(0.06436759972834913,0,0,0.06436759972834913,59.089456550624504,0)" xlink:href="#at"/><use transform="matrix(0.06436759972834913,0,0,0.06436759972834913,64.17449692916409,0)" xlink:href="#aH"/><use transform="matrix(0.06436759972834913,0,0,0.06436759972834913,77.04801687483392,0)" xlink:href="#ap"/><use transform="matrix(0.06436759972834913,0,0,0.06436759972834913,89.92153682050375,0)" xlink:href="#as"/><use transform="matrix(0.06436759972834913,0,0,0.06436759972834913,101.50770477160658,0)" xlink:href="#bG"/></g><g id="aj"><use transform="matrix(0.06436759972834913,0,0,0.06436759972834913,0,0)" xlink:href="#bF"/><use transform="matrix(0.06436759972834913,0,0,0.06436759972834913,7.724111967401895,0)" xlink:href="#as"/><use transform="matrix(0.06436759972834913,0,0,0.06436759972834913,19.310279918504737,0)" xlink:href="#bm"/><use transform="matrix(0.06436759972834913,0,0,0.06436759972834913,32.18379986417456,0)" xlink:href="#au"/><use transform="matrix(0.06436759972834913,0,0,0.06436759972834913,45.05731980984439,0)" xlink:href="#bi"/><use transform="matrix(0.06436759972834913,0,0,0.06436759972834913,50.14236018838397,0)" xlink:href="#av"/><use transform="matrix(0.06436759972834913,0,0,0.06436759972834913,63.015880134053795,0)" xlink:href="#aF"/><use transform="matrix(0.06436759972834913,0,0,0.06436759972834913,74.60204808515664,0)" xlink:href="#an"/><use transform="matrix(0.06436759972834913,0,0,0.06436759972834913,81.03880805799155,0)" xlink:href="#as"/></g><path d="M118-107v75H92v-75H18v-26h74v-75h26v75h74v26h-74" id="bH"/><use transform="matrix(0.06436759972834913,0,0,0.06436759972834913,0,0)" xlink:href="#bH" id="ak"/><g id="al"><use transform="matrix(0.06436759972834913,0,0,0.06436759972834913,0,0)" xlink:href="#aH"/><use transform="matrix(0.06436759972834913,0,0,0.06436759972834913,12.873519945669825,0)" xlink:href="#au"/><use transform="matrix(0.06436759972834913,0,0,0.06436759972834913,25.74703989133965,0)" xlink:href="#as"/><use transform="matrix(0.06436759972834913,0,0,0.06436759972834913,37.33320784244249,0)" xlink:href="#av"/><use transform="matrix(0.06436759972834913,0,0,0.06436759972834913,50.20672778811232,0)" xlink:href="#aA"/><use transform="matrix(0.06436759972834913,0,0,0.06436759972834913,57.866472155785864,0)" xlink:href="#bk"/><use transform="matrix(0.06436759972834913,0,0,0.06436759972834913,69.45264010688871,0)" xlink:href="#ao"/><use transform="matrix(0.06436759972834913,0,0,0.06436759972834913,82.32616005255854,0)" xlink:href="#an"/><use transform="matrix(0.06436759972834913,0,0,0.06436759972834913,88.76292002539344,0)" xlink:href="#at"/><use transform="matrix(0.06436759972834913,0,0,0.06436759972834913,93.84796040393303,0)" xlink:href="#aH"/><use transform="matrix(0.06436759972834913,0,0,0.06436759972834913,106.72148034960286,0)" xlink:href="#ap"/><use transform="matrix(0.06436759972834913,0,0,0.06436759972834913,119.59500029527268,0)" xlink:href="#as"/><use transform="matrix(0.06436759972834913,0,0,0.06436759972834913,131.18116824637553,0)" xlink:href="#bG"/></g></defs></g></svg>