<svg xmlns="http://www.w3.org/2000/svg" xmlns:xlink="http://www.w3.org/1999/xlink" xmlns:lucid="lucid" width="1473.87" height="849.87"><g transform="translate(0 0)" lucid:page-tab-id="m-5o7ONTd-nK"><path d="M0 0h1473.87v849.87H0z" fill="#fff"/><path d="M23.17 75.22V23.17h634v52.05z" stroke="#666" stroke-width="2" fill-opacity="0"/><path d="M657.17 23.17h547.8v52.05h-547.8z" stroke="#666" stroke-width="2" fill-opacity="0"/><path d="M657.17 440.27h-634V75.22h634z" stroke="#666" stroke-width="2" fill="none"/><path d="M1204.96 75.22v365.05h-547.8V75.22z" stroke="#666" stroke-width="2" fill="none"/><use xlink:href="#a" transform="matrix(1,0,0,1,23.172335902205646,23.1723359022061) translate(242.4747532422581 32.67470398913397)"/><use xlink:href="#b" transform="matrix(1,0,0,1,23.172335902205646,23.1723359022061) translate(314.51296644882103 32.67470398913397)"/><use xlink:href="#c" transform="matrix(1,0,0,1,657.1697275870496,23.1723359022061) translate(200.3323510185267 32.67470398913397)"/><path d="M46.34 160.75h152c4.42 0 8 3.58 8 8v104c0 4.42-3.58 8-8 8h-144c-4.4 0-8-3.58-8-8zm16 0v120m-16-104h160" stroke="#000" stroke-opacity="0" stroke-width="2" fill="#019280"/><use xlink:href="#d" transform="matrix(1,0,0,1,67.34467180441126,181.7502304146975) translate(12.977 26.365395104378898)"/><use xlink:href="#e" transform="matrix(1,0,0,1,67.34467180441126,181.7502304146975) translate(12.977 60.351487760947236)"/><use xlink:href="#f" transform="matrix(1,0,0,1,67.34467180441126,181.7502304146975) translate(42.79350258527639 60.351487760947236)"/><g fill="none"><path d="M56.62 416.98c-4.42 0-8-3.58-8-8V294.6c0-4.4 3.58-8 8-8h145.45c4.42 0 8 3.6 8 8V409c0 4.42-3.58 8-8 8z"/><path d="M210.07 286.6c0 5.58-4.52 10.1-10.1 10.1h-60.54c-5.57 0-10.1 4.52-10.1 10.1 0-5.58-4.5-10.1-10.08-10.1H58.7c-5.56 0-10.08-4.52-10.08-10.1" stroke="#000" stroke-width="2"/></g><use xlink:href="#g" transform="matrix(1,0,0,1,53.61994532579442,321.88030537567107) translate(31.40040534377943 20.186105530457382)"/><use xlink:href="#h" transform="matrix(1,0,0,1,53.61994532579442,321.88030537567107) translate(110.30077869968471 20.186105530457382)"/><use xlink:href="#i" transform="matrix(1,0,0,1,53.61994532579442,321.88030537567107) translate(19.442335705357227 44.903263826143444)"/><use xlink:href="#h" transform="matrix(1,0,0,1,53.61994532579442,321.88030537567107) translate(122.2588483381069 44.903263826143444)"/><use xlink:href="#j" transform="matrix(1,0,0,1,53.61994532579442,321.88030537567107) translate(25.964919144496616 69.62042212182952)"/><use xlink:href="#k" transform="matrix(1,0,0,1,53.61994532579442,321.88030537567107) translate(114.01979557287821 69.62042212182952)"/><use xlink:href="#l" transform="matrix(1,0,0,1,53.61994532579442,321.88030537567107) translate(14.264319904987811 94.3375804175156)"/><path d="M136.83 682.25c0-4.42 3.58-8 8-8h144c4.42 0 8 3.58 8 8v30.34c0 4.4-3.58 8-8 8h-144c-4.42 0-8-3.6-8-8z" stroke="#000" stroke-opacity="0" stroke-width="2" fill="#019280"/><use xlink:href="#m" transform="matrix(1,0,0,1,141.82766409784068,679.2494011703984) translate(48.537764556123136 22.498605530457382)"/><path d="M365.48 682.25c0-4.42 3.58-8 8-8h144c4.42 0 8 3.58 8 8v30.34c0 4.4-3.58 8-8 8h-144c-4.42 0-8-3.6-8-8z" stroke="#000" stroke-opacity="0" stroke-width="2" fill="#019280"/><use xlink:href="#n" transform="matrix(1,0,0,1,370.47946779892743,679.2494011703984) translate(35.57842114414885 22.498605530457382)"/><path d="M667.6 785.46c0-4.42 3.57-8 8-8h144c4.4 0 8 3.58 8 8v30.34c0 4.42-3.6 8-8 8h-144c-4.43 0-8-3.58-8-8z" stroke="#000" stroke-opacity="0" stroke-width="2" fill="#019280"/><use xlink:href="#o" transform="matrix(1,0,0,1,672.5850385331784,782.4557525395194) translate(57.29175811917861 22.498605530457382)"/><path d="M482.2 785.46c0-4.42 3.6-8 8-8h144c4.42 0 8 3.58 8 8v30.34c0 4.42-3.58 8-8 8h-144c-4.4 0-8-3.58-8-8z" stroke="#000" stroke-opacity="0" stroke-width="2" fill="#019280"/><use xlink:href="#p" transform="matrix(1,0,0,1,487.20635131548636,782.4557525395194) translate(37.294890470238144 22.498605530457382)"/><path d="M562.45 704.42c0-4.42 3.58-8 8-8h144c4.42 0 8 3.58 8 8v30.35c0 4.4-3.58 8-8 8h-144c-4.42 0-8-3.6-8-8z" stroke="#000" stroke-opacity="0" stroke-width="2" fill="#019280"/><use xlink:href="#q" transform="matrix(1,0,0,1,567.45012417608,701.4217370189235) translate(61.29685321338701 22.498605530457382)"/><path d="M850.76 751.77c0-4.42 3.58-8 8-8h144c4.42 0 8 3.58 8 8v30.34c0 4.43-3.58 8-8 8h-144c-4.42 0-8-3.57-8-8z" stroke="#000" stroke-opacity="0" stroke-width="2" fill="#019280"/><use xlink:href="#r" transform="matrix(1,0,0,1,855.757374435384,748.7664088770157) translate(33.31840319813125 22.498605530457382)"/><use xlink:href="#s" transform="matrix(1,0,0,1,855.757374435384,748.7664088770157) translate(83.55373880834506 22.498605530457382)"/><path d="M764.7 673.85c0-4.42 3.57-8 8-8h331.57c4.42 0 8 3.58 8 8V721c0 4.4-3.58 8-8 8H772.7c-4.43 0-8-3.6-8-8z" stroke="#000" stroke-opacity="0" stroke-width="2" fill="#019280"/><g><use xlink:href="#t" transform="matrix(1,0,0,1,769.687084772834,670.8505787769179) translate(49.59095054838701 23.561105530457382)"/><use xlink:href="#u" transform="matrix(1,0,0,1,769.687084772834,670.8505787769179) translate(120.48113371587552 23.561105530457382)"/><use xlink:href="#v" transform="matrix(1,0,0,1,769.687084772834,670.8505787769179) translate(194.74703989133965 23.561105530457382)"/><use xlink:href="#w" transform="matrix(1,0,0,1,769.687084772834,670.8505787769179) translate(123.88546454595266 48.278263826143444)"/></g><path d="M278.07 777.06c0-4.42 3.58-8 8-8h144c4.42 0 8 3.58 8 8v47.14c0 4.42-3.58 8-8 8h-144c-4.42 0-8-3.58-8-8z" stroke="#000" stroke-opacity="0" stroke-width="2" fill="#019280"/><g><use xlink:href="#x" transform="matrix(1,0,0,1,283.06803082651464,774.0569301460389) translate(32.746246756101485 23.561105530457382)"/><use xlink:href="#y" transform="matrix(1,0,0,1,283.06803082651464,774.0569301460389) translate(52.71450658294046 48.278263826143444)"/></g><path d="M385.1 512.85c0-4.42 3.58-8 8-8h157.25c4.42 0 8 3.58 8 8v121.3c0 4.4-3.58 8-8 8H393.1c-4.42 0-8-3.6-8-8z" stroke="#000" stroke-opacity="0" stroke-width="2" fill="#de5f85"/><g><use xlink:href="#z" transform="matrix(1,0,0,1,390.0937906808905,509.8520574005332) translate(61.40236808692828 24.186105530457382)"/><use xlink:href="#A" transform="matrix(1,0,0,1,390.0937906808905,509.8520574005332) translate(31.13529230355343 48.903263826143444)"/><use xlink:href="#B" transform="matrix(1,0,0,1,390.0937906808905,509.8520574005332) translate(35.741151661893085 73.62042212182952)"/><use xlink:href="#C" transform="matrix(1,0,0,1,390.0937906808905,509.8520574005332) translate(82.54354861992829 73.62042212182952)"/><use xlink:href="#D" transform="matrix(1,0,0,1,390.0937906808905,509.8520574005332) translate(51.790139860828134 98.3375804175156)"/><use xlink:href="#E" transform="matrix(1,0,0,1,390.0937906808905,509.8520574005332) translate(36.799641079648154 123.05473871320166)"/></g><path d="M722.45 529.5c0-4.4 3.58-8 8-8H887.7c4.43 0 8 3.6 8 8v121.3c0 4.42-3.57 8-8 8H730.46c-4.42 0-8-3.58-8-8z" stroke="#000" stroke-opacity="0" stroke-width="2" fill="#b391b5"/><g><use xlink:href="#z" transform="matrix(1,0,0,1,727.45012417608,526.5073857571641) translate(61.40236808692828 24.186105530457382)"/><use xlink:href="#A" transform="matrix(1,0,0,1,727.45012417608,526.5073857571641) translate(31.13529230355343 48.903263826143444)"/><use xlink:href="#B" transform="matrix(1,0,0,1,727.45012417608,526.5073857571641) translate(14.02781468686332 73.62042212182952)"/><use xlink:href="#F" transform="matrix(1,0,0,1,727.45012417608,526.5073857571641) translate(60.83021164489851 73.62042212182952)"/><use xlink:href="#C" transform="matrix(1,0,0,1,727.45012417608,526.5073857571641) translate(104.25688559495806 73.62042212182952)"/><use xlink:href="#D" transform="matrix(1,0,0,1,727.45012417608,526.5073857571641) translate(51.790139860828134 98.3375804175156)"/><use xlink:href="#E" transform="matrix(1,0,0,1,727.45012417608,526.5073857571641) translate(36.799641079648154 123.05473871320166)"/></g><defs><path d="M185-189c-5-48-123-54-124 2 14 75 158 14 163 119 3 78-121 87-175 55-17-10-28-26-33-46l33-7c5 56 141 63 141-1 0-78-155-14-162-118-5-82 145-84 179-34 5 7 8 16 11 25" id="G"/><path d="M59-47c-2 24 18 29 38 22v24C64 9 27 4 27-40v-127H5v-23h24l9-43h21v43h35v23H59v120" id="H"/><path d="M141-36C126-15 110 5 73 4 37 3 15-17 15-53c-1-64 63-63 125-63 3-35-9-54-41-54-24 1-41 7-42 31l-33-3c5-37 33-52 76-52 45 0 72 20 72 64v82c-1 20 7 32 28 27v20c-31 9-61-2-59-35zM48-53c0 20 12 33 32 33 41-3 63-29 60-74-43 2-92-5-92 41" id="I"/><path d="M117-194c89-4 53 116 60 194h-32v-121c0-31-8-49-39-48C34-167 62-67 57 0H25l-1-190h30c1 10-1 24 2 32 11-22 29-35 61-36" id="J"/><g id="a"><use transform="matrix(0.08575977762686063,0,0,0.08575977762686063,0,0)" xlink:href="#G"/><use transform="matrix(0.08575977762686063,0,0,0.08575977762686063,20.58234663044655,0)" xlink:href="#H"/><use transform="matrix(0.08575977762686063,0,0,0.08575977762686063,29.15832439313262,0)" xlink:href="#I"/><use transform="matrix(0.08575977762686063,0,0,0.08575977762686063,46.31027991850475,0)" xlink:href="#J"/></g><path d="M212-179c-10-28-35-45-73-45-59 0-87 40-87 99 0 60 29 101 89 101 43 0 62-24 78-52l27 14C228-24 195 4 139 4 59 4 22-46 18-125c-6-104 99-153 187-111 19 9 31 26 39 46" id="K"/><path d="M24 0v-261h32V0H24" id="L"/><path d="M135-143c-3-34-86-38-87 0 15 53 115 12 119 90S17 21 10-45l28-5c4 36 97 45 98 0-10-56-113-15-118-90-4-57 82-63 122-42 12 7 21 19 24 35" id="M"/><g id="b"><use transform="matrix(0.08575977762686063,0,0,0.08575977762686063,0,0)" xlink:href="#K"/><use transform="matrix(0.08575977762686063,0,0,0.08575977762686063,22.211782405356903,0)" xlink:href="#L"/><use transform="matrix(0.08575977762686063,0,0,0.08575977762686063,28.986804837878893,0)" xlink:href="#I"/><use transform="matrix(0.08575977762686063,0,0,0.08575977762686063,46.13876036325103,0)" xlink:href="#M"/><use transform="matrix(0.08575977762686063,0,0,0.08575977762686063,61.575520336085944,0)" xlink:href="#M"/></g><path d="M85-194c31 0 48 13 60 33l-1-100h32l1 261h-30c-2-10 0-23-3-31C134-8 116 4 85 4 32 4 16-35 15-94c0-66 23-100 70-100zm9 24c-40 0-46 34-46 75 0 40 6 74 45 74 42 0 51-32 51-76 0-42-9-74-50-73" id="N"/><path d="M33 0v-38h34V0H33" id="O"/><path d="M101-234c-31-9-42 10-38 44h38v23H63V0H32v-167H5v-23h27c-7-52 17-82 69-68v24" id="P"/><path d="M114-163C36-179 61-72 57 0H25l-1-190h30c1 12-1 29 2 39 6-27 23-49 58-41v29" id="Q"/><path d="M210-169c-67 3-38 105-44 169h-31v-121c0-29-5-50-35-48C34-165 62-65 56 0H25l-1-190h30c1 10-1 24 2 32 10-44 99-50 107 0 11-21 27-35 58-36 85-2 47 119 55 194h-31v-121c0-29-5-49-35-48" id="R"/><path d="M100-194c63 0 86 42 84 106H49c0 40 14 67 53 68 26 1 43-12 49-29l28 8c-11 28-37 45-77 45C44 4 14-33 15-96c1-61 26-98 85-98zm52 81c6-60-76-77-97-28-3 7-6 17-6 28h103" id="S"/><g id="c"><use transform="matrix(0.08575977762686063,0,0,0.08575977762686063,0,0)" xlink:href="#N"/><use transform="matrix(0.08575977762686063,0,0,0.08575977762686063,17.151955525372127,0)" xlink:href="#I"/><use transform="matrix(0.08575977762686063,0,0,0.08575977762686063,34.303911050744254,0)" xlink:href="#H"/><use transform="matrix(0.08575977762686063,0,0,0.08575977762686063,42.87988881343032,0)" xlink:href="#I"/><use transform="matrix(0.08575977762686063,0,0,0.08575977762686063,60.031844338802436,0)" xlink:href="#O"/><use transform="matrix(0.08575977762686063,0,0,0.08575977762686063,68.60782210148851,0)" xlink:href="#P"/><use transform="matrix(0.08575977762686063,0,0,0.08575977762686063,77.18379986417457,0)" xlink:href="#Q"/><use transform="matrix(0.08575977762686063,0,0,0.08575977762686063,87.38921340177099,0)" xlink:href="#I"/><use transform="matrix(0.08575977762686063,0,0,0.08575977762686063,104.54116892714312,0)" xlink:href="#R"/><use transform="matrix(0.08575977762686063,0,0,0.08575977762686063,130.18334243757445,0)" xlink:href="#S"/></g><path fill="#fff" d="M30-248c87 1 191-15 191 75 0 78-77 80-158 76V0H30v-248zm33 125c57 0 124 11 124-50 0-59-68-47-124-48v98" id="T"/><path fill="#fff" d="M141-36C126-15 110 5 73 4 37 3 15-17 15-53c-1-64 63-63 125-63 3-35-9-54-41-54-24 1-41 7-42 31l-33-3c5-37 33-52 76-52 45 0 72 20 72 64v82c-1 20 7 32 28 27v20c-31 9-61-2-59-35zM48-53c0 20 12 33 32 33 41-3 63-29 60-74-43 2-92-5-92 41" id="U"/><path fill="#fff" d="M114-163C36-179 61-72 57 0H25l-1-190h30c1 12-1 29 2 39 6-27 23-49 58-41v29" id="V"/><path fill="#fff" d="M100-194c63 0 86 42 84 106H49c0 40 14 67 53 68 26 1 43-12 49-29l28 8c-11 28-37 45-77 45C44 4 14-33 15-96c1-61 26-98 85-98zm52 81c6-60-76-77-97-28-3 7-6 17-6 28h103" id="W"/><path fill="#fff" d="M117-194c89-4 53 116 60 194h-32v-121c0-31-8-49-39-48C34-167 62-67 57 0H25l-1-190h30c1 10-1 24 2 32 11-22 29-35 61-36" id="X"/><path fill="#fff" d="M59-47c-2 24 18 29 38 22v24C64 9 27 4 27-40v-127H5v-23h24l9-43h21v43h35v23H59v120" id="Y"/><g id="d"><use transform="matrix(0.07867151077909339,0,0,0.07867151077909339,0,0)" xlink:href="#T"/><use transform="matrix(0.07867151077909339,0,0,0.07867151077909339,18.881162586982413,0)" xlink:href="#U"/><use transform="matrix(0.07867151077909339,0,0,0.07867151077909339,34.61546474280109,0)" xlink:href="#V"/><use transform="matrix(0.07867151077909339,0,0,0.07867151077909339,43.97737452551319,0)" xlink:href="#W"/><use transform="matrix(0.07867151077909339,0,0,0.07867151077909339,59.71167668133187,0)" xlink:href="#X"/><use transform="matrix(0.07867151077909339,0,0,0.07867151077909339,75.44597883715055,0)" xlink:href="#Y"/></g><path fill="#fff" d="M101-234c-31-9-42 10-38 44h38v23H63V0H32v-167H5v-23h27c-7-52 17-82 69-68v24" id="Z"/><path fill="#fff" d="M24-231v-30h32v30H24zM24 0v-190h32V0H24" id="aa"/><g id="e"><use transform="matrix(0.07867151077909339,0,0,0.07867151077909339,0,0)" xlink:href="#Z"/><use transform="matrix(0.07867151077909339,0,0,0.07867151077909339,7.867151077909338,0)" xlink:href="#aa"/><use transform="matrix(0.07867151077909339,0,0,0.07867151077909339,14.082200429457716,0)" xlink:href="#Y"/></g><path fill="#fff" d="M100-194c62-1 85 37 85 99 1 63-27 99-86 99S16-35 15-95c0-66 28-99 85-99zM99-20c44 1 53-31 53-75 0-43-8-75-51-75s-53 32-53 75 10 74 51 75" id="ab"/><path fill="#fff" d="M115-194c53 0 69 39 70 98 0 66-23 100-70 100C84 3 66-7 56-30L54 0H23l1-261h32v101c10-23 28-34 59-34zm-8 174c40 0 45-34 45-75 0-40-5-75-45-74-42 0-51 32-51 76 0 43 10 73 51 73" id="ac"/><path fill="#fff" d="M24-231v-30h32v30H24zM-9 49c24 4 33-6 33-30v-209h32V24c2 40-23 58-65 49V49" id="ad"/><path fill="#fff" d="M96-169c-40 0-48 33-48 73s9 75 48 75c24 0 41-14 43-38l32 2c-6 37-31 61-74 61-59 0-76-41-82-99-10-93 101-131 147-64 4 7 5 14 7 22l-32 3c-4-21-16-35-41-35" id="ae"/><g id="f"><use transform="matrix(0.07867151077909339,0,0,0.07867151077909339,0,0)" xlink:href="#ab"/><use transform="matrix(0.07867151077909339,0,0,0.07867151077909339,15.734302155818677,0)" xlink:href="#ac"/><use transform="matrix(0.07867151077909339,0,0,0.07867151077909339,31.468604311637353,0)" xlink:href="#ad"/><use transform="matrix(0.07867151077909339,0,0,0.07867151077909339,37.68365366318573,0)" xlink:href="#W"/><use transform="matrix(0.07867151077909339,0,0,0.07867151077909339,53.4179558190044,0)" xlink:href="#ae"/><use transform="matrix(0.07867151077909339,0,0,0.07867151077909339,67.57882775924122,0)" xlink:href="#Y"/></g><path d="M39-94c74 12-11 154 75 146v23c-44 4-70-10-70-52C44-23 55-84 6-82v-22c81 4-7-162 84-157h24v23c-82-15-2 131-75 144" id="af"/><path d="M96-169c-40 0-48 33-48 73s9 75 48 75c24 0 41-14 43-38l32 2c-6 37-31 61-74 61-59 0-76-41-82-99-10-93 101-131 147-64 4 7 5 14 7 22l-32 3c-4-21-16-35-41-35" id="ag"/><path d="M106-169C34-169 62-67 57 0H25v-261h32l-1 103c12-21 28-36 61-36 89 0 53 116 60 194h-32v-121c2-32-8-49-39-48" id="ah"/><path d="M24-231v-30h32v30H24zM24 0v-190h32V0H24" id="ai"/><path d="M76-40C78 24 84 88 6 75V52C86 64 9-79 80-94c-40-6-34-59-34-106 1-29-11-41-40-38v-23c44-4 70 10 70 52 0 47-12 108 38 105v22c-26 1-39 14-38 42" id="aj"/><g id="g"><use transform="matrix(0.057215644202977006,0,0,0.057215644202977006,0,0)" xlink:href="#af"/><use transform="matrix(0.057215644202977006,0,0,0.057215644202977006,6.865877304357241,0)" xlink:href="#ag"/><use transform="matrix(0.057215644202977006,0,0,0.057215644202977006,17.164693260893102,0)" xlink:href="#ah"/><use transform="matrix(0.057215644202977006,0,0,0.057215644202977006,28.6078221014885,0)" xlink:href="#I"/><use transform="matrix(0.057215644202977006,0,0,0.057215644202977006,40.0509509420839,0)" xlink:href="#ai"/><use transform="matrix(0.057215644202977006,0,0,0.057215644202977006,44.57098683411908,0)" xlink:href="#J"/><use transform="matrix(0.057215644202977006,0,0,0.057215644202977006,56.01411567471448,0)" xlink:href="#M"/><use transform="matrix(0.057215644202977006,0,0,0.057215644202977006,66.31293163125034,0)" xlink:href="#aj"/></g><path d="M141 0L90-78 38 0H4l68-98-65-92h35l48 74 47-74h35l-64 92 68 98h-35" id="ak"/><use transform="matrix(0.057215644202977006,0,0,0.057215644202977006,0,0)" xlink:href="#ak" id="h"/><path d="M100-194c62-1 85 37 85 99 1 63-27 99-86 99S16-35 15-95c0-66 28-99 85-99zM99-20c44 1 53-31 53-75 0-43-8-75-51-75s-53 32-53 75 10 74 51 75" id="al"/><g id="i"><use transform="matrix(0.057215644202977006,0,0,0.057215644202977006,0,0)" xlink:href="#af"/><use transform="matrix(0.057215644202977006,0,0,0.057215644202977006,6.865877304357241,0)" xlink:href="#ai"/><use transform="matrix(0.057215644202977006,0,0,0.057215644202977006,11.385913196392424,0)" xlink:href="#H"/><use transform="matrix(0.057215644202977006,0,0,0.057215644202977006,17.107477616690126,0)" xlink:href="#S"/><use transform="matrix(0.057215644202977006,0,0,0.057215644202977006,28.550606457285525,0)" xlink:href="#Q"/><use transform="matrix(0.057215644202977006,0,0,0.057215644202977006,35.35926811743979,0)" xlink:href="#I"/><use transform="matrix(0.057215644202977006,0,0,0.057215644202977006,46.80239695803519,0)" xlink:href="#H"/><use transform="matrix(0.057215644202977006,0,0,0.057215644202977006,52.52396137833289,0)" xlink:href="#ai"/><use transform="matrix(0.057215644202977006,0,0,0.057215644202977006,57.043997270368074,0)" xlink:href="#al"/><use transform="matrix(0.057215644202977006,0,0,0.057215644202977006,68.48712611096347,0)" xlink:href="#J"/><use transform="matrix(0.057215644202977006,0,0,0.057215644202977006,79.93025495155888,0)" xlink:href="#M"/><use transform="matrix(0.057215644202977006,0,0,0.057215644202977006,90.22907090809474,0)" xlink:href="#aj"/></g><path d="M84 4C-5 8 30-112 23-190h32v120c0 31 7 50 39 49 72-2 45-101 50-169h31l1 190h-30c-1-10 1-25-2-33-11 22-28 36-60 37" id="am"/><path d="M115-194c53 0 69 39 70 98 0 66-23 100-70 100C84 3 66-7 56-30L54 0H23l1-261h32v101c10-23 28-34 59-34zm-8 174c40 0 45-34 45-75 0-40-5-75-45-74-42 0-51 32-51 76 0 43 10 73 51 73" id="an"/><path d="M24-231v-30h32v30H24zM-9 49c24 4 33-6 33-30v-209h32V24c2 40-23 58-65 49V49" id="ao"/><g id="j"><use transform="matrix(0.057215644202977006,0,0,0.057215644202977006,0,0)" xlink:href="#af"/><use transform="matrix(0.057215644202977006,0,0,0.057215644202977006,6.865877304357241,0)" xlink:href="#M"/><use transform="matrix(0.057215644202977006,0,0,0.057215644202977006,17.164693260893102,0)" xlink:href="#am"/><use transform="matrix(0.057215644202977006,0,0,0.057215644202977006,28.6078221014885,0)" xlink:href="#an"/><use transform="matrix(0.057215644202977006,0,0,0.057215644202977006,40.0509509420839,0)" xlink:href="#ao"/><use transform="matrix(0.057215644202977006,0,0,0.057215644202977006,44.57098683411908,0)" xlink:href="#S"/><use transform="matrix(0.057215644202977006,0,0,0.057215644202977006,56.01411567471448,0)" xlink:href="#ag"/><use transform="matrix(0.057215644202977006,0,0,0.057215644202977006,66.31293163125034,0)" xlink:href="#H"/><use transform="matrix(0.057215644202977006,0,0,0.057215644202977006,72.03449605154803,0)" xlink:href="#M"/></g><path d="M118-107v75H92v-75H18v-26h74v-75h26v75h74v26h-74" id="ap"/><use transform="matrix(0.057215644202977006,0,0,0.057215644202977006,0,0)" xlink:href="#ap" id="k"/><path d="M108 0H70L1-190h34L89-25l56-165h34" id="aq"/><g id="l"><use transform="matrix(0.057215644202977006,0,0,0.057215644202977006,0,0)" xlink:href="#al"/><use transform="matrix(0.057215644202977006,0,0,0.057215644202977006,11.443128840595401,0)" xlink:href="#an"/><use transform="matrix(0.057215644202977006,0,0,0.057215644202977006,22.886257681190802,0)" xlink:href="#M"/><use transform="matrix(0.057215644202977006,0,0,0.057215644202977006,33.18507363772666,0)" xlink:href="#S"/><use transform="matrix(0.057215644202977006,0,0,0.057215644202977006,44.62820247832206,0)" xlink:href="#Q"/><use transform="matrix(0.057215644202977006,0,0,0.057215644202977006,51.436864138476324,0)" xlink:href="#aq"/><use transform="matrix(0.057215644202977006,0,0,0.057215644202977006,61.73568009501219,0)" xlink:href="#I"/><use transform="matrix(0.057215644202977006,0,0,0.057215644202977006,73.17880893560759,0)" xlink:href="#H"/><use transform="matrix(0.057215644202977006,0,0,0.057215644202977006,78.90037335590529,0)" xlink:href="#ai"/><use transform="matrix(0.057215644202977006,0,0,0.057215644202977006,83.42040924794047,0)" xlink:href="#al"/><use transform="matrix(0.057215644202977006,0,0,0.057215644202977006,94.86353808853588,0)" xlink:href="#J"/><use transform="matrix(0.057215644202977006,0,0,0.057215644202977006,106.30666692913128,0)" xlink:href="#M"/><use transform="matrix(0.057215644202977006,0,0,0.057215644202977006,116.60548288566714,0)" xlink:href="#aj"/></g><path fill="#fff" d="M266 0h-40l-56-210L115 0H75L2-248h35L96-30l15-64 43-154h32l59 218 59-218h35" id="ar"/><path fill="#fff" d="M205 0l-28-72H64L36 0H1l101-248h38L239 0h-34zm-38-99l-47-123c-12 45-31 82-46 123h93" id="as"/><path fill="#fff" d="M33 0v-248h34V0H33" id="at"/><path fill="#fff" d="M212-179c-10-28-35-45-73-45-59 0-87 40-87 99 0 60 29 101 89 101 43 0 62-24 78-52l27 14C228-24 195 4 139 4 59 4 22-46 18-125c-6-104 99-153 187-111 19 9 31 26 39 46" id="au"/><g id="m"><use transform="matrix(0.057215644202977006,0,0,0.057215644202977006,0,0)" xlink:href="#ar"/><use transform="matrix(0.057215644202977006,0,0,0.057215644202977006,18.652300010170503,0)" xlink:href="#as"/><use transform="matrix(0.057215644202977006,0,0,0.057215644202977006,32.38405461888499,0)" xlink:href="#at"/><use transform="matrix(0.057215644202977006,0,0,0.057215644202977006,38.10561903918269,0)" xlink:href="#au"/></g><path fill="#fff" d="M115-194c55 1 70 41 70 98S169 2 115 4C84 4 66-9 55-30l1 105H24l-1-265h31l2 30c10-21 28-34 59-34zm-8 174c40 0 45-34 45-75s-6-73-45-74c-42 0-51 32-51 76 0 43 10 73 51 73" id="av"/><path fill="#fff" d="M24 0v-261h32V0H24" id="aw"/><g id="n"><use transform="matrix(0.057215644202977006,0,0,0.057215644202977006,0,0)" xlink:href="#Y"/><use transform="matrix(0.057215644202977006,0,0,0.057215644202977006,5.7215644202977005,0)" xlink:href="#V"/><use transform="matrix(0.057215644202977006,0,0,0.057215644202977006,12.530226080451964,0)" xlink:href="#U"/><use transform="matrix(0.057215644202977006,0,0,0.057215644202977006,23.973354921047367,0)" xlink:href="#ae"/><use transform="matrix(0.057215644202977006,0,0,0.057215644202977006,34.27217087758323,0)" xlink:href="#W"/><use transform="matrix(0.057215644202977006,0,0,0.057215644202977006,45.71529971817863,0)" xlink:href="#av"/><use transform="matrix(0.057215644202977006,0,0,0.057215644202977006,57.15842855877403,0)" xlink:href="#aw"/><use transform="matrix(0.057215644202977006,0,0,0.057215644202977006,61.678464450809216,0)" xlink:href="#ab"/><use transform="matrix(0.057215644202977006,0,0,0.057215644202977006,73.12159329140461,0)" xlink:href="#Y"/></g><path fill="#fff" d="M106-169C34-169 62-67 57 0H25v-261h32l-1 103c12-21 28-36 61-36 89 0 53 116 60 194h-32v-121c2-32-8-49-39-48" id="ax"/><g id="o"><use transform="matrix(0.057215644202977006,0,0,0.057215644202977006,0,0)" xlink:href="#V"/><use transform="matrix(0.057215644202977006,0,0,0.057215644202977006,6.8086616601542636,0)" xlink:href="#ax"/><use transform="matrix(0.057215644202977006,0,0,0.057215644202977006,18.251790500749664,0)" xlink:href="#U"/><use transform="matrix(0.057215644202977006,0,0,0.057215644202977006,29.69491934134506,0)" xlink:href="#Y"/></g><path fill="#fff" d="M16-82v-28h88v28H16" id="ay"/><path fill="#fff" d="M143 0L79-87 56-68V0H24v-261h32v163l83-92h37l-77 82L181 0h-38" id="az"/><g id="p"><use transform="matrix(0.057215644202977006,0,0,0.057215644202977006,0,0)" xlink:href="#av"/><use transform="matrix(0.057215644202977006,0,0,0.057215644202977006,11.443128840595401,0)" xlink:href="#U"/><use transform="matrix(0.057215644202977006,0,0,0.057215644202977006,22.886257681190802,0)" xlink:href="#V"/><use transform="matrix(0.057215644202977006,0,0,0.057215644202977006,29.694919341345066,0)" xlink:href="#W"/><use transform="matrix(0.057215644202977006,0,0,0.057215644202977006,41.13804818194047,0)" xlink:href="#Y"/><use transform="matrix(0.057215644202977006,0,0,0.057215644202977006,46.85961260223817,0)" xlink:href="#ab"/><use transform="matrix(0.057215644202977006,0,0,0.057215644202977006,58.30274144283357,0)" xlink:href="#ay"/><use transform="matrix(0.057215644202977006,0,0,0.057215644202977006,65.11140310298784,0)" xlink:href="#az"/></g><g id="q"><use transform="matrix(0.057215644202977006,0,0,0.057215644202977006,0,0)" xlink:href="#aw"/><use transform="matrix(0.057215644202977006,0,0,0.057215644202977006,4.5200358920351835,0)" xlink:href="#ab"/><use transform="matrix(0.057215644202977006,0,0,0.057215644202977006,15.963164732630585,0)" xlink:href="#ab"/></g><path fill="#fff" d="M135-143c-3-34-86-38-87 0 15 53 115 12 119 90S17 21 10-45l28-5c4 36 97 45 98 0-10-56-113-15-118-90-4-57 82-63 122-42 12 7 21 19 24 35" id="aA"/><g id="r"><use transform="matrix(0.057215644202977006,0,0,0.057215644202977006,0,0)" xlink:href="#av"/><use transform="matrix(0.057215644202977006,0,0,0.057215644202977006,11.443128840595401,0)" xlink:href="#U"/><use transform="matrix(0.057215644202977006,0,0,0.057215644202977006,22.886257681190802,0)" xlink:href="#aa"/><use transform="matrix(0.057215644202977006,0,0,0.057215644202977006,27.406293573225987,0)" xlink:href="#V"/><use transform="matrix(0.057215644202977006,0,0,0.057215644202977006,34.21495523338025,0)" xlink:href="#aA"/></g><g id="s"><use transform="matrix(0.057215644202977006,0,0,0.057215644202977006,0,0)" xlink:href="#av"/><use transform="matrix(0.057215644202977006,0,0,0.057215644202977006,11.443128840595401,0)" xlink:href="#aw"/><use transform="matrix(0.057215644202977006,0,0,0.057215644202977006,15.963164732630585,0)" xlink:href="#ab"/><use transform="matrix(0.057215644202977006,0,0,0.057215644202977006,27.406293573225987,0)" xlink:href="#Y"/></g><path fill="#fff" d="M84 4C-5 8 30-112 23-190h32v120c0 31 7 50 39 49 72-2 45-101 50-169h31l1 190h-30c-1-10 1-25-2-33-11 22-28 36-60 37" id="aB"/><g id="t"><use transform="matrix(0.057215644202977006,0,0,0.057215644202977006,0,0)" xlink:href="#aA"/><use transform="matrix(0.057215644202977006,0,0,0.057215644202977006,10.298815956535861,0)" xlink:href="#aB"/><use transform="matrix(0.057215644202977006,0,0,0.057215644202977006,21.74194479713126,0)" xlink:href="#ac"/><use transform="matrix(0.057215644202977006,0,0,0.057215644202977006,33.18507363772666,0)" xlink:href="#ad"/><use transform="matrix(0.057215644202977006,0,0,0.057215644202977006,37.70510952976184,0)" xlink:href="#W"/><use transform="matrix(0.057215644202977006,0,0,0.057215644202977006,49.14823837035724,0)" xlink:href="#ae"/><use transform="matrix(0.057215644202977006,0,0,0.057215644202977006,59.447054326893095,0)" xlink:href="#Y"/></g><g id="u"><use transform="matrix(0.057215644202977006,0,0,0.057215644202977006,0,0)" xlink:href="#aA"/><use transform="matrix(0.057215644202977006,0,0,0.057215644202977006,10.298815956535861,0)" xlink:href="#av"/><use transform="matrix(0.057215644202977006,0,0,0.057215644202977006,21.74194479713126,0)" xlink:href="#W"/><use transform="matrix(0.057215644202977006,0,0,0.057215644202977006,33.18507363772666,0)" xlink:href="#ae"/><use transform="matrix(0.057215644202977006,0,0,0.057215644202977006,43.48388959426252,0)" xlink:href="#aa"/><use transform="matrix(0.057215644202977006,0,0,0.057215644202977006,48.0039254862977,0)" xlink:href="#Z"/><use transform="matrix(0.057215644202977006,0,0,0.057215644202977006,53.725489906595406,0)" xlink:href="#aa"/><use transform="matrix(0.057215644202977006,0,0,0.057215644202977006,58.24552579863059,0)" xlink:href="#ae"/></g><path fill="#fff" d="M210-169c-67 3-38 105-44 169h-31v-121c0-29-5-50-35-48C34-165 62-65 56 0H25l-1-190h30c1 10-1 24 2 32 10-44 99-50 107 0 11-21 27-35 58-36 85-2 47 119 55 194h-31v-121c0-29-5-49-35-48" id="aC"/><g id="v"><use transform="matrix(0.057215644202977006,0,0,0.057215644202977006,0,0)" xlink:href="#av"/><use transform="matrix(0.057215644202977006,0,0,0.057215644202977006,11.443128840595401,0)" xlink:href="#U"/><use transform="matrix(0.057215644202977006,0,0,0.057215644202977006,22.886257681190802,0)" xlink:href="#V"/><use transform="matrix(0.057215644202977006,0,0,0.057215644202977006,29.694919341345066,0)" xlink:href="#U"/><use transform="matrix(0.057215644202977006,0,0,0.057215644202977006,41.13804818194047,0)" xlink:href="#aC"/><use transform="matrix(0.057215644202977006,0,0,0.057215644202977006,58.245525798630595,0)" xlink:href="#W"/><use transform="matrix(0.057215644202977006,0,0,0.057215644202977006,69.688654639226,0)" xlink:href="#Y"/><use transform="matrix(0.057215644202977006,0,0,0.057215644202977006,75.4102190595237,0)" xlink:href="#W"/><use transform="matrix(0.057215644202977006,0,0,0.057215644202977006,86.8533479001191,0)" xlink:href="#V"/></g><g id="w"><use transform="matrix(0.057215644202977006,0,0,0.057215644202977006,0,0)" xlink:href="#av"/><use transform="matrix(0.057215644202977006,0,0,0.057215644202977006,11.443128840595401,0)" xlink:href="#ab"/><use transform="matrix(0.057215644202977006,0,0,0.057215644202977006,22.886257681190802,0)" xlink:href="#aA"/><use transform="matrix(0.057215644202977006,0,0,0.057215644202977006,33.18507363772666,0)" xlink:href="#Y"/><use transform="matrix(0.057215644202977006,0,0,0.057215644202977006,38.90663805802436,0)" xlink:href="#W"/><use transform="matrix(0.057215644202977006,0,0,0.057215644202977006,50.34976689861976,0)" xlink:href="#V"/><use transform="matrix(0.057215644202977006,0,0,0.057215644202977006,57.15842855877403,0)" xlink:href="#aa"/><use transform="matrix(0.057215644202977006,0,0,0.057215644202977006,61.678464450809216,0)" xlink:href="#ab"/><use transform="matrix(0.057215644202977006,0,0,0.057215644202977006,73.12159329140461,0)" xlink:href="#V"/><use transform="matrix(0.057215644202977006,0,0,0.057215644202977006,79.93025495155887,0)" xlink:href="#aA"/></g><path fill="#fff" d="M179-190L93 31C79 59 56 82 12 73V49c39 6 53-20 64-50L1-190h34L92-34l54-156h33" id="aD"/><g id="x"><use transform="matrix(0.057215644202977006,0,0,0.057215644202977006,0,0)" xlink:href="#aA"/><use transform="matrix(0.057215644202977006,0,0,0.057215644202977006,10.298815956535861,0)" xlink:href="#aB"/><use transform="matrix(0.057215644202977006,0,0,0.057215644202977006,21.74194479713126,0)" xlink:href="#aC"/><use transform="matrix(0.057215644202977006,0,0,0.057215644202977006,38.84942241382139,0)" xlink:href="#aC"/><use transform="matrix(0.057215644202977006,0,0,0.057215644202977006,55.95690003051151,0)" xlink:href="#U"/><use transform="matrix(0.057215644202977006,0,0,0.057215644202977006,67.40002887110691,0)" xlink:href="#V"/><use transform="matrix(0.057215644202977006,0,0,0.057215644202977006,74.20869053126117,0)" xlink:href="#aD"/></g><g id="y"><use transform="matrix(0.057215644202977006,0,0,0.057215644202977006,0,0)" xlink:href="#Y"/><use transform="matrix(0.057215644202977006,0,0,0.057215644202977006,5.7215644202977005,0)" xlink:href="#U"/><use transform="matrix(0.057215644202977006,0,0,0.057215644202977006,17.164693260893102,0)" xlink:href="#ac"/><use transform="matrix(0.057215644202977006,0,0,0.057215644202977006,28.6078221014885,0)" xlink:href="#aw"/><use transform="matrix(0.057215644202977006,0,0,0.057215644202977006,33.12785799352368,0)" xlink:href="#W"/></g><g id="z"><use transform="matrix(0.057215644202977006,0,0,0.057215644202977006,0,0)" xlink:href="#T"/><use transform="matrix(0.057215644202977006,0,0,0.057215644202977006,13.731754608714482,0)" xlink:href="#ab"/><use transform="matrix(0.057215644202977006,0,0,0.057215644202977006,25.17488344930988,0)" xlink:href="#aA"/><use transform="matrix(0.057215644202977006,0,0,0.057215644202977006,35.47369940584574,0)" xlink:href="#Y"/></g><path fill="#fff" d="M177-190C167-65 218 103 67 71c-23-6-38-20-44-43l32-5c15 47 100 32 89-28v-30C133-14 115 1 83 1 29 1 15-40 15-95c0-56 16-97 71-98 29-1 48 16 59 35 1-10 0-23 2-32h30zM94-22c36 0 50-32 50-73 0-42-14-75-50-75-39 0-46 34-46 75s6 73 46 73" id="aE"/><g id="A"><use transform="matrix(0.057215644202977006,0,0,0.057215644202977006,0,0)" xlink:href="#T"/><use transform="matrix(0.057215644202977006,0,0,0.057215644202977006,13.731754608714482,0)" xlink:href="#V"/><use transform="matrix(0.057215644202977006,0,0,0.057215644202977006,20.540416268868746,0)" xlink:href="#ab"/><use transform="matrix(0.057215644202977006,0,0,0.057215644202977006,31.983545109464146,0)" xlink:href="#ae"/><use transform="matrix(0.057215644202977006,0,0,0.057215644202977006,42.28236106600001,0)" xlink:href="#W"/><use transform="matrix(0.057215644202977006,0,0,0.057215644202977006,53.725489906595406,0)" xlink:href="#aA"/><use transform="matrix(0.057215644202977006,0,0,0.057215644202977006,64.02430586313127,0)" xlink:href="#aA"/><use transform="matrix(0.057215644202977006,0,0,0.057215644202977006,74.32312181966714,0)" xlink:href="#aa"/><use transform="matrix(0.057215644202977006,0,0,0.057215644202977006,78.84315771170232,0)" xlink:href="#X"/><use transform="matrix(0.057215644202977006,0,0,0.057215644202977006,90.28628655229772,0)" xlink:href="#aE"/></g><g id="B"><use transform="matrix(0.057215644202977006,0,0,0.057215644202977006,0,0)" xlink:href="#ar"/><use transform="matrix(0.057215644202977006,0,0,0.057215644202977006,19.396103384809205,0)" xlink:href="#aa"/><use transform="matrix(0.057215644202977006,0,0,0.057215644202977006,23.91613927684439,0)" xlink:href="#Y"/><use transform="matrix(0.057215644202977006,0,0,0.057215644202977006,29.63770369714209,0)" xlink:href="#ax"/></g><g id="C"><use transform="matrix(0.057215644202977006,0,0,0.057215644202977006,0,0)" xlink:href="#V"/><use transform="matrix(0.057215644202977006,0,0,0.057215644202977006,6.8086616601542636,0)" xlink:href="#aA"/><use transform="matrix(0.057215644202977006,0,0,0.057215644202977006,17.107477616690126,0)" xlink:href="#Y"/><use transform="matrix(0.057215644202977006,0,0,0.057215644202977006,22.829042036987826,0)" xlink:href="#U"/><use transform="matrix(0.057215644202977006,0,0,0.057215644202977006,34.27217087758323,0)" xlink:href="#X"/></g><path fill="#fff" d="M63-220v92h138v28H63V0H30v-248h175v28H63" id="aF"/><g id="D"><use transform="matrix(0.057215644202977006,0,0,0.057215644202977006,0,0)" xlink:href="#aF"/><use transform="matrix(0.057215644202977006,0,0,0.057215644202977006,12.530226080451964,0)" xlink:href="#U"/><use transform="matrix(0.057215644202977006,0,0,0.057215644202977006,23.973354921047367,0)" xlink:href="#aC"/><use transform="matrix(0.057215644202977006,0,0,0.057215644202977006,41.08083253773749,0)" xlink:href="#aa"/><use transform="matrix(0.057215644202977006,0,0,0.057215644202977006,45.600868429772675,0)" xlink:href="#aw"/><use transform="matrix(0.057215644202977006,0,0,0.057215644202977006,50.120904321807856,0)" xlink:href="#aD"/></g><g id="E"><use transform="matrix(0.057215644202977006,0,0,0.057215644202977006,0,0)" xlink:href="#T"/><use transform="matrix(0.057215644202977006,0,0,0.057215644202977006,13.731754608714482,0)" xlink:href="#U"/><use transform="matrix(0.057215644202977006,0,0,0.057215644202977006,25.17488344930988,0)" xlink:href="#ae"/><use transform="matrix(0.057215644202977006,0,0,0.057215644202977006,35.47369940584574,0)" xlink:href="#az"/><use transform="matrix(0.057215644202977006,0,0,0.057215644202977006,45.772515362381604,0)" xlink:href="#U"/><use transform="matrix(0.057215644202977006,0,0,0.057215644202977006,57.215644202977,0)" xlink:href="#aE"/><use transform="matrix(0.057215644202977006,0,0,0.057215644202977006,68.65877304357241,0)" xlink:href="#W"/><use transform="matrix(0.057215644202977006,0,0,0.057215644202977006,80.10190188416782,0)" xlink:href="#aA"/></g><path fill="#fff" d="M190 0L58-211 59 0H30v-248h39L202-35l-2-213h31V0h-41" id="aG"/><g id="F"><use transform="matrix(0.057215644202977006,0,0,0.057215644202977006,0,0)" xlink:href="#aG"/><use transform="matrix(0.057215644202977006,0,0,0.057215644202977006,14.818851848571045,0)" xlink:href="#ab"/><use transform="matrix(0.057215644202977006,0,0,0.057215644202977006,26.261980689166446,0)" xlink:href="#X"/></g></defs></g></svg>