<svg xmlns="http://www.w3.org/2000/svg" xmlns:xlink="http://www.w3.org/1999/xlink" xmlns:lucid="lucid" width="1882.87" height="961.97"><g transform="translate(0 0)" lucid:page-tab-id="m-5o7ONTd-nK"><path d="M0 0h1882.87v961.97H0z" fill="#fff"/><path d="M23.17 79.36V27.3h634v52.06zM657.17 27.3h1212.68v52.06H657.17z" stroke="#666" stroke-width="2" fill-opacity="0"/><path d="M657.17 537.1h-634V79.36h634zM1869.85 79.36V537.1H657.17V79.36z" stroke="#666" stroke-width="2" fill="none"/><use xlink:href="#a" transform="matrix(1,0,0,1,23.172335902205646,27.310656391177815) translate(242.4747532422581 32.67470398913397)"/><use xlink:href="#b" transform="matrix(1,0,0,1,23.172335902205646,27.310656391177815) translate(314.51296644882103 32.67470398913397)"/><path d="M109.63 143.17h164.6c4.43 0 8 3.58 8 8v104c0 4.42-3.57 8-8 8h-156.6c-4.4 0-8-3.58-8-8zm17.26 0v120m-17.27-102.74h172.6" stroke="#000" stroke-opacity="0" stroke-width="2" fill="#019280"/><use xlink:href="#c" transform="matrix(1,0,0,1,131.89478382041057,165.43305973268568) translate(12.977 28.425158295686067)"/><use xlink:href="#d" transform="matrix(1,0,0,1,131.89478382041057,165.43305973268568) translate(45.50409372939244 28.425158295686067)"/><path d="M269.63 572.53c0-4.42 3.6-8 8-8h144c4.42 0 8 3.58 8 8v44c0 4.42-3.58 8-8 8h-144c-4.4 0-8-3.58-8-8z" stroke="#000" stroke-width="2" fill="#b391b5"/><use xlink:href="#e" transform="matrix(1,0,0,1,274.6340599899311,569.5328859683767) translate(25.969132009035345 28.495868721764552)"/><path d="M23.17 680.26c0-4.42 3.58-8 8-8h144c4.42 0 8 3.58 8 8v30.35c0 4.43-3.58 8-8 8h-144c-4.42 0-8-3.57-8-8z" stroke="#000" stroke-opacity="0" stroke-width="2" fill="#019280"/><use xlink:href="#f" transform="matrix(1,0,0,1,28.17233590220573,677.26273465157) translate(45.22998512563852 24.558368721764552)"/><path d="M109.63 757.6c0-4.42 3.6-8 8-8h144c4.42 0 8 3.58 8 8v30.34c0 4.42-3.58 8-8 8h-144c-4.4 0-8-3.58-8-8z" stroke="#000" stroke-opacity="0" stroke-width="2" fill="#019280"/><use xlink:href="#g" transform="matrix(1,0,0,1,114.63405998993113,754.5969472696663) translate(30.650723787167447 24.558368721764552)"/><path d="M269.63 814.33c0-4.42 3.6-8 8-8h144c4.42 0 8 3.58 8 8v30.34c0 4.42-3.58 8-8 8h-144c-4.4 0-8-3.58-8-8z" stroke="#000" stroke-opacity="0" stroke-width="2" fill="#019280"/><use xlink:href="#h" transform="matrix(1,0,0,1,274.6340599899777,811.3297778636731) translate(55.07822788407594 24.558368721764552)"/><path d="M48.55 833.7c0-4.43 3.58-8 8-8h144c4.42 0 8 3.57 8 8v30.33c0 4.42-3.58 8-8 8h-144c-4.42 0-8-3.58-8-8z" stroke="#000" stroke-opacity="0" stroke-width="2" fill="#019280"/><use xlink:href="#i" transform="matrix(1,0,0,1,53.55102311989776,830.6870848264696) translate(32.58175177901792 24.558368721764552)"/><path d="M208.55 681.5c0-4.4 3.58-8 8-8h144c4.42 0 8 3.6 8 8v30.35c0 4.42-3.58 8-8 8h-144c-4.42 0-8-3.58-8-8z" stroke="#000" stroke-opacity="0" stroke-width="2" fill="#019280"/><use xlink:href="#j" transform="matrix(1,0,0,1,213.55102311989776,678.5068097128632) translate(59.58395986506038 24.558368721764552)"/><path d="M301.24 332.4c0-4.4 3.58-8 8-8h150.62c4.42 0 8 3.6 8 8v183.1c0 4.42-3.58 8-8 8H309.24c-4.42 0-8-3.58-8-8z" stroke="#000" stroke-width="2" fill="#fff" fill-opacity="0"/><use xlink:href="#k" transform="matrix(1,0,0,1,306.24036672867396,329.4127026308796) translate(33.91470925483017 34.36265829568607)"/><use xlink:href="#l" transform="matrix(1,0,0,1,306.24036672867396,329.4127026308796) translate(16.75001599393705 71.43839573921517)"/><use xlink:href="#m" transform="matrix(1,0,0,1,306.24036672867396,329.4127026308796) translate(114.50294411472328 71.43839573921517)"/><use xlink:href="#n" transform="matrix(1,0,0,1,306.24036672867396,329.4127026308796) translate(27.091743683625158 108.51413318274427)"/><use xlink:href="#o" transform="matrix(1,0,0,1,306.24036672867396,329.4127026308796) translate(25.46109782384031 145.58987062627338)"/><use xlink:href="#p" transform="matrix(1,0,0,1,306.24036672867396,329.4127026308796) translate(39.06411723309809 182.6656080698025)"/><path d="M162.2 909.3c0-4.4 3.6-8 8-8h144c4.42 0 8 3.6 8 8v30.35c0 4.42-3.58 8-8 8h-144c-4.4 0-8-3.58-8-8z" stroke="#000" stroke-opacity="0" stroke-width="2" fill="#019280"/><use xlink:href="#q" transform="matrix(1,0,0,1,167.20635131548636,906.3070934538048) translate(28.108203597897653 24.558368721764552)"/><use xlink:href="#r" transform="matrix(1,0,0,1,167.20635131548636,906.3070934538048) translate(84.6229561593882 24.558368721764552)"/><path d="M71.72 572.53c0-4.42 3.6-8 8-8h144c4.42 0 8 3.58 8 8v44c0 4.42-3.58 8-8 8h-144c-4.4 0-8-3.58-8-8z" stroke="#000" stroke-width="2" fill="#b391b5"/><g><use xlink:href="#s" transform="matrix(1,0,0,1,76.7233590220568,569.5328859683767) translate(49.78514390852452 28.495868721764552)"/></g><path d="M393.93 660.96c0-4.4 3.58-8 8-8h144c4.42 0 8 3.6 8 8V769.9c0 4.42-3.58 8-8 8h-144c-4.42 0-8-3.58-8-8z" stroke="#000" stroke-opacity="0" stroke-width="2" fill="#019280"/><g><use xlink:href="#t" transform="matrix(1,0,0,1,398.92971033758977,657.9637257507313) translate(38.342651954705175 25.839618721764552)"/><use xlink:href="#u" transform="matrix(1,0,0,1,398.92971033758977,657.9637257507313) translate(36.443807762718876 53.646421804411375)"/><use xlink:href="#v" transform="matrix(1,0,0,1,398.92971033758977,657.9637257507313) translate(22.31511962234624 81.4532248870582)"/><use xlink:href="#w" transform="matrix(1,0,0,1,398.92971033758977,657.9637257507313) translate(24.246147614196705 109.26002796970502)"/></g><g fill="none"><path d="M117.63 393.55c-4.4 0-8-3.58-8-8V271.17c0-4.42 3.6-8 8-8h156.6c4.43 0 8 3.58 8 8v114.38c0 4.42-3.57 8-8 8z"/><path d="M282.24 263.17c0 5.96-4.83 10.8-10.8 10.8h-64.7c-5.97 0-10.8 4.82-10.8 10.78 0-5.96-4.83-10.8-10.8-10.8h-64.72c-5.96 0-10.8-4.82-10.8-10.78" stroke="#000" stroke-width="2"/></g><g><use xlink:href="#x" transform="matrix(1,0,0,1,114.63405998993117,300.5361930843553) translate(31.325456011751857 22.245868721764552)"/><use xlink:href="#y" transform="matrix(1,0,0,1,114.63405998993117,300.5361930843553) translate(120.08837603714531 22.245868721764552)"/><use xlink:href="#z" transform="matrix(1,0,0,1,114.63405998993117,300.5361930843553) translate(17.872627668526885 50.052671804411375)"/><use xlink:href="#y" transform="matrix(1,0,0,1,114.63405998993117,300.5361930843553) translate(133.54120438037026 50.052671804411375)"/><use xlink:href="#A" transform="matrix(1,0,0,1,114.63405998993117,300.5361930843553) translate(25.21053403755869 77.8594748870582)"/><use xlink:href="#B" transform="matrix(1,0,0,1,114.63405998993117,300.5361930843553) translate(124.27227001948799 77.8594748870582)"/><use xlink:href="#C" transform="matrix(1,0,0,1,114.63405998993117,300.5361930843553) translate(12.047359893111288 105.66627796970502)"/></g><defs><path d="M185-189c-5-48-123-54-124 2 14 75 158 14 163 119 3 78-121 87-175 55-17-10-28-26-33-46l33-7c5 56 141 63 141-1 0-78-155-14-162-118-5-82 145-84 179-34 5 7 8 16 11 25" id="D"/><path d="M59-47c-2 24 18 29 38 22v24C64 9 27 4 27-40v-127H5v-23h24l9-43h21v43h35v23H59v120" id="E"/><path d="M141-36C126-15 110 5 73 4 37 3 15-17 15-53c-1-64 63-63 125-63 3-35-9-54-41-54-24 1-41 7-42 31l-33-3c5-37 33-52 76-52 45 0 72 20 72 64v82c-1 20 7 32 28 27v20c-31 9-61-2-59-35zM48-53c0 20 12 33 32 33 41-3 63-29 60-74-43 2-92-5-92 41" id="F"/><path d="M117-194c89-4 53 116 60 194h-32v-121c0-31-8-49-39-48C34-167 62-67 57 0H25l-1-190h30c1 10-1 24 2 32 11-22 29-35 61-36" id="G"/><g id="a"><use transform="matrix(0.08575977762686063,0,0,0.08575977762686063,0,0)" xlink:href="#D"/><use transform="matrix(0.08575977762686063,0,0,0.08575977762686063,20.58234663044655,0)" xlink:href="#E"/><use transform="matrix(0.08575977762686063,0,0,0.08575977762686063,29.15832439313262,0)" xlink:href="#F"/><use transform="matrix(0.08575977762686063,0,0,0.08575977762686063,46.31027991850475,0)" xlink:href="#G"/></g><path d="M212-179c-10-28-35-45-73-45-59 0-87 40-87 99 0 60 29 101 89 101 43 0 62-24 78-52l27 14C228-24 195 4 139 4 59 4 22-46 18-125c-6-104 99-153 187-111 19 9 31 26 39 46" id="H"/><path d="M24 0v-261h32V0H24" id="I"/><path d="M135-143c-3-34-86-38-87 0 15 53 115 12 119 90S17 21 10-45l28-5c4 36 97 45 98 0-10-56-113-15-118-90-4-57 82-63 122-42 12 7 21 19 24 35" id="J"/><g id="b"><use transform="matrix(0.08575977762686063,0,0,0.08575977762686063,0,0)" xlink:href="#H"/><use transform="matrix(0.08575977762686063,0,0,0.08575977762686063,22.211782405356903,0)" xlink:href="#I"/><use transform="matrix(0.08575977762686063,0,0,0.08575977762686063,28.986804837878893,0)" xlink:href="#F"/><use transform="matrix(0.08575977762686063,0,0,0.08575977762686063,46.13876036325103,0)" xlink:href="#J"/><use transform="matrix(0.08575977762686063,0,0,0.08575977762686063,61.575520336085944,0)" xlink:href="#J"/></g><path fill="#fff" d="M101-234c-31-9-42 10-38 44h38v23H63V0H32v-167H5v-23h27c-7-52 17-82 69-68v24" id="K"/><path fill="#fff" d="M24-231v-30h32v30H24zM24 0v-190h32V0H24" id="L"/><path fill="#fff" d="M59-47c-2 24 18 29 38 22v24C64 9 27 4 27-40v-127H5v-23h24l9-43h21v43h35v23H59v120" id="M"/><g id="c"><use transform="matrix(0.08582346630446551,0,0,0.08582346630446551,0,0)" xlink:href="#K"/><use transform="matrix(0.08582346630446551,0,0,0.08582346630446551,8.582346630446551,0)" xlink:href="#L"/><use transform="matrix(0.08582346630446551,0,0,0.08582346630446551,15.362400468499326,0)" xlink:href="#M"/></g><path fill="#fff" d="M100-194c62-1 85 37 85 99 1 63-27 99-86 99S16-35 15-95c0-66 28-99 85-99zM99-20c44 1 53-31 53-75 0-43-8-75-51-75s-53 32-53 75 10 74 51 75" id="N"/><path fill="#fff" d="M115-194c53 0 69 39 70 98 0 66-23 100-70 100C84 3 66-7 56-30L54 0H23l1-261h32v101c10-23 28-34 59-34zm-8 174c40 0 45-34 45-75 0-40-5-75-45-74-42 0-51 32-51 76 0 43 10 73 51 73" id="O"/><path fill="#fff" d="M24-231v-30h32v30H24zM-9 49c24 4 33-6 33-30v-209h32V24c2 40-23 58-65 49V49" id="P"/><path fill="#fff" d="M100-194c63 0 86 42 84 106H49c0 40 14 67 53 68 26 1 43-12 49-29l28 8c-11 28-37 45-77 45C44 4 14-33 15-96c1-61 26-98 85-98zm52 81c6-60-76-77-97-28-3 7-6 17-6 28h103" id="Q"/><path fill="#fff" d="M96-169c-40 0-48 33-48 73s9 75 48 75c24 0 41-14 43-38l32 2c-6 37-31 61-74 61-59 0-76-41-82-99-10-93 101-131 147-64 4 7 5 14 7 22l-32 3c-4-21-16-35-41-35" id="R"/><g id="d"><use transform="matrix(0.08582346630446551,0,0,0.08582346630446551,0,0)" xlink:href="#N"/><use transform="matrix(0.08582346630446551,0,0,0.08582346630446551,17.164693260893102,0)" xlink:href="#O"/><use transform="matrix(0.08582346630446551,0,0,0.08582346630446551,34.329386521786205,0)" xlink:href="#P"/><use transform="matrix(0.08582346630446551,0,0,0.08582346630446551,41.10944035983898,0)" xlink:href="#Q"/><use transform="matrix(0.08582346630446551,0,0,0.08582346630446551,58.27413362073208,0)" xlink:href="#R"/><use transform="matrix(0.08582346630446551,0,0,0.08582346630446551,73.72235755553587,0)" xlink:href="#M"/></g><path fill="#fff" d="M141-36C126-15 110 5 73 4 37 3 15-17 15-53c-1-64 63-63 125-63 3-35-9-54-41-54-24 1-41 7-42 31l-33-3c5-37 33-52 76-52 45 0 72 20 72 64v82c-1 20 7 32 28 27v20c-31 9-61-2-59-35zM48-53c0 20 12 33 32 33 41-3 63-29 60-74-43 2-92-5-92 41" id="S"/><path fill="#fff" d="M179-190L93 31C79 59 56 82 12 73V49c39 6 53-20 64-50L1-190h34L92-34l54-156h33" id="T"/><path fill="#fff" d="M135-143c-3-34-86-38-87 0 15 53 115 12 119 90S17 21 10-45l28-5c4 36 97 45 98 0-10-56-113-15-118-90-4-57 82-63 122-42 12 7 21 19 24 35" id="U"/><path fill="#fff" d="M115-194c55 1 70 41 70 98S169 2 115 4C84 4 66-9 55-30l1 105H24l-1-265h31l2 30c10-21 28-34 59-34zm-8 174c40 0 45-34 45-75s-6-73-45-74c-42 0-51 32-51 76 0 43 10 73 51 73" id="V"/><path fill="#fff" d="M24 0v-261h32V0H24" id="W"/><g id="e"><use transform="matrix(0.06436759972834913,0,0,0.06436759972834913,0,0)" xlink:href="#O"/><use transform="matrix(0.06436759972834913,0,0,0.06436759972834913,12.873519945669825,0)" xlink:href="#S"/><use transform="matrix(0.06436759972834913,0,0,0.06436759972834913,25.74703989133965,0)" xlink:href="#T"/><use transform="matrix(0.06436759972834913,0,0,0.06436759972834913,37.33320784244249,0)" xlink:href="#Q"/><use transform="matrix(0.06436759972834913,0,0,0.06436759972834913,50.20672778811232,0)" xlink:href="#U"/><use transform="matrix(0.06436759972834913,0,0,0.06436759972834913,61.79289573921516,0)" xlink:href="#V"/><use transform="matrix(0.06436759972834913,0,0,0.06436759972834913,74.66641568488498,0)" xlink:href="#W"/><use transform="matrix(0.06436759972834913,0,0,0.06436759972834913,79.75145606342457,0)" xlink:href="#N"/><use transform="matrix(0.06436759972834913,0,0,0.06436759972834913,92.6249760090944,0)" xlink:href="#M"/></g><path fill="#fff" d="M266 0h-40l-56-210L115 0H75L2-248h35L96-30l15-64 43-154h32l59 218 59-218h35" id="X"/><path fill="#fff" d="M205 0l-28-72H64L36 0H1l101-248h38L239 0h-34zm-38-99l-47-123c-12 45-31 82-46 123h93" id="Y"/><path fill="#fff" d="M33 0v-248h34V0H33" id="Z"/><path fill="#fff" d="M212-179c-10-28-35-45-73-45-59 0-87 40-87 99 0 60 29 101 89 101 43 0 62-24 78-52l27 14C228-24 195 4 139 4 59 4 22-46 18-125c-6-104 99-153 187-111 19 9 31 26 39 46" id="aa"/><g id="f"><use transform="matrix(0.06436759972834913,0,0,0.06436759972834913,0,0)" xlink:href="#X"/><use transform="matrix(0.06436759972834913,0,0,0.06436759972834913,20.983837511441816,0)" xlink:href="#Y"/><use transform="matrix(0.06436759972834913,0,0,0.06436759972834913,36.432061446245605,0)" xlink:href="#Z"/><use transform="matrix(0.06436759972834913,0,0,0.06436759972834913,42.86882141908052,0)" xlink:href="#aa"/></g><path fill="#fff" d="M114-163C36-179 61-72 57 0H25l-1-190h30c1 12-1 29 2 39 6-27 23-49 58-41v29" id="ab"/><g id="g"><use transform="matrix(0.06436759972834913,0,0,0.06436759972834913,0,0)" xlink:href="#M"/><use transform="matrix(0.06436759972834913,0,0,0.06436759972834913,6.4367599728349125,0)" xlink:href="#ab"/><use transform="matrix(0.06436759972834913,0,0,0.06436759972834913,14.09650434050846,0)" xlink:href="#S"/><use transform="matrix(0.06436759972834913,0,0,0.06436759972834913,26.970024286178287,0)" xlink:href="#R"/><use transform="matrix(0.06436759972834913,0,0,0.06436759972834913,38.55619223728113,0)" xlink:href="#Q"/><use transform="matrix(0.06436759972834913,0,0,0.06436759972834913,51.42971218295096,0)" xlink:href="#V"/><use transform="matrix(0.06436759972834913,0,0,0.06436759972834913,64.30323212862078,0)" xlink:href="#W"/><use transform="matrix(0.06436759972834913,0,0,0.06436759972834913,69.38827250716037,0)" xlink:href="#N"/><use transform="matrix(0.06436759972834913,0,0,0.06436759972834913,82.26179245283019,0)" xlink:href="#M"/></g><path fill="#fff" d="M106-169C34-169 62-67 57 0H25v-261h32l-1 103c12-21 28-36 61-36 89 0 53 116 60 194h-32v-121c2-32-8-49-39-48" id="ac"/><g id="h"><use transform="matrix(0.06436759972834913,0,0,0.06436759972834913,0,0)" xlink:href="#ab"/><use transform="matrix(0.06436759972834913,0,0,0.06436759972834913,7.659744367673547,0)" xlink:href="#ac"/><use transform="matrix(0.06436759972834913,0,0,0.06436759972834913,20.533264313343373,0)" xlink:href="#S"/><use transform="matrix(0.06436759972834913,0,0,0.06436759972834913,33.4067842590132,0)" xlink:href="#M"/></g><path fill="#fff" d="M16-82v-28h88v28H16" id="ad"/><path fill="#fff" d="M143 0L79-87 56-68V0H24v-261h32v163l83-92h37l-77 82L181 0h-38" id="ae"/><g id="i"><use transform="matrix(0.06436759972834913,0,0,0.06436759972834913,0,0)" xlink:href="#V"/><use transform="matrix(0.06436759972834913,0,0,0.06436759972834913,12.873519945669825,0)" xlink:href="#S"/><use transform="matrix(0.06436759972834913,0,0,0.06436759972834913,25.74703989133965,0)" xlink:href="#ab"/><use transform="matrix(0.06436759972834913,0,0,0.06436759972834913,33.40678425901319,0)" xlink:href="#Q"/><use transform="matrix(0.06436759972834913,0,0,0.06436759972834913,46.28030420468302,0)" xlink:href="#M"/><use transform="matrix(0.06436759972834913,0,0,0.06436759972834913,52.71706417751793,0)" xlink:href="#N"/><use transform="matrix(0.06436759972834913,0,0,0.06436759972834913,65.59058412318775,0)" xlink:href="#ad"/><use transform="matrix(0.06436759972834913,0,0,0.06436759972834913,73.2503284908613,0)" xlink:href="#ae"/></g><g id="j"><use transform="matrix(0.06436759972834913,0,0,0.06436759972834913,0,0)" xlink:href="#W"/><use transform="matrix(0.06436759972834913,0,0,0.06436759972834913,5.085040378539581,0)" xlink:href="#N"/><use transform="matrix(0.06436759972834913,0,0,0.06436759972834913,17.958560324209408,0)" xlink:href="#N"/></g><path d="M140-251c81 0 123 46 123 126C263-46 219 4 140 4 59 4 17-45 17-125s42-126 123-126zm0 227c63 0 89-41 89-101s-29-99-89-99c-61 0-89 39-89 99S79-25 140-24" id="af"/><path d="M115-194c53 0 69 39 70 98 0 66-23 100-70 100C84 3 66-7 56-30L54 0H23l1-261h32v101c10-23 28-34 59-34zm-8 174c40 0 45-34 45-75 0-40-5-75-45-74-42 0-51 32-51 76 0 43 10 73 51 73" id="ag"/><path d="M24-231v-30h32v30H24zM-9 49c24 4 33-6 33-30v-209h32V24c2 40-23 58-65 49V49" id="ah"/><path d="M100-194c63 0 86 42 84 106H49c0 40 14 67 53 68 26 1 43-12 49-29l28 8c-11 28-37 45-77 45C44 4 14-33 15-96c1-61 26-98 85-98zm52 81c6-60-76-77-97-28-3 7-6 17-6 28h103" id="ai"/><path d="M96-169c-40 0-48 33-48 73s9 75 48 75c24 0 41-14 43-38l32 2c-6 37-31 61-74 61-59 0-76-41-82-99-10-93 101-131 147-64 4 7 5 14 7 22l-32 3c-4-21-16-35-41-35" id="aj"/><g id="k"><use transform="matrix(0.08582346630446551,0,0,0.08582346630446551,0,0)" xlink:href="#af"/><use transform="matrix(0.08582346630446551,0,0,0.08582346630446551,24.030570565250343,0)" xlink:href="#ag"/><use transform="matrix(0.08582346630446551,0,0,0.08582346630446551,41.195263826143446,0)" xlink:href="#ah"/><use transform="matrix(0.08582346630446551,0,0,0.08582346630446551,47.97531766419622,0)" xlink:href="#ai"/><use transform="matrix(0.08582346630446551,0,0,0.08582346630446551,65.14001092508931,0)" xlink:href="#aj"/><use transform="matrix(0.08582346630446551,0,0,0.08582346630446551,80.5882348598931,0)" xlink:href="#E"/></g><path d="M190 0L58-211 59 0H30v-248h39L202-35l-2-213h31V0h-41" id="ak"/><path d="M85-194c31 0 48 13 60 33l-1-100h32l1 261h-30c-2-10 0-23-3-31C134-8 116 4 85 4 32 4 16-35 15-94c0-66 23-100 70-100zm9 24c-40 0-46 34-46 75 0 40 6 74 45 74 42 0 51-32 51-76 0-42-9-74-50-73" id="al"/><g id="l"><use transform="matrix(0.08582346630446551,0,0,0.08582346630446551,0,0)" xlink:href="#ak"/><use transform="matrix(0.08582346630446551,0,0,0.08582346630446551,22.22827777285657,0)" xlink:href="#ai"/><use transform="matrix(0.08582346630446551,0,0,0.08582346630446551,39.392971033749674,0)" xlink:href="#ai"/><use transform="matrix(0.08582346630446551,0,0,0.08582346630446551,56.557664294642784,0)" xlink:href="#al"/><use transform="matrix(0.08582346630446551,0,0,0.08582346630446551,73.72235755553588,0)" xlink:href="#J"/></g><path d="M100-194c62-1 85 37 85 99 1 63-27 99-86 99S16-35 15-95c0-66 28-99 85-99zM99-20c44 1 53-31 53-75 0-43-8-75-51-75s-53 32-53 75 10 74 51 75" id="am"/><g id="m"><use transform="matrix(0.08582346630446551,0,0,0.08582346630446551,0,0)" xlink:href="#E"/><use transform="matrix(0.08582346630446551,0,0,0.08582346630446551,8.582346630446551,0)" xlink:href="#am"/></g><path d="M114-163C36-179 61-72 57 0H25l-1-190h30c1 12-1 29 2 39 6-27 23-49 58-41v29" id="an"/><path d="M108 0H70L1-190h34L89-25l56-165h34" id="ao"/><path d="M24-231v-30h32v30H24zM24 0v-190h32V0H24" id="ap"/><g id="n"><use transform="matrix(0.08582346630446551,0,0,0.08582346630446551,0,0)" xlink:href="#D"/><use transform="matrix(0.08582346630446551,0,0,0.08582346630446551,20.597631913071723,0)" xlink:href="#ai"/><use transform="matrix(0.08582346630446551,0,0,0.08582346630446551,37.762325173964825,0)" xlink:href="#an"/><use transform="matrix(0.08582346630446551,0,0,0.08582346630446551,47.97531766419622,0)" xlink:href="#ao"/><use transform="matrix(0.08582346630446551,0,0,0.08582346630446551,63.42354159900001,0)" xlink:href="#ap"/><use transform="matrix(0.08582346630446551,0,0,0.08582346630446551,70.20359543705278,0)" xlink:href="#aj"/><use transform="matrix(0.08582346630446551,0,0,0.08582346630446551,85.65181937185658,0)" xlink:href="#ai"/></g><path d="M240 0l2-218c-23 76-54 145-80 218h-23L58-218 59 0H30v-248h44l77 211c21-75 51-140 76-211h43V0h-30" id="aq"/><path d="M84 4C-5 8 30-112 23-190h32v120c0 31 7 50 39 49 72-2 45-101 50-169h31l1 190h-30c-1-10 1-25-2-33-11 22-28 36-60 37" id="ar"/><path d="M115-194c55 1 70 41 70 98S169 2 115 4C84 4 66-9 55-30l1 105H24l-1-265h31l2 30c10-21 28-34 59-34zm-8 174c40 0 45-34 45-75s-6-73-45-74c-42 0-51 32-51 76 0 43 10 73 51 73" id="as"/><g id="o"><use transform="matrix(0.08582346630446551,0,0,0.08582346630446551,0,0)" xlink:href="#aq"/><use transform="matrix(0.08582346630446551,0,0,0.08582346630446551,25.66121642503519,0)" xlink:href="#ar"/><use transform="matrix(0.08582346630446551,0,0,0.08582346630446551,42.825909685928295,0)" xlink:href="#I"/><use transform="matrix(0.08582346630446551,0,0,0.08582346630446551,49.60596352398107,0)" xlink:href="#E"/><use transform="matrix(0.08582346630446551,0,0,0.08582346630446551,58.18831015442762,0)" xlink:href="#ap"/><use transform="matrix(0.08582346630446551,0,0,0.08582346630446551,64.96836399248039,0)" xlink:href="#as"/><use transform="matrix(0.08582346630446551,0,0,0.08582346630446551,82.1330572533735,0)" xlink:href="#I"/><use transform="matrix(0.08582346630446551,0,0,0.08582346630446551,88.91311109142627,0)" xlink:href="#ai"/></g><path d="M127-220V0H93v-220H8v-28h204v28h-85" id="at"/><path d="M143 0L79-87 56-68V0H24v-261h32v163l83-92h37l-77 82L181 0h-38" id="au"/><g id="p"><use transform="matrix(0.08582346630446551,0,0,0.08582346630446551,0,0)" xlink:href="#at"/><use transform="matrix(0.08582346630446551,0,0,0.08582346630446551,15.362400468499326,0)" xlink:href="#F"/><use transform="matrix(0.08582346630446551,0,0,0.08582346630446551,32.52709372939243,0)" xlink:href="#J"/><use transform="matrix(0.08582346630446551,0,0,0.08582346630446551,47.97531766419623,0)" xlink:href="#au"/><use transform="matrix(0.08582346630446551,0,0,0.08582346630446551,63.42354159900002,0)" xlink:href="#J"/></g><g id="q"><use transform="matrix(0.06436759972834913,0,0,0.06436759972834913,0,0)" xlink:href="#V"/><use transform="matrix(0.06436759972834913,0,0,0.06436759972834913,12.873519945669825,0)" xlink:href="#S"/><use transform="matrix(0.06436759972834913,0,0,0.06436759972834913,25.74703989133965,0)" xlink:href="#L"/><use transform="matrix(0.06436759972834913,0,0,0.06436759972834913,30.83208026987923,0)" xlink:href="#ab"/><use transform="matrix(0.06436759972834913,0,0,0.06436759972834913,38.49182463755278,0)" xlink:href="#U"/></g><g id="r"><use transform="matrix(0.06436759972834913,0,0,0.06436759972834913,0,0)" xlink:href="#V"/><use transform="matrix(0.06436759972834913,0,0,0.06436759972834913,12.873519945669825,0)" xlink:href="#W"/><use transform="matrix(0.06436759972834913,0,0,0.06436759972834913,17.958560324209408,0)" xlink:href="#N"/><use transform="matrix(0.06436759972834913,0,0,0.06436759972834913,30.832080269879235,0)" xlink:href="#M"/></g><path fill="#fff" d="M117-194c89-4 53 116 60 194h-32v-121c0-31-8-49-39-48C34-167 62-67 57 0H25l-1-190h30c1 10-1 24 2 32 11-22 29-35 61-36" id="av"/><g id="s"><use transform="matrix(0.06436759972834913,0,0,0.06436759972834913,0,0)" xlink:href="#ab"/><use transform="matrix(0.06436759972834913,0,0,0.06436759972834913,7.659744367673547,0)" xlink:href="#U"/><use transform="matrix(0.06436759972834913,0,0,0.06436759972834913,19.24591231877639,0)" xlink:href="#M"/><use transform="matrix(0.06436759972834913,0,0,0.06436759972834913,25.682672291611308,0)" xlink:href="#S"/><use transform="matrix(0.06436759972834913,0,0,0.06436759972834913,38.55619223728113,0)" xlink:href="#av"/></g><path fill="#fff" d="M84 4C-5 8 30-112 23-190h32v120c0 31 7 50 39 49 72-2 45-101 50-169h31l1 190h-30c-1-10 1-25-2-33-11 22-28 36-60 37" id="aw"/><g id="t"><use transform="matrix(0.06436759972834913,0,0,0.06436759972834913,0,0)" xlink:href="#U"/><use transform="matrix(0.06436759972834913,0,0,0.06436759972834913,11.586167951102842,0)" xlink:href="#aw"/><use transform="matrix(0.06436759972834913,0,0,0.06436759972834913,24.459687896772667,0)" xlink:href="#O"/><use transform="matrix(0.06436759972834913,0,0,0.06436759972834913,37.33320784244249,0)" xlink:href="#P"/><use transform="matrix(0.06436759972834913,0,0,0.06436759972834913,42.41824822098207,0)" xlink:href="#Q"/><use transform="matrix(0.06436759972834913,0,0,0.06436759972834913,55.2917681666519,0)" xlink:href="#R"/><use transform="matrix(0.06436759972834913,0,0,0.06436759972834913,66.87793611775474,0)" xlink:href="#M"/></g><g id="u"><use transform="matrix(0.06436759972834913,0,0,0.06436759972834913,0,0)" xlink:href="#U"/><use transform="matrix(0.06436759972834913,0,0,0.06436759972834913,11.586167951102842,0)" xlink:href="#V"/><use transform="matrix(0.06436759972834913,0,0,0.06436759972834913,24.459687896772667,0)" xlink:href="#Q"/><use transform="matrix(0.06436759972834913,0,0,0.06436759972834913,37.33320784244249,0)" xlink:href="#R"/><use transform="matrix(0.06436759972834913,0,0,0.06436759972834913,48.919375793545335,0)" xlink:href="#L"/><use transform="matrix(0.06436759972834913,0,0,0.06436759972834913,54.004416172084916,0)" xlink:href="#K"/><use transform="matrix(0.06436759972834913,0,0,0.06436759972834913,60.44117614491983,0)" xlink:href="#L"/><use transform="matrix(0.06436759972834913,0,0,0.06436759972834913,65.52621652345941,0)" xlink:href="#R"/></g><path fill="#fff" d="M210-169c-67 3-38 105-44 169h-31v-121c0-29-5-50-35-48C34-165 62-65 56 0H25l-1-190h30c1 10-1 24 2 32 10-44 99-50 107 0 11-21 27-35 58-36 85-2 47 119 55 194h-31v-121c0-29-5-49-35-48" id="ax"/><g id="v"><use transform="matrix(0.06436759972834913,0,0,0.06436759972834913,0,0)" xlink:href="#V"/><use transform="matrix(0.06436759972834913,0,0,0.06436759972834913,12.873519945669825,0)" xlink:href="#S"/><use transform="matrix(0.06436759972834913,0,0,0.06436759972834913,25.74703989133965,0)" xlink:href="#ab"/><use transform="matrix(0.06436759972834913,0,0,0.06436759972834913,33.40678425901319,0)" xlink:href="#S"/><use transform="matrix(0.06436759972834913,0,0,0.06436759972834913,46.28030420468302,0)" xlink:href="#ax"/><use transform="matrix(0.06436759972834913,0,0,0.06436759972834913,65.52621652345941,0)" xlink:href="#Q"/><use transform="matrix(0.06436759972834913,0,0,0.06436759972834913,78.39973646912924,0)" xlink:href="#M"/><use transform="matrix(0.06436759972834913,0,0,0.06436759972834913,84.83649644196414,0)" xlink:href="#Q"/><use transform="matrix(0.06436759972834913,0,0,0.06436759972834913,97.71001638763397,0)" xlink:href="#ab"/></g><g id="w"><use transform="matrix(0.06436759972834913,0,0,0.06436759972834913,0,0)" xlink:href="#V"/><use transform="matrix(0.06436759972834913,0,0,0.06436759972834913,12.873519945669825,0)" xlink:href="#N"/><use transform="matrix(0.06436759972834913,0,0,0.06436759972834913,25.74703989133965,0)" xlink:href="#U"/><use transform="matrix(0.06436759972834913,0,0,0.06436759972834913,37.33320784244249,0)" xlink:href="#M"/><use transform="matrix(0.06436759972834913,0,0,0.06436759972834913,43.769967815277404,0)" xlink:href="#Q"/><use transform="matrix(0.06436759972834913,0,0,0.06436759972834913,56.64348776094723,0)" xlink:href="#ab"/><use transform="matrix(0.06436759972834913,0,0,0.06436759972834913,64.30323212862078,0)" xlink:href="#L"/><use transform="matrix(0.06436759972834913,0,0,0.06436759972834913,69.38827250716037,0)" xlink:href="#N"/><use transform="matrix(0.06436759972834913,0,0,0.06436759972834913,82.26179245283019,0)" xlink:href="#ab"/><use transform="matrix(0.06436759972834913,0,0,0.06436759972834913,89.92153682050375,0)" xlink:href="#U"/></g><path d="M39-94c74 12-11 154 75 146v23c-44 4-70-10-70-52C44-23 55-84 6-82v-22c81 4-7-162 84-157h24v23c-82-15-2 131-75 144" id="ay"/><path d="M106-169C34-169 62-67 57 0H25v-261h32l-1 103c12-21 28-36 61-36 89 0 53 116 60 194h-32v-121c2-32-8-49-39-48" id="az"/><path d="M76-40C78 24 84 88 6 75V52C86 64 9-79 80-94c-40-6-34-59-34-106 1-29-11-41-40-38v-23c44-4 70 10 70 52 0 47-12 108 38 105v22c-26 1-39 14-38 42" id="aA"/><g id="x"><use transform="matrix(0.06436759972834913,0,0,0.06436759972834913,0,0)" xlink:href="#ay"/><use transform="matrix(0.06436759972834913,0,0,0.06436759972834913,7.724111967401895,0)" xlink:href="#aj"/><use transform="matrix(0.06436759972834913,0,0,0.06436759972834913,19.310279918504737,0)" xlink:href="#az"/><use transform="matrix(0.06436759972834913,0,0,0.06436759972834913,32.18379986417456,0)" xlink:href="#F"/><use transform="matrix(0.06436759972834913,0,0,0.06436759972834913,45.05731980984439,0)" xlink:href="#ap"/><use transform="matrix(0.06436759972834913,0,0,0.06436759972834913,50.14236018838397,0)" xlink:href="#G"/><use transform="matrix(0.06436759972834913,0,0,0.06436759972834913,63.015880134053795,0)" xlink:href="#J"/><use transform="matrix(0.06436759972834913,0,0,0.06436759972834913,74.60204808515664,0)" xlink:href="#aA"/></g><path d="M141 0L90-78 38 0H4l68-98-65-92h35l48 74 47-74h35l-64 92 68 98h-35" id="aB"/><use transform="matrix(0.06436759972834913,0,0,0.06436759972834913,0,0)" xlink:href="#aB" id="y"/><g id="z"><use transform="matrix(0.06436759972834913,0,0,0.06436759972834913,0,0)" xlink:href="#ay"/><use transform="matrix(0.06436759972834913,0,0,0.06436759972834913,7.724111967401895,0)" xlink:href="#ap"/><use transform="matrix(0.06436759972834913,0,0,0.06436759972834913,12.809152345941477,0)" xlink:href="#E"/><use transform="matrix(0.06436759972834913,0,0,0.06436759972834913,19.24591231877639,0)" xlink:href="#ai"/><use transform="matrix(0.06436759972834913,0,0,0.06436759972834913,32.11943226444622,0)" xlink:href="#an"/><use transform="matrix(0.06436759972834913,0,0,0.06436759972834913,39.779176632119764,0)" xlink:href="#F"/><use transform="matrix(0.06436759972834913,0,0,0.06436759972834913,52.65269657778959,0)" xlink:href="#E"/><use transform="matrix(0.06436759972834913,0,0,0.06436759972834913,59.089456550624504,0)" xlink:href="#ap"/><use transform="matrix(0.06436759972834913,0,0,0.06436759972834913,64.17449692916409,0)" xlink:href="#am"/><use transform="matrix(0.06436759972834913,0,0,0.06436759972834913,77.04801687483392,0)" xlink:href="#G"/><use transform="matrix(0.06436759972834913,0,0,0.06436759972834913,89.92153682050375,0)" xlink:href="#J"/><use transform="matrix(0.06436759972834913,0,0,0.06436759972834913,101.50770477160658,0)" xlink:href="#aA"/></g><g id="A"><use transform="matrix(0.06436759972834913,0,0,0.06436759972834913,0,0)" xlink:href="#ay"/><use transform="matrix(0.06436759972834913,0,0,0.06436759972834913,7.724111967401895,0)" xlink:href="#J"/><use transform="matrix(0.06436759972834913,0,0,0.06436759972834913,19.310279918504737,0)" xlink:href="#ar"/><use transform="matrix(0.06436759972834913,0,0,0.06436759972834913,32.18379986417456,0)" xlink:href="#ag"/><use transform="matrix(0.06436759972834913,0,0,0.06436759972834913,45.05731980984439,0)" xlink:href="#ah"/><use transform="matrix(0.06436759972834913,0,0,0.06436759972834913,50.14236018838397,0)" xlink:href="#ai"/><use transform="matrix(0.06436759972834913,0,0,0.06436759972834913,63.015880134053795,0)" xlink:href="#aj"/><use transform="matrix(0.06436759972834913,0,0,0.06436759972834913,74.60204808515664,0)" xlink:href="#E"/><use transform="matrix(0.06436759972834913,0,0,0.06436759972834913,81.03880805799155,0)" xlink:href="#J"/></g><path d="M118-107v75H92v-75H18v-26h74v-75h26v75h74v26h-74" id="aC"/><use transform="matrix(0.06436759972834913,0,0,0.06436759972834913,0,0)" xlink:href="#aC" id="B"/><g id="C"><use transform="matrix(0.06436759972834913,0,0,0.06436759972834913,0,0)" xlink:href="#am"/><use transform="matrix(0.06436759972834913,0,0,0.06436759972834913,12.873519945669825,0)" xlink:href="#ag"/><use transform="matrix(0.06436759972834913,0,0,0.06436759972834913,25.74703989133965,0)" xlink:href="#J"/><use transform="matrix(0.06436759972834913,0,0,0.06436759972834913,37.33320784244249,0)" xlink:href="#ai"/><use transform="matrix(0.06436759972834913,0,0,0.06436759972834913,50.20672778811232,0)" xlink:href="#an"/><use transform="matrix(0.06436759972834913,0,0,0.06436759972834913,57.866472155785864,0)" xlink:href="#ao"/><use transform="matrix(0.06436759972834913,0,0,0.06436759972834913,69.45264010688871,0)" xlink:href="#F"/><use transform="matrix(0.06436759972834913,0,0,0.06436759972834913,82.32616005255854,0)" xlink:href="#E"/><use transform="matrix(0.06436759972834913,0,0,0.06436759972834913,88.76292002539344,0)" xlink:href="#ap"/><use transform="matrix(0.06436759972834913,0,0,0.06436759972834913,93.84796040393303,0)" xlink:href="#am"/><use transform="matrix(0.06436759972834913,0,0,0.06436759972834913,106.72148034960286,0)" xlink:href="#G"/><use transform="matrix(0.06436759972834913,0,0,0.06436759972834913,119.59500029527268,0)" xlink:href="#J"/><use transform="matrix(0.06436759972834913,0,0,0.06436759972834913,131.18116824637553,0)" xlink:href="#aA"/></g></defs></g></svg>