<svg xmlns="http://www.w3.org/2000/svg" xmlns:xlink="http://www.w3.org/1999/xlink" xmlns:lucid="lucid" width="2030.45" height="1061.78"><g transform="translate(0 0)" lucid:page-tab-id="m-5o7ONTd-nK"><path d="M0 0h2030.45v1061.78H0z" fill="#fff"/><path d="M115.86 142.06V89.98h719.82v52.08z" stroke="#666" stroke-width="2" fill="#fff"/><path d="M835.68 89.98H1870.1v52.08H835.68z" stroke="#666" stroke-width="2" fill="#fff"/><path d="M835.68 530.25H115.86v-388.2h719.82z" stroke="#666" stroke-width="2" fill="none"/><path d="M1870.1 142.06v388.2H835.68v-388.2z" stroke="#666" stroke-width="2" fill="none"/><use xlink:href="#a" transform="matrix(1,0,0,1,115.86167951098196,89.97959645344912) translate(285.41940778141947 32.679289573921515)"/><use xlink:href="#b" transform="matrix(1,0,0,1,115.86167951098196,89.97959645344912) translate(357.5111194771705 32.679289573921515)"/><use xlink:href="#c" transform="matrix(1,0,0,1,835.6847043454636,89.97959645344912) translate(480.6817329553843 32.679289573921515)"/><path d="M139.03 159.5h152c4.42 0 8 3.58 8 8v104c0 4.4-3.58 8-8 8h-144c-4.4 0-8-3.6-8-8zm16 0v120m-16-104h160" stroke="#000" stroke-width="2" fill="#019280"/><use xlink:href="#d" transform="matrix(1,0,0,1,160.03401541323416,180.49660416006634) translate(31.004207840802085 38.688842339150206)"/><use xlink:href="#e" transform="matrix(1,0,0,1,160.03401541323416,180.49660416006634) translate(89.02802301814614 38.688842339150206)"/><use xlink:href="#f" transform="matrix(1,0,0,1,160.03401541323416,180.49660416006634) translate(42.994461279088455 60.31635584787552)"/><path d="M1154.62 168.9c0-4.4 3.58-8 8-8h119.5c4.43 0 8 3.6 8 8v44c0 4.43-3.57 8-8 8h-119.5c-4.42 0-8-3.57-8-8z" stroke="#000" stroke-width="2" fill="#fff"/><use xlink:href="#g" transform="matrix(1,0,0,1,1159.6157158330893,165.91093273661488) translate(37.01694557632307 21.251342339150206)"/><use xlink:href="#h" transform="matrix(1,0,0,1,1159.6157158330893,165.91093273661488) translate(78.97031668815596 21.251342339150206)"/><use xlink:href="#i" transform="matrix(1,0,0,1,1159.6157158330893,165.91093273661488) translate(31.009302935010478 42.87885584787552)"/><use xlink:href="#j" transform="matrix(1,0,0,1,1159.6157158330893,165.91093273661488) translate(84.97795932946855 42.87885584787552)"/><path d="M542.6 179.67h107.78c4.42 0 8 3.58 8 8v30.35c0 4.4-3.58 8-8 8H550.6c-4.42 0-8-3.6-8-8zm11.57 0v46.35m-11.57-34.77h115.78" stroke="#000" stroke-width="2" fill="#019280"/><use xlink:href="#k" transform="matrix(1,0,0,1,559.1738907847591,196.24945186107777) translate(21.516945576323064 19.688842339150206)"/><use xlink:href="#l" transform="matrix(1,0,0,1,559.1738907847591,196.24945186107777) translate(63.47031668815596 19.688842339150206)"/><path d="M542.6 252.2h107.78c4.42 0 8 3.57 8 8v30.33c0 4.42-3.58 8-8 8H550.6c-4.42 0-8-3.58-8-8zm11.57 0v46.33m-11.57-34.77h115.78" stroke="#000" stroke-width="2" fill="#019280"/><use xlink:href="#k" transform="matrix(1,0,0,1,559.1738907847591,268.76483362204795) translate(21.516945576323064 19.688842339150206)"/><use xlink:href="#m" transform="matrix(1,0,0,1,559.1738907847591,268.76483362204795) translate(63.47031668815596 19.688842339150206)"/><path d="M542.6 324.7h107.78c4.42 0 8 3.58 8 8v30.35c0 4.4-3.58 8-8 8H550.6c-4.42 0-8-3.6-8-8zm11.57 0v46.35m-11.57-34.77h115.78" stroke="#000" stroke-width="2" fill="#019280"/><use xlink:href="#k" transform="matrix(1,0,0,1,559.1738907847591,341.28021538301846) translate(21.516945576323064 19.688842339150206)"/><use xlink:href="#n" transform="matrix(1,0,0,1,559.1738907847591,341.28021538301846) translate(63.47031668815596 19.688842339150206)"/><path d="M1312.82 171.74c0-4.42 3.58-8 8-8h119.5c4.43 0 8 3.58 8 8v44c0 4.42-3.57 8-8 8h-119.5c-4.42 0-8-3.58-8-8z" stroke="#000" stroke-width="2" fill="#fff"/><use xlink:href="#g" transform="matrix(1,0,0,1,1317.820987871334,168.73958988971197) translate(37.01694557632307 21.251342339150206)"/><use xlink:href="#o" transform="matrix(1,0,0,1,1317.820987871334,168.73958988971197) translate(78.97031668815596 21.251342339150206)"/><use xlink:href="#i" transform="matrix(1,0,0,1,1317.820987871334,168.73958988971197) translate(31.009302935010478 42.87885584787552)"/><use xlink:href="#j" transform="matrix(1,0,0,1,1317.820987871334,168.73958988971197) translate(84.97795932946855 42.87885584787552)"/><path d="M1474.5 170.33c0-4.42 3.6-8 8-8h119.52c4.42 0 8 3.58 8 8v44c0 4.4-3.58 8-8 8h-119.5c-4.43 0-8-3.6-8-8z" stroke="#000" stroke-width="2" fill="#fff"/><use xlink:href="#g" transform="matrix(1,0,0,1,1479.5057590850613,167.32526131316342) translate(37.01694557632307 21.251342339150206)"/><use xlink:href="#p" transform="matrix(1,0,0,1,1479.5057590850613,167.32526131316342) translate(78.97031668815596 21.251342339150206)"/><use xlink:href="#i" transform="matrix(1,0,0,1,1479.5057590850613,167.32526131316342) translate(31.009302935010478 42.87885584787552)"/><use xlink:href="#j" transform="matrix(1,0,0,1,1479.5057590850613,167.32526131316342) translate(84.97795932946855 42.87885584787552)"/><path d="M542.38 397.22h107.8c4.4 0 8 3.58 8 8v30.34c0 4.42-3.6 8-8 8h-99.8c-4.42 0-8-3.58-8-8zm11.58 0v46.34m-11.58-34.76h115.8" stroke="#000" stroke-width="2" fill="#019280"/><use xlink:href="#k" transform="matrix(1,0,0,1,558.9588387292715,413.7955971439884) translate(21.516945576323064 19.688842339150206)"/><use xlink:href="#q" transform="matrix(1,0,0,1,558.9588387292715,413.7955971439884) translate(63.47031668815596 19.688842339150206)"/><path d="M1630.32 167.5c0-4.42 3.58-8 8-8h119.5c4.43 0 8 3.58 8 8v44c0 4.4-3.57 8-8 8h-119.5c-4.42 0-8-3.6-8-8z" stroke="#c92d39" stroke-width="2" fill="#fff"/><use xlink:href="#g" transform="matrix(1,0,0,1,1635.3152859049644,164.49660416006634) translate(37.01694557632307 21.251342339150206)"/><use xlink:href="#r" transform="matrix(1,0,0,1,1635.3152859049644,164.49660416006634) translate(78.97031668815596 21.251342339150206)"/><use xlink:href="#i" transform="matrix(1,0,0,1,1635.3152859049644,164.49660416006634) translate(31.009302935010478 42.87885584787552)"/><use xlink:href="#j" transform="matrix(1,0,0,1,1635.3152859049644,164.49660416006634) translate(84.97795932946855 42.87885584787552)"/><path d="M1154.62 263c0-4.4 3.58-8 8-8h119.5c4.43 0 8 3.6 8 8v44c0 4.43-3.57 8-8 8h-119.5c-4.42 0-8-3.57-8-8z" stroke="#000" stroke-width="2" fill="#fff"/><use xlink:href="#s" transform="matrix(1,0,0,1,1159.6157158330893,260.01460492198584) translate(55.490446698359264 27.501342339150206)"/><path d="M1312.82 264.43c0-4.42 3.58-8 8-8h119.5c4.43 0 8 3.58 8 8v44c0 4.42-3.57 8-8 8h-119.5c-4.42 0-8-3.58-8-8z" stroke="#000" stroke-width="2" fill="#fff"/><use xlink:href="#s" transform="matrix(1,0,0,1,1317.8209878713335,261.4289334985346) translate(55.490446698359264 27.501342339150206)"/><path d="M1474.5 261.6c0-4.42 3.6-8 8-8h119.52c4.42 0 8 3.58 8 8v44c0 4.42-3.58 8-8 8h-119.5c-4.43 0-8-3.58-8-8z" stroke="#000" stroke-width="2" fill="#fff"/><use xlink:href="#s" transform="matrix(1,0,0,1,1479.5057590850613,258.60027634543763) translate(55.490446698359264 27.501342339150206)"/><path d="M1630.32 261.6c0-4.42 3.58-8 8-8h119.5c4.43 0 8 3.58 8 8v44c0 4.42-3.57 8-8 8h-119.5c-4.42 0-8-3.58-8-8z" stroke="#c92d39" stroke-width="2" fill="#fff"/><use xlink:href="#s" transform="matrix(1,0,0,1,1635.3152859049644,258.60027634543763) translate(55.490446698359264 27.501342339150206)"/><path d="M1154.62 354.3c0-4.43 3.58-8 8-8h119.5c4.43 0 8 3.57 8 8v44c0 4.4-3.57 8-8 8h-119.5c-4.42 0-8-3.6-8-8z" stroke="#000" stroke-width="2" fill="#fff"/><use xlink:href="#s" transform="matrix(1,0,0,1,1159.6157158330893,351.2896199542601) translate(55.490446698359264 27.501342339150206)"/><path d="M1314.56 357.12c0-4.42 3.58-8 8-8h119.5c4.43 0 8 3.58 8 8v44c0 4.42-3.57 8-8 8h-119.5c-4.42 0-8-3.58-8-8z" stroke="#000" stroke-width="2" fill="#fff"/><use xlink:href="#s" transform="matrix(1,0,0,1,1319.5607374590754,354.1182771073572) translate(55.490446698359264 27.501342339150206)"/><path d="M1474.5 352.88c0-4.42 3.6-8 8-8h119.52c4.42 0 8 3.58 8 8v44c0 4.4-3.58 8-8 8h-119.5c-4.43 0-8-3.6-8-8z" stroke="#000" stroke-width="2" fill="#fff"/><use xlink:href="#s" transform="matrix(1,0,0,1,1479.5057590850613,349.87529137771156) translate(55.490446698359264 27.501342339150206)"/><path d="M1630.32 352.88c0-4.42 3.58-8 8-8h119.5c4.43 0 8 3.58 8 8v44c0 4.4-3.57 8-8 8h-119.5c-4.42 0-8-3.6-8-8z" stroke="#c92d39" stroke-width="2" fill="#fff"/><use xlink:href="#s" transform="matrix(1,0,0,1,1635.3152859049649,349.87529137771156) translate(55.490446698359264 27.501342339150206)"/><path d="M1153.42 445.56c0-4.4 3.58-8 8-8h119.5c4.43 0 8 3.6 8 8v44c0 4.42-3.57 8-8 8h-119.5c-4.42 0-8-3.58-8-8z" stroke="#000" stroke-width="2" fill="#fff"/><use xlink:href="#g" transform="matrix(1,0,0,1,1158.417843223919,442.56463498653426) translate(37.01694557632307 21.251342339150206)"/><use xlink:href="#h" transform="matrix(1,0,0,1,1158.417843223919,442.56463498653426) translate(78.97031668815596 21.251342339150206)"/><use xlink:href="#i" transform="matrix(1,0,0,1,1158.417843223919,442.56463498653426) translate(31.009302935010478 42.87885584787552)"/><use xlink:href="#t" transform="matrix(1,0,0,1,1158.417843223919,442.56463498653426) translate(84.97795932946855 42.87885584787552)"/><path d="M1310.43 448.4c0-4.42 3.58-8 8-8h119.5c4.43 0 8 3.58 8 8v44c0 4.4-3.57 8-8 8h-119.5c-4.42 0-8-3.6-8-8z" stroke="#000" stroke-width="2" fill="#fff"/><use xlink:href="#g" transform="matrix(1,0,0,1,1315.4252426529927,445.39329213963134) translate(37.01694557632307 21.251342339150206)"/><use xlink:href="#o" transform="matrix(1,0,0,1,1315.4252426529927,445.39329213963134) translate(78.97031668815596 21.251342339150206)"/><use xlink:href="#i" transform="matrix(1,0,0,1,1315.4252426529927,445.39329213963134) translate(31.009302935010478 42.87885584787552)"/><use xlink:href="#t" transform="matrix(1,0,0,1,1315.4252426529927,445.39329213963134) translate(84.97795932946855 42.87885584787552)"/><path d="M1473.3 445.56c0-4.4 3.6-8 8-8h119.52c4.42 0 8 3.6 8 8v44c0 4.42-3.58 8-8 8h-119.5c-4.43 0-8-3.58-8-8z" stroke="#000" stroke-width="2" fill="#fff"/><use xlink:href="#g" transform="matrix(1,0,0,1,1478.3078864758907,442.56463498653426) translate(37.01694557632307 21.251342339150206)"/><use xlink:href="#p" transform="matrix(1,0,0,1,1478.3078864758907,442.56463498653426) translate(78.97031668815596 21.251342339150206)"/><use xlink:href="#i" transform="matrix(1,0,0,1,1478.3078864758907,442.56463498653426) translate(31.009302935010478 42.87885584787552)"/><use xlink:href="#t" transform="matrix(1,0,0,1,1478.3078864758907,442.56463498653426) translate(84.97795932946855 42.87885584787552)"/><path d="M1630.32 445.56c0-4.4 3.58-8 8-8h119.5c4.43 0 8 3.6 8 8v44c0 4.42-3.57 8-8 8h-119.5c-4.42 0-8-3.58-8-8z" stroke="#c92d39" stroke-width="2" fill="#fff"/><use xlink:href="#g" transform="matrix(1,0,0,1,1635.3152859049653,442.56463498653426) translate(37.01694557632307 21.251342339150206)"/><use xlink:href="#r" transform="matrix(1,0,0,1,1635.3152859049653,442.56463498653426) translate(78.97031668815596 21.251342339150206)"/><use xlink:href="#i" transform="matrix(1,0,0,1,1635.3152859049653,442.56463498653426) translate(31.009302935010478 42.87885584787552)"/><use xlink:href="#t" transform="matrix(1,0,0,1,1635.3152859049653,442.56463498653426) translate(84.97795932946855 42.87885584787552)"/><path d="M996.4 167.5c0-4.42 3.6-8 8-8h119.52c4.42 0 8 3.58 8 8v44c0 4.4-3.58 8-8 8h-119.5c-4.43 0-8-3.6-8-8z" stroke="#000" stroke-width="2" fill="#fff"/><use xlink:href="#u" transform="matrix(1,0,0,1,1001.4104437948447,164.49660416006634) translate(31.009302935010478 27.501342339150206)"/><use xlink:href="#j" transform="matrix(1,0,0,1,1001.4104437948447,164.49660416006634) translate(84.97795932946855 27.501342339150206)"/><path d="M996.4 260.2c0-4.43 3.6-8 8-8h119.52c4.42 0 8 3.57 8 8v44c0 4.4-3.58 8-8 8h-119.5c-4.43 0-8-3.6-8-8z" stroke="#000" stroke-width="2" fill="#fff"/><use xlink:href="#u" transform="matrix(1,0,0,1,1001.4104437948447,257.185947768889) translate(31.009302935010478 27.501342339150206)"/><use xlink:href="#v" transform="matrix(1,0,0,1,1001.4104437948447,257.185947768889) translate(84.97795932946855 27.501342339150206)"/><path d="M996.4 352.88c0-4.42 3.6-8 8-8h119.52c4.42 0 8 3.58 8 8v44c0 4.4-3.58 8-8 8h-119.5c-4.43 0-8-3.6-8-8z" stroke="#000" stroke-width="2" fill="#fff"/><use xlink:href="#u" transform="matrix(1,0,0,1,1001.4104437948447,349.87529137771156) translate(31.009302935010478 27.501342339150206)"/><use xlink:href="#w" transform="matrix(1,0,0,1,1001.4104437948447,349.87529137771156) translate(84.97795932946855 27.501342339150206)"/><path d="M996.4 445.56c0-4.4 3.6-8 8-8h119.52c4.42 0 8 3.6 8 8v44c0 4.42-3.58 8-8 8h-119.5c-4.43 0-8-3.58-8-8z" stroke="#000" stroke-width="2" fill="#fff"/><use xlink:href="#u" transform="matrix(1,0,0,1,1001.4104437948447,442.56463498653426) translate(31.009302935010478 27.501342339150206)"/><use xlink:href="#t" transform="matrix(1,0,0,1,1001.4104437948447,442.56463498653426) translate(84.97795932946855 27.501342339150206)"/><path d="M162.2 182.67h152c4.42 0 8 3.58 8 8v104c0 4.42-3.58 8-8 8h-144c-4.4 0-8-3.58-8-8zm16 0v120m-16-104h160" stroke="#000" stroke-width="2" fill="#019280"/><use xlink:href="#d" transform="matrix(1,0,0,1,183.2063513154398,203.668940062272) translate(31.004207840802085 38.688842339150206)"/><use xlink:href="#e" transform="matrix(1,0,0,1,183.2063513154398,203.668940062272) translate(89.02802301814614 38.688842339150206)"/><use xlink:href="#f" transform="matrix(1,0,0,1,183.2063513154398,203.668940062272) translate(42.994461279088455 60.31635584787552)"/><path d="M185.38 205.84h152c4.42 0 8 3.58 8 8v104c0 4.42-3.58 8-8 8h-144c-4.42 0-8-3.58-8-8zm16 0v120m-16-104h160" stroke="#000" stroke-width="2" fill="#019280"/><use xlink:href="#d" transform="matrix(1,0,0,1,206.3786872176455,226.84127596447752) translate(31.004207840802085 38.688842339150206)"/><use xlink:href="#e" transform="matrix(1,0,0,1,206.3786872176455,226.84127596447752) translate(89.02802301814614 38.688842339150206)"/><use xlink:href="#f" transform="matrix(1,0,0,1,206.3786872176455,226.84127596447752) translate(42.994461279088455 60.31635584787552)"/><path d="M208.55 229h152c4.42 0 8 3.6 8 8v104c0 4.43-3.58 8-8 8h-144c-4.42 0-8-3.57-8-8zm16 0v120m-16-104h160" stroke="#000" stroke-width="2" fill="#019280"/><use xlink:href="#d" transform="matrix(1,0,0,1,229.55102311985115,250.01361186668322) translate(31.004207840802085 38.688842339150206)"/><use xlink:href="#e" transform="matrix(1,0,0,1,229.55102311985115,250.01361186668322) translate(89.02802301814614 38.688842339150206)"/><use xlink:href="#f" transform="matrix(1,0,0,1,229.55102311985115,250.01361186668322) translate(42.994461279088455 60.31635584787552)"/><path d="M380.8 167.5c0-4.42 3.6-8 8-8h110.36c4.42 0 8 3.58 8 8v44c0 4.4-3.58 8-8 8H388.8c-4.4 0-8-3.6-8-8z" stroke="#000" stroke-opacity="0" stroke-width="2" fill="#fff" fill-opacity="0"/><use xlink:href="#x" transform="matrix(1,0,0,1,385.81451017241704,164.49660416006634) translate(-0.5572727507603226 31.488467180441134)"/><path d="M1009.4 136.32c-25.6 0-46.34 20.75-46.34 46.35v278.07c0 25.6 20.74 46.34 46.34 46.34m751.7 0c25.6 0 46.34-20.75 46.34-46.34V182.67c0-25.6-20.75-46.35-46.34-46.35" stroke="#000" stroke-width="2" fill="none"/><path d="M1536.9 584.6c0-4.42 3.58-8 8-8h144c4.4 0 8 3.58 8 8v30.34c0 4.42-3.6 8-8 8h-144c-4.42 0-8-3.58-8-8z" stroke="#000" stroke-opacity="0" stroke-width="2" fill="#019280"/><use xlink:href="#y" transform="matrix(1,0,0,1,1541.8945833841128,581.5986503997686) translate(27.038986246854517 22.751342339150206)"/><use xlink:href="#z" transform="matrix(1,0,0,1,1541.8945833841128,581.5986503997686) translate(88.06662274485488 22.751342339150206)"/><path d="M1536.9 672.75c0-4.42 3.58-8 8-8h144c4.4 0 8 3.58 8 8v62.6c0 4.4-3.6 8-8 8h-144c-4.42 0-8-3.6-8-8z" stroke="#000" stroke-opacity="0" stroke-width="2" fill="#019280"/><use xlink:href="#A" transform="matrix(1,0,0,1,1541.8945833841128,669.7512275988119) translate(50.69407914702282 18.126342339150206)"/><use xlink:href="#B" transform="matrix(1,0,0,1,1541.8945833841128,669.7512275988119) translate(35.52478147770856 39.75385584787552)"/><use xlink:href="#C" transform="matrix(1,0,0,1,1541.8945833841128,669.7512275988119) translate(49.492550618760305 61.381369356600835)"/><path d="M1536.9 891.15c0-4.42 3.58-8 8-8h144c4.4 0 8 3.58 8 8v30.34c0 4.4-3.6 8-8 8h-144c-4.42 0-8-3.6-8-8z" stroke="#000" stroke-opacity="0" stroke-width="2" fill="#019280"/><use xlink:href="#D" transform="matrix(1,0,0,1,1541.8945833841128,888.1481947349622) translate(24.035164926198224 22.751342339150206)"/><use xlink:href="#E" transform="matrix(1,0,0,1,1541.8945833841128,888.1481947349622) translate(85.96394782039548 22.751342339150206)"/><path d="M1541.3 978.53c0-4.42 3.6-8 8-8h144c4.43 0 8 3.58 8 8v40.96c0 4.4-3.57 8-8 8h-144c-4.4 0-8-3.6-8-8z" stroke="#000" stroke-opacity="0" stroke-width="2" fill="#019280"/><use xlink:href="#F" transform="matrix(1,0,0,1,1546.3072860149925,975.5283607372652) translate(34.02287081738041 21.063842339150206)"/><use xlink:href="#G" transform="matrix(1,0,0,1,1546.3072860149925,975.5283607372652) translate(50.994461279088455 42.69135584787552)"/><path d="M1536.9 793.15c0-4.42 3.58-8 8-8h144c4.4 0 8 3.58 8 8v40.96c0 4.43-3.6 8-8 8h-144c-4.42 0-8-3.57-8-8z" stroke="#000" stroke-opacity="0" stroke-width="2" fill="#019280"/><use xlink:href="#H" transform="matrix(1,0,0,1,1541.8945833841128,790.1496735196198) translate(40.03051345869298 21.063842339150206)"/><use xlink:href="#I" transform="matrix(1,0,0,1,1541.8945833841128,790.1496735196198) translate(31.51968638350017 42.69135584787552)"/><path d="M1937.72 139.28l3 1.25 2.6 2 2 2.6 1.24 3 .42 3.2v552.82l-.42 3.2-1.25 3-1.98 2.6-2.6 2-3 1.24-3.2.42h-185.66l-3.2-.43-3-1.25-2.6-2-2-2.6-1.24-3-.43-3.2V611.8l-.4-3-1.14-2.77-1.84-2.4-2.4-1.82-2.74-1.13-3.02-.4h-11.58v-1h11.65l3.2.42 3 1.23 2.6 2 2 2.6 1.24 3 .42 3.2v92.35l.4 3.02 1.13 2.75 1.84 2.4 2.4 1.83 2.74 1.14 3.03.4h185.5l3.03-.4 2.76-1.14 2.38-1.84 1.84-2.4 1.14-2.74.4-3.02v-552.7l-.4-3-1.14-2.76-1.83-2.4-2.38-1.82-2.76-1.14-3.02-.4h-543.2v-1h543.27zm-603.04.58H1234.4l-3 .4-2.77 1.14-2.4 1.83-1.82 2.4-1.13 2.75-.4 3v8.03h-1v-8.07l.42-3.2 1.24-3 2-2.6 2.6-2 3-1.25 3.2-.42h100.34z" fill="#666"/><path d="M1222.87 159.9h-1v-.5h1zM1712.78 604.4l-14.27-4.63 14.28-4.63z" fill="#666"/><path d="M1713.28 605.1l-16.4-5.33 16.4-5.32zm-13.15-5.33l12.15 3.95v-7.9z" fill="#666"/><path d="M1937.72 139.28l3 1.25 2.6 2 2 2.6 1.24 3 .42 3.2V790l-.42 3.22-1.25 3-1.98 2.6-2.6 2-3 1.24-3.2.42h-185.66l-3.2-.42-3-1.25-2.6-1.98-2-2.6-1.24-3-.43-3.2v-73.94l-.4-3.02-1.14-2.75-1.84-2.38-2.4-1.84-2.74-1.14-3.02-.4h-11.58v-1h11.65l3.2.43 3 1.24 2.6 2 2 2.6 1.24 3 .42 3.2v73.94l.4 3.02 1.13 2.76 1.84 2.4 2.4 1.82 2.74 1.14 3.03.4h185.5l3.03-.4 2.76-1.14 2.38-1.83 1.84-2.38 1.14-2.76.4-3.02V151.4l-.4-3.02-1.14-2.76-1.83-2.4-2.38-1.82-2.76-1.14-3.02-.4h-543.2v-1h543.27zm-603.04.58H1234.4l-3 .4-2.77 1.14-2.4 1.83-1.82 2.4-1.13 2.75-.4 3v8.03h-1v-8.07l.42-3.2 1.24-3 2-2.6 2.6-2 3-1.25 3.2-.42h100.34z" fill="#666"/><path d="M1222.87 159.9h-1v-.5h1zM1712.78 708.68l-14.27-4.63 14.28-4.64z" fill="#666"/><path d="M1713.28 709.37l-16.4-5.32 16.4-5.33zm-13.15-5.32l12.15 3.94v-7.9z" fill="#666"/><use xlink:href="#J" transform="matrix(1,0,0,1,1334.6845032664846,118.96952449956598) translate(0.004999999999999005 28.425158295686067)"/><path d="M1823.3 23.75l12.83.7 11.2 1.08 9.93 1.38 8.9 1.63 8.1 1.82 7.4 2 6.82 2.16 6.34 2.3 5.92 2.43 5.55 2.56 5.24 2.68 4.97 2.8 4.75 2.96 4.52 3.1 4.34 3.23 4.2 3.4 4.02 3.57 3.9 3.76 3.8 3.97 3.68 4.2 3.6 4.46 3.5 4.74 3.42 5.07 3.35 5.43 1.37 2.37 3.74 6.96 3.63 7.47 3.5 8.04 3.34 8.7 3.18 9.4 2.98 10.23 2.76 11.17 2.48 12.23 2.14 13.44 1.73 14.83 1.23 16.42.6 18.23-.2 20.3-1.16 22.6-2.36 25.17-3.8 28-5.53 30.92-7.53 33.88-9.76 36.56-12.05 38.62-14.24 39.7-16.05 39.48-17.25 37.8-17.7 34.92-17.5 31.14-16.67 27.02-15.54 22.95-14.23 19.24-12.88 15.96-11.6 13.2-10.44 10.92-9.37 9.03-8.46 7.47-7.64 6.2-6.94 5.2-6.33 4.3-5.8 3.62-5.34 3.02-4.96 2.53-4.6 2.1-4.28 1.76-4.02 1.45-3.8 1.2-3.57.97-1.43.32-.22-.98 1.4-.32 3.55-.96 3.75-1.18 3.98-1.44 4.25-1.74 4.56-2.1 4.9-2.5 5.32-3 5.76-3.6 6.3-4.3 6.9-5.14 7.6-6.18 8.43-7.45 9.35-8.98 10.4-10.9 11.57-13.16 12.86-15.94 14.2-19.2 15.5-22.9 16.67-27 17.46-31.1 17.7-34.86 17.23-37.78 16.03-39.43 14.22-39.67 12.04-38.58 9.75-36.52 7.52-33.83 5.52-30.9 3.8-27.94 2.35-25.13 1.16-22.56.2-20.24-.6-18.18-1.2-16.38-1.74-14.8-2.15-13.4-2.47-12.18-2.74-11.13-2.98-10.2-3.16-9.37-3.33-8.64-3.47-8-3.6-7.44-3.73-6.93-1.35-2.35-3.34-5.4-3.4-5.03-3.48-4.7-3.56-4.43-3.66-4.17-3.76-3.94-3.87-3.72-4-3.55-4.15-3.37-4.3-3.2-4.5-3.08-4.7-2.93-4.93-2.8-5.2-2.66-5.53-2.55-5.88-2.42-6.3-2.28-6.78-2.14-7.36-1.98-8.05-1.8-8.87-1.63-9.9-1.38-11.15-1.07-12.8-.7-14.96-.18-18.06.54-22.85 1.66-31.86 3.66-96.4 15.97-74.24 13.36-50.05 10.48-27.02 6.9-18.53 5.57-13.84 4.82-10.82 4.27-8.72 3.87-7.2 3.57-6.04 3.3-5.14 3.12-4.42 2.94-3.84 2.8-3.37 2.65-2.96 2.56-2.63 2.48-2.34 2.4-2.1 2.33-1.88 2.3-1.7 2.23-1.04 1.48v-1.74l.23-.32 1.72-2.27 1.9-2.32 2.13-2.36 2.38-2.43 2.67-2.5 3-2.6 3.4-2.68 3.88-2.83 4.45-2.95 5.18-3.13 6.08-3.35 7.23-3.6 8.76-3.88 10.86-4.3 13.87-4.8 18.57-5.6 27.06-6.9 50.08-10.5L1639 45.42l96.42-15.97 31.9-3.67 22.88-1.65 18.1-.53zm-442.17 136.32l-.04 2.18-1-.02.03-2.2.02-.28h1z" fill="#666"/><path d="M1381.1 162.24l-.02.5h-1v-.53zM1713.2 816.36l-14.7-2.92 13.62-6.28z" fill="#666"/><path d="M1713.8 817l-16.9-3.37 15.64-7.22zm-13.7-3.75l12.54 2.5-.93-7.85z" fill="#666"/><path d="M1542.27 160.82l.07-3.25.22-3.53.35-3.36.48-3.2.58-3.03.7-2.9.77-2.8.87-2.7.97-2.6 1.06-2.5 1.15-2.45 1.24-2.38 1.34-2.32 1.43-2.26 1.54-2.22 1.65-2.18 1.76-2.14 1.9-2.1 2.03-2.07 2.17-2.05 2.34-2.02 2.53-2 2.7-1.97 2.94-1.96 3.18-1.92 3.44-1.9 3.72-1.84 4.07-1.8 4.44-1.77 4.87-1.68 5.35-1.6 5.86-1.52 6.48-1.37 7.12-1.2 7.87-1 8.7-.72 9.57-.4 10.54.02 11.57.5 12.63 1.05 13.7 1.74 14.72 2.5 15.64 3.33 16.43 4.22 17 5.14 17.36 6.04 17.45 6.9 17.28 7.7 16.9 8.4 16.3 8.95 15.57 9.42 14.73 9.8 13.83 10.04 12.9 10.22 11.97 10.34 11.07 10.4 10.2 10.4 9.34 10.37 8.56 10.34 7.82 10.3 7.13 10.26 6.46 10.2 5.86 10.14 5.3 10.1 4.73 10.1 4.23 10.05 3.74 10.06.56 1.6 3.1 9.8 2.9 10.65 2.63 11.62 2.35 12.72 1.96 13.96 1.52 15.4.95 17 .26 18.86-.6 20.93-1.62 23.23-2.9 25.8-4.4 28.5-6.2 31.3-8.24 34.04-10.44 36.38-12.66 38.1-14.73 38.78-16.38 38.25-17.46 36.47-17.85 33.6-17.6 30.03-16.85 26.2-15.8 22.42-14.57 18.95-13.3 15.9-12.1 13.25-10.98 11.06-9.94 9.23-9.03 7.7-8.23 6.43-7.52 5.4-6.9 4.5-6.37 3.8-5.9 3.2-5.46 2.68-5.12 2.24-4.8 1.86-4.5 1.54-4.27 1.26-4.04 1-2.58.54" stroke="#666" fill="none"/><path d="M1542.77 160.82v.5h-1v-.52z" fill="#666"/><path d="M1702.92 998.84l13.72-6.06.94 9.22z" stroke="#666" fill="#666"/><path d="M1824.88 22.85l12.3.66 10.76 1.05 9.56 1.33 8.6 1.57 7.84 1.76 7.2 1.96 6.65 2.1 6.2 2.24 5.8 2.4 5.5 2.5 5.18 2.67 4.94 2.8 4.72 2.94 4.54 3.1 4.36 3.27 4.22 3.43 4.1 3.63 3.97 3.83 3.9 4.07 3.78 4.32 3.73 4.6 3.65 4.95 3.6 5.3 3.5 5.73 1.46 2.5 3.43 6.4 3.38 6.96 3.3 7.63 3.25 8.4 3.14 9.3 3 10.3 2.84 11.5 2.62 12.9 2.3 14.54 1.93 16.47 1.4 18.74.7 21.43-.25 24.58-1.45 28.25-3.04 32.43-5.06 37.1-7.5 41.95-10.4 46.65-13.43 50.4-16.33 52.37-18.6 51.9-19.83 48.8-19.9 43.67-19.02 37.5-17.53 31.25-15.8 25.57-14 20.72-12.4 16.72-10.9 13.53-9.63 10.96-8.54 8.94-7.62 7.33-6.8 6.04-6.17 5-5.6 4.17-5.08 3.48-4.68 2.9-4.32 2.45-4 2.05-3.73 1.72-3.5 1.43-3.3 1.2-3.1.97-1.52.4-.26-.96 1.5-.4 3.07-.97 3.26-1.16 3.46-1.42 3.7-1.7 3.96-2.03 4.28-2.43 4.64-2.9 5.06-3.44 5.55-4.14 6.14-5 6.8-6 7.58-7.3 8.52-8.92 9.6-10.94 10.88-13.5 12.35-16.68 14-20.68 15.75-25.53 17.52-31.22 19-37.47 19.88-43.64 19.8-48.76 18.6-51.86 16.33-52.34 13.43-50.35 10.37-46.58 7.5-41.93 5.04-37.05 3.03-32.4 1.45-28.2.24-24.53-.7-21.38-1.38-18.7-1.92-16.43-2.3-14.5-2.6-12.85-2.84-11.46-3-10.28-3.12-9.25-3.22-8.36-3.3-7.6-3.36-6.92-3.4-6.35-1.44-2.48-3.52-5.7-3.56-5.27-3.62-4.9-3.7-4.6-3.76-4.28-3.85-4.03-3.95-3.8-4.07-3.6-4.17-3.4-4.34-3.25-4.5-3.07-4.7-2.92-4.9-2.78-5.15-2.64-5.44-2.5-5.77-2.36-6.16-2.24-6.6-2.08-7.17-1.94-7.8-1.75-8.56-1.56-9.52-1.33-10.72-1.03-12.26-.65-14.33-.18-17.25.52-21.87 1.57-30.6 3.5-93.9 15.58-74.65 13.45-52.43 10.98-28.46 7.26-19.53 5.88-14.54 5.05-11.34 4.48-9.12 4.05-7.5 3.7-6.25 3.45-5.3 3.2-4.56 3.03-3.95 2.86-3.43 2.72-3.02 2.6-2.67 2.5-2.37 2.43-2.1 2.34-1.9 2.28-1.7 2.24-.82 1.17v-1.75l1.73-2.28 1.92-2.32 2.13-2.38 2.4-2.45 2.7-2.53 3.05-2.63 3.47-2.76 3.97-2.88 4.6-3.04 5.33-3.24 6.3-3.45 7.53-3.74 9.15-4.07 11.4-4.5 14.57-5.07 19.57-5.88 28.5-7.27 52.47-10.98 74.66-13.46 93.94-15.57 30.65-3.53 21.9-1.58 17.3-.53zm-443.75 137.37l-.04 2.03-1-.02.03-2.05.03-.43h1z" fill="#666"/><path d="M1381.1 162.24l-.02.5h-1v-.53zM1713.27 908.72l-14.77-2.62 13.5-6.56z" fill="#666"/><path d="M1713.86 909.33l-16.97-3 15.5-7.54zm-13.76-3.46l12.58 2.24-1.1-7.8z" fill="#666"/><path d="M371.5 561.43c0-4.42 3.6-8 8-8h144c4.43 0 8 3.58 8 8v30.34c0 4.42-3.57 8-8 8h-144c-4.4 0-8-3.58-8-8z" stroke="#000" stroke-opacity="0" stroke-width="2" fill="#019280"/><use xlink:href="#K" transform="matrix(1,0,0,1,376.5122468520151,558.4263144975629) translate(51.84554398660774 22.751342339150206)"/><path d="M371.5 779.05c0-4.42 3.6-8 8-8h144c4.43 0 8 3.58 8 8v30.35c0 4.4-3.57 8-8 8h-144c-4.4 0-8-3.6-8-8z" stroke="#000" stroke-opacity="0" stroke-width="2" fill="#019280"/><use xlink:href="#L" transform="matrix(1,0,0,1,376.5122468520151,776.0508704369728) translate(40.50611850113023 22.751342339150206)"/><path d="M371.5 845.48c0-4.42 3.6-8 8-8h144c4.43 0 8 3.58 8 8v30.34c0 4.42-3.57 8-8 8h-144c-4.4 0-8-3.58-8-8z" stroke="#000" stroke-opacity="0" stroke-width="2" fill="#019280"/><use xlink:href="#M" transform="matrix(1,0,0,1,376.5122468520151,842.4782333566292) translate(59.50528835428129 22.751342339150206)"/><path d="M371.5 724.64c0-4.4 3.6-8 8-8h144c4.43 0 8 3.6 8 8V755c0 4.4-3.57 8-8 8h-144c-4.4 0-8-3.6-8-8z" stroke="#000" stroke-opacity="0" stroke-width="2" fill="#019280"/><use xlink:href="#N" transform="matrix(1,0,0,1,376.5122468520151,721.6447314521203) translate(42.00802916145838 22.751342339150206)"/><path d="M371.5 909c0-4.4 3.6-8 8-8h144c4.43 0 8 3.6 8 8v30.36c0 4.4-3.57 8-8 8h-144c-4.4 0-8-3.6-8-8z" stroke="#000" stroke-opacity="0" stroke-width="2" fill="#019280"/><use xlink:href="#O" transform="matrix(1,0,0,1,376.5122468520151,906.0113530306481) translate(63.00974656171363 22.751342339150206)"/><path d="M371.5 615.83c0-4.42 3.6-8 8-8h144c4.43 0 8 3.58 8 8v30.35c0 4.42-3.57 8-8 8h-144c-4.4 0-8-3.58-8-8z" stroke="#000" stroke-opacity="0" stroke-width="2" fill="#019280"/><use xlink:href="#P" transform="matrix(1,0,0,1,376.5122468520151,612.8324534824154) translate(38.528602798364844 22.751342339150206)"/><use xlink:href="#Q" transform="matrix(1,0,0,1,376.5122468520151,612.8324534824154) translate(82.48452145730192 22.751342339150206)"/><path d="M371.5 972.54c0-4.4 3.6-8 8-8h144c4.43 0 8 3.6 8 8v62.6c0 4.4-3.57 8-8 8h-144c-4.4 0-8-3.6-8-8z" stroke="#000" stroke-opacity="0" stroke-width="2" fill="#019280"/><g><use xlink:href="#R" transform="matrix(1,0,0,1,376.5122468520151,969.5444727046668) translate(13.997395346338447 18.126342339150206)"/><use xlink:href="#S" transform="matrix(1,0,0,1,376.5122468520151,969.5444727046668) translate(76.0263056178909 18.126342339150206)"/><use xlink:href="#T" transform="matrix(1,0,0,1,376.5122468520151,969.5444727046668) translate(34.02287081738041 39.75385584787552)"/><use xlink:href="#U" transform="matrix(1,0,0,1,376.5122468520151,969.5444727046668) translate(35.524781477708544 61.381369356600835)"/></g><path d="M370.37 670.24c0-4.42 3.58-8 8-8h144c4.42 0 8 3.58 8 8v30.34c0 4.42-3.58 8-8 8h-144c-4.42 0-8-3.58-8-8z" stroke="#000" stroke-opacity="0" stroke-width="2" fill="#019280"/><g><use xlink:href="#V" transform="matrix(1,0,0,1,375.37266070457645,667.238592467268) translate(16.024974737781445 22.751342339150206)"/><use xlink:href="#W" transform="matrix(1,0,0,1,375.37266070457645,667.238592467268) translate(94.97541178236435 22.751342339150206)"/></g><path d="M382.83 553.43c-13.68 0-24.76 11.08-24.76 24.75v437.1c0 13.68 11.08 24.77 24.76 24.77m148.55 0c13.67 0 24.76-11.1 24.76-24.76V578.17c0-13.67-11.1-24.75-24.76-24.75" stroke="#000" stroke-width="2" fill="none"/><path d="M23.17 746.8c0-4.4 3.58-8 8-8h110.35c4.42 0 8 3.6 8 8v44c0 4.42-3.58 8-8 8H31.17c-4.42 0-8-3.58-8-8z" stroke="#000" stroke-opacity="0" stroke-width="2" fill="#fff" fill-opacity="0"/><g><use xlink:href="#X" transform="matrix(1,0,0,1,28.172335902205674,743.805001715208) translate(-6.994032723595243 31.488467180441134)"/></g><path d="M185.42 606.6h107.8c4.4 0 8 3.6 8 8v52.62c0 4.42-3.6 8-8 8h-99.8c-4.42 0-8-3.58-8-8zm11.58 0v68.62m-11.58-57.04h115.8" stroke="#c92d39" stroke-width="4" fill="#019280"/><g><use xlink:href="#Y" transform="matrix(1,0,0,1,202.0012970508136,623.1822726384817) translate(12.977 18.126342339150206)"/><use xlink:href="#Z" transform="matrix(1,0,0,1,202.0012970508136,623.1822726384817) translate(66.94565639445807 18.126342339150206)"/><use xlink:href="#aa" transform="matrix(1,0,0,1,202.0012970508136,623.1822726384817) translate(12.977 39.75385584787552)"/><use xlink:href="#ab" transform="matrix(1,0,0,1,202.0012970508136,623.1822726384817) translate(54.9303711118329 39.75385584787552)"/></g><path d="M185.42 678.27h107.8c4.4 0 8 3.58 8 8v54.32c0 4.4-3.6 8-8 8h-99.8c-4.42 0-8-3.6-8-8zm11.58 0v70.32m-11.58-58.75h115.8" stroke="#c92d39" stroke-width="4" fill="#019280"/><g><use xlink:href="#Y" transform="matrix(1,0,0,1,202.0012970508136,694.845392549339) translate(12.977 18.126342339150206)"/><use xlink:href="#ac" transform="matrix(1,0,0,1,202.0012970508136,694.845392549339) translate(66.94565639445807 18.126342339150206)"/><use xlink:href="#aa" transform="matrix(1,0,0,1,202.0012970508136,694.845392549339) translate(12.977 39.75385584787552)"/><use xlink:href="#ab" transform="matrix(1,0,0,1,202.0012970508136,694.845392549339) translate(54.9303711118329 39.75385584787552)"/></g><path d="M185.42 751.57h107.8c4.4 0 8 3.58 8 8v54.32c0 4.4-3.6 8-8 8h-99.8c-4.42 0-8-3.6-8-8zm11.58 0v70.32m-11.58-58.75h115.8" stroke="#c92d39" stroke-width="4" fill="#019280"/><g><use xlink:href="#Y" transform="matrix(1,0,0,1,202.0012970508136,768.1467727309874) translate(12.977 18.126342339150206)"/><use xlink:href="#ad" transform="matrix(1,0,0,1,202.0012970508136,768.1467727309874) translate(66.94565639445807 18.126342339150206)"/><use xlink:href="#aa" transform="matrix(1,0,0,1,202.0012970508136,768.1467727309874) translate(12.977 39.75385584787552)"/><use xlink:href="#ab" transform="matrix(1,0,0,1,202.0012970508136,768.1467727309874) translate(54.9303711118329 39.75385584787552)"/></g><path d="M185.2 823.3H293c4.4 0 8 3.58 8 8v54.32c0 4.42-3.6 8-8 8h-99.8c-4.4 0-8-3.58-8-8zm11.6 0v70.32m-11.6-58.74H301" stroke="#c92d39" stroke-width="4" fill="#019280"/><g><use xlink:href="#Y" transform="matrix(1,0,0,1,201.786244995326,839.8761560712788) translate(12.977 18.126342339150206)"/><use xlink:href="#ad" transform="matrix(1,0,0,1,201.786244995326,839.8761560712788) translate(66.94565639445807 18.126342339150206)"/><use xlink:href="#aa" transform="matrix(1,0,0,1,201.786244995326,839.8761560712788) translate(12.977 39.75385584787552)"/><use xlink:href="#ab" transform="matrix(1,0,0,1,201.786244995326,839.8761560712788) translate(54.9303711118329 39.75385584787552)"/></g><path d="M181.34 599.77c-11.25 0-20.36 9.12-20.36 20.36V899.4c0 11.26 9.1 20.37 20.36 20.37m122.16 0c11.25 0 20.36-9.1 20.36-20.36V620.14c0-11.24-9.1-20.36-20.36-20.36" stroke="#000" stroke-width="2" fill="none"/><path d="M1876.96 325.87c0-4.4 3.58-8 8-8h110.34c4.42 0 8 3.6 8 8v44c0 4.42-3.58 8-8 8h-110.34c-4.42 0-8-3.58-8-8z" stroke="#000" stroke-opacity="0" stroke-width="2" fill="#fff"/><g><use xlink:href="#ae" transform="matrix(1,0,0,1,1881.9592080786606,322.8736654320648) translate(-0.5572727507603226 31.488467180441134)"/></g><path d="M579.9 200.64h107.8c4.4 0 8 3.58 8 8v30.34c0 4.42-3.6 8-8 8h-99.8c-4.42 0-8-3.58-8-8zm11.58 0v46.34m-11.58-34.76h115.8" stroke="#000" stroke-width="2" fill="#019280"/><g><use xlink:href="#k" transform="matrix(1,0,0,1,596.479771672128,217.21543644784356) translate(21.516945576323064 19.688842339150206)"/><use xlink:href="#l" transform="matrix(1,0,0,1,596.479771672128,217.21543644784356) translate(63.47031668815596 19.688842339150206)"/></g><path d="M579.9 273.15h107.8c4.4 0 8 3.58 8 8v30.35c0 4.4-3.6 8-8 8h-99.8c-4.42 0-8-3.6-8-8zm11.58 0v46.35m-11.58-34.77h115.8" stroke="#000" stroke-width="2" fill="#019280"/><g><use xlink:href="#k" transform="matrix(1,0,0,1,596.479771672128,289.7308182088138) translate(21.516945576323064 19.688842339150206)"/><use xlink:href="#m" transform="matrix(1,0,0,1,596.479771672128,289.7308182088138) translate(63.47031668815596 19.688842339150206)"/></g><path d="M579.9 345.67h107.8c4.4 0 8 3.58 8 8V384c0 4.43-3.6 8-8 8h-99.8c-4.42 0-8-3.57-8-8zm11.58 0V392m-11.58-34.75h115.8" stroke="#000" stroke-width="2" fill="#019280"/><g><use xlink:href="#k" transform="matrix(1,0,0,1,596.479771672128,362.2461999697848) translate(21.516945576323064 19.688842339150206)"/><use xlink:href="#n" transform="matrix(1,0,0,1,596.479771672128,362.2461999697848) translate(63.47031668815596 19.688842339150206)"/></g><path d="M579.7 418.18h107.77c4.42 0 8 3.58 8 8v30.35c0 4.42-3.58 8-8 8H587.7c-4.43 0-8-3.58-8-8zm11.56 0v46.35m-11.57-34.77h115.77" stroke="#000" stroke-width="2" fill="#019280"/><g><use xlink:href="#k" transform="matrix(1,0,0,1,596.2647196166404,434.76158173075476) translate(21.516945576323064 19.688842339150206)"/><use xlink:href="#q" transform="matrix(1,0,0,1,596.2647196166404,434.76158173075476) translate(63.47031668815596 19.688842339150206)"/></g><path d="M626.25 223.8h107.78c4.42 0 8 3.6 8 8v30.35c0 4.42-3.58 8-8 8h-99.78c-4.42 0-8-3.58-8-8zm11.57 0v46.35m-11.57-34.76h115.78" stroke="#000" stroke-width="2" fill="#019280"/><g><use xlink:href="#k" transform="matrix(1,0,0,1,642.8244434765393,240.38777235004932) translate(21.516945576323064 19.688842339150206)"/><use xlink:href="#l" transform="matrix(1,0,0,1,642.8244434765393,240.38777235004932) translate(63.47031668815596 19.688842339150206)"/></g><path d="M626.25 296.32h107.78c4.42 0 8 3.6 8 8v30.35c0 4.42-3.58 8-8 8h-99.78c-4.42 0-8-3.58-8-8zm11.57 0v46.35m-11.57-34.77h115.78" stroke="#000" stroke-width="2" fill="#019280"/><g><use xlink:href="#k" transform="matrix(1,0,0,1,642.8244434765393,312.90315411101955) translate(21.516945576323064 19.688842339150206)"/><use xlink:href="#m" transform="matrix(1,0,0,1,642.8244434765393,312.90315411101955) translate(63.47031668815596 19.688842339150206)"/></g><path d="M626.25 368.84h107.78c4.42 0 8 3.58 8 8v30.34c0 4.42-3.58 8-8 8h-99.78c-4.42 0-8-3.58-8-8zm11.57 0v46.34m-11.57-34.76h115.78" stroke="#000" stroke-width="2" fill="#019280"/><g><use xlink:href="#k" transform="matrix(1,0,0,1,642.8244434765393,385.41853587199034) translate(21.516945576323064 19.688842339150206)"/><use xlink:href="#n" transform="matrix(1,0,0,1,642.8244434765393,385.41853587199034) translate(63.47031668815596 19.688842339150206)"/></g><path d="M626.03 441.36h107.8c4.4 0 8 3.58 8 8v30.34c0 4.42-3.6 8-8 8h-99.8c-4.42 0-8-3.58-8-8zm11.58 0v46.34m-11.57-34.77h115.8" stroke="#000" stroke-width="2" fill="#019280"/><g><use xlink:href="#k" transform="matrix(1,0,0,1,642.6093914210517,457.9339176329603) translate(21.516945576323064 19.688842339150206)"/><use xlink:href="#q" transform="matrix(1,0,0,1,642.6093914210517,457.9339176329603) translate(63.47031668815596 19.688842339150206)"/></g><path d="M672.6 246.98h107.78c4.42 0 8 3.58 8 8v30.35c0 4.4-3.58 8-8 8h-99.8c-4.4 0-8-3.6-8-8zm11.57 0v46.35m-11.58-34.77h115.78" stroke="#000" stroke-width="2" fill="#019280"/><g><use xlink:href="#k" transform="matrix(1,0,0,1,689.1691152809506,263.5601082522551) translate(21.516945576323064 19.688842339150206)"/><use xlink:href="#l" transform="matrix(1,0,0,1,689.1691152809506,263.5601082522551) translate(63.47031668815596 19.688842339150206)"/></g><path d="M672.6 319.5h107.78c4.42 0 8 3.58 8 8v30.34c0 4.42-3.58 8-8 8h-99.8c-4.4 0-8-3.58-8-8zm11.57 0v46.34m-11.58-34.76h115.78" stroke="#000" stroke-width="2" fill="#019280"/><g><use xlink:href="#k" transform="matrix(1,0,0,1,689.1691152809506,336.0754900132253) translate(21.516945576323064 19.688842339150206)"/><use xlink:href="#m" transform="matrix(1,0,0,1,689.1691152809506,336.0754900132253) translate(63.47031668815596 19.688842339150206)"/></g><path d="M672.6 392h107.78c4.42 0 8 3.6 8 8v30.36c0 4.4-3.58 8-8 8h-99.8c-4.4 0-8-3.6-8-8zm11.57 0v46.36M672.6 403.6h115.78" stroke="#000" stroke-width="2" fill="#019280"/><g><use xlink:href="#k" transform="matrix(1,0,0,1,689.1691152809506,408.59087177419576) translate(21.516945576323064 19.688842339150206)"/><use xlink:href="#n" transform="matrix(1,0,0,1,689.1691152809506,408.59087177419576) translate(63.47031668815596 19.688842339150206)"/></g><path d="M672.38 464.53h107.78c4.42 0 8 3.58 8 8v30.34c0 4.42-3.58 8-8 8h-99.78c-4.42 0-8-3.58-8-8zm11.57 0v46.34m-11.57-34.76h115.78" stroke="#000" stroke-width="2" fill="#019280"/><g><use xlink:href="#k" transform="matrix(1,0,0,1,688.954063225463,481.10625353516605) translate(21.516945576323064 19.688842339150206)"/><use xlink:href="#q" transform="matrix(1,0,0,1,688.954063225463,481.10625353516605) translate(63.47031668815596 19.688842339150206)"/></g><path d="M694.8 167.5c0-4.42 3.58-8 8-8h110.34c4.42 0 8 3.58 8 8v44c0 4.4-3.58 8-8 8H702.8c-4.42 0-8-3.6-8-8z" stroke="#000" stroke-opacity="0" stroke-width="2" fill="#fff" fill-opacity="0"/><g><use xlink:href="#ae" transform="matrix(1,0,0,1,699.7969785552383,164.49660416006634) translate(-0.5572727507603226 31.488467180441134)"/></g><path d="M391.5 293c0-4.4 3.6-8 8-8h14c4.43 0 8-3.57 8-8v-14c0-4.4 3.6-8 8-8h44c4.43 0 8 3.6 8 8v14c0 4.43 3.6 8 8 8h14c4.43 0 8 3.6 8 8v44c0 4.43-3.57 8-8 8h-14c-4.4 0-8 3.6-8 8v14c0 4.43-3.57 8-8 8h-44c-4.4 0-8-3.57-8-8v-14c0-4.4-3.57-8-8-8h-14c-4.4 0-8-3.57-8-8z" stroke="#000" stroke-width="4" fill="#ffc374"/><g><use xlink:href="#af" transform="matrix(1,0,0,1,391.51224685204215,255.01460492198584) translate(14.363371792600457 63.49586872176455)"/></g><path d="M802.05 284.77c0-4.42 3.58-8 8-8h20.83c4.42 0 8-3.58 8-8v-22.42c0-4.4 3.58-8 8-8h57.67c4.42 0 8 3.6 8 8v22.42c0 4.42 3.58 8 8 8h20.84c4.4 0 8 3.58 8 8v60.83c0 4.42-3.6 8-8 8h-20.85c-4.42 0-8 3.58-8 8V384c0 4.43-3.58 8-8 8h-57.67c-4.42 0-8-3.57-8-8v-22.4c0-4.42-3.58-8-8-8h-20.83c-4.42 0-8-3.58-8-8z" stroke="#000" stroke-width="4" fill="#3aa6dd"/><g><use xlink:href="#ag" transform="matrix(1,0,0,1,802.0481642522248,238.3546775932297) translate(25.112808006318833 79.99586872176455)"/></g><defs><path d="M185-189c-5-48-123-54-124 2 14 75 158 14 163 119 3 78-121 87-175 55-17-10-28-26-33-46l33-7c5 56 141 63 141-1 0-78-155-14-162-118-5-82 145-84 179-34 5 7 8 16 11 25" id="ah"/><path d="M59-47c-2 24 18 29 38 22v24C64 9 27 4 27-40v-127H5v-23h24l9-43h21v43h35v23H59v120" id="ai"/><path d="M141-36C126-15 110 5 73 4 37 3 15-17 15-53c-1-64 63-63 125-63 3-35-9-54-41-54-24 1-41 7-42 31l-33-3c5-37 33-52 76-52 45 0 72 20 72 64v82c-1 20 7 32 28 27v20c-31 9-61-2-59-35zM48-53c0 20 12 33 32 33 41-3 63-29 60-74-43 2-92-5-92 41" id="aj"/><path d="M117-194c89-4 53 116 60 194h-32v-121c0-31-8-49-39-48C34-167 62-67 57 0H25l-1-190h30c1 10-1 24 2 32 11-22 29-35 61-36" id="ak"/><g id="a"><use transform="matrix(0.08582346630446551,0,0,0.08582346630446551,0,0)" xlink:href="#ah"/><use transform="matrix(0.08582346630446551,0,0,0.08582346630446551,20.597631913071723,0)" xlink:href="#ai"/><use transform="matrix(0.08582346630446551,0,0,0.08582346630446551,29.179978543518274,0)" xlink:href="#aj"/><use transform="matrix(0.08582346630446551,0,0,0.08582346630446551,46.34467180441138,0)" xlink:href="#ak"/></g><path d="M212-179c-10-28-35-45-73-45-59 0-87 40-87 99 0 60 29 101 89 101 43 0 62-24 78-52l27 14C228-24 195 4 139 4 59 4 22-46 18-125c-6-104 99-153 187-111 19 9 31 26 39 46" id="al"/><path d="M24 0v-261h32V0H24" id="am"/><path d="M135-143c-3-34-86-38-87 0 15 53 115 12 119 90S17 21 10-45l28-5c4 36 97 45 98 0-10-56-113-15-118-90-4-57 82-63 122-42 12 7 21 19 24 35" id="an"/><g id="b"><use transform="matrix(0.08582346630446551,0,0,0.08582346630446551,0,0)" xlink:href="#al"/><use transform="matrix(0.08582346630446551,0,0,0.08582346630446551,22.22827777285657,0)" xlink:href="#am"/><use transform="matrix(0.08582346630446551,0,0,0.08582346630446551,29.00833161090934,0)" xlink:href="#aj"/><use transform="matrix(0.08582346630446551,0,0,0.08582346630446551,46.17302487180245,0)" xlink:href="#an"/><use transform="matrix(0.08582346630446551,0,0,0.08582346630446551,61.62124880660624,0)" xlink:href="#an"/></g><path d="M24-231v-30h32v30H24zM24 0v-190h32V0H24" id="ao"/><path d="M115-194c53 0 69 39 70 98 0 66-23 100-70 100C84 3 66-7 56-30L54 0H23l1-261h32v101c10-23 28-34 59-34zm-8 174c40 0 45-34 45-75 0-40-5-75-45-74-42 0-51 32-51 76 0 43 10 73 51 73" id="ap"/><path d="M100-194c63 0 86 42 84 106H49c0 40 14 67 53 68 26 1 43-12 49-29l28 8c-11 28-37 45-77 45C44 4 14-33 15-96c1-61 26-98 85-98zm52 81c6-60-76-77-97-28-3 7-6 17-6 28h103" id="aq"/><g id="c"><use transform="matrix(0.08582346630446551,0,0,0.08582346630446551,0,0)" xlink:href="#ai"/><use transform="matrix(0.08582346630446551,0,0,0.08582346630446551,8.582346630446551,0)" xlink:href="#ao"/><use transform="matrix(0.08582346630446551,0,0,0.08582346630446551,15.362400468499326,0)" xlink:href="#ap"/><use transform="matrix(0.08582346630446551,0,0,0.08582346630446551,32.52709372939243,0)" xlink:href="#ap"/><use transform="matrix(0.08582346630446551,0,0,0.08582346630446551,49.69178699028554,0)" xlink:href="#am"/><use transform="matrix(0.08582346630446551,0,0,0.08582346630446551,56.47184082833831,0)" xlink:href="#aq"/></g><path fill="#fff" d="M30-248c87 1 191-15 191 75 0 78-77 80-158 76V0H30v-248zm33 125c57 0 124 11 124-50 0-59-68-47-124-48v98" id="ar"/><path fill="#fff" d="M141-36C126-15 110 5 73 4 37 3 15-17 15-53c-1-64 63-63 125-63 3-35-9-54-41-54-24 1-41 7-42 31l-33-3c5-37 33-52 76-52 45 0 72 20 72 64v82c-1 20 7 32 28 27v20c-31 9-61-2-59-35zM48-53c0 20 12 33 32 33 41-3 63-29 60-74-43 2-92-5-92 41" id="as"/><path fill="#fff" d="M114-163C36-179 61-72 57 0H25l-1-190h30c1 12-1 29 2 39 6-27 23-49 58-41v29" id="at"/><path fill="#fff" d="M100-194c63 0 86 42 84 106H49c0 40 14 67 53 68 26 1 43-12 49-29l28 8c-11 28-37 45-77 45C44 4 14-33 15-96c1-61 26-98 85-98zm52 81c6-60-76-77-97-28-3 7-6 17-6 28h103" id="au"/><path fill="#fff" d="M117-194c89-4 53 116 60 194h-32v-121c0-31-8-49-39-48C34-167 62-67 57 0H25l-1-190h30c1 10-1 24 2 32 11-22 29-35 61-36" id="av"/><path fill="#fff" d="M59-47c-2 24 18 29 38 22v24C64 9 27 4 27-40v-127H5v-23h24l9-43h21v43h35v23H59v120" id="aw"/><g id="d"><use transform="matrix(0.050063688677604884,0,0,0.050063688677604884,0,0)" xlink:href="#ar"/><use transform="matrix(0.050063688677604884,0,0,0.050063688677604884,12.015285282625172,0)" xlink:href="#as"/><use transform="matrix(0.050063688677604884,0,0,0.050063688677604884,22.02802301814615,0)" xlink:href="#at"/><use transform="matrix(0.050063688677604884,0,0,0.050063688677604884,27.98560197078113,0)" xlink:href="#au"/><use transform="matrix(0.050063688677604884,0,0,0.050063688677604884,37.99833970630211,0)" xlink:href="#av"/><use transform="matrix(0.050063688677604884,0,0,0.050063688677604884,48.01107744182309,0)" xlink:href="#aw"/></g><path fill="#fff" d="M101-234c-31-9-42 10-38 44h38v23H63V0H32v-167H5v-23h27c-7-52 17-82 69-68v24" id="ax"/><path fill="#fff" d="M24-231v-30h32v30H24zM24 0v-190h32V0H24" id="ay"/><g id="e"><use transform="matrix(0.050063688677604884,0,0,0.050063688677604884,0,0)" xlink:href="#ax"/><use transform="matrix(0.050063688677604884,0,0,0.050063688677604884,5.0063688677604885,0)" xlink:href="#ay"/><use transform="matrix(0.050063688677604884,0,0,0.050063688677604884,8.961400273291275,0)" xlink:href="#aw"/></g><path fill="#fff" d="M100-194c62-1 85 37 85 99 1 63-27 99-86 99S16-35 15-95c0-66 28-99 85-99zM99-20c44 1 53-31 53-75 0-43-8-75-51-75s-53 32-53 75 10 74 51 75" id="az"/><path fill="#fff" d="M115-194c53 0 69 39 70 98 0 66-23 100-70 100C84 3 66-7 56-30L54 0H23l1-261h32v101c10-23 28-34 59-34zm-8 174c40 0 45-34 45-75 0-40-5-75-45-74-42 0-51 32-51 76 0 43 10 73 51 73" id="aA"/><path fill="#fff" d="M24-231v-30h32v30H24zM-9 49c24 4 33-6 33-30v-209h32V24c2 40-23 58-65 49V49" id="aB"/><path fill="#fff" d="M96-169c-40 0-48 33-48 73s9 75 48 75c24 0 41-14 43-38l32 2c-6 37-31 61-74 61-59 0-76-41-82-99-10-93 101-131 147-64 4 7 5 14 7 22l-32 3c-4-21-16-35-41-35" id="aC"/><g id="f"><use transform="matrix(0.050063688677604884,0,0,0.050063688677604884,0,0)" xlink:href="#az"/><use transform="matrix(0.050063688677604884,0,0,0.050063688677604884,10.012737735520977,0)" xlink:href="#aA"/><use transform="matrix(0.050063688677604884,0,0,0.050063688677604884,20.025475471041954,0)" xlink:href="#aB"/><use transform="matrix(0.050063688677604884,0,0,0.050063688677604884,23.98050687657274,0)" xlink:href="#au"/><use transform="matrix(0.050063688677604884,0,0,0.050063688677604884,33.99324461209372,0)" xlink:href="#aC"/><use transform="matrix(0.050063688677604884,0,0,0.050063688677604884,43.0047085740626,0)" xlink:href="#aw"/></g><path d="M96-169c-40 0-48 33-48 73s9 75 48 75c24 0 41-14 43-38l32 2c-6 37-31 61-74 61-59 0-76-41-82-99-10-93 101-131 147-64 4 7 5 14 7 22l-32 3c-4-21-16-35-41-35" id="aD"/><path d="M106-169C34-169 62-67 57 0H25v-261h32l-1 103c12-21 28-36 61-36 89 0 53 116 60 194h-32v-121c2-32-8-49-39-48" id="aE"/><path d="M85-194c31 0 48 13 60 33l-1-100h32l1 261h-30c-2-10 0-23-3-31C134-8 116 4 85 4 32 4 16-35 15-94c0-66 23-100 70-100zm9 24c-40 0-46 34-46 75 0 40 6 74 45 74 42 0 51-32 51-76 0-42-9-74-50-73" id="aF"/><g id="g"><use transform="matrix(0.050063688677604884,0,0,0.050063688677604884,0,0)" xlink:href="#aD"/><use transform="matrix(0.050063688677604884,0,0,0.050063688677604884,9.011463961968879,0)" xlink:href="#aE"/><use transform="matrix(0.050063688677604884,0,0,0.050063688677604884,19.024201697489858,0)" xlink:href="#ao"/><use transform="matrix(0.050063688677604884,0,0,0.050063688677604884,22.979233103020643,0)" xlink:href="#am"/><use transform="matrix(0.050063688677604884,0,0,0.050063688677604884,26.93426450855143,0)" xlink:href="#aF"/></g><path d="M27 0v-27h64v-190l-56 39v-29l58-41h29v221h61V0H27" id="aG"/><use transform="matrix(0.050063688677604884,0,0,0.050063688677604884,0,0)" xlink:href="#aG" id="h"/><path d="M210-169c-67 3-38 105-44 169h-31v-121c0-29-5-50-35-48C34-165 62-65 56 0H25l-1-190h30c1 10-1 24 2 32 10-44 99-50 107 0 11-21 27-35 58-36 85-2 47 119 55 194h-31v-121c0-29-5-49-35-48" id="aH"/><path d="M100-194c62-1 85 37 85 99 1 63-27 99-86 99S16-35 15-95c0-66 28-99 85-99zM99-20c44 1 53-31 53-75 0-43-8-75-51-75s-53 32-53 75 10 74 51 75" id="aI"/><g id="i"><use transform="matrix(0.050063688677604884,0,0,0.050063688677604884,0,0)" xlink:href="#aH"/><use transform="matrix(0.050063688677604884,0,0,0.050063688677604884,14.969042914603861,0)" xlink:href="#aI"/><use transform="matrix(0.050063688677604884,0,0,0.050063688677604884,24.98178065012484,0)" xlink:href="#aF"/><use transform="matrix(0.050063688677604884,0,0,0.050063688677604884,34.99451838564582,0)" xlink:href="#aq"/><use transform="matrix(0.050063688677604884,0,0,0.050063688677604884,45.0072561211668,0)" xlink:href="#am"/></g><use transform="matrix(0.050063688677604884,0,0,0.050063688677604884,0,0)" xlink:href="#aG" id="j"/><path fill="#fff" d="M106-169C34-169 62-67 57 0H25v-261h32l-1 103c12-21 28-36 61-36 89 0 53 116 60 194h-32v-121c2-32-8-49-39-48" id="aJ"/><path fill="#fff" d="M24 0v-261h32V0H24" id="aK"/><path fill="#fff" d="M85-194c31 0 48 13 60 33l-1-100h32l1 261h-30c-2-10 0-23-3-31C134-8 116 4 85 4 32 4 16-35 15-94c0-66 23-100 70-100zm9 24c-40 0-46 34-46 75 0 40 6 74 45 74 42 0 51-32 51-76 0-42-9-74-50-73" id="aL"/><g id="k"><use transform="matrix(0.050063688677604884,0,0,0.050063688677604884,0,0)" xlink:href="#aC"/><use transform="matrix(0.050063688677604884,0,0,0.050063688677604884,9.011463961968879,0)" xlink:href="#aJ"/><use transform="matrix(0.050063688677604884,0,0,0.050063688677604884,19.024201697489858,0)" xlink:href="#ay"/><use transform="matrix(0.050063688677604884,0,0,0.050063688677604884,22.979233103020643,0)" xlink:href="#aK"/><use transform="matrix(0.050063688677604884,0,0,0.050063688677604884,26.93426450855143,0)" xlink:href="#aL"/></g><path fill="#fff" d="M27 0v-27h64v-190l-56 39v-29l58-41h29v221h61V0H27" id="aM"/><use transform="matrix(0.050063688677604884,0,0,0.050063688677604884,0,0)" xlink:href="#aM" id="l"/><path fill="#fff" d="M101-251c82-7 93 87 43 132L82-64C71-53 59-42 53-27h129V0H18c2-99 128-94 128-182 0-28-16-43-45-43s-46 15-49 41l-32-3c6-41 34-60 81-64" id="aN"/><use transform="matrix(0.050063688677604884,0,0,0.050063688677604884,0,0)" xlink:href="#aN" id="m"/><path fill="#fff" d="M126-127c33 6 58 20 58 59 0 88-139 92-164 29-3-8-5-16-6-25l32-3c6 27 21 44 54 44 32 0 52-15 52-46 0-38-36-46-79-43v-28c39 1 72-4 72-42 0-27-17-43-46-43-28 0-47 15-49 41l-32-3c6-42 35-63 81-64 48-1 79 21 79 65 0 36-21 52-52 59" id="aO"/><use transform="matrix(0.050063688677604884,0,0,0.050063688677604884,0,0)" xlink:href="#aO" id="n"/><path d="M101-251c82-7 93 87 43 132L82-64C71-53 59-42 53-27h129V0H18c2-99 128-94 128-182 0-28-16-43-45-43s-46 15-49 41l-32-3c6-41 34-60 81-64" id="aP"/><use transform="matrix(0.050063688677604884,0,0,0.050063688677604884,0,0)" xlink:href="#aP" id="o"/><path d="M126-127c33 6 58 20 58 59 0 88-139 92-164 29-3-8-5-16-6-25l32-3c6 27 21 44 54 44 32 0 52-15 52-46 0-38-36-46-79-43v-28c39 1 72-4 72-42 0-27-17-43-46-43-28 0-47 15-49 41l-32-3c6-42 35-63 81-64 48-1 79 21 79 65 0 36-21 52-52 59" id="aQ"/><use transform="matrix(0.050063688677604884,0,0,0.050063688677604884,0,0)" xlink:href="#aQ" id="p"/><path fill="#fff" d="M155-56V0h-30v-56H8v-25l114-167h33v167h35v25h-35zm-30-156c-27 46-58 90-88 131h88v-131" id="aR"/><use transform="matrix(0.050063688677604884,0,0,0.050063688677604884,0,0)" xlink:href="#aR" id="q"/><path d="M155-56V0h-30v-56H8v-25l114-167h33v167h35v25h-35zm-30-156c-27 46-58 90-88 131h88v-131" id="aS"/><use transform="matrix(0.050063688677604884,0,0,0.050063688677604884,0,0)" xlink:href="#aS" id="r"/><path d="M33 0v-38h34V0H33" id="aT"/><g id="s"><use transform="matrix(0.050063688677604884,0,0,0.050063688677604884,0,0)" xlink:href="#aT"/><use transform="matrix(0.050063688677604884,0,0,0.050063688677604884,5.0063688677604885,0)" xlink:href="#aT"/><use transform="matrix(0.050063688677604884,0,0,0.050063688677604884,10.012737735520977,0)" xlink:href="#aT"/></g><use transform="matrix(0.050063688677604884,0,0,0.050063688677604884,0,0)" xlink:href="#aS" id="t"/><g id="u"><use transform="matrix(0.050063688677604884,0,0,0.050063688677604884,0,0)" xlink:href="#aH"/><use transform="matrix(0.050063688677604884,0,0,0.050063688677604884,14.969042914603861,0)" xlink:href="#aI"/><use transform="matrix(0.050063688677604884,0,0,0.050063688677604884,24.98178065012484,0)" xlink:href="#aF"/><use transform="matrix(0.050063688677604884,0,0,0.050063688677604884,34.99451838564582,0)" xlink:href="#aq"/><use transform="matrix(0.050063688677604884,0,0,0.050063688677604884,45.0072561211668,0)" xlink:href="#am"/></g><use transform="matrix(0.050063688677604884,0,0,0.050063688677604884,0,0)" xlink:href="#aP" id="v"/><use transform="matrix(0.050063688677604884,0,0,0.050063688677604884,0,0)" xlink:href="#aQ" id="w"/><path d="M135-194c53 0 70 44 70 98 0 56-19 98-73 100-31 1-45-17-59-34 3 33 2 69 2 105H25l-1-265h48c2 10 0 23 3 31 11-24 29-35 60-35zM114-30c33 0 39-31 40-66 0-38-9-64-40-64-56 0-55 130 0 130" id="aU"/><path d="M85 4C-2 5 27-109 22-190h50c7 57-23 150 33 157 60-5 35-97 40-157h50l1 190h-47c-2-12 1-28-3-38-12 25-28 42-61 42" id="aV"/><path d="M135-150c-39-12-60 13-60 57V0H25l-1-190h47c2 13-1 29 3 40 6-28 27-53 61-41v41" id="aW"/><path d="M35-132v-50h50v50H35zM35 0v-49h50V0H35" id="aX"/><path d="M220-157c-53 9-28 100-34 157h-49v-107c1-27-5-49-29-50C55-147 81-57 75 0H25l-1-190h47c2 12-1 28 3 38 10-53 101-56 108 0 13-22 24-43 59-42 82 1 51 116 57 194h-49v-107c-1-25-5-48-29-50" id="aY"/><path d="M133-34C117-15 103 5 69 4 32 3 11-16 11-54c-1-60 55-63 116-61 1-26-3-47-28-47-18 1-26 9-28 27l-52-2c7-38 36-58 82-57s74 22 75 68l1 82c-1 14 12 18 25 15v27c-30 8-71 5-69-32zm-48 3c29 0 43-24 42-57-32 0-66-3-65 30 0 17 8 27 23 27" id="aZ"/><g id="x"><use transform="matrix(0.06436759972834913,0,0,0.06436759972834913,0,0)" xlink:href="#aU"/><use transform="matrix(0.06436759972834913,0,0,0.06436759972834913,14.09650434050846,0)" xlink:href="#aV"/><use transform="matrix(0.06436759972834913,0,0,0.06436759972834913,28.19300868101692,0)" xlink:href="#aW"/><use transform="matrix(0.06436759972834913,0,0,0.06436759972834913,37.2044726429858,0)" xlink:href="#aW"/><use transform="matrix(0.06436759972834913,0,0,0.06436759972834913,46.21593660495468,0)" xlink:href="#aW"/><use transform="matrix(0.06436759972834913,0,0,0.06436759972834913,55.227400566923556,0)" xlink:href="#aX"/><use transform="matrix(0.06436759972834913,0,0,0.06436759972834913,62.8871449345971,0)" xlink:href="#aX"/><use transform="matrix(0.06436759972834913,0,0,0.06436759972834913,70.54688930227064,0)" xlink:href="#aY"/><use transform="matrix(0.06436759972834913,0,0,0.06436759972834913,91.14452121534237,0)" xlink:href="#aZ"/><use transform="matrix(0.06436759972834913,0,0,0.06436759972834913,104.01804116101219,0)" xlink:href="#aU"/></g><path fill="#fff" d="M194 0L95-120 63-95V0H30v-248h33v124l119-124h40L117-140 236 0h-42" id="ba"/><path fill="#fff" d="M115-194c55 1 70 41 70 98S169 2 115 4C84 4 66-9 55-30l1 105H24l-1-265h31l2 30c10-21 28-34 59-34zm-8 174c40 0 45-34 45-75s-6-73-45-74c-42 0-51 32-51 76 0 43 10 73 51 73" id="bb"/><g id="y"><use transform="matrix(0.050063688677604884,0,0,0.050063688677604884,0,0)" xlink:href="#ba"/><use transform="matrix(0.050063688677604884,0,0,0.050063688677604884,12.015285282625172,0)" xlink:href="#as"/><use transform="matrix(0.050063688677604884,0,0,0.050063688677604884,22.02802301814615,0)" xlink:href="#bb"/><use transform="matrix(0.050063688677604884,0,0,0.050063688677604884,32.04076075366713,0)" xlink:href="#aK"/><use transform="matrix(0.050063688677604884,0,0,0.050063688677604884,35.99579215919792,0)" xlink:href="#as"/><use transform="matrix(0.050063688677604884,0,0,0.050063688677604884,46.0085298947189,0)" xlink:href="#av"/></g><path fill="#fff" d="M240 0l2-218c-23 76-54 145-80 218h-23L58-218 59 0H30v-248h44l77 211c21-75 51-140 76-211h43V0h-30" id="bc"/><g id="z"><use transform="matrix(0.050063688677604884,0,0,0.050063688677604884,0,0)" xlink:href="#bc"/><use transform="matrix(0.050063688677604884,0,0,0.050063688677604884,14.969042914603861,0)" xlink:href="#au"/><use transform="matrix(0.050063688677604884,0,0,0.050063688677604884,24.98178065012484,0)" xlink:href="#ay"/><use transform="matrix(0.050063688677604884,0,0,0.050063688677604884,28.936812055655622,0)" xlink:href="#at"/></g><path fill="#fff" d="M137 0h-34L2-248h35l83 218 83-218h36" id="bd"/><path fill="#fff" d="M135-143c-3-34-86-38-87 0 15 53 115 12 119 90S17 21 10-45l28-5c4 36 97 45 98 0-10-56-113-15-118-90-4-57 82-63 122-42 12 7 21 19 24 35" id="be"/><path fill="#fff" d="M84 4C-5 8 30-112 23-190h32v120c0 31 7 50 39 49 72-2 45-101 50-169h31l1 190h-30c-1-10 1-25-2-33-11 22-28 36-60 37" id="bf"/><g id="A"><use transform="matrix(0.050063688677604884,0,0,0.050063688677604884,0,0)" xlink:href="#bd"/><use transform="matrix(0.050063688677604884,0,0,0.050063688677604884,11.664839461881938,0)" xlink:href="#ay"/><use transform="matrix(0.050063688677604884,0,0,0.050063688677604884,15.619870867412724,0)" xlink:href="#be"/><use transform="matrix(0.050063688677604884,0,0,0.050063688677604884,24.6313348293816,0)" xlink:href="#bf"/><use transform="matrix(0.050063688677604884,0,0,0.050063688677604884,34.64407256490258,0)" xlink:href="#as"/><use transform="matrix(0.050063688677604884,0,0,0.050063688677604884,44.65681030042356,0)" xlink:href="#aK"/></g><path fill="#fff" d="M108 0H70L1-190h34L89-25l56-165h34" id="bg"/><g id="B"><use transform="matrix(0.050063688677604884,0,0,0.050063688677604884,0,0)" xlink:href="#ar"/><use transform="matrix(0.050063688677604884,0,0,0.050063688677604884,12.015285282625172,0)" xlink:href="#at"/><use transform="matrix(0.050063688677604884,0,0,0.050063688677604884,17.972864235260154,0)" xlink:href="#au"/><use transform="matrix(0.050063688677604884,0,0,0.050063688677604884,27.98560197078113,0)" xlink:href="#aL"/><use transform="matrix(0.050063688677604884,0,0,0.050063688677604884,37.99833970630211,0)" xlink:href="#ay"/><use transform="matrix(0.050063688677604884,0,0,0.050063688677604884,41.953371111832894,0)" xlink:href="#aC"/><use transform="matrix(0.050063688677604884,0,0,0.050063688677604884,50.96483507380177,0)" xlink:href="#aw"/><use transform="matrix(0.050063688677604884,0,0,0.050063688677604884,55.97120394156226,0)" xlink:href="#ay"/><use transform="matrix(0.050063688677604884,0,0,0.050063688677604884,59.92623534709305,0)" xlink:href="#bg"/><use transform="matrix(0.050063688677604884,0,0,0.050063688677604884,68.93769930906191,0)" xlink:href="#au"/></g><path fill="#fff" d="M212-179c-10-28-35-45-73-45-59 0-87 40-87 99 0 60 29 101 89 101 43 0 62-24 78-52l27 14C228-24 195 4 139 4 59 4 22-46 18-125c-6-104 99-153 187-111 19 9 31 26 39 46" id="bh"/><path fill="#fff" d="M143 0L79-87 56-68V0H24v-261h32v163l83-92h37l-77 82L181 0h-38" id="bi"/><g id="C"><use transform="matrix(0.050063688677604884,0,0,0.050063688677604884,0,0)" xlink:href="#bh"/><use transform="matrix(0.050063688677604884,0,0,0.050063688677604884,12.966495367499665,0)" xlink:href="#aJ"/><use transform="matrix(0.050063688677604884,0,0,0.050063688677604884,22.97923310302064,0)" xlink:href="#au"/><use transform="matrix(0.050063688677604884,0,0,0.050063688677604884,32.99197083854162,0)" xlink:href="#aC"/><use transform="matrix(0.050063688677604884,0,0,0.050063688677604884,42.0034348005105,0)" xlink:href="#bi"/></g><path fill="#fff" d="M63-220v92h138v28H63V0H30v-248h175v28H63" id="bj"/><g id="D"><use transform="matrix(0.050063688677604884,0,0,0.050063688677604884,0,0)" xlink:href="#bj"/><use transform="matrix(0.050063688677604884,0,0,0.050063688677604884,10.96394782039547,0)" xlink:href="#az"/><use transform="matrix(0.050063688677604884,0,0,0.050063688677604884,20.976685555916447,0)" xlink:href="#at"/><use transform="matrix(0.050063688677604884,0,0,0.050063688677604884,26.93426450855143,0)" xlink:href="#at"/><use transform="matrix(0.050063688677604884,0,0,0.050063688677604884,32.89184346118641,0)" xlink:href="#au"/><use transform="matrix(0.050063688677604884,0,0,0.050063688677604884,42.90458119670739,0)" xlink:href="#be"/><use transform="matrix(0.050063688677604884,0,0,0.050063688677604884,51.91604515867626,0)" xlink:href="#aw"/></g><g id="E"><use transform="matrix(0.050063688677604884,0,0,0.050063688677604884,0,0)" xlink:href="#ar"/><use transform="matrix(0.050063688677604884,0,0,0.050063688677604884,12.015285282625172,0)" xlink:href="#aK"/><use transform="matrix(0.050063688677604884,0,0,0.050063688677604884,15.970316688155958,0)" xlink:href="#az"/><use transform="matrix(0.050063688677604884,0,0,0.050063688677604884,25.983054423676936,0)" xlink:href="#aw"/><use transform="matrix(0.050063688677604884,0,0,0.050063688677604884,30.989423291437422,0)" xlink:href="#be"/></g><path fill="#fff" d="M210-169c-67 3-38 105-44 169h-31v-121c0-29-5-50-35-48C34-165 62-65 56 0H25l-1-190h30c1 10-1 24 2 32 10-44 99-50 107 0 11-21 27-35 58-36 85-2 47 119 55 194h-31v-121c0-29-5-49-35-48" id="bk"/><g id="F"><use transform="matrix(0.050063688677604884,0,0,0.050063688677604884,0,0)" xlink:href="#bb"/><use transform="matrix(0.050063688677604884,0,0,0.050063688677604884,10.012737735520977,0)" xlink:href="#as"/><use transform="matrix(0.050063688677604884,0,0,0.050063688677604884,20.025475471041954,0)" xlink:href="#at"/><use transform="matrix(0.050063688677604884,0,0,0.050063688677604884,25.983054423676936,0)" xlink:href="#as"/><use transform="matrix(0.050063688677604884,0,0,0.050063688677604884,35.99579215919791,0)" xlink:href="#bk"/><use transform="matrix(0.050063688677604884,0,0,0.050063688677604884,50.96483507380177,0)" xlink:href="#au"/><use transform="matrix(0.050063688677604884,0,0,0.050063688677604884,60.97757280932275,0)" xlink:href="#aw"/><use transform="matrix(0.050063688677604884,0,0,0.050063688677604884,65.98394167708324,0)" xlink:href="#au"/><use transform="matrix(0.050063688677604884,0,0,0.050063688677604884,75.99667941260421,0)" xlink:href="#at"/></g><g id="G"><use transform="matrix(0.050063688677604884,0,0,0.050063688677604884,0,0)" xlink:href="#aw"/><use transform="matrix(0.050063688677604884,0,0,0.050063688677604884,5.0063688677604885,0)" xlink:href="#as"/><use transform="matrix(0.050063688677604884,0,0,0.050063688677604884,15.019106603281465,0)" xlink:href="#aA"/><use transform="matrix(0.050063688677604884,0,0,0.050063688677604884,25.031844338802443,0)" xlink:href="#aK"/><use transform="matrix(0.050063688677604884,0,0,0.050063688677604884,28.98687574433323,0)" xlink:href="#au"/><use transform="matrix(0.050063688677604884,0,0,0.050063688677604884,38.999613479854204,0)" xlink:href="#be"/></g><g id="H"><use transform="matrix(0.050063688677604884,0,0,0.050063688677604884,0,0)" xlink:href="#bb"/><use transform="matrix(0.050063688677604884,0,0,0.050063688677604884,10.012737735520977,0)" xlink:href="#az"/><use transform="matrix(0.050063688677604884,0,0,0.050063688677604884,20.025475471041954,0)" xlink:href="#be"/><use transform="matrix(0.050063688677604884,0,0,0.050063688677604884,29.036939433010833,0)" xlink:href="#aw"/><use transform="matrix(0.050063688677604884,0,0,0.050063688677604884,34.04330830077132,0)" xlink:href="#au"/><use transform="matrix(0.050063688677604884,0,0,0.050063688677604884,44.0560460362923,0)" xlink:href="#at"/><use transform="matrix(0.050063688677604884,0,0,0.050063688677604884,50.01362498892728,0)" xlink:href="#ay"/><use transform="matrix(0.050063688677604884,0,0,0.050063688677604884,53.968656394458066,0)" xlink:href="#az"/><use transform="matrix(0.050063688677604884,0,0,0.050063688677604884,63.981394129979044,0)" xlink:href="#at"/></g><g id="I"><use transform="matrix(0.050063688677604884,0,0,0.050063688677604884,0,0)" xlink:href="#bb"/><use transform="matrix(0.050063688677604884,0,0,0.050063688677604884,10.012737735520977,0)" xlink:href="#at"/><use transform="matrix(0.050063688677604884,0,0,0.050063688677604884,15.970316688155958,0)" xlink:href="#au"/><use transform="matrix(0.050063688677604884,0,0,0.050063688677604884,25.983054423676936,0)" xlink:href="#aL"/><use transform="matrix(0.050063688677604884,0,0,0.050063688677604884,35.99579215919791,0)" xlink:href="#ay"/><use transform="matrix(0.050063688677604884,0,0,0.050063688677604884,39.950823564728694,0)" xlink:href="#aC"/><use transform="matrix(0.050063688677604884,0,0,0.050063688677604884,48.96228752669757,0)" xlink:href="#aw"/><use transform="matrix(0.050063688677604884,0,0,0.050063688677604884,53.96865639445805,0)" xlink:href="#ay"/><use transform="matrix(0.050063688677604884,0,0,0.050063688677604884,57.92368779998884,0)" xlink:href="#az"/><use transform="matrix(0.050063688677604884,0,0,0.050063688677604884,67.93642553550981,0)" xlink:href="#av"/><use transform="matrix(0.050063688677604884,0,0,0.050063688677604884,77.94916327103078,0)" xlink:href="#be"/></g><path fill="#fff" d="M127-220V0H93v-220H8v-28h204v28h-85" id="bl"/><path fill="#fff" d="M141 0L90-78 38 0H4l68-98-65-92h35l48 74 47-74h35l-64 92 68 98h-35" id="bm"/><g id="J"><use transform="matrix(0.08582346630446551,0,0,0.08582346630446551,0,0)" xlink:href="#bl"/><use transform="matrix(0.08582346630446551,0,0,0.08582346630446551,15.362400468499326,0)" xlink:href="#au"/><use transform="matrix(0.08582346630446551,0,0,0.08582346630446551,32.52709372939243,0)" xlink:href="#bm"/><use transform="matrix(0.08582346630446551,0,0,0.08582346630446551,47.97531766419623,0)" xlink:href="#aw"/></g><path fill="#fff" d="M266 0h-40l-56-210L115 0H75L2-248h35L96-30l15-64 43-154h32l59 218 59-218h35" id="bn"/><path fill="#fff" d="M205 0l-28-72H64L36 0H1l101-248h38L239 0h-34zm-38-99l-47-123c-12 45-31 82-46 123h93" id="bo"/><path fill="#fff" d="M33 0v-248h34V0H33" id="bp"/><g id="K"><use transform="matrix(0.050063688677604884,0,0,0.050063688677604884,0,0)" xlink:href="#bn"/><use transform="matrix(0.050063688677604884,0,0,0.050063688677604884,16.32076250889919,0)" xlink:href="#bo"/><use transform="matrix(0.050063688677604884,0,0,0.050063688677604884,28.336047791524358,0)" xlink:href="#bp"/><use transform="matrix(0.050063688677604884,0,0,0.050063688677604884,33.34241665928485,0)" xlink:href="#bh"/></g><g id="L"><use transform="matrix(0.050063688677604884,0,0,0.050063688677604884,0,0)" xlink:href="#aw"/><use transform="matrix(0.050063688677604884,0,0,0.050063688677604884,5.0063688677604885,0)" xlink:href="#at"/><use transform="matrix(0.050063688677604884,0,0,0.050063688677604884,10.96394782039547,0)" xlink:href="#as"/><use transform="matrix(0.050063688677604884,0,0,0.050063688677604884,20.976685555916447,0)" xlink:href="#aC"/><use transform="matrix(0.050063688677604884,0,0,0.050063688677604884,29.988149517885326,0)" xlink:href="#au"/><use transform="matrix(0.050063688677604884,0,0,0.050063688677604884,40.000887253406304,0)" xlink:href="#bb"/><use transform="matrix(0.050063688677604884,0,0,0.050063688677604884,50.01362498892728,0)" xlink:href="#aK"/><use transform="matrix(0.050063688677604884,0,0,0.050063688677604884,53.968656394458066,0)" xlink:href="#az"/><use transform="matrix(0.050063688677604884,0,0,0.050063688677604884,63.981394129979044,0)" xlink:href="#aw"/></g><g id="M"><use transform="matrix(0.050063688677604884,0,0,0.050063688677604884,0,0)" xlink:href="#at"/><use transform="matrix(0.050063688677604884,0,0,0.050063688677604884,5.957578952634981,0)" xlink:href="#aJ"/><use transform="matrix(0.050063688677604884,0,0,0.050063688677604884,15.970316688155958,0)" xlink:href="#as"/><use transform="matrix(0.050063688677604884,0,0,0.050063688677604884,25.983054423676936,0)" xlink:href="#aw"/></g><path fill="#fff" d="M16-82v-28h88v28H16" id="bq"/><g id="N"><use transform="matrix(0.050063688677604884,0,0,0.050063688677604884,0,0)" xlink:href="#bb"/><use transform="matrix(0.050063688677604884,0,0,0.050063688677604884,10.012737735520977,0)" xlink:href="#as"/><use transform="matrix(0.050063688677604884,0,0,0.050063688677604884,20.025475471041954,0)" xlink:href="#at"/><use transform="matrix(0.050063688677604884,0,0,0.050063688677604884,25.983054423676936,0)" xlink:href="#au"/><use transform="matrix(0.050063688677604884,0,0,0.050063688677604884,35.99579215919791,0)" xlink:href="#aw"/><use transform="matrix(0.050063688677604884,0,0,0.050063688677604884,41.0021610269584,0)" xlink:href="#az"/><use transform="matrix(0.050063688677604884,0,0,0.050063688677604884,51.014898762479376,0)" xlink:href="#bq"/><use transform="matrix(0.050063688677604884,0,0,0.050063688677604884,56.97247771511436,0)" xlink:href="#bi"/></g><g id="O"><use transform="matrix(0.050063688677604884,0,0,0.050063688677604884,0,0)" xlink:href="#aK"/><use transform="matrix(0.050063688677604884,0,0,0.050063688677604884,3.955031405530786,0)" xlink:href="#az"/><use transform="matrix(0.050063688677604884,0,0,0.050063688677604884,13.967769141051763,0)" xlink:href="#az"/></g><g id="P"><use transform="matrix(0.050063688677604884,0,0,0.050063688677604884,0,0)" xlink:href="#bb"/><use transform="matrix(0.050063688677604884,0,0,0.050063688677604884,10.012737735520977,0)" xlink:href="#as"/><use transform="matrix(0.050063688677604884,0,0,0.050063688677604884,20.025475471041954,0)" xlink:href="#ay"/><use transform="matrix(0.050063688677604884,0,0,0.050063688677604884,23.98050687657274,0)" xlink:href="#at"/><use transform="matrix(0.050063688677604884,0,0,0.050063688677604884,29.938085829207722,0)" xlink:href="#be"/></g><g id="Q"><use transform="matrix(0.050063688677604884,0,0,0.050063688677604884,0,0)" xlink:href="#bb"/><use transform="matrix(0.050063688677604884,0,0,0.050063688677604884,10.012737735520977,0)" xlink:href="#aK"/><use transform="matrix(0.050063688677604884,0,0,0.050063688677604884,13.967769141051763,0)" xlink:href="#az"/><use transform="matrix(0.050063688677604884,0,0,0.050063688677604884,23.98050687657274,0)" xlink:href="#aw"/></g><g id="R"><use transform="matrix(0.050063688677604884,0,0,0.050063688677604884,0,0)" xlink:href="#be"/><use transform="matrix(0.050063688677604884,0,0,0.050063688677604884,9.011463961968879,0)" xlink:href="#bf"/><use transform="matrix(0.050063688677604884,0,0,0.050063688677604884,19.024201697489858,0)" xlink:href="#aA"/><use transform="matrix(0.050063688677604884,0,0,0.050063688677604884,29.03693943301084,0)" xlink:href="#aB"/><use transform="matrix(0.050063688677604884,0,0,0.050063688677604884,32.99197083854162,0)" xlink:href="#au"/><use transform="matrix(0.050063688677604884,0,0,0.050063688677604884,43.0047085740626,0)" xlink:href="#aC"/><use transform="matrix(0.050063688677604884,0,0,0.050063688677604884,52.016172536031476,0)" xlink:href="#aw"/></g><g id="S"><use transform="matrix(0.050063688677604884,0,0,0.050063688677604884,0,0)" xlink:href="#be"/><use transform="matrix(0.050063688677604884,0,0,0.050063688677604884,9.011463961968879,0)" xlink:href="#bb"/><use transform="matrix(0.050063688677604884,0,0,0.050063688677604884,19.024201697489858,0)" xlink:href="#au"/><use transform="matrix(0.050063688677604884,0,0,0.050063688677604884,29.03693943301084,0)" xlink:href="#aC"/><use transform="matrix(0.050063688677604884,0,0,0.050063688677604884,38.048403394979715,0)" xlink:href="#ay"/><use transform="matrix(0.050063688677604884,0,0,0.050063688677604884,42.003434800510504,0)" xlink:href="#ax"/><use transform="matrix(0.050063688677604884,0,0,0.050063688677604884,47.00980366827099,0)" xlink:href="#ay"/><use transform="matrix(0.050063688677604884,0,0,0.050063688677604884,50.96483507380178,0)" xlink:href="#aC"/></g><g id="T"><use transform="matrix(0.050063688677604884,0,0,0.050063688677604884,0,0)" xlink:href="#bb"/><use transform="matrix(0.050063688677604884,0,0,0.050063688677604884,10.012737735520977,0)" xlink:href="#as"/><use transform="matrix(0.050063688677604884,0,0,0.050063688677604884,20.025475471041954,0)" xlink:href="#at"/><use transform="matrix(0.050063688677604884,0,0,0.050063688677604884,25.983054423676936,0)" xlink:href="#as"/><use transform="matrix(0.050063688677604884,0,0,0.050063688677604884,35.99579215919791,0)" xlink:href="#bk"/><use transform="matrix(0.050063688677604884,0,0,0.050063688677604884,50.96483507380177,0)" xlink:href="#au"/><use transform="matrix(0.050063688677604884,0,0,0.050063688677604884,60.97757280932275,0)" xlink:href="#aw"/><use transform="matrix(0.050063688677604884,0,0,0.050063688677604884,65.98394167708324,0)" xlink:href="#au"/><use transform="matrix(0.050063688677604884,0,0,0.050063688677604884,75.99667941260421,0)" xlink:href="#at"/></g><g id="U"><use transform="matrix(0.050063688677604884,0,0,0.050063688677604884,0,0)" xlink:href="#bb"/><use transform="matrix(0.050063688677604884,0,0,0.050063688677604884,10.012737735520977,0)" xlink:href="#az"/><use transform="matrix(0.050063688677604884,0,0,0.050063688677604884,20.025475471041954,0)" xlink:href="#be"/><use transform="matrix(0.050063688677604884,0,0,0.050063688677604884,29.036939433010833,0)" xlink:href="#aw"/><use transform="matrix(0.050063688677604884,0,0,0.050063688677604884,34.04330830077132,0)" xlink:href="#au"/><use transform="matrix(0.050063688677604884,0,0,0.050063688677604884,44.0560460362923,0)" xlink:href="#at"/><use transform="matrix(0.050063688677604884,0,0,0.050063688677604884,50.01362498892728,0)" xlink:href="#ay"/><use transform="matrix(0.050063688677604884,0,0,0.050063688677604884,53.968656394458066,0)" xlink:href="#az"/><use transform="matrix(0.050063688677604884,0,0,0.050063688677604884,63.981394129979044,0)" xlink:href="#at"/><use transform="matrix(0.050063688677604884,0,0,0.050063688677604884,69.93897308261403,0)" xlink:href="#be"/></g><path fill="#fff" d="M179-190L93 31C79 59 56 82 12 73V49c39 6 53-20 64-50L1-190h34L92-34l54-156h33" id="br"/><g id="V"><use transform="matrix(0.050063688677604884,0,0,0.050063688677604884,0,0)" xlink:href="#be"/><use transform="matrix(0.050063688677604884,0,0,0.050063688677604884,9.011463961968879,0)" xlink:href="#bf"/><use transform="matrix(0.050063688677604884,0,0,0.050063688677604884,19.024201697489858,0)" xlink:href="#bk"/><use transform="matrix(0.050063688677604884,0,0,0.050063688677604884,33.99324461209372,0)" xlink:href="#bk"/><use transform="matrix(0.050063688677604884,0,0,0.050063688677604884,48.96228752669758,0)" xlink:href="#as"/><use transform="matrix(0.050063688677604884,0,0,0.050063688677604884,58.97502526221855,0)" xlink:href="#at"/><use transform="matrix(0.050063688677604884,0,0,0.050063688677604884,64.93260421485354,0)" xlink:href="#br"/></g><g id="W"><use transform="matrix(0.050063688677604884,0,0,0.050063688677604884,0,0)" xlink:href="#aw"/><use transform="matrix(0.050063688677604884,0,0,0.050063688677604884,5.0063688677604885,0)" xlink:href="#as"/><use transform="matrix(0.050063688677604884,0,0,0.050063688677604884,15.019106603281465,0)" xlink:href="#aA"/><use transform="matrix(0.050063688677604884,0,0,0.050063688677604884,25.031844338802443,0)" xlink:href="#aK"/><use transform="matrix(0.050063688677604884,0,0,0.050063688677604884,28.98687574433323,0)" xlink:href="#au"/></g><path d="M182-182c0 78-84 86-111 141h115V0H12c-6-101 99-100 120-180 1-22-12-31-33-32-23 0-32 14-35 34l-49-3c5-45 32-70 84-70 51 0 83 22 83 69" id="bs"/><g id="X"><use transform="matrix(0.06436759972834913,0,0,0.06436759972834913,0,0)" xlink:href="#aU"/><use transform="matrix(0.06436759972834913,0,0,0.06436759972834913,14.09650434050846,0)" xlink:href="#aV"/><use transform="matrix(0.06436759972834913,0,0,0.06436759972834913,28.19300868101692,0)" xlink:href="#aW"/><use transform="matrix(0.06436759972834913,0,0,0.06436759972834913,37.2044726429858,0)" xlink:href="#aW"/><use transform="matrix(0.06436759972834913,0,0,0.06436759972834913,46.21593660495468,0)" xlink:href="#aW"/><use transform="matrix(0.06436759972834913,0,0,0.06436759972834913,55.227400566923556,0)" xlink:href="#aX"/><use transform="matrix(0.06436759972834913,0,0,0.06436759972834913,62.8871449345971,0)" xlink:href="#aX"/><use transform="matrix(0.06436759972834913,0,0,0.06436759972834913,70.54688930227064,0)" xlink:href="#aY"/><use transform="matrix(0.06436759972834913,0,0,0.06436759972834913,91.14452121534237,0)" xlink:href="#aZ"/><use transform="matrix(0.06436759972834913,0,0,0.06436759972834913,104.01804116101219,0)" xlink:href="#aU"/><use transform="matrix(0.06436759972834913,0,0,0.06436759972834913,118.11454550152065,0)" xlink:href="#bs"/></g><g id="Y"><use transform="matrix(0.050063688677604884,0,0,0.050063688677604884,0,0)" xlink:href="#bk"/><use transform="matrix(0.050063688677604884,0,0,0.050063688677604884,14.969042914603861,0)" xlink:href="#az"/><use transform="matrix(0.050063688677604884,0,0,0.050063688677604884,24.98178065012484,0)" xlink:href="#aL"/><use transform="matrix(0.050063688677604884,0,0,0.050063688677604884,34.99451838564582,0)" xlink:href="#au"/><use transform="matrix(0.050063688677604884,0,0,0.050063688677604884,45.0072561211668,0)" xlink:href="#aK"/></g><use transform="matrix(0.050063688677604884,0,0,0.050063688677604884,0,0)" xlink:href="#aM" id="Z"/><g id="aa"><use transform="matrix(0.050063688677604884,0,0,0.050063688677604884,0,0)" xlink:href="#aC"/><use transform="matrix(0.050063688677604884,0,0,0.050063688677604884,9.011463961968879,0)" xlink:href="#aJ"/><use transform="matrix(0.050063688677604884,0,0,0.050063688677604884,19.024201697489858,0)" xlink:href="#ay"/><use transform="matrix(0.050063688677604884,0,0,0.050063688677604884,22.979233103020643,0)" xlink:href="#aK"/><use transform="matrix(0.050063688677604884,0,0,0.050063688677604884,26.93426450855143,0)" xlink:href="#aL"/></g><use transform="matrix(0.050063688677604884,0,0,0.050063688677604884,0,0)" xlink:href="#aR" id="ab"/><use transform="matrix(0.050063688677604884,0,0,0.050063688677604884,0,0)" xlink:href="#aN" id="ac"/><use transform="matrix(0.050063688677604884,0,0,0.050063688677604884,0,0)" xlink:href="#aO" id="ad"/><g id="ae"><use transform="matrix(0.06436759972834913,0,0,0.06436759972834913,0,0)" xlink:href="#aU"/><use transform="matrix(0.06436759972834913,0,0,0.06436759972834913,14.09650434050846,0)" xlink:href="#aV"/><use transform="matrix(0.06436759972834913,0,0,0.06436759972834913,28.19300868101692,0)" xlink:href="#aW"/><use transform="matrix(0.06436759972834913,0,0,0.06436759972834913,37.2044726429858,0)" xlink:href="#aW"/><use transform="matrix(0.06436759972834913,0,0,0.06436759972834913,46.21593660495468,0)" xlink:href="#aW"/><use transform="matrix(0.06436759972834913,0,0,0.06436759972834913,55.227400566923556,0)" xlink:href="#aX"/><use transform="matrix(0.06436759972834913,0,0,0.06436759972834913,62.8871449345971,0)" xlink:href="#aX"/><use transform="matrix(0.06436759972834913,0,0,0.06436759972834913,70.54688930227064,0)" xlink:href="#aY"/><use transform="matrix(0.06436759972834913,0,0,0.06436759972834913,91.14452121534237,0)" xlink:href="#aZ"/><use transform="matrix(0.06436759972834913,0,0,0.06436759972834913,104.01804116101219,0)" xlink:href="#aU"/></g><path d="M114-163C36-179 61-72 57 0H25l-1-190h30c1 12-1 29 2 39 6-27 23-49 58-41v29" id="bt"/><g id="af"><use transform="matrix(0.06436759972834913,0,0,0.06436759972834913,0,0)" xlink:href="#an"/><use transform="matrix(0.06436759972834913,0,0,0.06436759972834913,11.586167951102842,0)" xlink:href="#aE"/><use transform="matrix(0.06436759972834913,0,0,0.06436759972834913,24.459687896772667,0)" xlink:href="#bt"/><use transform="matrix(0.06436759972834913,0,0,0.06436759972834913,32.11943226444622,0)" xlink:href="#aq"/><use transform="matrix(0.06436759972834913,0,0,0.06436759972834913,44.992952210116044,0)" xlink:href="#aF"/><use transform="matrix(0.06436759972834913,0,0,0.06436759972834913,57.86647215578587,0)" xlink:href="#aF"/><use transform="matrix(0.06436759972834913,0,0,0.06436759972834913,70.7399921014557,0)" xlink:href="#aq"/><use transform="matrix(0.06436759972834913,0,0,0.06436759972834913,83.61351204712552,0)" xlink:href="#bt"/></g><g id="ag"><use transform="matrix(0.06436759972834913,0,0,0.06436759972834913,0,0)" xlink:href="#aw"/><use transform="matrix(0.06436759972834913,0,0,0.06436759972834913,6.4367599728349125,0)" xlink:href="#ay"/><use transform="matrix(0.06436759972834913,0,0,0.06436759972834913,11.521800351374495,0)" xlink:href="#aL"/><use transform="matrix(0.06436759972834913,0,0,0.06436759972834913,24.39532029704432,0)" xlink:href="#br"/><use transform="matrix(0.06436759972834913,0,0,0.06436759972834913,35.981488248147166,0)" xlink:href="#aA"/><use transform="matrix(0.06436759972834913,0,0,0.06436759972834913,48.85500819381699,0)" xlink:href="#as"/><use transform="matrix(0.06436759972834913,0,0,0.06436759972834913,61.72852813948682,0)" xlink:href="#br"/><use transform="matrix(0.06436759972834913,0,0,0.06436759972834913,73.31469609058966,0)" xlink:href="#au"/><use transform="matrix(0.06436759972834913,0,0,0.06436759972834913,86.18821603625949,0)" xlink:href="#be"/></g></defs></g></svg>