<svg xmlns="http://www.w3.org/2000/svg" xmlns:xlink="http://www.w3.org/1999/xlink" xmlns:lucid="lucid" width="2030.45" height="1061.78"><g transform="translate(0 0)" lucid:page-tab-id="m-5o7ONTd-nK"><path d="M0 0h2030.45v1061.78H0z" fill="#fff"/><path d="M115.86 142.06V89.98h719.82v52.08z" stroke="#666" stroke-width="2" fill="#fff"/><path d="M835.68 89.98H1870.1v52.08H835.68z" stroke="#666" stroke-width="2" fill="#fff"/><path d="M835.68 530.25H115.86v-388.2h719.82z" stroke="#666" stroke-width="2" fill="none"/><path d="M1870.1 142.06v388.2H835.68v-388.2z" stroke="#666" stroke-width="2" fill="none"/><use xlink:href="#a" transform="matrix(1,0,0,1,115.86167951098196,89.97959645344912) translate(285.41940778141947 32.679289573921515)"/><use xlink:href="#b" transform="matrix(1,0,0,1,115.86167951098196,89.97959645344912) translate(357.5111194771705 32.679289573921515)"/><use xlink:href="#c" transform="matrix(1,0,0,1,835.6847043454636,89.97959645344912) translate(480.6817329553843 32.679289573921515)"/><path d="M139.03 159.5h152c4.42 0 8 3.58 8 8v104c0 4.4-3.58 8-8 8h-144c-4.4 0-8-3.6-8-8zm16 0v120m-16-104h160" stroke="#000" stroke-width="2" fill="#019280"/><use xlink:href="#d" transform="matrix(1,0,0,1,160.03401541323416,180.49660416006634) translate(31.004207840802085 38.688842339150206)"/><use xlink:href="#e" transform="matrix(1,0,0,1,160.03401541323416,180.49660416006634) translate(89.02802301814614 38.688842339150206)"/><use xlink:href="#f" transform="matrix(1,0,0,1,160.03401541323416,180.49660416006634) translate(42.994461279088455 60.31635584787552)"/><path d="M1154.62 168.9c0-4.4 3.58-8 8-8h119.5c4.43 0 8 3.6 8 8v44c0 4.43-3.57 8-8 8h-119.5c-4.42 0-8-3.57-8-8z" stroke="#000" stroke-width="2" fill="#fff"/><use xlink:href="#g" transform="matrix(1,0,0,1,1159.6157158330893,165.91093273661488) translate(37.01694557632307 21.251342339150206)"/><use xlink:href="#h" transform="matrix(1,0,0,1,1159.6157158330893,165.91093273661488) translate(78.97031668815596 21.251342339150206)"/><use xlink:href="#i" transform="matrix(1,0,0,1,1159.6157158330893,165.91093273661488) translate(31.009302935010478 42.87885584787552)"/><use xlink:href="#j" transform="matrix(1,0,0,1,1159.6157158330893,165.91093273661488) translate(84.97795932946855 42.87885584787552)"/><path d="M542.6 179.67h107.78c4.42 0 8 3.58 8 8v30.35c0 4.4-3.58 8-8 8H550.6c-4.42 0-8-3.6-8-8zm11.57 0v46.35m-11.57-34.77h115.78" stroke="#000" stroke-width="2" fill="#019280"/><use xlink:href="#k" transform="matrix(1,0,0,1,559.1738907847591,196.24945186107777) translate(21.516945576323064 19.688842339150206)"/><use xlink:href="#l" transform="matrix(1,0,0,1,559.1738907847591,196.24945186107777) translate(63.47031668815596 19.688842339150206)"/><path d="M542.6 252.2h107.78c4.42 0 8 3.57 8 8v30.33c0 4.42-3.58 8-8 8H550.6c-4.42 0-8-3.58-8-8zm11.57 0v46.33m-11.57-34.77h115.78" stroke="#000" stroke-width="2" fill="#019280"/><use xlink:href="#k" transform="matrix(1,0,0,1,559.1738907847591,268.76483362204795) translate(21.516945576323064 19.688842339150206)"/><use xlink:href="#m" transform="matrix(1,0,0,1,559.1738907847591,268.76483362204795) translate(63.47031668815596 19.688842339150206)"/><path d="M542.6 324.7h107.78c4.42 0 8 3.58 8 8v30.35c0 4.4-3.58 8-8 8H550.6c-4.42 0-8-3.6-8-8zm11.57 0v46.35m-11.57-34.77h115.78" stroke="#000" stroke-width="2" fill="#019280"/><use xlink:href="#k" transform="matrix(1,0,0,1,559.1738907847591,341.28021538301846) translate(21.516945576323064 19.688842339150206)"/><use xlink:href="#n" transform="matrix(1,0,0,1,559.1738907847591,341.28021538301846) translate(63.47031668815596 19.688842339150206)"/><path d="M1312.82 171.74c0-4.42 3.58-8 8-8h119.5c4.43 0 8 3.58 8 8v44c0 4.42-3.57 8-8 8h-119.5c-4.42 0-8-3.58-8-8z" stroke="#000" stroke-width="2" fill="#fff"/><use xlink:href="#g" transform="matrix(1,0,0,1,1317.820987871334,168.73958988971197) translate(37.01694557632307 21.251342339150206)"/><use xlink:href="#o" transform="matrix(1,0,0,1,1317.820987871334,168.73958988971197) translate(78.97031668815596 21.251342339150206)"/><use xlink:href="#i" transform="matrix(1,0,0,1,1317.820987871334,168.73958988971197) translate(31.009302935010478 42.87885584787552)"/><use xlink:href="#j" transform="matrix(1,0,0,1,1317.820987871334,168.73958988971197) translate(84.97795932946855 42.87885584787552)"/><path d="M1474.5 170.33c0-4.42 3.6-8 8-8h119.52c4.42 0 8 3.58 8 8v44c0 4.4-3.58 8-8 8h-119.5c-4.43 0-8-3.6-8-8z" stroke="#000" stroke-width="2" fill="#fff"/><use xlink:href="#g" transform="matrix(1,0,0,1,1479.5057590850613,167.32526131316342) translate(37.01694557632307 21.251342339150206)"/><use xlink:href="#p" transform="matrix(1,0,0,1,1479.5057590850613,167.32526131316342) translate(78.97031668815596 21.251342339150206)"/><use xlink:href="#i" transform="matrix(1,0,0,1,1479.5057590850613,167.32526131316342) translate(31.009302935010478 42.87885584787552)"/><use xlink:href="#j" transform="matrix(1,0,0,1,1479.5057590850613,167.32526131316342) translate(84.97795932946855 42.87885584787552)"/><path d="M542.38 397.22h107.8c4.4 0 8 3.58 8 8v30.34c0 4.42-3.6 8-8 8h-99.8c-4.42 0-8-3.58-8-8zm11.58 0v46.34m-11.58-34.76h115.8" stroke="#000" stroke-width="2" fill="#019280"/><use xlink:href="#k" transform="matrix(1,0,0,1,558.9588387292715,413.7955971439884) translate(21.516945576323064 19.688842339150206)"/><use xlink:href="#q" transform="matrix(1,0,0,1,558.9588387292715,413.7955971439884) translate(63.47031668815596 19.688842339150206)"/><path d="M1630.32 167.5c0-4.42 3.58-8 8-8h119.5c4.43 0 8 3.58 8 8v44c0 4.4-3.57 8-8 8h-119.5c-4.42 0-8-3.6-8-8z" stroke="#000" stroke-width="2" fill="#fff"/><use xlink:href="#g" transform="matrix(1,0,0,1,1635.3152859049644,164.49660416006634) translate(37.01694557632307 21.251342339150206)"/><use xlink:href="#r" transform="matrix(1,0,0,1,1635.3152859049644,164.49660416006634) translate(78.97031668815596 21.251342339150206)"/><use xlink:href="#i" transform="matrix(1,0,0,1,1635.3152859049644,164.49660416006634) translate(31.009302935010478 42.87885584787552)"/><use xlink:href="#j" transform="matrix(1,0,0,1,1635.3152859049644,164.49660416006634) translate(84.97795932946855 42.87885584787552)"/><path d="M1154.62 263c0-4.4 3.58-8 8-8h119.5c4.43 0 8 3.6 8 8v44c0 4.43-3.57 8-8 8h-119.5c-4.42 0-8-3.57-8-8z" stroke="#000" stroke-width="2" fill="#fff"/><use xlink:href="#s" transform="matrix(1,0,0,1,1159.6157158330893,260.01460492198584) translate(55.490446698359264 27.501342339150206)"/><path d="M1312.82 264.43c0-4.42 3.58-8 8-8h119.5c4.43 0 8 3.58 8 8v44c0 4.42-3.57 8-8 8h-119.5c-4.42 0-8-3.58-8-8z" stroke="#000" stroke-width="2" fill="#fff"/><use xlink:href="#s" transform="matrix(1,0,0,1,1317.8209878713335,261.4289334985346) translate(55.490446698359264 27.501342339150206)"/><path d="M1474.5 261.6c0-4.42 3.6-8 8-8h119.52c4.42 0 8 3.58 8 8v44c0 4.42-3.58 8-8 8h-119.5c-4.43 0-8-3.58-8-8z" stroke="#000" stroke-width="2" fill="#fff"/><use xlink:href="#s" transform="matrix(1,0,0,1,1479.5057590850613,258.60027634543763) translate(55.490446698359264 27.501342339150206)"/><path d="M1630.32 261.6c0-4.42 3.58-8 8-8h119.5c4.43 0 8 3.58 8 8v44c0 4.42-3.57 8-8 8h-119.5c-4.42 0-8-3.58-8-8z" stroke="#000" stroke-width="2" fill="#fff"/><use xlink:href="#s" transform="matrix(1,0,0,1,1635.3152859049644,258.60027634543763) translate(55.490446698359264 27.501342339150206)"/><path d="M1154.62 354.3c0-4.43 3.58-8 8-8h119.5c4.43 0 8 3.57 8 8v44c0 4.4-3.57 8-8 8h-119.5c-4.42 0-8-3.6-8-8z" stroke="#000" stroke-width="2" fill="#fff"/><use xlink:href="#s" transform="matrix(1,0,0,1,1159.6157158330893,351.2896199542601) translate(55.490446698359264 27.501342339150206)"/><path d="M1314.56 357.12c0-4.42 3.58-8 8-8h119.5c4.43 0 8 3.58 8 8v44c0 4.42-3.57 8-8 8h-119.5c-4.42 0-8-3.58-8-8z" stroke="#000" stroke-width="2" fill="#fff"/><use xlink:href="#s" transform="matrix(1,0,0,1,1319.5607374590754,354.1182771073572) translate(55.490446698359264 27.501342339150206)"/><path d="M1474.5 352.88c0-4.42 3.6-8 8-8h119.52c4.42 0 8 3.58 8 8v44c0 4.4-3.58 8-8 8h-119.5c-4.43 0-8-3.6-8-8z" stroke="#000" stroke-width="2" fill="#fff"/><use xlink:href="#s" transform="matrix(1,0,0,1,1479.5057590850613,349.87529137771156) translate(55.490446698359264 27.501342339150206)"/><path d="M1630.32 352.88c0-4.42 3.58-8 8-8h119.5c4.43 0 8 3.58 8 8v44c0 4.4-3.57 8-8 8h-119.5c-4.42 0-8-3.6-8-8z" stroke="#000" stroke-width="2" fill="#fff"/><use xlink:href="#s" transform="matrix(1,0,0,1,1635.3152859049649,349.87529137771156) translate(55.490446698359264 27.501342339150206)"/><path d="M1153.42 445.56c0-4.4 3.58-8 8-8h119.5c4.43 0 8 3.6 8 8v44c0 4.42-3.57 8-8 8h-119.5c-4.42 0-8-3.58-8-8z" stroke="#000" stroke-width="2" fill="#fff"/><use xlink:href="#g" transform="matrix(1,0,0,1,1158.417843223919,442.56463498653426) translate(37.01694557632307 21.251342339150206)"/><use xlink:href="#h" transform="matrix(1,0,0,1,1158.417843223919,442.56463498653426) translate(78.97031668815596 21.251342339150206)"/><use xlink:href="#i" transform="matrix(1,0,0,1,1158.417843223919,442.56463498653426) translate(31.009302935010478 42.87885584787552)"/><use xlink:href="#t" transform="matrix(1,0,0,1,1158.417843223919,442.56463498653426) translate(84.97795932946855 42.87885584787552)"/><path d="M1310.43 448.4c0-4.42 3.58-8 8-8h119.5c4.43 0 8 3.58 8 8v44c0 4.4-3.57 8-8 8h-119.5c-4.42 0-8-3.6-8-8z" stroke="#000" stroke-width="2" fill="#fff"/><use xlink:href="#g" transform="matrix(1,0,0,1,1315.4252426529927,445.39329213963134) translate(37.01694557632307 21.251342339150206)"/><use xlink:href="#o" transform="matrix(1,0,0,1,1315.4252426529927,445.39329213963134) translate(78.97031668815596 21.251342339150206)"/><use xlink:href="#i" transform="matrix(1,0,0,1,1315.4252426529927,445.39329213963134) translate(31.009302935010478 42.87885584787552)"/><use xlink:href="#t" transform="matrix(1,0,0,1,1315.4252426529927,445.39329213963134) translate(84.97795932946855 42.87885584787552)"/><path d="M1473.3 445.56c0-4.4 3.6-8 8-8h119.52c4.42 0 8 3.6 8 8v44c0 4.42-3.58 8-8 8h-119.5c-4.43 0-8-3.58-8-8z" stroke="#000" stroke-width="2" fill="#fff"/><use xlink:href="#g" transform="matrix(1,0,0,1,1478.3078864758907,442.56463498653426) translate(37.01694557632307 21.251342339150206)"/><use xlink:href="#p" transform="matrix(1,0,0,1,1478.3078864758907,442.56463498653426) translate(78.97031668815596 21.251342339150206)"/><use xlink:href="#i" transform="matrix(1,0,0,1,1478.3078864758907,442.56463498653426) translate(31.009302935010478 42.87885584787552)"/><use xlink:href="#t" transform="matrix(1,0,0,1,1478.3078864758907,442.56463498653426) translate(84.97795932946855 42.87885584787552)"/><path d="M1630.32 445.56c0-4.4 3.58-8 8-8h119.5c4.43 0 8 3.6 8 8v44c0 4.42-3.57 8-8 8h-119.5c-4.42 0-8-3.58-8-8z" stroke="#000" stroke-width="2" fill="#fff"/><use xlink:href="#g" transform="matrix(1,0,0,1,1635.3152859049653,442.56463498653426) translate(37.01694557632307 21.251342339150206)"/><use xlink:href="#r" transform="matrix(1,0,0,1,1635.3152859049653,442.56463498653426) translate(78.97031668815596 21.251342339150206)"/><use xlink:href="#i" transform="matrix(1,0,0,1,1635.3152859049653,442.56463498653426) translate(31.009302935010478 42.87885584787552)"/><use xlink:href="#t" transform="matrix(1,0,0,1,1635.3152859049653,442.56463498653426) translate(84.97795932946855 42.87885584787552)"/><path d="M996.4 167.5c0-4.42 3.6-8 8-8h119.52c4.42 0 8 3.58 8 8v44c0 4.4-3.58 8-8 8h-119.5c-4.43 0-8-3.6-8-8z" stroke="#000" stroke-width="2" fill="#fff"/><use xlink:href="#u" transform="matrix(1,0,0,1,1001.4104437948447,164.49660416006634) translate(31.009302935010478 27.501342339150206)"/><use xlink:href="#j" transform="matrix(1,0,0,1,1001.4104437948447,164.49660416006634) translate(84.97795932946855 27.501342339150206)"/><path d="M996.4 260.2c0-4.43 3.6-8 8-8h119.52c4.42 0 8 3.57 8 8v44c0 4.4-3.58 8-8 8h-119.5c-4.43 0-8-3.6-8-8z" stroke="#000" stroke-width="2" fill="#fff"/><use xlink:href="#u" transform="matrix(1,0,0,1,1001.4104437948447,257.185947768889) translate(31.009302935010478 27.501342339150206)"/><use xlink:href="#v" transform="matrix(1,0,0,1,1001.4104437948447,257.185947768889) translate(84.97795932946855 27.501342339150206)"/><path d="M996.4 352.88c0-4.42 3.6-8 8-8h119.52c4.42 0 8 3.58 8 8v44c0 4.4-3.58 8-8 8h-119.5c-4.43 0-8-3.6-8-8z" stroke="#000" stroke-width="2" fill="#fff"/><use xlink:href="#u" transform="matrix(1,0,0,1,1001.4104437948447,349.87529137771156) translate(31.009302935010478 27.501342339150206)"/><use xlink:href="#w" transform="matrix(1,0,0,1,1001.4104437948447,349.87529137771156) translate(84.97795932946855 27.501342339150206)"/><path d="M996.4 445.56c0-4.4 3.6-8 8-8h119.52c4.42 0 8 3.6 8 8v44c0 4.42-3.58 8-8 8h-119.5c-4.43 0-8-3.58-8-8z" stroke="#000" stroke-width="2" fill="#fff"/><use xlink:href="#u" transform="matrix(1,0,0,1,1001.4104437948447,442.56463498653426) translate(31.009302935010478 27.501342339150206)"/><use xlink:href="#t" transform="matrix(1,0,0,1,1001.4104437948447,442.56463498653426) translate(84.97795932946855 27.501342339150206)"/><path d="M162.2 182.67h152c4.42 0 8 3.58 8 8v104c0 4.42-3.58 8-8 8h-144c-4.4 0-8-3.58-8-8zm16 0v120m-16-104h160" stroke="#000" stroke-width="2" fill="#019280"/><use xlink:href="#d" transform="matrix(1,0,0,1,183.2063513154398,203.668940062272) translate(31.004207840802085 38.688842339150206)"/><use xlink:href="#e" transform="matrix(1,0,0,1,183.2063513154398,203.668940062272) translate(89.02802301814614 38.688842339150206)"/><use xlink:href="#f" transform="matrix(1,0,0,1,183.2063513154398,203.668940062272) translate(42.994461279088455 60.31635584787552)"/><path d="M185.38 205.84h152c4.42 0 8 3.58 8 8v104c0 4.42-3.58 8-8 8h-144c-4.42 0-8-3.58-8-8zm16 0v120m-16-104h160" stroke="#000" stroke-width="2" fill="#019280"/><g><use xlink:href="#d" transform="matrix(1,0,0,1,206.3786872176455,226.84127596447752) translate(31.004207840802085 38.688842339150206)"/><use xlink:href="#e" transform="matrix(1,0,0,1,206.3786872176455,226.84127596447752) translate(89.02802301814614 38.688842339150206)"/><use xlink:href="#f" transform="matrix(1,0,0,1,206.3786872176455,226.84127596447752) translate(42.994461279088455 60.31635584787552)"/></g><path d="M208.55 229h152c4.42 0 8 3.6 8 8v104c0 4.43-3.58 8-8 8h-144c-4.42 0-8-3.57-8-8zm16 0v120m-16-104h160" stroke="#000" stroke-width="2" fill="#019280"/><g><use xlink:href="#d" transform="matrix(1,0,0,1,229.55102311985115,250.01361186668322) translate(31.004207840802085 38.688842339150206)"/><use xlink:href="#e" transform="matrix(1,0,0,1,229.55102311985115,250.01361186668322) translate(89.02802301814614 38.688842339150206)"/><use xlink:href="#f" transform="matrix(1,0,0,1,229.55102311985115,250.01361186668322) translate(42.994461279088455 60.31635584787552)"/></g><path d="M380.8 167.5c0-4.42 3.6-8 8-8h110.36c4.42 0 8 3.58 8 8v44c0 4.4-3.58 8-8 8H388.8c-4.4 0-8-3.6-8-8z" stroke="#000" stroke-opacity="0" stroke-width="2" fill="#fff" fill-opacity="0"/><g><use xlink:href="#x" transform="matrix(1,0,0,1,385.81451017241704,164.49660416006634) translate(-0.5572727507603226 31.488467180441134)"/></g><path d="M1009.4 136.32c-25.6 0-46.34 20.75-46.34 46.35v278.07c0 25.6 20.74 46.34 46.34 46.34m751.7 0c25.6 0 46.34-20.75 46.34-46.34V182.67c0-25.6-20.75-46.35-46.34-46.35" stroke="#000" stroke-width="2" fill="none"/><path d="M579.9 200.64h107.8c4.4 0 8 3.58 8 8v30.34c0 4.42-3.6 8-8 8h-99.8c-4.42 0-8-3.58-8-8zm11.58 0v46.34m-11.58-34.76h115.8" stroke="#000" stroke-width="2" fill="#019280"/><g><use xlink:href="#k" transform="matrix(1,0,0,1,596.479771672128,217.21543644784356) translate(21.516945576323064 19.688842339150206)"/><use xlink:href="#l" transform="matrix(1,0,0,1,596.479771672128,217.21543644784356) translate(63.47031668815596 19.688842339150206)"/></g><path d="M579.9 273.15h107.8c4.4 0 8 3.58 8 8v30.35c0 4.4-3.6 8-8 8h-99.8c-4.42 0-8-3.6-8-8zm11.58 0v46.35m-11.58-34.77h115.8" stroke="#000" stroke-width="2" fill="#019280"/><g><use xlink:href="#k" transform="matrix(1,0,0,1,596.479771672128,289.7308182088138) translate(21.516945576323064 19.688842339150206)"/><use xlink:href="#m" transform="matrix(1,0,0,1,596.479771672128,289.7308182088138) translate(63.47031668815596 19.688842339150206)"/></g><path d="M579.9 345.67h107.8c4.4 0 8 3.58 8 8V384c0 4.43-3.6 8-8 8h-99.8c-4.42 0-8-3.57-8-8zm11.58 0V392m-11.58-34.75h115.8" stroke="#000" stroke-width="2" fill="#019280"/><g><use xlink:href="#k" transform="matrix(1,0,0,1,596.479771672128,362.2461999697848) translate(21.516945576323064 19.688842339150206)"/><use xlink:href="#n" transform="matrix(1,0,0,1,596.479771672128,362.2461999697848) translate(63.47031668815596 19.688842339150206)"/></g><path d="M579.7 418.18h107.77c4.42 0 8 3.58 8 8v30.35c0 4.42-3.58 8-8 8H587.7c-4.43 0-8-3.58-8-8zm11.56 0v46.35m-11.57-34.77h115.77" stroke="#000" stroke-width="2" fill="#019280"/><g><use xlink:href="#k" transform="matrix(1,0,0,1,596.2647196166404,434.76158173075476) translate(21.516945576323064 19.688842339150206)"/><use xlink:href="#q" transform="matrix(1,0,0,1,596.2647196166404,434.76158173075476) translate(63.47031668815596 19.688842339150206)"/></g><path d="M626.25 223.8h107.78c4.42 0 8 3.6 8 8v30.35c0 4.42-3.58 8-8 8h-99.78c-4.42 0-8-3.58-8-8zm11.57 0v46.35m-11.57-34.76h115.78" stroke="#000" stroke-width="2" fill="#019280"/><g><use xlink:href="#k" transform="matrix(1,0,0,1,642.8244434765393,240.38777235004932) translate(21.516945576323064 19.688842339150206)"/><use xlink:href="#l" transform="matrix(1,0,0,1,642.8244434765393,240.38777235004932) translate(63.47031668815596 19.688842339150206)"/></g><path d="M626.25 296.32h107.78c4.42 0 8 3.6 8 8v30.35c0 4.42-3.58 8-8 8h-99.78c-4.42 0-8-3.58-8-8zm11.57 0v46.35m-11.57-34.77h115.78" stroke="#000" stroke-width="2" fill="#019280"/><g><use xlink:href="#k" transform="matrix(1,0,0,1,642.8244434765393,312.90315411101955) translate(21.516945576323064 19.688842339150206)"/><use xlink:href="#m" transform="matrix(1,0,0,1,642.8244434765393,312.90315411101955) translate(63.47031668815596 19.688842339150206)"/></g><path d="M626.25 368.84h107.78c4.42 0 8 3.58 8 8v30.34c0 4.42-3.58 8-8 8h-99.78c-4.42 0-8-3.58-8-8zm11.57 0v46.34m-11.57-34.76h115.78" stroke="#000" stroke-width="2" fill="#019280"/><g><use xlink:href="#k" transform="matrix(1,0,0,1,642.8244434765393,385.41853587199034) translate(21.516945576323064 19.688842339150206)"/><use xlink:href="#n" transform="matrix(1,0,0,1,642.8244434765393,385.41853587199034) translate(63.47031668815596 19.688842339150206)"/></g><path d="M626.03 441.36h107.8c4.4 0 8 3.58 8 8v30.34c0 4.42-3.6 8-8 8h-99.8c-4.42 0-8-3.58-8-8zm11.58 0v46.34m-11.57-34.77h115.8" stroke="#000" stroke-width="2" fill="#019280"/><g><use xlink:href="#k" transform="matrix(1,0,0,1,642.6093914210517,457.9339176329603) translate(21.516945576323064 19.688842339150206)"/><use xlink:href="#q" transform="matrix(1,0,0,1,642.6093914210517,457.9339176329603) translate(63.47031668815596 19.688842339150206)"/></g><path d="M672.6 246.98h107.78c4.42 0 8 3.58 8 8v30.35c0 4.4-3.58 8-8 8h-99.8c-4.4 0-8-3.6-8-8zm11.57 0v46.35m-11.58-34.77h115.78" stroke="#000" stroke-width="2" fill="#019280"/><g><use xlink:href="#k" transform="matrix(1,0,0,1,689.1691152809506,263.5601082522551) translate(21.516945576323064 19.688842339150206)"/><use xlink:href="#l" transform="matrix(1,0,0,1,689.1691152809506,263.5601082522551) translate(63.47031668815596 19.688842339150206)"/></g><path d="M672.6 319.5h107.78c4.42 0 8 3.58 8 8v30.34c0 4.42-3.58 8-8 8h-99.8c-4.4 0-8-3.58-8-8zm11.57 0v46.34m-11.58-34.76h115.78" stroke="#000" stroke-width="2" fill="#019280"/><g><use xlink:href="#k" transform="matrix(1,0,0,1,689.1691152809506,336.0754900132253) translate(21.516945576323064 19.688842339150206)"/><use xlink:href="#m" transform="matrix(1,0,0,1,689.1691152809506,336.0754900132253) translate(63.47031668815596 19.688842339150206)"/></g><path d="M672.6 392h107.78c4.42 0 8 3.6 8 8v30.36c0 4.4-3.58 8-8 8h-99.8c-4.4 0-8-3.6-8-8zm11.57 0v46.36M672.6 403.6h115.78" stroke="#000" stroke-width="2" fill="#019280"/><g><use xlink:href="#k" transform="matrix(1,0,0,1,689.1691152809506,408.59087177419576) translate(21.516945576323064 19.688842339150206)"/><use xlink:href="#n" transform="matrix(1,0,0,1,689.1691152809506,408.59087177419576) translate(63.47031668815596 19.688842339150206)"/></g><path d="M672.38 464.53h107.78c4.42 0 8 3.58 8 8v30.34c0 4.42-3.58 8-8 8h-99.78c-4.42 0-8-3.58-8-8zm11.57 0v46.34m-11.57-34.76h115.78" stroke="#000" stroke-width="2" fill="#019280"/><g><use xlink:href="#k" transform="matrix(1,0,0,1,688.954063225463,481.10625353516605) translate(21.516945576323064 19.688842339150206)"/><use xlink:href="#q" transform="matrix(1,0,0,1,688.954063225463,481.10625353516605) translate(63.47031668815596 19.688842339150206)"/></g><path d="M694.8 167.5c0-4.42 3.58-8 8-8h110.34c4.42 0 8 3.58 8 8v44c0 4.4-3.58 8-8 8H702.8c-4.42 0-8-3.6-8-8z" stroke="#000" stroke-opacity="0" stroke-width="2" fill="#fff" fill-opacity="0"/><g><use xlink:href="#y" transform="matrix(1,0,0,1,699.7969785552383,164.49660416006634) translate(-0.5572727507603226 31.488467180441134)"/></g><path d="M391.5 293c0-4.4 3.6-8 8-8h14c4.43 0 8-3.57 8-8v-14c0-4.4 3.6-8 8-8h44c4.43 0 8 3.6 8 8v14c0 4.43 3.6 8 8 8h14c4.43 0 8 3.6 8 8v44c0 4.43-3.57 8-8 8h-14c-4.4 0-8 3.6-8 8v14c0 4.43-3.57 8-8 8h-44c-4.4 0-8-3.57-8-8v-14c0-4.4-3.57-8-8-8h-14c-4.4 0-8-3.57-8-8z" stroke="#000" stroke-width="4" fill="#ffc374"/><g><use xlink:href="#z" transform="matrix(1,0,0,1,391.51224685204215,255.01460492198584) translate(14.363371792600457 63.49586872176455)"/></g><path d="M802.05 284.77c0-4.42 3.58-8 8-8h20.83c4.42 0 8-3.58 8-8v-22.42c0-4.4 3.58-8 8-8h57.67c4.42 0 8 3.6 8 8v22.42c0 4.42 3.58 8 8 8h20.84c4.4 0 8 3.58 8 8v60.83c0 4.42-3.6 8-8 8h-20.85c-4.42 0-8 3.58-8 8V384c0 4.43-3.58 8-8 8h-57.67c-4.42 0-8-3.57-8-8v-22.4c0-4.42-3.58-8-8-8h-20.83c-4.42 0-8-3.58-8-8z" stroke="#000" stroke-width="4" fill="#3aa6dd"/><g><use xlink:href="#A" transform="matrix(1,0,0,1,802.0481642522248,238.3546775932297) translate(25.112808006318833 79.99586872176455)"/></g><defs><path d="M185-189c-5-48-123-54-124 2 14 75 158 14 163 119 3 78-121 87-175 55-17-10-28-26-33-46l33-7c5 56 141 63 141-1 0-78-155-14-162-118-5-82 145-84 179-34 5 7 8 16 11 25" id="B"/><path d="M59-47c-2 24 18 29 38 22v24C64 9 27 4 27-40v-127H5v-23h24l9-43h21v43h35v23H59v120" id="C"/><path d="M141-36C126-15 110 5 73 4 37 3 15-17 15-53c-1-64 63-63 125-63 3-35-9-54-41-54-24 1-41 7-42 31l-33-3c5-37 33-52 76-52 45 0 72 20 72 64v82c-1 20 7 32 28 27v20c-31 9-61-2-59-35zM48-53c0 20 12 33 32 33 41-3 63-29 60-74-43 2-92-5-92 41" id="D"/><path d="M117-194c89-4 53 116 60 194h-32v-121c0-31-8-49-39-48C34-167 62-67 57 0H25l-1-190h30c1 10-1 24 2 32 11-22 29-35 61-36" id="E"/><g id="a"><use transform="matrix(0.08582346630446551,0,0,0.08582346630446551,0,0)" xlink:href="#B"/><use transform="matrix(0.08582346630446551,0,0,0.08582346630446551,20.597631913071723,0)" xlink:href="#C"/><use transform="matrix(0.08582346630446551,0,0,0.08582346630446551,29.179978543518274,0)" xlink:href="#D"/><use transform="matrix(0.08582346630446551,0,0,0.08582346630446551,46.34467180441138,0)" xlink:href="#E"/></g><path d="M212-179c-10-28-35-45-73-45-59 0-87 40-87 99 0 60 29 101 89 101 43 0 62-24 78-52l27 14C228-24 195 4 139 4 59 4 22-46 18-125c-6-104 99-153 187-111 19 9 31 26 39 46" id="F"/><path d="M24 0v-261h32V0H24" id="G"/><path d="M135-143c-3-34-86-38-87 0 15 53 115 12 119 90S17 21 10-45l28-5c4 36 97 45 98 0-10-56-113-15-118-90-4-57 82-63 122-42 12 7 21 19 24 35" id="H"/><g id="b"><use transform="matrix(0.08582346630446551,0,0,0.08582346630446551,0,0)" xlink:href="#F"/><use transform="matrix(0.08582346630446551,0,0,0.08582346630446551,22.22827777285657,0)" xlink:href="#G"/><use transform="matrix(0.08582346630446551,0,0,0.08582346630446551,29.00833161090934,0)" xlink:href="#D"/><use transform="matrix(0.08582346630446551,0,0,0.08582346630446551,46.17302487180245,0)" xlink:href="#H"/><use transform="matrix(0.08582346630446551,0,0,0.08582346630446551,61.62124880660624,0)" xlink:href="#H"/></g><path d="M24-231v-30h32v30H24zM24 0v-190h32V0H24" id="I"/><path d="M115-194c53 0 69 39 70 98 0 66-23 100-70 100C84 3 66-7 56-30L54 0H23l1-261h32v101c10-23 28-34 59-34zm-8 174c40 0 45-34 45-75 0-40-5-75-45-74-42 0-51 32-51 76 0 43 10 73 51 73" id="J"/><path d="M100-194c63 0 86 42 84 106H49c0 40 14 67 53 68 26 1 43-12 49-29l28 8c-11 28-37 45-77 45C44 4 14-33 15-96c1-61 26-98 85-98zm52 81c6-60-76-77-97-28-3 7-6 17-6 28h103" id="K"/><g id="c"><use transform="matrix(0.08582346630446551,0,0,0.08582346630446551,0,0)" xlink:href="#C"/><use transform="matrix(0.08582346630446551,0,0,0.08582346630446551,8.582346630446551,0)" xlink:href="#I"/><use transform="matrix(0.08582346630446551,0,0,0.08582346630446551,15.362400468499326,0)" xlink:href="#J"/><use transform="matrix(0.08582346630446551,0,0,0.08582346630446551,32.52709372939243,0)" xlink:href="#J"/><use transform="matrix(0.08582346630446551,0,0,0.08582346630446551,49.69178699028554,0)" xlink:href="#G"/><use transform="matrix(0.08582346630446551,0,0,0.08582346630446551,56.47184082833831,0)" xlink:href="#K"/></g><path fill="#fff" d="M30-248c87 1 191-15 191 75 0 78-77 80-158 76V0H30v-248zm33 125c57 0 124 11 124-50 0-59-68-47-124-48v98" id="L"/><path fill="#fff" d="M141-36C126-15 110 5 73 4 37 3 15-17 15-53c-1-64 63-63 125-63 3-35-9-54-41-54-24 1-41 7-42 31l-33-3c5-37 33-52 76-52 45 0 72 20 72 64v82c-1 20 7 32 28 27v20c-31 9-61-2-59-35zM48-53c0 20 12 33 32 33 41-3 63-29 60-74-43 2-92-5-92 41" id="M"/><path fill="#fff" d="M114-163C36-179 61-72 57 0H25l-1-190h30c1 12-1 29 2 39 6-27 23-49 58-41v29" id="N"/><path fill="#fff" d="M100-194c63 0 86 42 84 106H49c0 40 14 67 53 68 26 1 43-12 49-29l28 8c-11 28-37 45-77 45C44 4 14-33 15-96c1-61 26-98 85-98zm52 81c6-60-76-77-97-28-3 7-6 17-6 28h103" id="O"/><path fill="#fff" d="M117-194c89-4 53 116 60 194h-32v-121c0-31-8-49-39-48C34-167 62-67 57 0H25l-1-190h30c1 10-1 24 2 32 11-22 29-35 61-36" id="P"/><path fill="#fff" d="M59-47c-2 24 18 29 38 22v24C64 9 27 4 27-40v-127H5v-23h24l9-43h21v43h35v23H59v120" id="Q"/><g id="d"><use transform="matrix(0.050063688677604884,0,0,0.050063688677604884,0,0)" xlink:href="#L"/><use transform="matrix(0.050063688677604884,0,0,0.050063688677604884,12.015285282625172,0)" xlink:href="#M"/><use transform="matrix(0.050063688677604884,0,0,0.050063688677604884,22.02802301814615,0)" xlink:href="#N"/><use transform="matrix(0.050063688677604884,0,0,0.050063688677604884,27.98560197078113,0)" xlink:href="#O"/><use transform="matrix(0.050063688677604884,0,0,0.050063688677604884,37.99833970630211,0)" xlink:href="#P"/><use transform="matrix(0.050063688677604884,0,0,0.050063688677604884,48.01107744182309,0)" xlink:href="#Q"/></g><path fill="#fff" d="M101-234c-31-9-42 10-38 44h38v23H63V0H32v-167H5v-23h27c-7-52 17-82 69-68v24" id="R"/><path fill="#fff" d="M24-231v-30h32v30H24zM24 0v-190h32V0H24" id="S"/><g id="e"><use transform="matrix(0.050063688677604884,0,0,0.050063688677604884,0,0)" xlink:href="#R"/><use transform="matrix(0.050063688677604884,0,0,0.050063688677604884,5.0063688677604885,0)" xlink:href="#S"/><use transform="matrix(0.050063688677604884,0,0,0.050063688677604884,8.961400273291275,0)" xlink:href="#Q"/></g><path fill="#fff" d="M100-194c62-1 85 37 85 99 1 63-27 99-86 99S16-35 15-95c0-66 28-99 85-99zM99-20c44 1 53-31 53-75 0-43-8-75-51-75s-53 32-53 75 10 74 51 75" id="T"/><path fill="#fff" d="M115-194c53 0 69 39 70 98 0 66-23 100-70 100C84 3 66-7 56-30L54 0H23l1-261h32v101c10-23 28-34 59-34zm-8 174c40 0 45-34 45-75 0-40-5-75-45-74-42 0-51 32-51 76 0 43 10 73 51 73" id="U"/><path fill="#fff" d="M24-231v-30h32v30H24zM-9 49c24 4 33-6 33-30v-209h32V24c2 40-23 58-65 49V49" id="V"/><path fill="#fff" d="M96-169c-40 0-48 33-48 73s9 75 48 75c24 0 41-14 43-38l32 2c-6 37-31 61-74 61-59 0-76-41-82-99-10-93 101-131 147-64 4 7 5 14 7 22l-32 3c-4-21-16-35-41-35" id="W"/><g id="f"><use transform="matrix(0.050063688677604884,0,0,0.050063688677604884,0,0)" xlink:href="#T"/><use transform="matrix(0.050063688677604884,0,0,0.050063688677604884,10.012737735520977,0)" xlink:href="#U"/><use transform="matrix(0.050063688677604884,0,0,0.050063688677604884,20.025475471041954,0)" xlink:href="#V"/><use transform="matrix(0.050063688677604884,0,0,0.050063688677604884,23.98050687657274,0)" xlink:href="#O"/><use transform="matrix(0.050063688677604884,0,0,0.050063688677604884,33.99324461209372,0)" xlink:href="#W"/><use transform="matrix(0.050063688677604884,0,0,0.050063688677604884,43.0047085740626,0)" xlink:href="#Q"/></g><path d="M96-169c-40 0-48 33-48 73s9 75 48 75c24 0 41-14 43-38l32 2c-6 37-31 61-74 61-59 0-76-41-82-99-10-93 101-131 147-64 4 7 5 14 7 22l-32 3c-4-21-16-35-41-35" id="X"/><path d="M106-169C34-169 62-67 57 0H25v-261h32l-1 103c12-21 28-36 61-36 89 0 53 116 60 194h-32v-121c2-32-8-49-39-48" id="Y"/><path d="M85-194c31 0 48 13 60 33l-1-100h32l1 261h-30c-2-10 0-23-3-31C134-8 116 4 85 4 32 4 16-35 15-94c0-66 23-100 70-100zm9 24c-40 0-46 34-46 75 0 40 6 74 45 74 42 0 51-32 51-76 0-42-9-74-50-73" id="Z"/><g id="g"><use transform="matrix(0.050063688677604884,0,0,0.050063688677604884,0,0)" xlink:href="#X"/><use transform="matrix(0.050063688677604884,0,0,0.050063688677604884,9.011463961968879,0)" xlink:href="#Y"/><use transform="matrix(0.050063688677604884,0,0,0.050063688677604884,19.024201697489858,0)" xlink:href="#I"/><use transform="matrix(0.050063688677604884,0,0,0.050063688677604884,22.979233103020643,0)" xlink:href="#G"/><use transform="matrix(0.050063688677604884,0,0,0.050063688677604884,26.93426450855143,0)" xlink:href="#Z"/></g><path d="M27 0v-27h64v-190l-56 39v-29l58-41h29v221h61V0H27" id="aa"/><use transform="matrix(0.050063688677604884,0,0,0.050063688677604884,0,0)" xlink:href="#aa" id="h"/><path d="M210-169c-67 3-38 105-44 169h-31v-121c0-29-5-50-35-48C34-165 62-65 56 0H25l-1-190h30c1 10-1 24 2 32 10-44 99-50 107 0 11-21 27-35 58-36 85-2 47 119 55 194h-31v-121c0-29-5-49-35-48" id="ab"/><path d="M100-194c62-1 85 37 85 99 1 63-27 99-86 99S16-35 15-95c0-66 28-99 85-99zM99-20c44 1 53-31 53-75 0-43-8-75-51-75s-53 32-53 75 10 74 51 75" id="ac"/><g id="i"><use transform="matrix(0.050063688677604884,0,0,0.050063688677604884,0,0)" xlink:href="#ab"/><use transform="matrix(0.050063688677604884,0,0,0.050063688677604884,14.969042914603861,0)" xlink:href="#ac"/><use transform="matrix(0.050063688677604884,0,0,0.050063688677604884,24.98178065012484,0)" xlink:href="#Z"/><use transform="matrix(0.050063688677604884,0,0,0.050063688677604884,34.99451838564582,0)" xlink:href="#K"/><use transform="matrix(0.050063688677604884,0,0,0.050063688677604884,45.0072561211668,0)" xlink:href="#G"/></g><use transform="matrix(0.050063688677604884,0,0,0.050063688677604884,0,0)" xlink:href="#aa" id="j"/><path fill="#fff" d="M106-169C34-169 62-67 57 0H25v-261h32l-1 103c12-21 28-36 61-36 89 0 53 116 60 194h-32v-121c2-32-8-49-39-48" id="ad"/><path fill="#fff" d="M24 0v-261h32V0H24" id="ae"/><path fill="#fff" d="M85-194c31 0 48 13 60 33l-1-100h32l1 261h-30c-2-10 0-23-3-31C134-8 116 4 85 4 32 4 16-35 15-94c0-66 23-100 70-100zm9 24c-40 0-46 34-46 75 0 40 6 74 45 74 42 0 51-32 51-76 0-42-9-74-50-73" id="af"/><g id="k"><use transform="matrix(0.050063688677604884,0,0,0.050063688677604884,0,0)" xlink:href="#W"/><use transform="matrix(0.050063688677604884,0,0,0.050063688677604884,9.011463961968879,0)" xlink:href="#ad"/><use transform="matrix(0.050063688677604884,0,0,0.050063688677604884,19.024201697489858,0)" xlink:href="#S"/><use transform="matrix(0.050063688677604884,0,0,0.050063688677604884,22.979233103020643,0)" xlink:href="#ae"/><use transform="matrix(0.050063688677604884,0,0,0.050063688677604884,26.93426450855143,0)" xlink:href="#af"/></g><path fill="#fff" d="M27 0v-27h64v-190l-56 39v-29l58-41h29v221h61V0H27" id="ag"/><use transform="matrix(0.050063688677604884,0,0,0.050063688677604884,0,0)" xlink:href="#ag" id="l"/><path fill="#fff" d="M101-251c82-7 93 87 43 132L82-64C71-53 59-42 53-27h129V0H18c2-99 128-94 128-182 0-28-16-43-45-43s-46 15-49 41l-32-3c6-41 34-60 81-64" id="ah"/><use transform="matrix(0.050063688677604884,0,0,0.050063688677604884,0,0)" xlink:href="#ah" id="m"/><path fill="#fff" d="M126-127c33 6 58 20 58 59 0 88-139 92-164 29-3-8-5-16-6-25l32-3c6 27 21 44 54 44 32 0 52-15 52-46 0-38-36-46-79-43v-28c39 1 72-4 72-42 0-27-17-43-46-43-28 0-47 15-49 41l-32-3c6-42 35-63 81-64 48-1 79 21 79 65 0 36-21 52-52 59" id="ai"/><use transform="matrix(0.050063688677604884,0,0,0.050063688677604884,0,0)" xlink:href="#ai" id="n"/><path d="M101-251c82-7 93 87 43 132L82-64C71-53 59-42 53-27h129V0H18c2-99 128-94 128-182 0-28-16-43-45-43s-46 15-49 41l-32-3c6-41 34-60 81-64" id="aj"/><use transform="matrix(0.050063688677604884,0,0,0.050063688677604884,0,0)" xlink:href="#aj" id="o"/><path d="M126-127c33 6 58 20 58 59 0 88-139 92-164 29-3-8-5-16-6-25l32-3c6 27 21 44 54 44 32 0 52-15 52-46 0-38-36-46-79-43v-28c39 1 72-4 72-42 0-27-17-43-46-43-28 0-47 15-49 41l-32-3c6-42 35-63 81-64 48-1 79 21 79 65 0 36-21 52-52 59" id="ak"/><use transform="matrix(0.050063688677604884,0,0,0.050063688677604884,0,0)" xlink:href="#ak" id="p"/><path fill="#fff" d="M155-56V0h-30v-56H8v-25l114-167h33v167h35v25h-35zm-30-156c-27 46-58 90-88 131h88v-131" id="al"/><use transform="matrix(0.050063688677604884,0,0,0.050063688677604884,0,0)" xlink:href="#al" id="q"/><path d="M155-56V0h-30v-56H8v-25l114-167h33v167h35v25h-35zm-30-156c-27 46-58 90-88 131h88v-131" id="am"/><use transform="matrix(0.050063688677604884,0,0,0.050063688677604884,0,0)" xlink:href="#am" id="r"/><path d="M33 0v-38h34V0H33" id="an"/><g id="s"><use transform="matrix(0.050063688677604884,0,0,0.050063688677604884,0,0)" xlink:href="#an"/><use transform="matrix(0.050063688677604884,0,0,0.050063688677604884,5.0063688677604885,0)" xlink:href="#an"/><use transform="matrix(0.050063688677604884,0,0,0.050063688677604884,10.012737735520977,0)" xlink:href="#an"/></g><use transform="matrix(0.050063688677604884,0,0,0.050063688677604884,0,0)" xlink:href="#am" id="t"/><g id="u"><use transform="matrix(0.050063688677604884,0,0,0.050063688677604884,0,0)" xlink:href="#ab"/><use transform="matrix(0.050063688677604884,0,0,0.050063688677604884,14.969042914603861,0)" xlink:href="#ac"/><use transform="matrix(0.050063688677604884,0,0,0.050063688677604884,24.98178065012484,0)" xlink:href="#Z"/><use transform="matrix(0.050063688677604884,0,0,0.050063688677604884,34.99451838564582,0)" xlink:href="#K"/><use transform="matrix(0.050063688677604884,0,0,0.050063688677604884,45.0072561211668,0)" xlink:href="#G"/></g><use transform="matrix(0.050063688677604884,0,0,0.050063688677604884,0,0)" xlink:href="#aj" id="v"/><use transform="matrix(0.050063688677604884,0,0,0.050063688677604884,0,0)" xlink:href="#ak" id="w"/><path d="M135-194c53 0 70 44 70 98 0 56-19 98-73 100-31 1-45-17-59-34 3 33 2 69 2 105H25l-1-265h48c2 10 0 23 3 31 11-24 29-35 60-35zM114-30c33 0 39-31 40-66 0-38-9-64-40-64-56 0-55 130 0 130" id="ao"/><path d="M85 4C-2 5 27-109 22-190h50c7 57-23 150 33 157 60-5 35-97 40-157h50l1 190h-47c-2-12 1-28-3-38-12 25-28 42-61 42" id="ap"/><path d="M135-150c-39-12-60 13-60 57V0H25l-1-190h47c2 13-1 29 3 40 6-28 27-53 61-41v41" id="aq"/><path d="M35-132v-50h50v50H35zM35 0v-49h50V0H35" id="ar"/><path d="M220-157c-53 9-28 100-34 157h-49v-107c1-27-5-49-29-50C55-147 81-57 75 0H25l-1-190h47c2 12-1 28 3 38 10-53 101-56 108 0 13-22 24-43 59-42 82 1 51 116 57 194h-49v-107c-1-25-5-48-29-50" id="as"/><path d="M133-34C117-15 103 5 69 4 32 3 11-16 11-54c-1-60 55-63 116-61 1-26-3-47-28-47-18 1-26 9-28 27l-52-2c7-38 36-58 82-57s74 22 75 68l1 82c-1 14 12 18 25 15v27c-30 8-71 5-69-32zm-48 3c29 0 43-24 42-57-32 0-66-3-65 30 0 17 8 27 23 27" id="at"/><g id="x"><use transform="matrix(0.06436759972834913,0,0,0.06436759972834913,0,0)" xlink:href="#ao"/><use transform="matrix(0.06436759972834913,0,0,0.06436759972834913,14.09650434050846,0)" xlink:href="#ap"/><use transform="matrix(0.06436759972834913,0,0,0.06436759972834913,28.19300868101692,0)" xlink:href="#aq"/><use transform="matrix(0.06436759972834913,0,0,0.06436759972834913,37.2044726429858,0)" xlink:href="#aq"/><use transform="matrix(0.06436759972834913,0,0,0.06436759972834913,46.21593660495468,0)" xlink:href="#aq"/><use transform="matrix(0.06436759972834913,0,0,0.06436759972834913,55.227400566923556,0)" xlink:href="#ar"/><use transform="matrix(0.06436759972834913,0,0,0.06436759972834913,62.8871449345971,0)" xlink:href="#ar"/><use transform="matrix(0.06436759972834913,0,0,0.06436759972834913,70.54688930227064,0)" xlink:href="#as"/><use transform="matrix(0.06436759972834913,0,0,0.06436759972834913,91.14452121534237,0)" xlink:href="#at"/><use transform="matrix(0.06436759972834913,0,0,0.06436759972834913,104.01804116101219,0)" xlink:href="#ao"/></g><g id="y"><use transform="matrix(0.06436759972834913,0,0,0.06436759972834913,0,0)" xlink:href="#ao"/><use transform="matrix(0.06436759972834913,0,0,0.06436759972834913,14.09650434050846,0)" xlink:href="#ap"/><use transform="matrix(0.06436759972834913,0,0,0.06436759972834913,28.19300868101692,0)" xlink:href="#aq"/><use transform="matrix(0.06436759972834913,0,0,0.06436759972834913,37.2044726429858,0)" xlink:href="#aq"/><use transform="matrix(0.06436759972834913,0,0,0.06436759972834913,46.21593660495468,0)" xlink:href="#aq"/><use transform="matrix(0.06436759972834913,0,0,0.06436759972834913,55.227400566923556,0)" xlink:href="#ar"/><use transform="matrix(0.06436759972834913,0,0,0.06436759972834913,62.8871449345971,0)" xlink:href="#ar"/><use transform="matrix(0.06436759972834913,0,0,0.06436759972834913,70.54688930227064,0)" xlink:href="#as"/><use transform="matrix(0.06436759972834913,0,0,0.06436759972834913,91.14452121534237,0)" xlink:href="#at"/><use transform="matrix(0.06436759972834913,0,0,0.06436759972834913,104.01804116101219,0)" xlink:href="#ao"/></g><path d="M114-163C36-179 61-72 57 0H25l-1-190h30c1 12-1 29 2 39 6-27 23-49 58-41v29" id="au"/><g id="z"><use transform="matrix(0.06436759972834913,0,0,0.06436759972834913,0,0)" xlink:href="#H"/><use transform="matrix(0.06436759972834913,0,0,0.06436759972834913,11.586167951102842,0)" xlink:href="#Y"/><use transform="matrix(0.06436759972834913,0,0,0.06436759972834913,24.459687896772667,0)" xlink:href="#au"/><use transform="matrix(0.06436759972834913,0,0,0.06436759972834913,32.11943226444622,0)" xlink:href="#K"/><use transform="matrix(0.06436759972834913,0,0,0.06436759972834913,44.992952210116044,0)" xlink:href="#Z"/><use transform="matrix(0.06436759972834913,0,0,0.06436759972834913,57.86647215578587,0)" xlink:href="#Z"/><use transform="matrix(0.06436759972834913,0,0,0.06436759972834913,70.7399921014557,0)" xlink:href="#K"/><use transform="matrix(0.06436759972834913,0,0,0.06436759972834913,83.61351204712552,0)" xlink:href="#au"/></g><path fill="#fff" d="M179-190L93 31C79 59 56 82 12 73V49c39 6 53-20 64-50L1-190h34L92-34l54-156h33" id="av"/><path fill="#fff" d="M135-143c-3-34-86-38-87 0 15 53 115 12 119 90S17 21 10-45l28-5c4 36 97 45 98 0-10-56-113-15-118-90-4-57 82-63 122-42 12 7 21 19 24 35" id="aw"/><g id="A"><use transform="matrix(0.06436759972834913,0,0,0.06436759972834913,0,0)" xlink:href="#Q"/><use transform="matrix(0.06436759972834913,0,0,0.06436759972834913,6.4367599728349125,0)" xlink:href="#S"/><use transform="matrix(0.06436759972834913,0,0,0.06436759972834913,11.521800351374495,0)" xlink:href="#af"/><use transform="matrix(0.06436759972834913,0,0,0.06436759972834913,24.39532029704432,0)" xlink:href="#av"/><use transform="matrix(0.06436759972834913,0,0,0.06436759972834913,35.981488248147166,0)" xlink:href="#U"/><use transform="matrix(0.06436759972834913,0,0,0.06436759972834913,48.85500819381699,0)" xlink:href="#M"/><use transform="matrix(0.06436759972834913,0,0,0.06436759972834913,61.72852813948682,0)" xlink:href="#av"/><use transform="matrix(0.06436759972834913,0,0,0.06436759972834913,73.31469609058966,0)" xlink:href="#O"/><use transform="matrix(0.06436759972834913,0,0,0.06436759972834913,86.18821603625949,0)" xlink:href="#aw"/></g></defs></g></svg>